<?xml version="1.0" encoding="utf-8"?>
<svg id="master-artboard" viewBox="0 0 1400 980" version="1.1" xmlns="http://www.w3.org/2000/svg" x="0px" y="0px" style="enable-background:new 0 0 1400 980;" width="1400px" height="980px"><defs><style id="ee-google-fonts">@import url(https://fonts.googleapis.com/css?family=Anton:400|Roboto+Slab:100,300,400,700);</style><path id="text-path-0" d="M 778.8464965820312 213.4612274169922 A 100 18 0 0 1 988.3533935546875 213.4612274169922 A 100 18 0 0 1 778.8464965820312 213.4612274169922 Z" style="fill: none; stroke: red; stroke-width: 2;"/><path id="text-path-1" d="M 664.5464477539062 37.96122741699219 A 100 19 0 0 1 876.5812377929688 37.96122741699219 A 100 19 0 0 1 664.5464477539062 37.96122741699219" style="fill: none; stroke: red; stroke-width: 2;"/><path id="text-path-2" d="M 765.3650512695312 211.70851135253906 A 100 17 0 0 1 991.5017700195312 211.70851135253906 A 100 17 0 0 1 765.3650512695312 211.70851135253906" style="fill: none; stroke: red; stroke-width: 2;"/><path id="path-1" d="M 765.3650512695312 211.70851135253906 A 100 17 0 0 1 991.5017700195312 211.70851135253906 A 100 17 0 0 1 765.3650512695312 211.70851135253906" style="fill: none; stroke: red; stroke-width: 2;"/><clipPath id="clipEmfPath1" clipPathUnits="userSpaceOnUse">
      <path id="path2" d="  M 161.27881,262.31806   C 160.87881,262.31806 160.63881,262.15806 160.39881,261.83806   C 160.15881,261.51806 160.07881,261.11807 160.07881,260.55807   L 160.07881,254.15812   L 161.11881,254.15812   L 161.11881,260.39807   C 161.11881,260.79807 161.11881,261.03807 161.27881,261.27806   C 161.3588,261.43806 161.5988,261.51806 161.8388,261.51806   C 162.3188,261.51806 162.79879,261.19807 163.27879,260.71807   L 163.27879,254.15812   L 164.23878,254.15812   L 164.23878,262.15806   L 163.27879,262.15806   L 163.27879,261.27806   C 162.6388,261.91806 161.9988,262.31806 161.27881,262.31806 "/>
    </clipPath><clipPath id="clipEmfPath2" clipPathUnits="userSpaceOnUse">
      <path id="path5" d="  M 152.47887,295.43781   C 151.75888,295.43781 151.19888,295.19781 150.79888,294.71782   C 150.47889,294.23782 150.31889,293.43783 150.31889,292.31783   L 150.31889,290.31785   C 150.31889,289.51786 150.39889,288.87786 150.55888,288.47786   C 150.71888,287.99787 150.95888,287.67787 151.27888,287.51787   C 151.59888,287.27787 151.99887,287.19787 152.47887,287.19787   C 152.79887,287.19787 153.11887,287.27787 153.35886,287.35787   C 153.59886,287.43787 153.75886,287.51787 153.91886,287.75787   C 154.07886,287.91787 154.23886,288.07787 154.31886,288.39786   C 154.39886,288.63786 154.47886,288.95786 154.47886,289.27786   C 154.55886,289.59785 154.55886,289.99785 154.55886,290.47785   L 154.55886,291.19784   L 151.35888,291.19784   L 151.35888,292.39783   C 151.35888,293.27783 151.43888,293.83782 151.59888,294.15782   C 151.75888,294.47782 151.99887,294.71782 152.47887,294.71782   C 152.79887,294.71782 153.11887,294.55782 153.27886,294.31782   C 153.43886,294.15782 153.59886,293.75782 153.59886,293.11783   L 153.59886,292.55783   L 154.55886,292.55783   L 154.55886,293.03783   C 154.55886,293.83782 154.39886,294.39782 154.07886,294.79782   C 153.75886,295.19781 153.19887,295.43781 152.47887,295.43781   L 152.47887,295.43781   M 151.59888,288.39786   C 151.43888,288.71786 151.35888,289.27786 151.35888,290.07785   L 151.35888,290.63785   L 153.59886,290.63785   L 153.59886,289.99785   C 153.59886,289.67785 153.59886,289.43786 153.51886,289.27786   C 153.51886,289.11786 153.51886,288.95786 153.43886,288.71786   C 153.43886,288.55786 153.35886,288.39786 153.27886,288.31786   C 153.19887,288.23786 153.11887,288.15787 152.95887,288.07787   C 152.79887,287.99787 152.63887,287.99787 152.47887,287.99787   C 152.07887,287.99787 151.75888,288.15787 151.59888,288.39786   M 142.87894,295.43781   C 142.39895,295.43781 142.07895,295.35781 141.83895,295.27781   C 141.51895,295.11781 141.27895,294.95782 141.11895,294.63782   C 140.95896,294.39782 140.87896,294.07782 140.79896,293.75782   C 140.71896,293.35783 140.71896,292.95783 140.71896,292.39783   L 140.71896,290.23785   C 140.71896,289.19786 140.87896,288.47786 141.19895,287.91787   C 141.51895,287.43787 142.07895,287.19787 142.87894,287.19787   C 143.59894,287.19787 144.15893,287.43787 144.47893,287.91787   C 144.79893,288.47786 144.95893,289.19786 144.95893,290.23785   L 144.95893,292.39783   C 144.95893,292.95783 144.95893,293.35783 144.87893,293.75782   C 144.79893,294.07782 144.71893,294.39782 144.55893,294.63782   C 144.39893,294.95782 144.15893,295.11781 143.83893,295.27781   C 143.59894,295.35781 143.27894,295.43781 142.87894,295.43781   L 142.87894,295.43781   M 142.39895,287.99787   C 142.23895,288.07787 142.15895,288.15787 142.07895,288.23786   L 141.91895,288.55786   C 141.83895,288.71786 141.83895,288.87786 141.75895,289.03786   C 141.75895,289.19786 141.75895,289.35786 141.75895,289.51786   C 141.75895,289.67785 141.67895,289.91785 141.67895,290.15785   L 141.67895,292.47783   C 141.67895,292.71783 141.75895,292.95783 141.75895,293.11783   C 141.75895,293.27783 141.75895,293.43783 141.75895,293.59783   C 141.83895,293.83782 141.83895,293.99782 141.91895,294.07782   L 142.07895,294.39782   C 142.15895,294.47782 142.23895,294.55782 142.39895,294.63782   C 142.55894,294.63782 142.63894,294.71782 142.87894,294.71782   C 143.03894,294.71782 143.19894,294.63782 143.35894,294.55782   C 143.51894,294.47782 143.59894,294.39782 143.67894,294.31782   C 143.75894,294.15782 143.83893,293.99782 143.83893,293.83782   C 143.91893,293.59783 143.91893,293.43783 143.91893,293.19783   C 143.91893,293.03783 143.91893,292.79783 143.91893,292.47783   L 143.91893,290.15785   C 143.91893,289.83785 143.91893,289.59785 143.91893,289.43786   C 143.91893,289.27786 143.91893,289.03786 143.83893,288.87786   C 143.83893,288.63786 143.75894,288.47786 143.67894,288.39786   C 143.59894,288.23786 143.51894,288.15787 143.35894,288.07787   C 143.19894,287.99787 143.03894,287.99787 142.87894,287.99787   C 142.63894,287.99787 142.55894,287.99787 142.39895,287.99787   z  M 137.59898,295.43781   C 137.03898,295.43781 136.55899,295.19781 136.15899,294.71782   L 136.15899,295.35781   L 135.119,295.35781   L 135.119,284.1579   L 136.15899,284.1579   L 136.15899,287.99787   C 136.55899,287.43787 137.03898,287.19787 137.67898,287.19787   C 137.99898,287.19787 138.23898,287.27787 138.47897,287.43787   C 138.63897,287.51787 138.79897,287.67787 138.95897,287.83787   C 139.11897,288.07787 139.19897,288.31786 139.27897,288.55786   C 139.35897,288.87786 139.43897,289.19786 139.43897,289.43786   C 139.43897,289.75785 139.43897,290.07785 139.43897,290.39785   L 139.43897,292.07784   C 139.43897,292.47783 139.43897,292.87783 139.43897,293.19783   C 139.35897,293.51783 139.27897,293.83782 139.19897,294.15782   C 139.11897,294.39782 139.03897,294.63782 138.87897,294.87782   C 138.71897,295.03781 138.55897,295.19781 138.31898,295.27781   C 138.07898,295.35781 137.83898,295.43781 137.59898,295.43781   L 137.59898,295.43781   z  M 136.15899,288.63786   L 136.15899,294.07782   C 136.47899,294.47782 136.95899,294.63782 137.35898,294.63782   C 137.83898,294.63782 138.07898,294.47782 138.23898,294.07782   C 138.39897,293.67782 138.47897,293.03783 138.47897,292.07784   L 138.47897,290.39785   C 138.47897,289.51786 138.39897,288.95786 138.23898,288.55786   C 138.07898,288.15787 137.83898,287.99787 137.35898,287.99787   C 136.95899,287.99787 136.55899,288.23786 136.15899,288.63786   M 131.03903,295.43781   C 130.55903,295.43781 130.15904,295.27781 129.83904,294.95782   C 129.59904,294.55782 129.43904,294.15782 129.43904,293.67782   C 129.43904,293.35783 129.43904,293.11783 129.51904,292.95783   C 129.51904,292.71783 129.59904,292.55783 129.75904,292.31783   C 129.83904,292.15784 129.99904,291.99784 130.15904,291.83784   C 130.31903,291.75784 130.47903,291.59784 130.71903,291.43784   C 131.03903,291.27784 131.27903,291.11784 131.59903,290.95784   C 131.83902,290.79785 132.15902,290.63785 132.63902,290.47785   L 132.63902,289.91785   C 132.63902,289.19786 132.55902,288.63786 132.39902,288.39786   C 132.23902,288.07787 131.99902,287.99787 131.67902,287.99787   C 130.87903,287.99787 130.55903,288.39786 130.55903,289.35786   L 130.55903,289.59785   L 129.51904,289.59785   C 129.51904,289.43786 129.51904,289.35786 129.51904,289.35786   C 129.59904,288.63786 129.75904,288.07787 130.15904,287.75787   C 130.47903,287.35787 131.03903,287.19787 131.67902,287.19787   C 132.39902,287.19787 132.87902,287.43787 133.19901,287.83787   C 133.51901,288.23786 133.59901,288.95786 133.59901,289.83785   L 133.59901,293.75782   C 133.59901,294.39782 133.67901,294.87782 133.67901,295.35781   L 132.79902,295.35781   L 132.63902,294.23782   C 132.55902,294.55782 132.31902,294.87782 132.07902,295.11781   C 131.75902,295.35781 131.43903,295.43781 131.03903,295.43781   L 131.03903,295.43781   M 132.47902,291.19784   C 132.23902,291.35784 132.07902,291.43784 131.99902,291.51784   C 131.91902,291.51784 131.75902,291.59784 131.59903,291.75784   C 131.35903,291.83784 131.27903,291.91784 131.19903,291.91784   L 130.87903,292.15784   L 130.71903,292.47783   L 130.55903,292.71783   L 130.47903,293.03783   C 130.39903,293.11783 130.39903,293.27783 130.39903,293.43783   C 130.39903,293.83782 130.47903,294.07782 130.71903,294.31782   C 130.87903,294.47782 131.03903,294.55782 131.35903,294.55782   C 131.59903,294.55782 131.83902,294.47782 132.07902,294.31782   C 132.31902,294.07782 132.47902,293.91782 132.63902,293.59783   L 132.63902,291.11784   L 132.47902,291.19784   z  M 114.71915,294.95782   C 114.47915,294.71782 114.39915,294.23782 114.39915,293.75782   L 114.39915,287.35787   L 115.43914,287.35787   L 115.43914,293.51783   C 115.43914,293.91782 115.51914,294.23782 115.59914,294.39782   C 115.75914,294.55782 115.91914,294.63782 116.15914,294.63782   C 116.63914,294.63782 117.11913,294.39782 117.59913,293.83782   L 117.59913,287.35787   L 118.63912,287.35787   L 118.63912,295.35781   L 117.59913,295.35781   L 117.59913,294.39782   C 117.03913,295.11781 116.31914,295.43781 115.67914,295.43781   C 115.27915,295.43781 114.95915,295.27781 114.71915,294.95782   M 120.9591,294.95782   C 120.71911,294.63782 120.63911,294.23782 120.63911,293.67782   L 120.63911,287.99787   L 119.67911,287.99787   L 119.67911,287.35787   L 120.63911,287.35787   L 120.63911,284.87789   L 121.5991,284.87789   L 121.5991,287.35787   L 122.95909,287.35787   L 122.95909,287.99787   L 121.5991,287.99787   L 121.5991,293.59783   C 121.5991,293.99782 121.6791,294.23782 121.7591,294.39782   C 121.8391,294.55782 122.0791,294.63782 122.31909,294.63782   C 122.47909,294.63782 122.71909,294.63782 122.87909,294.55782   L 122.87909,295.35781   C 122.63909,295.35781 122.31909,295.43781 122.0791,295.43781   C 121.5191,295.43781 121.1191,295.27781 120.9591,294.95782   M 146.47891,295.35781   L 146.47891,287.35787   L 147.43891,287.35787   L 147.43891,288.39786   C 147.67891,287.99787 147.9989,287.75787 148.3189,287.51787   C 148.6389,287.35787 148.9589,287.27787 149.27889,287.27787   L 149.43889,287.27787   L 149.43889,288.31786   C 149.35889,288.31786 149.19889,288.23786 148.9589,288.23786   C 148.3189,288.23786 147.8389,288.55786 147.43891,289.19786   L 147.43891,295.35781   L 146.47891,295.35781   M 126.95906,295.35781   L 126.95906,284.1579   L 127.99905,284.1579   L 127.99905,295.35781   L 126.95906,295.35781   z  M 129.27904,279.91793   C 129.51904,279.75793 129.67904,279.59793 129.83904,279.43793   C 129.91904,279.27793 129.99904,279.03793 129.99904,278.71794   L 129.35904,278.71794   L 129.35904,277.19795   L 130.47903,277.19795   L 130.47903,278.63794   C 130.47903,279.11793 130.39903,279.43793 130.31903,279.67793   C 130.15904,279.99793 129.83904,280.15792 129.51904,280.31792   L 129.27904,279.91793   z  M 153.99886,278.07794   C 153.67886,277.59794 153.51886,276.71795 153.51886,275.51796   L 153.51886,274.07797   C 153.51886,273.59797 153.59886,273.19798 153.59886,272.87798   C 153.59886,272.55798 153.67886,272.23798 153.75886,271.91799   C 153.83886,271.67799 153.99886,271.43799 154.07886,271.19799   C 154.23886,271.03799 154.39886,270.87799 154.63885,270.79799   C 154.87885,270.71799 155.11885,270.638 155.43885,270.638   C 155.99884,270.638 156.39884,270.87799 156.79884,271.35799   L 156.79884,267.59802   L 157.83883,267.59802   L 157.83883,278.71794   L 156.79884,278.71794   L 156.79884,278.15794   C 156.47884,278.63794 155.99884,278.87793 155.51885,278.87793   C 154.79885,278.87793 154.31886,278.63794 153.99886,278.07794   M 154.79885,271.99799   C 154.63885,272.31798 154.55886,272.87798 154.55886,273.75797   L 154.55886,275.59796   C 154.55886,276.47795 154.63885,277.11795 154.79885,277.51794   C 154.95885,277.83794 155.27885,278.07794 155.67885,278.07794   C 156.07884,278.07794 156.47884,277.91794 156.79884,277.51794   L 156.79884,271.99799   C 156.47884,271.59799 156.07884,271.43799 155.67885,271.43799   C 155.19885,271.43799 154.95885,271.59799 154.79885,271.99799   M 145.51892,278.07794   C 145.19892,277.59794 145.03893,276.71795 145.03893,275.51796   L 145.03893,274.07797   C 145.03893,273.59797 145.03893,273.19798 145.03893,272.87798   C 145.11893,272.55798 145.19892,272.23798 145.27892,271.91799   C 145.35892,271.67799 145.43892,271.43799 145.59892,271.19799   C 145.75892,271.03799 145.91892,270.87799 146.15892,270.79799   C 146.31892,270.71799 146.63891,270.638 146.87891,270.638   C 147.43891,270.638 147.9189,270.87799 148.3189,271.35799   L 148.3189,267.59802   L 149.35889,267.59802   L 149.35889,278.71794   L 148.3189,278.71794   L 148.3189,278.15794   C 147.9189,278.63794 147.43891,278.87793 146.95891,278.87793   C 146.23892,278.87793 145.75892,278.63794 145.51892,278.07794   M 146.23892,271.99799   C 146.15892,272.31798 145.99892,272.87798 145.99892,273.75797   L 145.99892,275.59796   C 145.99892,276.47795 146.15892,277.11795 146.23892,277.51794   C 146.39892,277.83794 146.71891,278.07794 147.19891,278.07794   C 147.51891,278.07794 147.9189,277.91794 148.3189,277.51794   L 148.3189,271.99799   C 147.9189,271.59799 147.51891,271.43799 147.11891,271.43799   C 146.71891,271.43799 146.39892,271.59799 146.23892,271.99799   M 140.07896,278.15794   C 139.75896,277.67794 139.59897,276.87795 139.59897,275.75796   L 139.59897,273.75797   C 139.59897,272.95798 139.67897,272.31798 139.83896,271.83799   C 139.99896,271.43799 140.23896,271.11799 140.47896,270.87799   C 140.79896,270.71799 141.19895,270.638 141.75895,270.638   C 142.07895,270.638 142.39895,270.71799 142.63894,270.79799   C 142.87894,270.87799 143.03894,270.95799 143.19894,271.11799   C 143.35894,271.27799 143.51894,271.51799 143.59894,271.83799   C 143.67894,272.07798 143.75894,272.39798 143.75894,272.71798   C 143.83893,273.03798 143.83893,273.43797 143.83893,273.91797   L 143.83893,274.63797   L 140.55896,274.63797   L 140.55896,275.83796   C 140.55896,276.63795 140.63896,277.27795 140.79896,277.59794   C 140.95896,277.91794 141.27895,278.07794 141.75895,278.07794   C 142.07895,278.07794 142.31895,277.99794 142.55894,277.75794   C 142.71894,277.59794 142.79894,277.11795 142.79894,276.55795   L 142.79894,275.99796   L 143.83893,275.99796   L 143.83893,276.47795   C 143.83893,277.19795 143.67894,277.83794 143.35894,278.23794   C 143.03894,278.63794 142.47894,278.87793 141.75895,278.87793   C 140.95896,278.87793 140.39896,278.63794 140.07896,278.15794   M 140.87896,271.83799   C 140.63896,272.15798 140.55896,272.71798 140.55896,273.51797   L 140.55896,274.07797   L 142.79894,274.07797   L 142.79894,273.43797   C 142.79894,273.11798 142.79894,272.87798 142.79894,272.71798   C 142.79894,272.55798 142.79894,272.31798 142.71894,272.15798   C 142.63894,271.99799 142.63894,271.83799 142.55894,271.75799   C 142.47894,271.59799 142.31895,271.51799 142.23895,271.51799   C 142.07895,271.43799 141.91895,271.35799 141.75895,271.35799   C 141.27895,271.35799 141.03896,271.51799 140.87896,271.83799   M 135.039,278.23794   C 134.639,277.83794 134.399,277.27795 134.399,276.63795   L 135.199,276.31795   C 135.279,276.95795 135.439,277.35795 135.599,277.67794   C 135.83899,277.99794 136.15899,278.07794 136.55899,278.07794   C 136.95899,278.07794 137.19898,277.99794 137.43898,277.83794   C 137.59898,277.59794 137.67898,277.35795 137.67898,277.03795   L 137.67898,276.95795   C 137.67898,276.39795 137.35898,275.91796 136.71899,275.35796   L 135.67899,274.47797   C 135.279,274.15797 134.959,273.83797 134.799,273.51797   C 134.639,273.19798 134.559,272.87798 134.559,272.47798   C 134.559,271.91799 134.719,271.43799 135.119,271.11799   C 135.439,270.79799 135.91899,270.638 136.47899,270.638   C 137.03898,270.638 137.51898,270.79799 137.83898,271.19799   C 138.15898,271.59799 138.31898,272.07798 138.31898,272.71798   L 137.59898,272.95798   C 137.59898,272.39798 137.51898,272.07798 137.27898,271.75799   C 137.11898,271.51799 136.87899,271.35799 136.47899,271.35799   C 136.15899,271.35799 135.91899,271.43799 135.75899,271.67799   C 135.599,271.83799 135.439,272.07798 135.439,272.31798   C 135.439,272.63798 135.519,272.79798 135.599,273.03798   C 135.67899,273.19798 135.83899,273.43797 136.15899,273.59797   L 137.27898,274.63797   C 137.43898,274.79796 137.59898,274.95796 137.75898,275.11796   C 137.83898,275.19796 137.99898,275.35796 138.15898,275.59796   C 138.31898,275.75796 138.39897,275.99796 138.47897,276.23795   C 138.55897,276.47795 138.55897,276.71795 138.55897,276.95795   C 138.55897,277.59794 138.39897,278.07794 137.99898,278.39794   C 137.67898,278.71794 137.19898,278.87793 136.55899,278.87793   C 135.91899,278.87793 135.439,278.63794 135.039,278.23794   M 114.79915,278.15794   C 114.47915,277.67794 114.31915,276.87795 114.31915,275.75796   L 114.31915,273.75797   C 114.31915,272.95798 114.39915,272.31798 114.55915,271.83799   C 114.71915,271.43799 114.95915,271.11799 115.27915,270.87799   C 115.59914,270.71799 115.99914,270.638 116.47914,270.638   C 116.79913,270.638 117.11913,270.71799 117.35913,270.79799   C 117.59913,270.87799 117.75913,270.95799 117.91913,271.11799   C 118.07913,271.27799 118.23912,271.51799 118.31912,271.83799   C 118.39912,272.07798 118.47912,272.39798 118.47912,272.71798   C 118.55912,273.03798 118.55912,273.43797 118.55912,273.91797   L 118.55912,274.63797   L 115.35915,274.63797   L 115.35915,275.83796   C 115.35915,276.63795 115.43914,277.27795 115.59914,277.59794   C 115.75914,277.91794 115.99914,278.07794 116.47914,278.07794   C 116.79913,278.07794 117.11913,277.99794 117.27913,277.75794   C 117.43913,277.59794 117.59913,277.11795 117.59913,276.55795   L 117.59913,275.99796   L 118.55912,275.99796   L 118.55912,276.47795   C 118.55912,277.19795 118.39912,277.83794 118.07913,278.23794   C 117.75913,278.63794 117.19913,278.87793 116.47914,278.87793   C 115.67914,278.87793 115.19915,278.63794 114.79915,278.15794   M 115.59914,271.83799   C 115.43914,272.15798 115.35915,272.71798 115.35915,273.51797   L 115.35915,274.07797   L 117.59913,274.07797   L 117.59913,273.43797   C 117.59913,273.11798 117.59913,272.87798 117.51913,272.71798   C 117.51913,272.55798 117.51913,272.31798 117.43913,272.15798   C 117.43913,271.99799 117.35913,271.83799 117.27913,271.75799   C 117.19913,271.59799 117.11913,271.51799 116.95913,271.51799   C 116.79913,271.43799 116.63914,271.35799 116.47914,271.35799   C 116.07914,271.35799 115.75914,271.51799 115.59914,271.83799   M 126.31906,278.39794   C 126.07907,278.07794 125.99907,277.67794 125.99907,277.11795   L 125.99907,271.43799   L 125.03907,271.43799   L 125.03907,270.71799   L 125.99907,270.71799   L 125.99907,268.31801   L 126.95906,268.31801   L 126.95906,270.71799   L 128.31905,270.71799   L 128.31905,271.43799   L 126.95906,271.43799   L 126.95906,276.95795   C 126.95906,277.35795 127.03906,277.67794 127.11906,277.83794   C 127.19906,277.99794 127.43906,278.07794 127.67905,278.07794   C 127.91905,278.07794 128.07905,277.99794 128.31905,277.99794   L 128.31905,278.79793   C 127.99905,278.79793 127.67905,278.87793 127.43906,278.87793   C 126.87906,278.87793 126.47906,278.71794 126.31906,278.39794   M 122.79909,278.71794   L 122.79909,270.71799   L 123.83908,270.71799   L 123.83908,278.71794   L 122.79909,278.71794   z  M 120.07911,278.71794   L 120.07911,267.59802   L 121.1191,267.59802   L 121.1191,278.71794   L 120.07911,278.71794   z  M 122.79909,269.678   L 122.79909,268.31801   L 123.83908,268.31801   L 123.83908,269.678   L 122.79909,269.678   z  M 149.35889,264.79804   L 149.35889,254.15812   L 150.39889,254.15812   L 150.39889,254.87811   C 150.79888,254.31812 151.27888,254.07812 151.91887,254.07812   C 152.23887,254.07812 152.47887,254.15812 152.71887,254.23812   C 152.87887,254.39812 153.11887,254.55811 153.19887,254.71811   C 153.35886,254.87811 153.43886,255.11811 153.51886,255.43811   C 153.59886,255.75811 153.67886,255.9981 153.67886,256.3181   C 153.67886,256.5581 153.67886,256.8781 153.67886,257.27809   L 153.67886,258.95808   C 153.67886,259.35808 153.67886,259.75808 153.67886,260.07807   C 153.59886,260.39807 153.59886,260.71807 153.43886,260.95807   C 153.35886,261.27806 153.27886,261.51806 153.11887,261.67806   C 152.95887,261.91806 152.79887,261.99806 152.55887,262.15806   C 152.31887,262.23806 152.07887,262.31806 151.75888,262.31806   C 151.27888,262.31806 150.79888,262.07806 150.39889,261.51806   L 150.39889,264.79804   L 149.35889,264.79804   z  M 150.39889,255.43811   L 150.39889,260.87807   C 150.71888,261.27806 151.19888,261.51806 151.67888,261.51806   C 151.83888,261.51806 151.99887,261.43806 152.07887,261.35806   C 152.23887,261.27806 152.31887,261.19807 152.39887,261.11807   C 152.47887,260.95807 152.55887,260.79807 152.55887,260.55807   C 152.63887,260.31807 152.63887,260.07807 152.63887,259.83808   C 152.71887,259.59808 152.71887,259.27808 152.71887,258.95808   L 152.71887,257.27809   C 152.71887,256.3981 152.63887,255.75811 152.47887,255.43811   C 152.31887,255.03811 152.07887,254.87811 151.59888,254.87811   C 151.19888,254.87811 150.79888,255.03811 150.39889,255.43811   M 155.43885,261.67806   C 155.03885,261.27806 154.79885,260.71807 154.79885,259.99807   L 155.59885,259.75808   C 155.67885,260.39807 155.83885,260.79807 156.07884,261.11807   C 156.23884,261.35806 156.55884,261.51806 156.95884,261.51806   C 157.35883,261.51806 157.59883,261.43806 157.83883,261.19807   C 157.99883,261.03807 158.07883,260.79807 158.07883,260.39807   L 158.07883,260.39807   C 158.07883,259.83808 157.75883,259.35808 157.11884,258.79808   L 156.07884,257.83809   C 155.67885,257.51809 155.35885,257.19809 155.19885,256.9581   C 155.03885,256.6381 154.95885,256.3181 154.95885,255.9181   C 154.95885,255.27811 155.11885,254.87811 155.51885,254.55811   C 155.83885,254.23812 156.31884,254.07812 156.87884,254.07812   C 157.43883,254.07812 157.91883,254.23812 158.23883,254.63811   C 158.55883,255.03811 158.71882,255.51811 158.71882,256.1581   L 158.07883,256.3981   C 157.99883,255.8381 157.91883,255.43811 157.67883,255.19811   C 157.51883,254.95811 157.27883,254.79811 156.87884,254.79811   C 156.55884,254.79811 156.31884,254.87811 156.15884,255.11811   C 155.99884,255.27811 155.83885,255.51811 155.83885,255.75811   C 155.83885,255.9981 155.91885,256.2381 155.99884,256.4781   C 156.07884,256.6381 156.31884,256.7981 156.55884,257.0381   L 157.67883,258.07809   C 157.83883,258.23809 157.99883,258.39809 158.15883,258.47809   C 158.31883,258.63808 158.39883,258.79808 158.55883,259.03808   C 158.71882,259.19808 158.79882,259.43808 158.87882,259.67808   C 158.95882,259.83808 158.95882,260.07807 158.95882,260.39807   C 158.95882,260.95807 158.79882,261.43806 158.47883,261.75806   C 158.07883,262.15806 157.59883,262.31806 156.95884,262.31806   C 156.31884,262.31806 155.83885,262.07806 155.43885,261.67806   M 129.75904,261.59806   C 129.35904,261.11807 129.19904,260.31807 129.19904,259.19808   L 129.19904,257.1181   C 129.19904,256.3981 129.27904,255.75811 129.43904,255.27811   C 129.59904,254.87811 129.83904,254.55811 130.15904,254.31812   C 130.47903,254.15812 130.87903,254.07812 131.35903,254.07812   C 131.75902,254.07812 131.99902,254.07812 132.23902,254.15812   C 132.47902,254.31812 132.71902,254.39812 132.87902,254.55811   C 132.95902,254.71811 133.11901,254.95811 133.19901,255.19811   C 133.27901,255.51811 133.35901,255.8381 133.43901,256.1581   C 133.43901,256.4781 133.43901,256.8781 133.43901,257.35809   L 133.43901,258.07809   L 130.23904,258.07809   L 130.23904,259.27808   C 130.23904,260.07807 130.31903,260.71807 130.47903,261.03807   C 130.63903,261.35806 130.95903,261.51806 131.35903,261.51806   C 131.75902,261.51806 131.99902,261.43806 132.15902,261.19807   C 132.39902,260.95807 132.47902,260.55807 132.47902,259.99807   L 132.47902,259.43808   L 133.43901,259.43808   L 133.43901,259.91807   C 133.43901,260.63807 133.27901,261.27806 132.95902,261.67806   C 132.63902,262.07806 132.07902,262.31806 131.35903,262.31806   C 130.63903,262.31806 130.07904,262.07806 129.75904,261.59806   M 130.47903,255.27811   C 130.31903,255.59811 130.23904,256.1581 130.23904,256.9581   L 130.23904,257.51809   L 132.47902,257.51809   L 132.47902,256.7981   C 132.47902,256.5581 132.47902,256.3181 132.47902,256.1581   C 132.39902,255.9981 132.39902,255.75811 132.31902,255.59811   C 132.31902,255.43811 132.23902,255.27811 132.15902,255.19811   C 132.07902,255.03811 131.99902,254.95811 131.83902,254.87811   C 131.75902,254.87811 131.59903,254.79811 131.35903,254.79811   C 130.95903,254.79811 130.63903,254.95811 130.47903,255.27811   M 120.71911,262.07806   C 120.39911,261.99806 120.23911,261.75806 120.07911,261.51806   C 119.91911,261.27806 119.75911,260.95807 119.67911,260.55807   C 119.67911,260.23807 119.59911,259.75808 119.59911,259.27808   L 119.59911,257.0381   C 119.59911,256.0781 119.75911,255.27811 120.07911,254.79811   C 120.39911,254.31812 120.9591,254.07812 121.7591,254.07812   C 122.55909,254.07812 123.11909,254.31812 123.35909,254.79811   C 123.67908,255.27811 123.83908,256.0781 123.83908,257.0381   L 123.83908,259.27808   C 123.83908,259.75808 123.83908,260.23807 123.75908,260.55807   C 123.67908,260.95807 123.59908,261.27806 123.43909,261.51806   C 123.27909,261.75806 123.03909,261.99806 122.79909,262.07806   C 122.47909,262.23806 122.1591,262.31806 121.7591,262.31806   C 121.3591,262.31806 120.9591,262.23806 120.71911,262.07806   M 121.2791,254.87811   C 121.1991,254.95811 121.0391,255.03811 120.9591,255.11811   L 120.79911,255.43811   C 120.71911,255.51811 120.71911,255.67811 120.63911,255.8381   C 120.63911,256.0781 120.63911,256.2381 120.63911,256.3981   C 120.63911,256.5581 120.63911,256.7981 120.63911,257.0381   L 120.63911,259.35808   C 120.63911,259.59808 120.63911,259.75808 120.63911,259.91807   C 120.63911,260.15807 120.63911,260.31807 120.63911,260.47807   C 120.71911,260.63807 120.71911,260.79807 120.79911,260.95807   L 120.9591,261.27806   C 121.0391,261.35806 121.1991,261.43806 121.2791,261.43806   C 121.4391,261.51806 121.5191,261.51806 121.7591,261.51806   C 121.9191,261.51806 122.0791,261.51806 122.23909,261.43806   C 122.39909,261.35806 122.47909,261.27806 122.55909,261.11807   C 122.63909,261.03807 122.71909,260.87807 122.71909,260.63807   C 122.79909,260.47807 122.79909,260.23807 122.79909,260.07807   C 122.87909,259.91807 122.87909,259.67808 122.87909,259.35808   L 122.87909,257.0381   C 122.87909,256.7181 122.87909,256.4781 122.79909,256.3181   C 122.79909,256.0781 122.79909,255.9181 122.71909,255.67811   C 122.71909,255.51811 122.63909,255.35811 122.55909,255.19811   C 122.47909,255.11811 122.39909,255.03811 122.23909,254.95811   C 122.0791,254.87811 121.9191,254.79811 121.7591,254.79811   C 121.5191,254.79811 121.4391,254.87811 121.2791,254.87811   M 146.63891,262.15806   L 146.63891,254.15812   L 147.67891,254.15812   L 147.67891,262.15806   L 146.63891,262.15806   z  M 141.27895,262.15806   L 141.27895,255.9181   C 141.27895,255.43811 141.19895,255.11811 141.11895,254.95811   C 140.95896,254.79811 140.71896,254.71811 140.47896,254.71811   C 139.99896,254.71811 139.51897,255.03811 138.95897,255.59811   C 139.03897,255.67811 139.03897,255.8381 139.03897,255.8381   L 139.03897,262.15806   L 138.07898,262.15806   L 138.07898,255.9181   C 138.07898,255.43811 137.99898,255.11811 137.83898,254.95811   C 137.67898,254.79811 137.51898,254.71811 137.27898,254.71811   C 136.79899,254.71811 136.23899,255.03811 135.75899,255.59811   L 135.75899,262.15806   L 134.799,262.15806   L 134.799,254.15812   L 135.75899,254.15812   L 135.75899,255.03811   C 136.31899,254.39812 136.95899,254.07812 137.67898,254.07812   C 138.31898,254.07812 138.71897,254.39812 138.87897,255.11811   C 139.43897,254.39812 140.15896,254.07812 140.87896,254.07812   C 141.27895,254.07812 141.59895,254.15812 141.83895,254.47811   C 142.07895,254.79811 142.23895,255.19811 142.23895,255.8381   L 142.23895,262.15806   L 141.27895,262.15806   M 125.35907,262.15806   L 125.35907,254.15812   L 126.31906,254.15812   L 126.31906,255.27811   C 126.55906,254.87811 126.87906,254.55811 127.19906,254.39812   C 127.51906,254.15812 127.83905,254.07812 128.15905,254.07812   L 128.39905,254.07812   L 128.39905,255.19811   C 128.23905,255.11811 128.07905,255.11811 127.91905,255.11811   C 127.19906,255.11811 126.71906,255.43811 126.31906,256.0781   L 126.31906,262.15806   L 125.35907,262.15806   z  M 114.63915,262.15806   L 114.63915,250.95814   L 115.75914,250.95814   L 115.75914,261.35806   L 118.87912,261.35806   L 118.87912,262.15806   L 114.63915,262.15806   M 146.63891,253.11813   L 146.63891,251.67814   L 147.67891,251.67814   L 147.67891,253.11813   L 146.63891,253.11813   z"/>
    </clipPath><pattern y="0" x="0" height="6" width="6" patternUnits="userSpaceOnUse" id="EMFhbasepattern"/><clipPath id="path-2" clipPathUnits="userSpaceOnUse">
      <path id="path-3" d="  M 366.07729,245.51818   C 366.07729,263.67805 351.3574,278.39794 333.19753,278.39794   C 315.03767,278.39794 300.31778,263.67805 300.31778,245.51818   C 300.31778,227.35832 315.03767,212.71842 333.19753,212.71842   C 351.3574,212.71842 366.07729,227.35832 366.07729,245.51818   z"/>
    </clipPath></defs><rect id="ee-background" x="0" y="0" width="1400" height="980" style="fill: white; fill-opacity: 0; pointer-events: none;"/>


<path style="fill: rgb(63, 61, 61); fill-opacity: 1; stroke: rgb(0, 0, 0); stroke-opacity: 1; stroke-width: 0; paint-order: fill;"/><path style="fill: rgb(63, 61, 61); fill-opacity: 1; stroke: rgb(0, 0, 0); stroke-opacity: 1; stroke-width: 0; paint-order: fill;"/><path d="M 880.3870239257812 239.90606689453125" style="fill: rgb(63, 61, 61); fill-opacity: 1; stroke: rgb(0, 0, 0); stroke-opacity: 1; stroke-width: 0; paint-order: fill;"/><path d="M 864.144775390625 229.48651123046875" style="fill: rgb(63, 61, 61); fill-opacity: 1; stroke: rgb(0, 0, 0); stroke-opacity: 1; stroke-width: 0; paint-order: fill;"/><path style="fill: rgb(63, 61, 61); fill-opacity: 1; stroke: rgb(0, 0, 0); stroke-opacity: 1; stroke-width: 0; paint-order: fill;"/><path style="fill: rgb(63, 61, 61); fill-opacity: 1; stroke: rgb(0, 0, 0); stroke-opacity: 1; stroke-width: 0; paint-order: fill;"/><path style="fill: rgb(63, 61, 61); fill-opacity: 1; stroke: rgb(0, 0, 0); stroke-opacity: 1; stroke-width: 0; paint-order: fill;"/><path style="fill: rgb(63, 61, 61); fill-opacity: 1; stroke: rgb(0, 0, 0); stroke-opacity: 1; stroke-width: 0; paint-order: fill;"/><g transform="matrix(1.7472482919692993, 0, 0, 1.7472482919692993, -75.36778259277344, 62.96569837272699)"><metadata id="metadata335">
    
  </metadata><path id="path181" d="  M 440.07674,258.23809   C 435.51677,260.95807 428.15683,260.95807 423.59686,258.39809   C 419.0369,255.75811 418.9569,251.51814 423.51686,248.87816   C 428.07683,246.23818 435.43677,246.15818 439.99674,248.71816   C 444.55671,251.35814 444.63671,255.59811 440.07674,258.23809   z  M 534.63604,182.87865   L 467.43654,222.23835   C 450.39666,217.03839 428.71682,218.63838 414.39693,227.03832   C 396.95706,237.27824 397.03706,253.67812 414.63693,263.59805   C 418.5569,265.83803 423.03687,267.59802 427.83683,268.79801   C 431.27681,269.678 434.79678,270.318 438.39675,270.638   C 452.31665,271.99799 467.27654,269.518 477.99646,263.19805   C 491.03636,255.51811 494.23634,244.47819 487.75639,235.19826   L 496.95632,229.7583   L 496.71632,223.83834   L 506.47625,223.83834   L 506.23625,218.31838   L 515.99618,218.23838   L 515.75618,212.71842   L 525.51611,212.63842   L 525.27611,207.11847   L 535.03604,207.03847   L 534.79604,201.51851   L 545.19596,201.51851   L 548.39594,199.59852   L 551.91591,185.11863   L 534.63604,182.87865  " style="fill:#c8ddeb;fill-rule:nonzero;fill-opacity:1;stroke:none;"/><path id="path183" d="  M 571.43577,432.2368   L 480.79644,380.07718   C 474.71648,376.55721 475.43648,370.47726 482.47643,366.39729   L 570.47577,315.59766   C 577.51572,311.51769 588.15564,311.1177 594.2356,314.63767   L 684.87493,366.71728   C 690.95488,370.23726 690.23489,376.39721 683.19494,380.47718   L 595.19559,431.19681   C 588.15564,435.27678 577.51572,435.75677 571.43577,432.2368   z " style="fill:#c8ddeb;fill-rule:nonzero;fill-opacity:1;stroke:none;"/><path id="path185" d="  M 677.67498,314.07767   L 661.9951,305.03774   L 719.75467,271.67799   C 722.47465,270.078 722.47465,267.51802 719.75467,265.99803   L 660.71511,231.91828   C 657.99513,230.31829 653.59516,230.31829 650.79518,231.91828   L 593.03561,265.27803   L 577.43572,256.2381   L 635.19529,222.87835   C 646.55521,216.3184 665.03507,216.3184 676.39499,222.87835   L 735.43455,256.9581   C 746.79447,263.51805 746.79447,274.15797 735.43455,280.71792   L 677.67498,314.07767   z " style="fill:#5f92d3;fill-rule:nonzero;fill-opacity:1;stroke:none;"/><path id="path187" d="  M 702.95479,318.07764   C 702.95479,309.67771 697.83483,299.99778 691.51488,296.31781   L 586.87565,235.91825   C 584.07567,234.31826 581.51569,234.15827 579.51571,235.27826   L 579.51571,235.27826   L 454.55663,307.91772   L 575.43574,398.95704   L 698.47483,327.51757   C 698.87482,327.35758 699.27482,327.11758 699.59482,326.87758   L 699.59482,326.87758   L 699.59482,326.87758   C 701.6748,325.27759 702.95479,322.23761 702.95479,318.07764   z " style="fill:#d9effb;fill-rule:nonzero;fill-opacity:1;stroke:none;"/><path id="path189" d="  M 575.43574,398.95704   L 698.47483,327.51757   C 698.87482,327.35758 699.27482,327.11758 699.59482,326.87758   L 699.59482,326.87758   L 699.59482,326.87758   C 701.6748,325.27759 702.95479,322.23761 702.95479,318.07764   C 702.95479,314.07767 701.7548,309.75771 699.83482,305.99773   L 559.51586,386.95713   L 575.43574,398.95704   z " style="fill:#263c7a;fill-rule:nonzero;fill-opacity:1;stroke:none;"/><path id="path191" d="  M 567.5158,398.63705   L 462.87657,338.23749   C 456.55662,334.55752 451.51666,324.87759 451.51666,316.47766   C 451.51666,308.07772 456.55662,304.23775 462.87657,307.83772   L 567.5158,368.31727   C 573.83575,371.91725 578.87571,381.67717 578.87571,389.99711   C 578.87571,398.39705 573.83575,402.23702 567.5158,398.63705   z " style="fill:#5f92d3;fill-rule:nonzero;fill-opacity:1;stroke:none;"/><path id="path193" d="  M 551.83591,378.2372   L 539.27601,370.95725   C 537.99601,370.23726 537.03602,368.31727 537.03602,366.63728   C 537.03602,364.9573 537.99601,364.2373 539.27601,364.9573   L 551.83591,372.23724   C 553.1159,372.95724 554.1559,374.87722 554.1559,376.55721   C 554.1559,378.2372 553.1159,378.95719 551.83591,378.2372   z " style="fill:#ffffff;fill-rule:nonzero;fill-opacity:1;stroke:none;"/><path id="path195" d="  M 457.35661,165.43877   L 478.87645,177.67868   L 500.79629,164.79878   L 500.71629,159.19882   L 500.55629,159.35882   L 500.55629,158.95882   L 510.31622,158.87882   L 510.23622,153.35886   L 519.83615,153.27886   L 519.75615,147.75891   L 529.35608,147.67891   L 529.27608,142.15895   L 538.87601,142.07895   L 538.79601,136.63899   L 549.03593,136.55899   L 552.15591,134.639   L 555.67588,120.15911   L 555.67588,114.55915   L 553.9159,119.99911   L 538.47601,117.91913   L 457.35661,165.43877  z " style="fill:#4067b1;fill-rule:nonzero;fill-opacity:1;stroke:none;"/><path id="path197" d="  M 478.79645,172.07873   L 500.71629,159.19882   L 500.47629,153.35886   L 510.23622,153.27886   L 509.99622,147.75891   L 519.75615,147.67891   L 519.51615,142.15895   L 529.27608,142.07895   L 529.03608,136.55899   L 538.79601,136.47899   L 538.55601,131.03903   L 548.95593,130.95903   L 552.15591,129.03904   L 555.67588,114.55915   L 538.39601,112.31917   L 457.27661,159.83882   L 478.79645,172.07873  z " style="fill:#d9effb;fill-rule:nonzero;fill-opacity:1;stroke:none;"/><path id="path199" d="  M 493.43634,163.51879   C 491.19636,160.39881 487.91639,157.43883 483.43642,154.95885   C 480.31644,153.11887 476.87647,151.67888 473.19649,150.55888   L 457.27661,159.83882   L 478.79645,172.07873   L 493.43634,163.51879   z " style="fill:#4067b1;fill-rule:nonzero;fill-opacity:1;stroke:none;"/><path id="path201" d="  M 555.03589,117.03913   L 555.67588,114.55915   L 552.71591,114.23915   L 484.23641,154.39886   L 487.83639,156.47884   L 555.03589,117.03913  z " style="fill:#5f92d3;fill-rule:nonzero;fill-opacity:1;stroke:none;"/><path id="path203" d="  M 405.357,183.11864   L 405.197,175.1987   L 407.67698,180.55866   z " style="fill:#d4d0ce;fill-rule:nonzero;fill-opacity:1;stroke:none;"/><path id="path205" d="  M 443.99671,186.15862   C 448.55668,188.7186 448.63668,193.03857 444.07671,195.67855   C 439.51674,198.31853 432.1568,198.39853 427.59683,195.75855   C 423.03687,193.19857 422.95687,188.9586 427.51683,186.23862   C 432.0768,183.59864 439.43674,183.59864 443.99671,186.15862   z  M 418.6369,201.03851   C 436.23677,211.03844 464.55656,210.79844 481.99643,200.63851   C 490.71637,195.43855 495.03633,188.7986 495.03633,182.15865   L 495.03633,182.15865   L 494.71634,173.75871   L 493.35635,175.3587   C 491.27636,171.19873 487.43639,167.27876 481.75643,163.99879   C 464.15656,154.07886 435.83677,154.23886 418.3969,164.47878   C 400.95703,174.71871 401.03703,191.03858 418.6369,201.03851  " style="fill:#4067b1;fill-rule:nonzero;fill-opacity:1;stroke:none;"/><path id="path207" d="  M 443.75671,178.23868   C 448.39668,180.79866 448.39668,185.03863 443.83671,187.75861   C 439.27675,190.39859 431.9168,190.39859 427.35683,187.83861   C 422.79687,185.27863 422.71687,180.95866 427.27683,178.31868   C 431.8368,175.6787 439.19675,175.5987 443.75671,178.23868   z  M 418.3969,193.11857   C 435.99677,203.0385 464.31656,202.8785 481.75643,192.63857   C 499.1963,182.39865 499.1163,166.07877 481.51643,156.07884   C 463.91656,146.07892 435.59677,146.31892 418.1569,156.47884   C 400.71703,166.71877 400.79703,183.11864 418.3969,193.11857   z " style="fill:#f5f6f5;fill-rule:nonzero;fill-opacity:1;stroke:none;"/><path id="path209" d="  M 438.79675,197.43854   C 434.87678,198.07853 430.63681,197.51854 427.59683,195.75855   C 424.31686,193.91856 423.35686,191.19858 424.79685,188.8786   L 416.79691,182.55865   C 416.79691,182.55865 412.63694,177.83868 408.55697,173.19872   C 402.15702,182.55865 405.517,193.59857 418.6369,201.03851   C 424.39686,204.31849 430.95681,206.23847 438.31675,207.27846   L 438.79675,197.43854   z " style="fill:#5f92d3;fill-rule:nonzero;fill-opacity:1;stroke:none;"/><path id="path211" d="  M 443.75671,178.23868   C 448.39668,180.79866 448.39668,185.03863 443.83671,187.75861   C 439.27675,190.39859 431.9168,190.39859 427.35683,187.83861   C 422.79687,185.27863 422.71687,180.95866 427.27683,178.31868   C 431.8368,175.6787 439.19675,175.5987 443.75671,178.23868   z  M 418.3969,193.11857   C 422.31687,195.35855 426.87684,197.03854 431.5968,198.23853   C 435.03678,199.11853 438.55675,199.75852 442.15672,200.07852   C 456.07662,201.43851 471.03651,198.95853 481.75643,192.63857   C 499.1963,182.39865 499.1163,166.07877 481.51643,156.07884   C 463.91656,146.07892 435.59677,146.31892 418.1569,156.47884   C 400.71703,166.71877 400.79703,183.11864 418.3969,193.11857   z " style="fill:#d9effb;fill-rule:nonzero;fill-opacity:1;stroke:none;"/><path id="path213" d="  M 410.07696,174.9587   C 410.95696,169.83874 414.71693,164.87878 421.43688,160.95881   C 436.95676,151.83888 462.23658,151.67888 477.83646,160.55881   C 485.5964,164.95878 489.51637,170.79873 489.59637,176.63869   C 490.71637,169.99874 486.87639,163.11879 477.99646,158.07883   C 462.39657,149.19889 437.19676,149.43889 421.67688,158.47883   C 413.83693,163.03879 409.99696,169.03875 410.07696,174.9587   z " style="fill:#4067b1;fill-rule:nonzero;fill-opacity:1;stroke:none;"/><path id="path215" d="  M 421.27688,179.91867   C 418.0769,179.91867 414.55693,181.03866 410.87696,183.19864   C 397.75705,190.87859 387.11713,209.59845 387.19713,224.87833   C 387.27713,231.91828 389.59711,237.19824 393.83708,239.59823   C 398.07705,241.99821 403.83701,241.35821 409.91696,237.75824   C 423.11687,230.0783 433.67679,211.35843 433.59679,196.07855   C 433.59679,191.91858 432.71679,188.31861 431.11681,185.59863   C 430.07681,183.75864 428.63682,182.31865 426.95684,181.35866   C 425.27685,180.39866 423.35686,179.91867 421.27688,179.91867   z  M 399.51704,247.35817   C 396.39706,247.35817 393.43709,246.63817 390.71711,245.11818   C 384.47715,241.51821 380.95718,234.31826 380.87718,224.87833   C 380.79718,207.59846 392.79709,186.47862 407.67698,177.75868   C 415.83692,172.95872 423.75686,172.23872 430.07681,175.8387   C 432.79679,177.35869 434.95678,179.59867 436.63677,182.39865   C 438.79675,186.07862 439.91674,190.71859 439.91674,196.07855   C 440.07674,213.35842 428.07683,234.47826 413.11694,243.1982   C 408.47697,245.99818 403.83701,247.35817 399.51704,247.35817  " style="fill:#4067b1;fill-rule:nonzero;fill-opacity:1;stroke:none;"/><path id="path217" d="  M 429.51682,193.91856   L 442.07673,197.03854   L 443.83671,187.75861   C 439.27675,190.39859 431.9168,190.39859 427.35683,187.83861   L 429.51682,193.91856   z " style="fill:#d9effb;fill-rule:nonzero;fill-opacity:1;stroke:none;"/><path id="path219" d="  M 418.3969,193.11857   C 422.31687,195.35855 426.87684,197.03854 431.5968,198.23853   C 435.03678,199.11853 438.55675,199.75852 442.15672,200.07852   C 456.07662,201.43851 471.03651,198.95853 481.75643,192.63857   L 430.79681,191.51858   L 418.3969,193.11857   z " style="fill:#d9effb;fill-rule:nonzero;fill-opacity:1;stroke:none;"/><path id="path221" d="  M 437.19676,199.51852   C 437.19676,199.51852 431.8368,198.63853 426.15684,196.63854   L 426.15684,204.47849   C 428.87682,205.43848 433.27679,206.79847 437.11676,207.27846   C 448.71668,208.79845 437.19676,199.51852 437.19676,199.51852   z " style="fill:#4067b1;fill-rule:nonzero;fill-opacity:1;stroke:none;"/><path id="path223" d="  M 429.11682,197.59854   C 426.79684,196.95854 424.23686,196.07855 421.91687,194.95856   C 415.11693,191.75858 423.67686,203.59849 423.67686,203.59849   C 423.67686,203.59849 425.99684,204.47849 429.11682,205.43848   L 429.11682,197.59854   z " style="fill:#5f92d3;fill-rule:nonzero;fill-opacity:1;stroke:none;"/><path id="path225" d="  M 556.87587,334.95752   L 534.63604,349.27741   L 523.75612,347.51743   L 550.23592,334.71752   L 556.87587,334.95752  z " style="fill:#5f92d3;fill-rule:nonzero;fill-opacity:1;stroke:none;"/><path id="path227" d="  M 529.91607,407.51698   C 529.91607,407.51698 523.51612,404.23701 519.59615,409.03697   C 515.67618,413.91693 509.99622,425.27685 509.83622,432.95679   C 509.67622,440.63674 515.91618,440.15674 519.59615,438.31675   C 523.35612,436.47677 534.23604,420.71688 534.87604,417.59691   C 535.51603,414.55693 534.07604,410.39696 533.03605,409.51697   C 531.99606,408.71697 529.91607,407.51698 529.91607,407.51698   z " style="fill:#263c7a;fill-rule:nonzero;fill-opacity:1;stroke:none;"/><path id="path229" d="  M 531.35606,405.91699   L 531.67606,412.55694   C 531.67606,413.99693 530.95607,415.35692 529.75608,416.07692   C 528.63608,416.71691 527.0361,417.19691 524.79611,416.79691   C 519.99615,416.07692 519.51615,414.63693 519.19615,407.99698   C 518.87616,401.35703 531.35606,405.91699 531.35606,405.91699   z " style="fill:#5f92d3;fill-rule:nonzero;fill-opacity:1;stroke:none;"/><path id="path231" d="  M 506.47625,394.71708   C 506.47625,394.71708 499.9963,391.4371 496.07633,396.31706   C 492.15635,401.11703 486.4764,412.47694 486.3164,420.15689   C 486.1564,427.83683 492.39635,427.35683 496.15632,425.51685   C 499.8363,423.67686 510.71622,407.91698 511.35621,404.877   C 512.07621,401.75702 510.63622,397.59705 509.59623,396.79706   C 508.55623,395.91707 506.47625,394.71708 506.47625,394.71708   z " style="fill:#263c7a;fill-rule:nonzero;fill-opacity:1;stroke:none;"/><path id="path233" d="  M 507.83624,393.11709   L 508.15624,399.83704   C 508.23624,401.19703 507.51624,402.55702 506.23625,403.27701   C 505.11626,403.91701 503.51627,404.397 501.27629,403.99701   C 496.47632,403.27701 496.07633,401.83702 495.67633,395.19707   C 495.35633,388.55712 507.83624,393.11709 507.83624,393.11709   z " style="fill:#5f92d3;fill-rule:nonzero;fill-opacity:1;stroke:none;"/><path id="path235" d="  M 565.11581,271.03799   C 563.19583,240.15822 531.67606,275.59796 531.67606,275.59796   L 509.99622,296.7978   L 490.55637,318.15764   C 486.79639,322.31761 485.03641,327.99757 485.7564,333.59753   L 493.59634,393.51709   C 493.99634,396.47706 496.55632,398.63705 499.5163,398.63705   C 500.39629,398.63705 501.35629,398.55705 502.39628,398.39705   C 509.43623,397.27706 508.95623,390.63711 508.95623,390.63711   L 507.51624,334.55752   L 548.39594,309.9177   C 548.39594,309.9177 567.0358,301.99776 565.11581,271.03799   z " style="fill:#d9effb;fill-rule:nonzero;fill-opacity:1;stroke:none;"/><path id="path237" d="  M 523.11613,323.9176   L 517.27617,321.83762   C 517.19617,321.83762 507.43624,331.27755 507.51624,334.55752   L 511.83621,335.91751   L 522.87613,325.27759   L 523.11613,323.9176   z " style="fill:#5f92d3;fill-rule:nonzero;fill-opacity:1;stroke:none;"/><path id="path239" d="  M 556.87587,334.95752   C 556.87587,334.95752 581.19569,321.03762 584.07567,315.19767   C 585.19567,312.95768 586.95565,310.5577 579.9157,307.11773   L 547.51594,330.23755   L 548.95593,338.1575   L 556.87587,334.95752   z " style="fill:#5f92d3;fill-rule:nonzero;fill-opacity:1;stroke:none;"/><path id="path241" d="  M 588.63564,282.9579   C 586.63565,252.07813 555.11589,287.51787 555.11589,287.51787   L 533.51605,308.71771   L 514.07619,330.07755   C 510.23622,334.23752 508.47623,339.91748 509.19623,345.51744   L 517.11617,405.437   C 517.51617,408.39697 519.99615,410.63696 523.03613,410.55696   C 523.83612,410.55696 524.79611,410.47696 525.9161,410.31696   C 532.95605,409.19697 532.47606,402.55702 532.47606,402.55702   L 531.03607,346.47743   L 571.83576,321.83762   C 571.83576,321.83762 590.47563,311.19769 588.63564,282.9579   z " style="fill:#d9effb;fill-rule:nonzero;fill-opacity:1;stroke:none;"/><path id="path243" d="  M 569.91578,183.59864   C 593.9156,193.51857 593.4356,207.67846 593.4356,207.67846   C 593.4356,207.67846 588.71564,259.51808 590.31563,294.23782   C 590.95562,308.71771 513.3562,309.75771 524.95611,271.11799   C 538.55601,225.59833 533.43605,188.7186 539.836,183.11864   C 546.23595,177.59868 563.75582,181.03866 569.91578,183.59864   z " style="fill:#5f92d3;fill-rule:nonzero;fill-opacity:1;stroke:none;"/><path id="path245" d="  M 577.67572,196.15855   C 576.39573,201.03851 569.99578,203.59849 563.43583,201.8385   C 556.79588,200.15852 552.47591,194.87856 553.7559,189.99859   C 554.95589,185.11863 561.35584,182.55865 567.91579,184.23864   C 574.55574,185.99862 578.87571,191.27858 577.67572,196.15855   z " style="fill:#fab6a9;fill-rule:nonzero;fill-opacity:1;stroke:none;"/><path id="path247" d="  M 563.83582,184.87863   C 559.43586,184.87863 555.67588,186.95862 554.87589,190.23859   C 554.31589,192.23858 554.95589,194.39856 556.55588,196.39855   C 558.15587,198.39853 560.71585,199.99852 563.67582,200.71851   C 569.67578,202.3185 575.43574,200.07852 576.55573,195.83855   C 577.03573,193.83856 576.47573,191.67858 574.87574,189.75859   C 573.19575,187.67861 570.63577,186.15862 567.67579,185.35863   C 566.3958,185.03863 565.11581,184.87863 563.83582,184.87863   z  M 567.4358,203.51849   C 566.07581,203.51849 564.63582,203.35849 563.11583,202.9585   C 559.67585,202.0785 556.71588,200.23852 554.71589,197.83853   C 552.63591,195.27855 551.91591,192.39857 552.63591,189.67859   C 553.9959,184.23864 561.03584,181.27866 568.23579,183.11864   C 571.67577,183.99864 574.63574,185.83862 576.63573,188.31861   C 578.71571,190.79859 579.43571,193.67857 578.71571,196.39855   C 577.59572,200.79851 572.95576,203.51849 567.4358,203.51849   z " style="fill:#ffffff;fill-rule:nonzero;fill-opacity:1;stroke:none;"/><path id="path249" d="  M 560.31585,182.47865   C 560.31585,182.47865 560.55585,183.43864 560.15585,191.03858   C 559.99585,193.43857 568.39579,195.67855 570.55577,193.51857   C 572.63576,191.35858 571.83576,189.1186 572.31576,180.95866   C 572.87576,172.87872 560.31585,182.47865 560.31585,182.47865   z " style="fill:#fab6a9;fill-rule:nonzero;fill-opacity:1;stroke:none;"/><path id="path251" d="  M 572.31576,180.95866   C 572.31576,180.95866 570.23578,188.4786 560.15585,191.43858   L 560.31585,184.55863   L 572.31576,180.95866   z " style="fill:#eb8b8a;fill-rule:nonzero;fill-opacity:1;stroke:none;"/><path id="path253" d="  M 578.71571,161.8388   C 581.27569,171.75873 575.35574,181.75865 565.51581,184.31863   C 555.67588,186.87862 545.59596,180.95866 543.03598,171.11873   C 540.556,161.27881 546.47595,151.19888 556.31588,148.6389   C 566.15581,146.07892 576.23573,151.99887 578.71571,161.8388   z " style="fill:#fab6a9;fill-rule:nonzero;fill-opacity:1;stroke:none;"/><path id="path255" d="  M 565.11581,167.11876   C 565.11581,167.11876 554.95589,171.51873 547.99594,171.51873   C 540.95599,171.59873 542.47598,165.75877 542.47598,165.75877   L 563.35583,162.71879   L 565.11581,167.11876   z " style="fill:#eb8b8a;fill-rule:nonzero;fill-opacity:1;stroke:none;"/><path id="path257" d="  M 545.83596,168.31875   C 545.83596,168.31875 554.71589,164.55878 562.47583,166.07877   C 564.31582,166.47877 565.99581,167.43876 567.1158,168.87875   C 567.5158,169.35875 567.99579,169.83874 568.55579,169.91874   C 569.91578,170.23874 572.23576,164.55878 574.87574,164.39878   C 577.51572,164.23878 579.35571,166.15877 577.11573,169.67874   C 574.95574,173.19872 575.67574,177.11869 576.71573,177.67868   C 577.67572,178.23868 588.39564,170.07874 578.95571,151.35888   C 569.51578,132.63902 545.59596,142.71894 541.83599,146.55891   C 541.83599,146.55891 537.91602,149.91889 534.71604,146.87891   C 534.71604,146.87891 531.11607,173.67871 545.83596,168.31875   z " style="fill:#ee1696;fill-rule:nonzero;fill-opacity:1;stroke:none;"/><path id="path259" d="  M 579.9957,245.59818   L 579.9957,259.59808   C 579.9957,261.19807 579.27571,262.71805 578.07572,263.83805   L 549.27593,290.07785   L 552.55591,295.11781   L 590.63562,267.51802   C 592.39561,266.23803 593.5156,264.23804 593.7556,262.07806   L 596.31558,237.59824   L 579.9957,245.59818   z " style="fill:#fab6a9;fill-rule:nonzero;fill-opacity:1;stroke:none;"/><path id="path261" d="  M 591.35562,200.63851   C 591.35562,200.63851 600.15555,213.83842 603.35553,248.39816   C 603.35553,248.39816 588.47564,253.19812 579.9957,250.47814   C 571.51577,247.75816 591.35562,200.63851 591.35562,200.63851   z " style="fill:#5f92d3;fill-rule:nonzero;fill-opacity:1;stroke:none;"/><path id="path263" d="  M 578.39572,217.27839   C 578.39572,217.27839 574.95574,235.59825 574.79574,244.15819   C 574.71574,246.55817 576.15573,248.71816 578.39572,249.51815   L 578.39572,217.27839   z " style="fill:#4067b1;fill-rule:nonzero;fill-opacity:1;stroke:none;"/><path id="path265" d="  M 570.87577,308.31772   L 564.55582,307.43772   L 523.43612,283.7579   C 522.15613,282.9579 519.83615,283.0379 518.31616,283.9179   L 489.19638,300.79777   L 485.3564,300.23778   L 485.3564,304.07775   L 485.3564,304.07775   C 485.3564,304.55774 485.5964,305.03774 486.2364,305.43774   L 532.79605,332.31754   C 534.15604,333.11753 536.39603,332.95753 537.91602,332.07754   L 569.67578,313.83768   C 570.47577,313.27768 570.95577,312.63768 570.87577,312.07769   L 570.87577,308.31772   z " style="fill:#263c7a;fill-rule:nonzero;fill-opacity:1;stroke:none;"/><path id="path267" d="  M 539.996,293.27783   L 537.11602,291.59784   L 505.03626,291.59784   L 489.19638,300.79777   L 485.3564,300.23778   L 485.3564,304.07775   L 485.3564,304.07775   C 485.3564,304.55774 485.5964,305.03774 486.2364,305.43774   L 532.79605,332.31754   C 533.51605,332.71754 534.47604,332.87753 535.43603,332.79753   L 539.996,293.27783   z " style="fill:#4067b1;fill-rule:nonzero;fill-opacity:1;stroke:none;"/><path id="path269" d="  M 487.03639,300.47777   L 485.3564,300.23778   L 485.3564,304.07775   L 485.3564,304.07775   C 485.3564,304.55774 485.5964,305.03774 486.2364,305.43774   L 487.03639,305.91773   L 487.03639,300.47777   z " style="fill:#5f92d3;fill-rule:nonzero;fill-opacity:1;stroke:none;"/><path id="path271" d="  M 533.27605,332.55754   C 534.55604,333.03753 536.31603,332.87753 537.59602,332.23754   L 537.59602,325.75759   L 533.27605,325.75759   L 533.27605,332.55754   z " style="fill:#2e4b8d;fill-rule:nonzero;fill-opacity:1;stroke:none;"/><path id="path273" d="  M 532.79605,328.47757   L 486.2364,301.59777   C 484.87641,300.87777 485.11641,299.51778 486.6364,298.63779   L 518.31616,280.31792   C 519.83615,279.43793 522.15613,279.35793 523.43612,280.15792   L 569.99578,307.03773   C 571.35577,307.75772 571.19577,309.11771 569.67578,309.9977   L 537.91602,328.23757   C 536.39603,329.11756 534.15604,329.27756 532.79605,328.47757   z " style="fill:#ffffff;fill-rule:nonzero;fill-opacity:1;stroke:none;"/><path id="path275" d="  M 531.99606,324.3976   L 493.27635,302.07776   C 492.15635,301.43777 492.31635,300.31778 493.59634,299.59778   L 510.55622,289.99785   C 511.83621,289.27786 513.75619,289.19786 514.87619,289.83785   L 553.5959,312.23769   C 554.71589,312.87768 554.55589,313.91767 553.2759,314.71767   L 536.31603,324.2376   C 535.03604,324.95759 533.11605,325.03759 531.99606,324.3976   z " style="fill:#d9effb;fill-rule:nonzero;fill-opacity:1;stroke:none;"/><path id="path277" d="  M 520.07615,279.43793   L 519.59615,282.63791   C 519.19615,285.43789 519.27615,288.15787 519.83615,290.87785   L 520.39615,293.75782   C 520.71614,295.35781 521.99613,296.5578 523.59612,296.8778   C 524.87611,297.1178 526.0761,296.23781 526.1561,294.95782   L 526.9561,288.07787   C 526.9561,288.07787 528.71608,290.39785 529.51608,290.39785   C 530.39607,290.39785 528.63608,283.5179 526.7161,279.59793   C 524.79611,275.67796 520.07615,279.43793 520.07615,279.43793   z " style="fill:#fab6a9;fill-rule:nonzero;fill-opacity:1;stroke:none;"/><path id="path279" d="  M 535.91603,228.39831   L 530.87607,238.23824   C 529.75608,240.63822 529.03608,243.1982 528.87608,245.75818   L 526.7161,279.59793   L 520.07615,279.43793   L 517.11617,241.43821   C 517.03617,240.31822 517.11617,239.11823 517.27617,237.91824   L 520.71614,218.71838   L 535.91603,228.39831   z " style="fill:#fab6a9;fill-rule:nonzero;fill-opacity:1;stroke:none;"/><path id="path281" d="  M 531.19607,331.03755   L 527.35609,325.99759   L 486.2364,302.23776   C 484.95641,301.43777 483.83642,299.35778 483.83642,297.67779   L 483.91642,263.99804   L 481.51643,260.95807   L 483.75642,259.67808   L 483.75642,259.67808   C 484.15641,259.35808 484.79641,259.35808 485.3564,259.75808   L 531.91606,286.71788   C 533.19605,287.43787 534.31604,289.51786 534.31604,291.27784   L 534.23604,327.83757   C 534.23604,328.87756 533.91605,329.51756 533.35605,329.83756   L 531.19607,331.03755   z " style="fill:#263c7a;fill-rule:nonzero;fill-opacity:1;stroke:none;"/><path id="path283" d="  M 502.79628,311.75769   L 499.9163,310.0777   L 483.91642,282.31791   L 483.91642,263.99804   L 481.51643,260.95807   L 483.75642,259.67808   L 483.75642,259.67808   C 484.15641,259.35808 484.79641,259.35808 485.3564,259.75808   L 531.91606,286.71788   C 532.63605,287.11787 533.27605,287.83787 533.67605,288.71786   L 502.79628,311.75769   z " style="fill:#4067b1;fill-rule:nonzero;fill-opacity:1;stroke:none;"/><path id="path285" d="  M 482.63642,262.31806   L 481.51643,260.95807   L 483.75642,259.67808   L 483.75642,259.67808   C 484.15641,259.35808 484.79641,259.35808 485.3564,259.75808   L 486.2364,260.23807   L 482.63642,262.31806   z " style="fill:#5f92d3;fill-rule:nonzero;fill-opacity:1;stroke:none;"/><path id="path287" d="  M 532.31606,286.95787   C 533.35605,287.83787 534.15604,289.43786 534.31604,290.87785   L 529.75608,293.51783   L 527.59609,289.75785   L 532.31606,286.95787   z " style="fill:#2e4b8d;fill-rule:nonzero;fill-opacity:1;stroke:none;"/><path id="path289" d="  M 529.67608,287.99787   L 483.19642,261.03807   C 481.83643,260.23807 480.79644,261.03807 480.79644,262.79805   L 480.71644,299.43778   C 480.71644,301.19777 481.83643,303.27775 483.11642,303.99775   L 529.67608,330.95755   C 530.95607,331.67754 532.07606,330.87755 532.07606,329.11756   L 532.07606,292.55783   C 532.07606,290.79785 531.03607,288.71786 529.67608,287.99787   z " style="fill:#5f92d3;fill-rule:nonzero;fill-opacity:1;stroke:none;"/><path id="path291" d="  M 552.55591,295.11781   L 551.83591,296.6378   C 550.95592,298.39779 549.59593,299.91778 547.91594,300.95777   L 543.35598,303.75775   C 541.91599,304.63774 540.076,304.71774 538.63601,303.91775   L 538.47601,303.83775   C 536.95602,302.87776 536.87602,300.79777 538.07601,299.51778   L 542.87598,294.55782   C 542.87598,294.55782 540.156,296.6378 539.436,295.83781   C 538.87601,295.19781 542.07598,292.15784 544.47597,292.07784   C 546.95595,291.99784 549.27593,290.07785 549.27593,290.07785   L 552.55591,295.11781   z " style="fill:#fab6a9;fill-rule:nonzero;fill-opacity:1;stroke:none;"/><path id="path293" d="  M 540.316,183.03864   C 540.316,183.03864 522.63613,202.3185 515.51618,219.99837   C 515.51618,219.99837 521.51614,230.87829 536.39603,235.19826   C 551.19592,239.43823 540.316,183.03864 540.316,183.03864   z " style="fill:#5f92d3;fill-rule:nonzero;fill-opacity:1;stroke:none;"/><path id="path295" d="  M 533.03605,234.07827   L 535.91603,206.31847   L 529.11608,232.31828   C 530.31607,232.95827 531.67606,233.51827 533.03605,234.07827   z " style="fill:#4067b1;fill-rule:nonzero;fill-opacity:1;stroke:none;"/><path id="path297" d="  M 553.5959,179.19867   L 548.87593,177.83868   C 548.87593,177.83868 551.11592,181.43866 554.39589,182.31865   C 557.75587,183.27864 558.23586,180.47866 558.23586,180.47866   L 553.5959,179.19867   z " style="fill:#ffffff;fill-rule:nonzero;fill-opacity:1;stroke:none;"/><path id="path299" d="  M 463.27657,112.79916   C 457.51661,112.79916 452.87665,117.51913 452.87665,123.27909   C 452.87665,128.95904 457.51661,133.67901 463.27657,133.67901   C 469.03653,133.67901 473.67649,128.95904 473.67649,123.27909   C 473.67649,117.51913 469.03653,112.79916 463.27657,112.79916   z  M 463.27657,136.55899   C 455.91662,136.55899 449.99667,130.55903 449.99667,123.27909   C 449.99667,115.91914 455.91662,109.91919 463.27657,109.91919   C 470.63651,109.91919 476.63647,115.91914 476.63647,123.27909   C 476.63647,130.55903 470.63651,136.55899 463.27657,136.55899   z " style="fill:#d9effb;fill-rule:nonzero;fill-opacity:1;stroke:none;"/><path id="path301" d="  M 732.71457,216.6384   C 729.1146,216.6384 726.15462,219.59837 726.15462,223.19835   C 726.15462,226.79832 729.1146,229.6783 732.71457,229.6783   C 736.31455,229.6783 739.27452,226.79832 739.27452,223.19835   C 739.27452,219.59837 736.31455,216.6384 732.71457,216.6384   z  M 732.71457,232.63828   C 727.51461,232.63828 723.27464,228.39831 723.27464,223.19835   C 723.27464,217.99839 727.51461,213.67842 732.71457,213.67842   C 737.91453,213.67842 742.1545,217.99839 742.1545,223.19835   C 742.1545,228.39831 737.91453,232.63828 732.71457,232.63828   z " style="fill:#5f92d3;fill-rule:nonzero;fill-opacity:1;stroke:none;"/><path id="path303" d="  M 420.31689,391.6771   L 424.15686,399.43704   L 431.9968,395.59707   L 428.15683,387.83713   z  M 422.87687,403.35701   L 416.39692,390.31711   L 429.51682,383.91716   L 435.91677,396.95706   L 422.87687,403.35701   z " style="fill:#5f92d3;fill-rule:nonzero;fill-opacity:1;stroke:none;"/><path id="path305" d="  M 609.67548,189.4386   L 613.51546,197.27854   L 621.3554,193.35857   L 617.51543,185.59863   z  M 612.23546,201.11851   L 605.83551,188.07861   L 618.87542,181.67865   L 625.27537,194.71856   L 612.23546,201.11851   z " style="fill:#5f92d3;fill-rule:nonzero;fill-opacity:1;stroke:none;"/><path id="path307" d="  M 408.23698,329.83756   L 402.31702,332.71754   L 399.35704,326.71758   L 405.357,323.8376   L 408.23698,329.83756  z " style="fill:#5f92d3;fill-rule:nonzero;fill-opacity:1;stroke:none;"/><path id="path309" d="  M 640.39526,130.31903   L 604.79552,109.75919   C 604.07553,109.35919 603.43553,109.35919 602.95553,109.59919   L 602.95553,109.59919   L 599.43556,111.59917   C 599.43556,111.59917 600.95555,112.15917 601.91554,112.47917   L 601.91554,138.39897   C 601.91554,140.55896 603.19553,143.03894 604.79552,143.91893   L 638.87527,163.59879   L 638.87527,166.63877   L 642.31524,164.63878   L 642.31524,164.63878   C 642.87524,164.23878 643.27523,163.43879 643.27523,162.3188   L 643.27523,135.83899   C 643.27523,133.67901 641.99524,131.27903 640.39526,130.31903   z " style="fill:#d1078d;fill-rule:nonzero;fill-opacity:1;stroke:none;"/><path id="path311" d="  M 636.87528,166.55877   L 601.27555,145.91892   C 599.67556,145.03893 598.39557,142.55894 598.39557,140.47896   L 598.39557,113.91916   C 598.39557,111.83917 599.67556,110.87918 601.27555,111.75917   L 636.87528,132.39902   C 638.47527,133.27901 639.75526,135.75899 639.75526,137.83898   L 639.75526,164.39878   C 639.75526,166.47877 638.47527,167.43876 636.87528,166.55877   z " style="fill:#ee1696;fill-rule:nonzero;fill-opacity:1;stroke:none;"/><path id="path313" d="  M 613.19546,136.79899   C 613.19546,138.31898 612.15547,138.95897 610.79548,138.15898   C 609.51549,137.43898 608.39549,135.599 608.39549,133.99901   C 608.39549,132.47902 609.51549,131.83902 610.79548,132.63902   C 612.15547,133.43901 613.19546,135.279 613.19546,136.79899   z " style="fill:#ffffff;fill-rule:nonzero;fill-opacity:1;stroke:none;"/><path id="path315" d="  M 620.4754,141.03896   C 620.4754,142.55894 619.43541,143.19894 618.07542,142.39895   C 616.79543,141.59895 615.67544,139.75896 615.67544,138.23898   C 615.67544,136.71899 616.79543,136.07899 618.07542,136.87899   C 619.43541,137.59898 620.4754,139.51897 620.4754,141.03896   z " style="fill:#ffffff;fill-rule:nonzero;fill-opacity:1;stroke:none;"/><path id="path317" d="  M 627.83535,145.19892   C 627.83535,146.71891 626.71536,147.35891 625.43537,146.63891   C 624.07538,145.83892 622.95539,143.99893 622.95539,142.47894   C 622.95539,140.87896 624.07538,140.31896 625.43537,141.03896   C 626.71536,141.83895 627.83535,143.67894 627.83535,145.19892   z " style="fill:#ffffff;fill-rule:nonzero;fill-opacity:1;stroke:none;"/></g></svg>