<?xml version="1.0" encoding="utf-8"?>
<svg id="master-artboard" viewBox="0 0 864.955322265625 948.6941528320312" version="1.1" xmlns="http://www.w3.org/2000/svg" x="0px" y="0px" style="enable-background:new 0 0 336 235.2;" width="864.955322265625px" height="948.6941528320312px"><rect id="ee-background" x="0" y="0" width="864.955322265625" height="948.6941528320312" style="fill: rgb(255, 255, 255); fill-opacity: 0; pointer-events: none;"/><defs><style id="ee-google-fonts">@import url(https://fonts.googleapis.com/css?family=Audiowide:400);</style><pattern y="0" x="0" height="6" width="6" patternUnits="userSpaceOnUse" id="EMFhbasepattern"/></defs>





















































































































































<g transform="matrix(1.4649245738983154, 0, 0, 1.4649245738983154, -34.75438642501831, -14.229911804199219)"><metadata id="metadata213">
    
  </metadata><path id="path7" d="  M 583.51568,333.35753   C 583.51568,471.51651 471.51651,583.51568 333.35753,583.51568   C 195.19855,583.51568 83.199384,471.51651 83.199384,333.35753   C 83.199384,195.19855 195.19855,83.199384 333.35753,83.199384   C 471.51651,83.199384 583.51568,195.19855 583.51568,333.35753   z " style="fill:#dff4ed;fill-rule:nonzero;fill-opacity:1;stroke:none;"/><path id="path9" d="  M 563.75582,335.67751   C 563.75582,454.23664 467.59654,550.31592 349.03741,550.31592   C 230.55829,550.31592 134.399,454.23664 134.399,335.67751   C 134.399,217.11839 230.55829,120.9591 349.03741,120.9591   C 467.59654,120.9591 563.75582,217.11839 563.75582,335.67751   z " style="fill:#f0faf6;fill-rule:nonzero;fill-opacity:1;stroke:none;"/><path id="path11" d="  M 517.67617,329.19756   C 517.67617,427.67683 437.83676,507.51624 339.27749,507.51624   C 240.79822,507.51624 160.95881,427.67683 160.95881,329.19756   C 160.95881,230.71829 240.79822,150.79888 339.27749,150.79888   C 437.83676,150.79888 517.67617,230.71829 517.67617,329.19756   z " style="fill:#fafdfd;fill-rule:nonzero;fill-opacity:1;stroke:none;"/><path id="path15" d="  M 567.5958,579.19571   C 498.8763,549.03593 423.43686,568.63579 351.75739,571.91576   C 351.4374,571.91576 351.1974,571.99576 350.8774,571.99576   C 348.39742,569.43578 344.63745,568.31579 340.71748,568.39579   C 327.27758,568.87579 324.1576,586.15566 332.15754,594.6356   C 339.03749,601.91554 351.83739,604.95552 361.03733,607.7555   C 383.59716,614.71545 407.11698,618.07542 430.55681,619.35541   C 477.51646,621.99539 525.43611,621.5954 568.31579,599.99556   C 577.27572,595.51559 576.63573,583.19568 567.5958,579.19571   z " style="fill:#4c7b71;fill-rule:nonzero;fill-opacity:1;stroke:none;"/><path id="path17" d="  M 216.6384,35.11974   C 295.83781,35.11974 360.07733,83.519381 360.07733,143.19894   C 360.07733,154.23886 357.91735,164.95878 353.75738,175.0387   C 359.99733,179.11867 364.0773,185.83862 364.0773,193.43857   C 364.0773,205.83848 353.27738,215.9184 339.99748,215.9184   C 335.11752,215.9184 330.63755,214.63841 326.87758,212.31843   C 300.55777,236.07825 260.95807,251.27814 216.6384,251.27814   C 137.35898,251.27814 73.119458,202.8785 73.119458,143.19894   C 73.119458,83.519381 137.35898,35.11974 216.6384,35.11974   z  M 375.51722,208.47846   C 378.95719,208.47846 381.83717,211.27843 381.83717,214.79841   C 381.83717,218.23838 378.95719,221.03836 375.51722,221.03836   C 371.99724,221.03836 369.19727,218.23838 369.19727,214.79841   C 369.19727,211.27843 371.99724,208.47846 375.51722,208.47846   L 375.51722,208.47846   z " style="fill:#ffffff;fill-rule:evenodd;fill-opacity:1;stroke:none;"/><path id="path19" d="  M 177.51869,125.91907   C 177.51869,125.91907 245.51818,116.15914 251.67814,111.99917   C 257.83809,107.8392 265.43803,93.519307 277.27795,95.999289   C 289.19786,98.55927 293.27783,110.23918 291.83784,116.07914   C 290.31785,121.8391 281.83791,129.03904 281.83791,129.03904   C 281.83791,129.03904 302.31776,141.99895 296.15781,151.99887   C 289.99785,161.9988 282.63791,165.59877 273.91797,162.5588   C 265.19804,159.43882 266.63802,153.27886 258.47809,152.95887   C 250.31815,152.71887 188.31861,163.19879 184.87863,166.39877   C 181.51866,169.67874 179.83867,180.23866 169.59874,184.47863   C 159.35882,188.6386 144.95893,178.55868 145.91892,168.39875   C 146.95891,158.31883 152.15887,152.87887 151.75888,151.11888   C 151.43888,149.27889 137.75898,137.59898 139.43897,130.63903   C 141.03896,123.75908 153.27886,112.95916 161.27881,112.47917   C 169.27875,112.07917 177.51869,125.91907 177.51869,125.91907   z " style="fill:#caa65c;fill-rule:evenodd;fill-opacity:1;stroke:none;"/><path id="path21" d="  M 167.83876,121.6791   C 167.83876,121.6791 235.91825,111.91917 242.07821,107.7592   C 248.23816,103.59923 255.8381,89.279339 267.67802,91.83932   C 279.59793,94.319301 283.6779,105.99921 282.23791,111.83917   C 280.71792,117.59913 272.23798,124.79908 272.23798,124.79908   C 272.23798,124.79908 292.71783,137.75898 286.55788,147.75891   C 280.39792,157.75883 273.03798,161.4388 264.31804,158.31883   C 255.59811,155.19885 257.0381,149.0389 248.87816,148.7989   C 240.71822,148.4789 178.71868,158.95882 175.2787,162.1588   C 171.91873,165.43877 170.23874,175.9987 159.99881,180.23866   C 149.75889,184.39863 135.359,174.31871 136.31899,164.15878   C 137.35898,154.07886 142.55894,148.7189 142.15895,146.87891   C 141.83895,145.03893 128.15905,133.35901 129.83904,126.47906   C 131.43903,119.51911 143.67894,108.71919 151.67888,108.2392   C 159.67882,107.8392 167.83876,121.6791 167.83876,121.6791   z " style="fill:#fbc96a;fill-rule:evenodd;fill-opacity:1;stroke:none;"/><path id="path23" d="  M 282.15791,159.99881   C 275.83796,162.71879 271.11799,161.7588 267.03802,159.11882   C 270.158,159.83882 273.59797,159.67882 276.71795,158.55883   C 285.27789,155.51885 289.03786,146.55891 287.51787,138.15898   C 288.47786,139.35897 289.27786,140.63896 289.99785,141.99895   C 293.67782,149.59889 289.51786,156.87884 282.15791,159.99881   z  M 232.47828,155.83885   C 223.75834,156.95884 214.95841,158.23883 206.23847,159.83882   C 204.55848,160.15881 191.19858,162.3988 183.75864,165.99877   C 183.75864,165.99877 183.75864,165.99877 183.75864,165.99877   C 183.83864,165.03878 183.83864,164.15878 183.91864,163.27879   C 206.47847,156.47884 230.1583,151.51888 253.59812,150.15889   C 254.31812,151.35888 255.03811,152.47887 255.67811,153.67886   C 248.07816,153.35886 239.91822,154.95885 232.47828,155.83885   z  M 151.59888,176.63869   C 150.47889,176.1587 149.51889,175.5987 148.5589,174.9587   C 149.99889,175.6787 151.59888,176.1587 153.35886,176.39869   C 156.07884,176.63869 158.95882,175.5187 161.5188,174.8787   C 164.79878,174.07871 168.15875,173.43872 171.35873,172.31872   C 173.43872,171.59873 175.6787,170.63874 177.59868,169.27875   C 176.79869,171.11873 175.8387,172.87872 174.9587,174.79871   C 170.63874,183.83864 158.55883,179.91867 151.59888,176.63869   z  M 132.71902,131.51903   C 131.43903,123.75908 136.71899,118.71912 142.39895,114.31915   C 146.07892,111.51917 149.0389,109.59919 153.91886,110.55918   C 156.71884,111.11918 159.83882,112.71917 162.3988,113.91916   C 165.67877,115.51914 167.99876,117.75913 170.07874,120.23911   C 169.91874,120.8791 170.23874,121.6791 171.11873,121.8391   C 171.27873,121.9191 171.35873,121.9191 171.43873,121.9191   C 173.11872,124.07908 174.79871,126.47906 176.71869,128.63905   C 177.11869,129.19904 177.99868,128.79905 177.91868,128.15905   C 177.75868,127.27906 177.67868,126.47906 177.43869,125.67907   C 188.7186,126.07907 200.31852,123.99908 211.03844,120.71911   C 220.71837,117.75913 229.9183,113.43916 239.43823,109.91919   C 237.19824,113.03916 235.03826,116.23914 233.03827,119.43912   C 232.79828,119.75911 233.19827,120.23911 233.59827,119.91911   C 239.59823,114.63915 245.51818,109.03919 251.43814,103.67923   C 258.07809,97.599277 264.63804,93.439308 273.75797,95.679291   C 272.79798,95.599292 271.75799,95.599292 270.71799,95.759291   C 270.638,95.759291 270.71799,95.759291 270.71799,95.759291   C 278.71794,95.279294 285.83788,101.43925 287.11787,109.27919   C 288.07787,115.43914 285.75788,120.47911 282.15791,124.95907   C 280.31792,124.15908 278.39794,123.75908 276.39795,123.91908   C 275.67796,123.99908 275.59796,124.95907 276.07795,125.27907   C 279.03793,127.75905 281.03792,130.55903 283.5179,133.43901   C 284.39789,134.479 285.27789,135.439 286.15788,136.47899   C 286.15788,136.47899 286.15788,136.47899 286.15788,136.47899   C 288.55786,144.95893 285.11789,154.63885 276.39795,157.75883   C 272.71798,159.03882 268.95801,159.03882 265.43803,158.07883   C 259.67808,153.75886 255.03811,146.63891 248.71816,142.87894   C 248.31816,142.71894 247.99816,143.19894 248.31816,143.43894   C 250.23815,145.19892 251.83813,147.27891 253.27812,149.59889   C 229.5983,152.15887 206.63847,156.07884 183.91864,163.03879   C 184.07864,159.19882 183.75864,155.67885 181.11866,152.31887   C 180.71866,151.83888 179.75867,152.23887 179.91867,152.87887   C 180.95866,157.19884 180.55866,160.87881 179.43867,164.47878   C 179.19867,164.55878 179.03867,164.63878 178.79868,164.71878   C 178.71868,164.71878 178.79868,164.79878 178.87867,164.79878   C 179.03867,164.71878 179.19867,164.71878 179.35867,164.63878   C 179.11867,165.51877 178.79868,166.39877 178.39868,167.27876   C 173.27872,172.39872 163.75879,173.99871 157.11884,175.1187   C 148.5589,176.63869 142.07895,169.99874 140.55896,162.3188   C 140.39896,160.47881 140.47896,158.47883 140.79896,156.47884   C 142.47894,148.0789 148.6389,142.15895 152.55887,134.879   C 152.87887,134.31901 152.31887,133.83901 151.83888,134.15901   C 147.75891,136.87899 143.99893,140.55896 141.11895,144.71893   C 137.27898,141.03896 133.67901,137.03898 132.71902,131.51903   z  M 208.31846,117.99913   C 217.59839,115.43914 226.71832,112.63917 235.99825,110.23918   C 228.55831,113.11916 221.27836,116.39914 213.59842,118.87912   C 201.67851,122.87909 189.75859,124.31908 177.35869,125.19907   C 177.11869,124.31908 176.87869,123.35909 176.55869,122.55909   C 187.27861,123.27909 198.07853,120.79911 208.31846,117.99913   z  M 289.67785,111.11918   C 290.15785,114.47915 289.59785,117.99913 287.91787,120.9591   C 286.87787,122.95909 285.19789,124.31908 283.6779,125.83907   C 283.5179,125.75907 283.4379,125.59907 283.2779,125.51907   C 289.91785,118.71912 289.27786,107.19921 283.4379,100.55926   C 286.63788,103.27923 289.03786,106.87921 289.67785,111.11918   z  M 287.75787,128.95904   C 292.39783,126.15907 295.11781,119.35912 295.43781,114.47915   C 295.99781,105.51922 290.23785,97.519278 282.71791,93.11931   C 274.63797,88.399345 264.07804,87.599351 255.8381,92.559314   C 251.51814,95.119295 247.75816,98.879268 244.71819,102.87924   C 244.23819,103.43923 243.83819,104.07923 243.4382,104.63922   C 231.75828,105.59922 219.91837,110.87918 208.71845,113.99916   C 197.51854,117.19913 186.55862,119.03912 175.0387,119.27912   C 172.47872,114.79915 168.55875,111.35918 163.35879,108.95919   C 159.43882,107.19921 154.95885,105.03922 150.55888,105.11922   C 146.15892,105.27922 142.63894,107.9192 139.19897,110.55918   C 133.19901,115.19915 126.79906,121.4391 127.59905,129.83904   C 128.31905,137.11898 133.83901,142.79894 139.99896,146.47891   C 137.19898,150.95888 135.359,155.99884 134.879,161.11881   C 133.83901,172.31872 142.07895,179.83867 151.67888,183.75864   C 160.87881,187.59861 173.35872,189.75859 180.07867,180.47866   C 182.23865,177.43869 182.95864,174.23871 183.35864,170.79873   C 184.87863,170.07874 186.31862,169.27875 186.47862,169.19875   C 189.3586,167.91876 192.47857,167.27876 195.51855,166.63877   C 202.4785,165.27878 209.43845,163.99879 216.3984,162.87879   C 223.03835,161.7588 229.6783,160.87881 236.39825,160.07881   C 243.5182,159.27882 251.35814,159.51882 258.23809,157.75883   C 260.23807,160.63881 262.47806,163.19879 265.75803,164.79878   C 273.83797,168.87875 284.1579,167.27876 290.95784,161.27881   C 297.2778,155.59885 299.11778,147.27891 295.35781,139.59897   C 293.75782,136.31899 291.11784,132.15902 287.75787,128.95904  " style="fill:#422f30;fill-rule:nonzero;fill-opacity:1;stroke:none;"/><path id="path25" d="  M 346.23744,212.07843   C 341.99747,213.43842 337.6775,213.27842 333.35753,212.55843   C 331.67754,212.23843 330.07755,211.83843 328.47757,211.67843   C 333.19753,207.67846 337.7575,203.43849 341.99747,199.11853   C 343.11746,197.99853 341.59747,196.07855 340.39748,197.19854   C 303.75775,229.4383 254.23812,251.67814 204.55848,246.07818   C 190.07859,244.39819 175.8387,240.87822 161.6788,237.27824   C 148.8789,233.99827 135.99899,230.1583 124.55908,223.43834   C 105.35922,211.99843 90.319331,193.99856 82.879386,172.95872   C 75.359442,151.59888 76.719432,126.79906 86.559359,106.31921   C 97.599277,83.359383 117.35913,69.359486 140.07896,59.119562   C 187.43861,37.75972 242.7982,30.879771 290.95784,53.759602   C 315.59766,65.519515 337.7575,85.839364 348.55742,111.27918   C 359.43734,136.71899 357.27735,167.27876 340.95747,189.99859   C 340.47748,190.55859 341.35747,191.11858 341.83747,190.63859   C 345.51744,186.47862 348.71742,181.91865 351.2774,177.11869   C 352.15739,179.19867 353.67738,181.03866 354.71737,182.87865   C 356.95736,186.79862 358.95734,190.95859 359.19734,195.51855   C 359.59734,203.51849 353.59738,209.83845 346.23744,212.07843   z  M 363.51731,186.07862   C 361.91732,181.99865 357.43735,177.35869 357.27735,173.03872   C 357.03736,167.91876 359.11734,162.3988 359.03734,157.11884   C 359.03734,156.87884 358.95734,156.71884 358.79734,156.47884   C 361.11733,144.95893 360.95733,132.87902 358.23735,121.1991   C 352.47739,96.319287 337.0375,74.879445 316.71765,59.759557   C 271.11799,25.67981 210.07844,25.279813 158.07883,43.359679   C 133.03901,52.159614 106.79921,64.159525 90.239332,85.759365   C 75.679439,104.79922 68.719491,129.67904 70.959474,153.51886   C 73.199458,177.35869 85.119369,199.83852 102.55924,216.0784   C 122.63909,234.87826 148.0789,241.59821 174.23871,247.75816   C 190.79859,251.59814 207.35846,254.63811 224.39834,254.15812   C 238.79823,253.75812 253.11813,251.19814 266.87802,246.87817   C 287.91787,240.39822 307.91772,228.63831 325.27759,214.39841   C 328.87756,219.35838 338.79749,219.35838 343.99745,218.71838   C 351.4374,217.75839 358.47734,213.67842 362.39732,207.19847   C 366.47729,200.63851 366.23729,193.11857 363.51731,186.07862  " style="fill:#422f30;fill-rule:nonzero;fill-opacity:1;stroke:none;"/><path id="path27" d="  M 373.35723,219.51837   C 370.95725,219.11838 368.39727,217.11839 368.47727,214.39841   C 368.47727,213.59842 368.79727,212.79842 369.19727,212.15843   C 369.75726,212.39843 370.47726,212.39843 371.03725,211.99843   C 373.83723,209.99844 376.87721,211.19844 378.5572,214.15841   C 380.55718,217.83839 376.71721,220.15837 373.35723,219.51837   z  M 381.99717,210.79844   C 380.31718,208.15846 377.6772,205.99847 374.39723,205.75848   C 372.47724,205.67848 370.79725,206.23847 369.59726,207.43846   C 366.95728,208.55846 364.8773,211.27843 364.6373,214.39841   C 364.2373,220.07837 370.07726,224.15834 375.35722,223.83834   C 382.31717,223.43834 385.59714,216.6384 381.99717,210.79844  " style="fill:#422f30;fill-rule:nonzero;fill-opacity:1;stroke:none;"/><path id="path29" d="  M 129.11904,570.23578   C 129.11904,570.23578 122.31909,572.47576 119.67911,577.83572   C 117.11913,583.11568 128.31905,600.55555 178.07868,610.95547   C 227.83831,621.2754 291.35784,596.55558 298.31779,589.91563   C 305.27774,583.27568 300.55777,575.35574 289.75785,571.35577   C 278.87793,567.2758 129.11904,570.23578 129.11904,570.23578   z " style="fill:#9c202c;fill-rule:evenodd;fill-opacity:1;stroke:none;"/><path id="path31" d="  M 124.39908,578.63571   C 124.39908,578.63571 128.63905,553.9159 132.31902,541.11599   C 136.07899,528.31609 138.79897,519.43615 141.67895,514.95619   C 144.63893,510.39622 158.47883,499.5963 209.27845,497.67631   C 259.99807,495.67633 279.03793,508.95623 282.31791,513.83619   C 285.51789,518.63616 289.59785,528.79608 293.11783,547.75594   C 296.6378,566.6358 295.83781,580.0757 295.03781,582.63568   C 294.23782,585.27566 195.19855,632.23532 124.39908,578.63571   z " style="fill:#ed243a;fill-rule:evenodd;fill-opacity:1;stroke:none;"/><path id="path33" d="  M 142.79894,513.5962   C 147.43891,508.55623 163.11879,499.4363 209.27845,497.67631   C 258.55808,495.75633 277.91794,508.23624 281.99791,513.3562   C 279.27793,518.87616 272.79798,526.1561 258.39809,533.19605   C 234.15827,544.95596 169.03875,539.836 154.31886,530.95607   C 139.67897,522.07613 142.71894,513.5962 142.79894,513.5962   z " style="fill:#9c202c;fill-rule:evenodd;fill-opacity:1;stroke:none;"/><path id="path35" d="  M 191.67858,560.47585   C 191.67858,560.47585 222.07835,561.91584 225.11833,560.63585   C 228.15831,559.35586 232.63828,553.7559 237.59824,555.83588   C 242.5582,557.91587 243.3582,563.43583 242.23821,565.75581   C 241.11821,568.15579 236.79825,570.55577 236.79825,570.55577   C 236.79825,570.55577 244.63819,577.91572 241.11821,581.75569   C 237.59824,585.59566 234.07827,586.55566 230.55829,584.47567   C 227.03832,582.39569 228.15831,579.8357 224.63834,579.03571   C 221.11836,578.23572 193.27857,577.59572 191.51858,578.71571   C 189.75859,579.8357 188.15861,584.31567 183.35864,585.27566   C 178.55868,586.23566 173.11872,580.6357 174.39871,576.31573   C 175.6787,571.99576 178.39868,570.15578 178.39868,569.27578   C 178.39868,568.47579 173.43872,562.23584 174.71871,559.35586   C 175.9987,556.47588 182.23865,552.79591 185.75862,553.2759   C 189.2786,553.7559 191.67858,560.47585 191.67858,560.47585   z " style="fill:#ffffff;fill-rule:evenodd;fill-opacity:1;stroke:none;"/><path id="path37" d="  M 187.67861,569.67578   C 187.67861,569.83578 187.67861,570.07578 187.67861,570.31578   C 188.15861,570.07578 188.7186,569.83578 189.1986,569.75578   L 187.67861,569.67578   z " style="fill:#392f30;fill-rule:evenodd;fill-opacity:1;stroke:none;"/><path id="path39" d="  M 281.35792,595.51559   C 273.19798,598.55557 264.95804,601.35555 256.6381,603.75553   C 240.31822,608.47549 223.51834,611.75547 206.55847,612.23546   C 190.47859,612.79546 174.15871,610.79548 158.87882,605.59551   C 151.59888,603.11553 144.55893,599.99556 137.91898,595.99559   C 133.67901,593.4356 115.51914,581.99569 123.59908,576.55573   C 123.43909,577.43572 123.35909,578.31572 123.19909,579.19571   C 123.19909,579.27571 123.19909,579.35571 123.19909,579.43571   C 123.11909,579.9157 123.11909,580.3157 123.03909,580.7957   C 122.95909,581.51569 124.15908,581.83569 124.39908,581.1157   C 124.39908,580.8757 124.47908,580.7157 124.47908,580.5557   C 173.99871,617.03543 241.19821,608.71549 293.51783,583.19568   C 293.67782,583.35568 293.83782,583.43568 293.99782,583.51568   C 294.15782,583.67568 294.39782,583.67568 294.55782,583.59568   C 294.87782,585.03567 296.31781,585.43566 297.5178,584.95567   C 296.07781,590.63562 287.27787,593.27561 281.35792,595.51559   z  M 139.03897,528.47609   C 139.99896,525.67611 140.95896,522.71613 142.31895,519.99615   C 142.47894,521.19614 142.87894,522.31613 143.35894,523.43612   C 140.55896,531.91606 137.99898,540.476 135.519,549.11593   C 134.07901,553.9959 132.63902,558.79586 131.27903,563.67582   C 130.39903,566.3958 129.59904,569.19578 128.79905,571.91576   C 128.63905,572.55576 127.03906,579.67571 125.83907,578.71571   C 125.43907,578.31572 124.71908,579.11571 125.11907,579.51571   C 125.51907,579.8357 125.91907,580.2357 126.31906,580.5557   C 125.75907,580.2357 125.27907,579.9157 124.71908,579.59571   C 129.11904,562.39583 133.27901,545.27596 139.03897,528.47609   z  M 183.43864,502.07628   C 200.95851,499.7563 219.19838,499.1963 236.79825,500.79629   C 245.43818,501.59628 253.99812,503.03627 262.23806,505.75625   C 267.83802,507.59624 273.83797,509.59623 277.99794,513.4362   C 277.67794,513.83619 277.91794,514.63619 278.39794,514.79619   C 278.39794,515.27618 278.31794,515.75618 278.23794,516.23618   C 271.59799,509.59623 262.71805,506.39625 253.51812,504.71626   C 239.43823,502.15628 224.87833,502.15628 210.71844,502.95627   C 196.39855,503.83627 181.91865,505.03626 167.75876,507.43624   C 159.67882,508.87623 151.75888,511.19621 145.27892,515.99618   C 145.27892,515.83618 145.27892,515.59618 145.35892,515.35618   C 148.1589,512.31621 151.99887,510.47622 155.83885,508.95623   C 164.63878,505.35626 174.07871,503.35627 183.43864,502.07628   z  M 161.6788,538.07601   C 176.55869,543.67597 193.75856,544.31597 209.51845,544.15597   C 225.03833,543.91597 241.19821,542.39598 256.1581,537.99601   C 264.31804,535.59603 272.31798,531.19607 276.55795,524.15612   C 276.79795,523.83612 277.19795,523.59612 277.43794,523.27612   C 278.39794,522.23613 279.59793,520.71614 280.39792,519.11615   C 280.39792,519.19615 280.39792,519.19615 280.39792,519.19615   C 280.47792,519.27615 280.55792,519.27615 280.63792,519.19615   C 284.23789,530.95607 286.87787,543.03598 288.63786,555.11589   C 289.59785,561.35584 290.31785,567.67579 290.71785,573.91575   C 290.95784,576.63573 290.79785,579.51571 292.15784,581.67569   C 265.83803,594.95559 236.55825,603.27553 206.95847,603.51553   C 178.55868,603.67553 151.11888,595.83559 126.95906,581.0357   C 127.19906,581.0357 127.51906,580.9557 127.59905,580.6357   C 132.47902,561.59584 138.07898,542.79598 143.59894,523.91612   C 146.87891,530.87607 154.55886,535.35603 161.6788,538.07601   z  M 144.39893,521.19614   C 146.71891,529.43608 160.31881,533.43605 167.59876,535.35603   C 183.03864,539.436 199.11853,541.75599 215.19841,541.59599   C 230.47829,541.35599 245.75818,538.79601 260.07807,533.27605   C 264.47804,531.59606 269.19801,529.67608 273.19798,526.8761   C 267.43802,533.35605 257.91809,536.63602 249.43815,538.55601   C 235.99825,541.43599 222.23835,542.95598 208.55846,543.11598   C 196.15855,543.19598 183.51864,542.47598 171.35873,539.836   C 161.19881,537.59602 148.3989,532.95605 143.83893,523.03613   z  M 143.99893,518.31616   C 143.99893,519.11615 144.07893,519.91615 144.23893,520.63614   C 143.99893,521.27614 143.83893,521.91613 143.59894,522.55613   C 143.19894,521.59614 142.87894,520.63614 142.63894,519.59615   C 143.11894,519.11615 143.51894,518.71616 143.99893,518.31616   z  M 144.15893,516.87617   C 144.15893,516.87617 144.07893,516.95617 143.99893,516.95617   C 144.07893,516.87617 144.15893,516.79617 144.15893,516.71617   C 144.15893,516.79617 144.15893,516.79617 144.15893,516.87617   z  M 277.75794,518.39616   C 276.31795,520.71614 274.15797,523.35612 273.83797,523.67612   C 271.75799,525.43611 269.358,526.8761 266.87802,528.07609   C 261.67806,530.79607 256.0781,532.95605 250.47814,534.63604   C 238.15824,538.39601 225.27833,539.996 212.47843,539.916   C 200.63851,539.916 188.7986,538.47601 177.19869,536.07603   C 167.03876,533.99604 146.15892,531.03607 145.19892,518.15616   C 145.19892,518.15616 145.19892,518.15616 145.19892,518.15616   C 145.19892,517.91616 145.19892,517.59617 145.19892,517.35617   C 152.55887,511.67621 161.9988,509.43623 171.27873,508.07624   C 183.67864,506.23625 196.23855,505.03626 208.71845,504.15627   C 222.15835,503.27627 235.67825,503.19627 249.03816,505.03626   C 259.51808,506.55625 270.398,509.35623 278.15794,516.79617   C 277.99794,517.35617 277.91794,517.91616 277.75794,518.39616   z  M 282.79791,520.71614   C 288.95786,540.076 292.55783,560.39585 294.31782,580.6357   C 293.99782,580.7957 293.67782,580.9557 293.43783,581.0357   C 290.79785,577.11573 291.43784,568.07579 290.95784,564.31582   C 290.23785,558.47586 289.27786,552.55591 288.15787,546.71595   C 286.23788,537.27602 283.6779,528.15609 280.71792,519.03616   C 280.71792,519.03616 280.71792,518.95616 280.71792,518.95616   C 280.71792,518.95616 280.71792,518.95616 280.71792,518.95616   C 280.63792,518.87616 280.63792,518.79616 280.63792,518.71616   C 280.87792,518.15616 281.03792,517.67617 281.11792,517.11617   C 281.83791,518.23616 282.39791,519.35615 282.79791,520.71614   z  M 298.55779,575.67574   C 298.47779,575.59574 298.39779,575.51574 298.31779,575.51574   C 296.3978,557.03587 292.87783,538.87601 287.51787,521.11614   C 285.03789,512.7962 281.27792,509.19623 273.43797,505.51626   C 265.27803,501.67628 256.5581,499.2763 247.67817,497.75631   C 228.39831,494.55634 208.15846,495.27633 188.7986,497.19632   C 179.27867,498.15631 169.83874,499.8363 160.71881,502.79628   C 152.95887,505.27626 144.39893,508.47623 139.99896,515.75618   C 134.559,524.79611 132.31902,536.87602 129.67904,547.03595   C 127.35906,555.67588 125.43907,564.47582 124.07908,573.35575   C 119.99911,573.99575 117.91913,578.07572 118.47912,582.07569   C 119.35912,588.39564 126.39906,592.71561 131.19903,596.07558   C 143.99893,604.87552 158.71882,610.55548 173.83871,613.59545   C 207.99846,620.5554 243.0382,613.51546 275.35796,602.15554   C 280.55792,600.31555 285.67788,598.47557 290.71785,596.39558   C 293.83782,595.11559 297.1178,593.7556 299.43778,591.19562   C 303.43775,586.63565 303.19775,579.59571 298.55779,575.67574   z " style="fill:#422f30;fill-rule:nonzero;fill-opacity:1;stroke:none;"/><path id="path41" d="  M 532.07606,497.43632   C 532.07606,497.43632 561.67584,488.39638 569.51578,508.87623   C 577.43572,529.43608 540.316,566.15581 540.316,566.15581   C 540.316,566.15581 565.99581,561.59584 570.31578,573.03576   C 574.63574,584.47567 563.59583,586.87565 549.19593,585.11567   C 534.79604,583.27568 505.59625,573.03576 505.59625,573.03576   L 532.07606,497.43632   z " style="fill:#fabd86;fill-rule:evenodd;fill-opacity:1;stroke:none;"/><path id="path43" d="  M 558.55586,565.75581   C 563.83582,566.6358 568.63579,568.63579 570.31578,573.03576   C 574.63574,584.47567 563.59583,586.87565 549.19593,585.11567   C 546.39595,584.71567 543.03598,584.07567 539.436,583.19568   C 539.27601,581.1157 539.676,578.31572 541.51599,575.03574   C 546.47595,565.99581 558.31586,565.75581 558.55586,565.75581   z " style="fill:#fbd2a8;fill-rule:evenodd;fill-opacity:1;stroke:none;"/><path id="path45" d="  M 568.71579,582.87568   C 567.91579,579.9157 566.15581,576.23573 562.39583,574.71574   C 555.67588,572.07576 549.27593,576.87573 549.27593,576.87573   C 549.27593,576.87573 553.5159,574.31575 559.99585,575.43574   C 564.15582,576.23573 566.15581,580.7157 566.9558,583.91567   C 567.67579,583.59568 568.23579,583.27568 568.71579,582.87568   z  M 568.31579,569.91578   C 569.19578,570.79577 569.91578,571.83576 570.31578,573.03576   C 570.55577,573.51575 570.71577,574.07575 570.79577,574.55574   C 569.51578,572.47576 567.5158,570.31578 564.63582,569.59578   C 559.19586,568.39579 555.43589,569.59578 555.43589,569.59578   C 555.43589,569.59578 560.23585,567.4358 565.19581,568.71579   C 566.3958,568.95579 567.4358,569.43578 568.31579,569.91578   L 568.31579,569.91578   z " style="fill:#826b6e;fill-rule:evenodd;fill-opacity:1;stroke:none;"/><path id="path47" d="  M 532.07606,497.43632   C 532.07606,497.43632 539.436,495.19633 547.83594,495.43633   C 546.95595,540.476 527.19609,579.9157 527.19609,579.9157   C 515.83618,576.63573 505.59625,573.03576 505.59625,573.03576   L 532.07606,497.43632   z " style="fill:#d6a578;fill-rule:evenodd;fill-opacity:1;stroke:none;"/><path id="path49" d="  M 367.03728,521.11614   C 367.03728,521.11614 353.99738,504.15627 335.83751,515.59618   C 317.67765,527.0361 356.79736,567.2758 356.79736,567.2758   C 356.79736,567.2758 331.27755,560.63585 327.35758,575.59574   C 323.4376,590.63562 344.39745,586.71565 362.31732,581.35569   C 380.23718,575.91573 386.39714,573.59575 386.39714,573.59575   L 367.03728,521.11614   z " style="fill:#fabd86;fill-rule:evenodd;fill-opacity:1;stroke:none;"/><path id="path51" d="  M 333.91753,567.83579   C 330.87755,569.27578 328.39757,571.75576 327.35758,575.59574   C 323.6776,589.51563 341.51747,587.19565 358.47734,582.47569   C 355.51737,577.03573 349.91741,569.59578 340.47748,568.15579   C 338.0775,567.75579 335.91751,567.67579 333.91753,567.83579   z " style="fill:#fbd2a8;fill-rule:evenodd;fill-opacity:1;stroke:none;"/><path id="path53" d="  M 332.63754,585.59566   C 332.63754,583.19568 333.19753,580.5557 335.03752,578.47571   C 339.83748,573.19575 347.75742,574.63574 347.75742,574.63574   C 347.75742,574.63574 342.87746,574.15575 337.5175,578.07572   C 335.03752,579.9957 334.47752,583.11568 334.63752,585.99566   C 333.91753,585.91566 333.27753,585.75566 332.63754,585.59566   z  M 326.95758,577.99572   C 326.79758,579.51571 326.95758,580.7957 327.43757,581.83569   C 327.75757,579.51571 328.55757,576.71573 330.71755,574.95574   C 335.11752,571.35577 339.03749,570.87577 339.03749,570.87577   C 339.03749,570.87577 333.75753,571.03577 329.83756,574.31575   C 328.55757,575.43574 327.59757,576.71573 326.95758,577.99572   L 326.95758,577.99572   z " style="fill:#826b6e;fill-rule:evenodd;fill-opacity:1;stroke:none;"/><path id="path55" d="  M 367.03728,521.11614   C 367.03728,521.11614 362.23732,514.95619 354.47737,512.5562   C 356.07736,550.31592 370.63725,578.79571 370.63725,578.79571   C 382.15717,575.19574 386.39714,573.59575 386.39714,573.59575   L 367.03728,521.11614   z " style="fill:#d6a578;fill-rule:evenodd;fill-opacity:1;stroke:none;"/><path id="path57" d="  M 518.39616,370.95725   C 518.39616,370.95725 546.87595,398.95704 549.99593,466.87654   C 553.1959,534.79604 489.59637,612.15547 489.59637,612.15547   C 489.59637,612.15547 463.75656,613.51546 459.99659,607.0355   C 456.23662,600.47555 455.67662,590.23563 465.51655,585.11567   C 475.35648,579.9957 485.27641,585.27566 485.27641,585.27566   L 487.43639,571.83576   C 487.43639,571.83576 478.71645,576.63573 459.0366,579.9957   C 439.27675,583.35568 417.35691,575.83573 417.35691,575.83573   L 424.07686,585.27566   C 424.07686,585.27566 436.31677,582.95568 440.23674,588.87564   C 444.23671,594.79559 439.51674,606.39551 439.51674,606.39551   C 439.51674,606.39551 431.7568,611.11547 419.1169,612.55546   C 406.47699,613.91545 399.83704,606.79551 399.83704,606.79551   C 399.83704,606.79551 357.59735,551.91591 349.67741,487.19639   C 341.75747,422.47687 365.99729,396.95706 365.99729,396.95706   L 518.39616,370.95725   z " style="fill:#fabd86;fill-rule:evenodd;fill-opacity:1;stroke:none;"/><path id="path59" d="  M 428.87682,584.87567   C 432.79679,584.71567 437.91676,585.35566 440.23674,588.87564   C 444.23671,594.79559 439.51674,606.39551 439.51674,606.39551   C 439.51674,606.39551 431.7568,611.11547 419.1169,612.55546   C 414.39693,613.03546 410.55696,612.39546 407.51698,611.35547   C 407.43698,609.27549 407.75698,605.75551 409.35697,599.99556   C 412.71694,587.99564 428.79682,584.87567 428.87682,584.87567   z " style="fill:#fbd2a8;fill-rule:evenodd;fill-opacity:1;stroke:none;"/><path id="path61" d="  M 435.59677,608.31549   C 435.51677,603.91553 433.75679,596.31558 428.87682,594.71559   C 423.59686,593.03561 416.55691,596.71558 416.55691,596.71558   C 416.55691,596.71558 423.51686,593.8356 428.63682,596.87558   C 432.3168,599.03556 433.03679,605.59551 433.11679,609.27549   C 433.99679,608.95549 434.87678,608.63549 435.59677,608.31549   z  M 441.83673,594.3156   C 441.91673,596.07558 441.67673,597.91557 441.43673,599.59556   C 441.03673,596.47558 440.39674,593.4356 439.03675,591.91562   C 435.99677,588.55564 430.15681,588.55564 430.15681,588.55564   C 430.15681,588.55564 434.47678,587.67565 438.15675,589.67563   C 439.91674,590.55563 441.03673,592.55561 441.83673,594.3156   L 441.83673,594.3156   z " style="fill:#826b6e;fill-rule:evenodd;fill-opacity:1;stroke:none;"/><path id="path63" d="  M 489.59637,612.15547   C 489.59637,612.15547 463.75656,613.51546 459.99659,607.0355   C 456.23662,600.47555 455.67662,590.23563 465.51655,585.11567   C 465.51655,585.11567 477.27646,584.55567 484.15641,591.67562   C 491.11636,598.79556 489.59637,612.15547 489.59637,612.15547   z " style="fill:#fbd2a8;fill-rule:evenodd;fill-opacity:1;stroke:none;"/><path id="path65" d="  M 457.51661,596.95558   C 457.91661,595.43559 458.6366,594.0756 459.5966,592.95561   C 462.63657,589.67563 465.51655,589.19564 465.51655,589.19564   C 465.51655,589.19564 462.15658,589.35563 458.8766,591.51562   C 458.07661,593.27561 457.59661,595.11559 457.51661,596.95558   z  M 466.23655,610.55548   C 465.43655,610.39548 464.71656,610.15548 464.07656,609.91548   C 463.99656,606.47551 464.47656,600.23555 468.23653,597.59557   C 473.67649,593.7556 481.27643,595.75559 481.27643,595.75559   C 481.27643,595.75559 470.95651,595.11559 467.91653,602.39554   C 466.39655,605.99551 466.15655,608.71549 466.23655,610.55548   L 466.23655,610.55548   z " style="fill:#826b6e;fill-rule:evenodd;fill-opacity:1;stroke:none;"/><path id="path67" d="  M 487.43639,571.83576   C 487.43639,571.83576 478.71645,576.63573 459.0366,579.9957   C 439.27675,583.35568 417.35691,575.83573 417.35691,575.83573   C 417.35691,575.83573 406.39699,549.67593 402.47702,533.83605   C 398.47705,518.07616 384.07715,510.39622 375.83722,490.23637   C 367.51728,470.07652 374.23723,459.83659 399.51704,467.75654   C 424.79685,475.59648 450.39666,477.59646 476.47647,466.55654   C 502.55628,455.51663 511.99621,446.79669 518.31616,454.07664   C 524.63611,461.43658 522.63613,486.3164 513.75619,494.55634   C 504.87626,502.87627 492.23635,510.95622 489.91637,521.99613   C 487.51639,533.03605 488.55638,565.11581 487.43639,571.83576   z " style="fill:#826b6e;fill-rule:evenodd;fill-opacity:1;stroke:none;"/><path id="path69" d="  M 345.03744,406.95699   C 345.03744,406.95699 358.79734,436.95676 426.71684,434.95678   C 494.63634,432.95679 527.35609,382.47717 530.95607,367.43728   C 534.47604,352.47739 527.43609,353.03738 527.43609,353.03738   C 527.43609,353.03738 341.43747,374.55723 345.03744,406.95699   z " style="fill:#9c202c;fill-rule:evenodd;fill-opacity:1;stroke:none;"/><path id="path71" d="  M 447.91668,429.83682   C 444.23671,429.83682 441.27673,432.79679 441.27673,436.39677   C 441.27673,440.07674 444.23671,443.03672 447.91668,443.03672   C 451.59665,443.03672 454.55663,440.07674 454.55663,436.39677   C 454.55663,432.79679 451.59665,429.83682 447.91668,429.83682   z  M 447.59668,425.51685   C 458.7966,425.51685 467.83653,434.55678 467.83653,445.7567   C 467.83653,456.87662 458.7966,465.99655 447.59668,465.99655   C 436.39677,465.99655 427.35683,456.87662 427.35683,445.7567   C 427.35683,434.55678 436.39677,425.51685 447.59668,425.51685   L 447.59668,425.51685   z " style="fill:#e3a447;fill-rule:evenodd;fill-opacity:1;stroke:none;"/><path id="path73" d="  M 447.91668,429.83682   C 444.23671,429.83682 441.27673,432.79679 441.27673,436.39677   C 441.27673,440.07674 444.23671,443.03672 447.91668,443.03672   C 451.59665,443.03672 454.55663,440.07674 454.55663,436.39677   C 454.55663,432.79679 451.59665,429.83682 447.91668,429.83682   z  M 447.59668,425.51685   C 458.7966,425.51685 467.83653,434.55678 467.83653,445.7567   C 467.83653,452.47665 464.55656,458.4766 459.4366,462.15658   C 456.71662,463.59657 453.59664,464.39656 450.31666,464.39656   C 439.35675,464.39656 430.47681,455.51663 430.47681,444.55671   C 430.47681,435.91677 435.99677,428.55683 443.75671,425.83685   C 444.9567,425.59685 446.31669,425.51685 447.59668,425.51685   L 447.59668,425.51685  " style="fill:#fbc96a;fill-rule:evenodd;fill-opacity:1;stroke:none;"/><path id="path75" d="  M 438.71675,416.23692   C 438.71675,416.23692 442.31672,420.71688 442.79672,426.23684   C 443.27672,431.7568 441.35673,435.43677 441.35673,435.43677   C 441.35673,435.43677 446.47669,440.87673 451.51666,435.75677   C 456.55662,430.63681 454.55663,417.51691 452.23665,414.39693   C 449.91667,411.27695 440.39674,413.51694 438.71675,416.23692   z " style="fill:#e3a447;fill-rule:evenodd;fill-opacity:1;stroke:none;"/><path id="path77" d="  M 326.31758,307.03773   L 317.91765,291.35784   C 317.91765,291.35784 325.83759,279.91793 328.23757,278.87793   C 330.63755,277.91794 334.39752,280.31792 334.71752,281.43792   C 335.11752,282.55791 335.91751,285.91788 335.91751,285.91788   L 326.31758,307.03773   z " style="fill:#f36182;fill-rule:evenodd;fill-opacity:1;stroke:none;"/><path id="path79" d="  M 489.91637,249.03816   C 489.91637,249.03816 491.91636,238.47823 497.43632,236.15825   C 502.95627,233.83827 509.03623,236.23825 509.67622,239.11823   C 510.39622,241.99821 517.11617,265.91803 517.11617,265.91803   L 489.91637,249.03816   z " style="fill:#f36182;fill-rule:evenodd;fill-opacity:1;stroke:none;"/><path id="path81" d="  M 498.9563,245.19818   C 529.67608,263.43805 553.1959,304.47774 553.5959,328.31757   C 553.9959,352.23739 528.23609,399.27704 451.43666,415.91692   C 364.5573,434.63678 334.23752,416.31692 321.99761,395.43707   C 309.75771,374.63722 315.35766,362.95731 316.23766,351.4374   C 317.11765,339.83748 318.63764,326.31758 319.83763,311.83769   C 324.95759,251.59814 445.9167,213.59842 498.9563,245.19818   z " style="fill:#fabd86;fill-rule:evenodd;fill-opacity:1;stroke:none;"/><path id="path83" d="  M 488.95638,243.1182   C 488.95638,243.1182 485.8364,231.03829 497.19632,229.3583   C 508.63623,227.67831 511.43621,233.51827 523.99612,232.71828   C 536.63602,231.99828 539.11601,235.03826 542.47598,247.43817   C 545.83596,259.83808 549.03593,276.71795 546.87595,279.67793   C 544.71597,282.55791 528.79608,275.99796 518.87616,263.99804   C 508.87623,251.91813 503.43627,233.59827 498.8763,237.59824   C 494.39634,241.59821 494.87633,245.83818 494.87633,245.83818   C 494.87633,245.83818 490.63637,245.59818 488.95638,243.1182   z " style="fill:#826b6e;fill-rule:evenodd;fill-opacity:1;stroke:none;"/><path id="path85" d="  M 383.51716,356.55736   C 360.23733,364.3173 334.63752,362.31732 326.63758,357.11735   C 318.71764,351.83739 310.6377,371.43725 331.11755,387.03713   C 351.67739,402.71702 395.43707,394.55708 410.71696,399.43704   C 426.07684,404.31701 437.43676,406.87699 457.27661,399.75704   C 477.11647,392.63709 485.9964,377.9172 501.43629,370.39726   C 516.87617,362.87731 540.71599,345.83744 545.27596,327.75757   C 549.83593,309.59771 537.75602,302.71776 525.51611,313.75768   C 513.3562,324.79759 505.35626,333.11753 489.03638,336.79751   C 472.6365,340.47748 456.63662,337.1175 448.23668,331.67754   C 439.83674,326.31758 434.31678,322.55761 426.87684,324.87759   C 410.87696,329.99756 411.99695,347.11743 383.51716,356.55736   z " style="fill:#826b6e;fill-rule:evenodd;fill-opacity:1;stroke:none;"/><path id="path87" d="  M 323.9176,371.35725   C 323.9176,371.35725 338.1575,386.79713 368.07727,387.03713   C 397.91705,387.27713 418.6369,377.03721 427.91683,370.39726   C 437.19676,363.75731 443.03672,363.19731 453.83664,365.0373   C 464.63656,366.95728 497.35632,366.47729 514.39619,353.75738   C 531.43606,340.95747 537.43602,318.23764 537.43602,318.23764   C 537.43602,318.23764 527.43609,345.27744 502.71628,355.27737   C 477.99646,365.35729 456.55662,358.95734 443.99671,358.47734   C 442.63672,358.39735 441.35673,358.47734 440.15674,358.71734   C 439.43674,358.23735 438.71675,357.67735 438.07675,356.95736   C 436.31677,354.95737 434.15678,345.43744 434.15678,345.43744   L 432.5568,345.19744   C 432.5568,345.19744 435.03678,353.99738 434.15678,357.59735   C 433.83679,358.79734 433.19679,360.23733 432.3968,361.59732   C 425.99684,365.19729 419.83689,371.27725 409.75696,375.99721   C 394.07708,383.43716 351.5174,390.47711 323.9176,371.35725   z " style="fill:#452e30;fill-rule:evenodd;fill-opacity:1;stroke:none;"/><path id="path89" d="  M 430.87681,380.23718   C 430.87681,380.23718 434.07678,373.59723 442.23672,372.07724   C 450.39666,370.55726 458.7966,373.51723 458.7966,373.51723   C 458.7966,373.51723 445.8367,367.11728 438.31675,369.75726   C 430.79681,372.31724 430.39681,379.03719 430.87681,380.23718   z " style="fill:#452e30;fill-rule:evenodd;fill-opacity:1;stroke:none;"/><path id="path91" d="  M 411.91695,354.79737   C 411.11695,354.95737 410.47696,355.75736 410.63696,356.55736   C 410.79696,357.43735 411.59695,358.07735 412.39695,357.91735   C 413.27694,357.75735 413.91693,356.95736 413.75694,356.07736   C 413.59694,355.27737 412.79694,354.63737 411.91695,354.79737   z  M 455.59663,344.87745   C 456.47662,344.71745 457.27661,345.19744 457.51661,346.07744   C 457.67661,346.87743 457.19661,347.75742 456.31662,347.99742   C 455.43663,348.15742 454.63663,347.59743 454.39663,346.79743   C 454.23664,345.91744 454.71663,345.11744 455.59663,344.87745   z  M 463.11657,346.31743   C 463.99656,346.15744 464.87656,346.63743 465.03656,347.51743   C 465.27655,348.39742 464.71656,349.19741 463.83656,349.43741   C 463.03657,349.59741 462.15658,349.11741 461.99658,348.23742   C 461.75658,347.35743 462.31658,346.55743 463.11657,346.31743   z  M 471.43651,347.59743   C 472.3165,347.43743 473.1165,347.91742 473.35649,348.79742   C 473.51649,349.59741 473.0365,350.4774 472.1565,350.7174   C 471.35651,350.8774 470.47651,350.3974 470.31652,349.51741   C 470.07652,348.63742 470.63651,347.83742 471.43651,347.59743   z  M 475.35648,353.19738   C 476.15647,353.03738 477.03647,353.51738 477.19647,354.39737   C 477.43646,355.27737 476.87647,356.07736 476.07647,356.31736   C 475.19648,356.47736 474.31649,355.99736 474.15649,355.11737   C 473.91649,354.31738 474.47649,353.43738 475.35648,353.19738   z  M 467.27654,352.87739   C 468.15653,352.63739 468.95653,353.19738 469.19652,354.07738   C 469.35652,354.87737 468.87653,355.75736 467.99653,355.91736   C 467.11654,356.15736 466.31655,355.59737 466.07655,354.79737   C 465.91655,353.91738 466.39655,353.03738 467.27654,352.87739   z  M 458.6366,351.91739   C 459.5166,351.75739 460.31659,352.23739 460.55659,353.11738   C 460.71659,353.91738 460.23659,354.79737 459.3566,355.03737   C 458.4766,355.19737 457.67661,354.63737 457.43661,353.83738   C 457.27661,352.95739 457.75661,352.15739 458.6366,351.91739   z  M 405.517,358.95734   C 404.637,359.11734 404.07701,359.91733 404.15701,360.79733   C 404.31701,361.67732 405.117,362.23732 405.99699,362.07732   C 406.87699,361.99732 407.43698,361.19732 407.27698,360.31733   C 407.19698,359.43734 406.39699,358.87734 405.517,358.95734   z  M 398.31705,363.27731   C 397.43706,363.43731 396.79706,364.2373 396.95706,365.1173   C 397.11706,365.99729 397.91705,366.55728 398.79705,366.39729   C 399.59704,366.31729 400.23704,365.51729 400.07704,364.6373   C 399.91704,363.75731 399.11704,363.19731 398.31705,363.27731   z  M 396.79706,369.99726   C 395.91707,370.07726 395.35707,370.87725 395.51707,371.75725   C 395.59707,372.63724 396.47706,373.19724 397.27706,373.11724   C 398.15705,372.95724 398.71705,372.15724 398.63705,371.27725   C 398.47705,370.39726 397.67705,369.83726 396.79706,369.99726   z  M 404.15701,366.55728   C 403.27701,366.71728 402.71702,367.51728 402.79702,368.39727   C 402.95702,369.27726 403.75701,369.83726 404.637,369.67726   C 405.517,369.59726 406.07699,368.79727 405.91699,367.91727   C 405.83699,367.03728 404.957,366.47729 404.15701,366.55728   z  M 411.75695,362.47731   C 410.95696,362.55731 410.31696,363.43731 410.47696,364.2373   C 410.63696,365.1173 411.43695,365.67729 412.23695,365.59729   C 413.11694,365.43729 413.75694,364.6373 413.59694,363.75731   C 413.43694,362.87731 412.63694,362.31732 411.75695,362.47731   z  M 418.6369,357.83735   C 417.8369,357.99735 417.19691,358.79734 417.35691,359.67734   C 417.43691,360.47733 418.3169,361.11733 419.1169,360.95733   C 419.99689,360.79733 420.55688,359.99733 420.47689,359.19734   C 420.31689,358.31735 419.51689,357.67735 418.6369,357.83735   z  M 450.55666,350.23741   C 451.35666,350.07741 452.23665,350.5574 452.39665,351.4374   C 452.63665,352.23739 452.07665,353.11738 451.27666,353.35738   C 450.39666,353.51738 449.51667,352.95739 449.35667,352.15739   C 449.11667,351.2774 449.67667,350.4774 450.55666,350.23741   L 450.55666,350.23741  " style="fill:#452e30;fill-rule:evenodd;fill-opacity:1;stroke:none;"/><path id="path93" d="  M 443.75671,278.79793   C 443.75671,278.79793 441.99673,294.39782 445.2767,309.27771   C 448.63668,324.0776 473.35649,340.31748 487.99639,338.87749   C 502.71628,337.4375 515.27618,328.79756 517.35617,310.2377   C 519.43615,291.67784 503.43627,277.19795 484.87641,275.27796   C 466.39655,273.43797 456.31662,262.39806 450.39666,263.99804   C 444.47671,265.59803 443.99671,275.67796 443.75671,278.79793   z " style="fill:#826b6e;fill-rule:evenodd;fill-opacity:1;stroke:none;"/><path id="path95" d="  M 375.59722,361.67732   C 375.59722,361.67732 397.99705,356.95736 405.037,336.23751   C 412.07695,315.51766 401.83702,289.51786 396.79706,281.83791   C 391.7571,274.07797 383.99716,274.07797 378.6372,282.23791   C 373.27723,290.47785 366.79728,294.63782 357.83735,300.63777   C 348.87742,306.55773 337.6775,311.27769 336.15751,327.27758   C 334.71752,343.19746 349.11741,369.03727 375.59722,361.67732   z " style="fill:#826b6e;fill-rule:evenodd;fill-opacity:1;stroke:none;"/><path id="path97" d="  M 339.19749,284.0779   C 339.19749,284.0779 335.27752,272.63798 328.63757,275.27796   C 321.91762,277.83794 316.31766,285.91788 306.95773,285.67788   C 297.5178,285.43789 289.27786,289.83785 288.79786,296.23781   C 288.23786,302.71776 299.43778,339.35749 299.67778,343.99745   C 299.99778,348.55742 322.31761,318.55764 323.6776,302.71776   C 324.95759,286.87787 325.27759,281.99791 328.95756,280.95792   C 332.63754,279.83793 333.91753,284.0779 334.39752,286.47788   C 334.79752,288.95786 334.63752,289.75785 334.63752,289.75785   C 334.63752,289.75785 339.91748,287.99787 339.19749,284.0779   z " style="fill:#826b6e;fill-rule:evenodd;fill-opacity:1;stroke:none;"/><path id="path99" d="  M 425.35685,340.71748   C 425.35685,340.71748 428.23683,340.71748 428.87682,342.95746   C 429.51682,345.19744 427.27683,347.27743 429.35682,349.67741   C 431.4368,351.99739 437.27676,350.23741 438.71675,348.55742   C 440.23674,346.79743 436.47677,343.91745 436.15677,341.59747   C 435.91677,339.35749 439.19675,337.0375 439.59674,338.95749   C 440.07674,340.95747 438.71675,342.95746 439.27675,343.75745   C 439.91674,344.55745 445.5167,344.71745 445.6767,339.67748   C 445.8367,334.63752 436.95676,329.51756 432.79679,329.35756   C 428.63682,329.11756 422.95687,332.79753 420.39689,335.83751   C 417.9169,338.95749 415.51692,343.43746 417.35691,346.23744   C 419.1169,349.11741 426.71684,348.79742 426.07684,346.07744   C 425.51685,343.35746 421.91687,342.95746 425.35685,340.71748   z " style="fill:#452e30;fill-rule:evenodd;fill-opacity:1;stroke:none;"/><path id="path101" d="  M 473.67649,284.79789   C 486.4764,281.75791 499.3563,289.67785 502.39628,302.55776   C 505.51626,315.35766 497.51631,328.23757 484.71641,331.27755   C 471.8365,334.31752 458.9566,326.39758 455.91662,313.59768   C 452.87665,300.71777 460.79659,287.83787 473.67649,284.79789   z " style="fill:#fcfcfe;fill-rule:evenodd;fill-opacity:1;stroke:none;"/><path id="path103" d="  M 473.27649,286.79788   C 484.23641,284.23789 495.19633,290.95784 497.83631,301.91776   C 500.39629,312.95768 493.59634,323.9176 482.63642,326.55758   C 471.67651,329.11756 460.71659,322.31761 458.07661,311.35769   C 455.51663,300.39777 462.23658,289.43786 473.27649,286.79788   z " style="fill:#392f30;fill-rule:evenodd;fill-opacity:1;stroke:none;"/><path id="path105" d="  M 473.91649,289.67785   C 483.27642,287.43787 492.71635,293.27783 494.95633,302.63776   C 497.19632,311.99769 491.35636,321.43762 481.99643,323.6776   C 472.6365,325.91759 463.19657,320.07763 460.95659,310.7177   C 458.7166,301.27777 464.55656,291.91784 473.91649,289.67785   z " style="fill:#5f3e46;fill-rule:evenodd;fill-opacity:1;stroke:none;"/><path id="path107" d="  M 476.23647,295.91781   C 481.35643,294.71782 486.3964,297.83779 487.59639,302.95776   C 488.79638,307.99772 485.6764,313.11768 480.63644,314.31767   C 475.51648,315.51766 470.47651,312.31769 469.27652,307.27772   C 468.07653,302.23776 471.19651,297.1178 476.23647,295.91781   z " style="fill:#392f30;fill-rule:evenodd;fill-opacity:1;stroke:none;"/><path id="path109" d="  M 487.51639,292.95783   L 475.43648,303.03776   C 475.43648,303.03776 492.39635,300.55777 492.71635,300.23778   C 492.95635,299.99778 490.47637,294.95782 487.51639,292.95783   z " style="fill:#fcfcfe;fill-rule:evenodd;fill-opacity:1;stroke:none;"/><path id="path111" d="  M 367.03728,307.35772   C 379.91719,304.31775 392.79709,312.23769 395.83707,325.03759   C 398.87705,337.9175 390.9571,350.7974 378.0772,353.83738   C 365.27729,356.87736 352.39739,348.95742 349.35741,336.07751   C 346.31743,323.27761 354.23738,310.3977 367.03728,307.35772   z " style="fill:#fcfcfe;fill-rule:evenodd;fill-opacity:1;stroke:none;"/><path id="path113" d="  M 366.63728,309.35771   C 377.5972,306.71773 388.63712,313.51768 391.1971,324.4776   C 393.83708,335.43752 387.03713,346.47743 376.07721,349.03741   C 365.1173,351.67739 354.07738,344.87745 351.5174,333.91753   C 348.87742,322.95761 355.67737,311.91769 366.63728,309.35771   z " style="fill:#392f30;fill-rule:evenodd;fill-opacity:1;stroke:none;"/><path id="path115" d="  M 367.27728,312.23769   C 376.71721,309.9977 386.07714,315.75766 388.31712,325.19759   C 390.55711,334.55752 384.79715,343.99745 375.35722,346.23744   C 365.99729,348.39742 356.55736,342.63746 354.31738,333.27753   C 352.15739,323.8376 357.91735,314.47767 367.27728,312.23769   z " style="fill:#5f3e46;fill-rule:evenodd;fill-opacity:1;stroke:none;"/><path id="path117" d="  M 369.67726,318.47764   C 374.71722,317.27765 379.83719,320.39763 381.03718,325.43759   C 382.23717,330.55755 379.03719,335.59751 373.99723,336.79751   C 368.95727,337.9975 363.8373,334.87752 362.63731,329.83756   C 361.43732,324.71759 364.5573,319.67763 369.67726,318.47764   z " style="fill:#392f30;fill-rule:evenodd;fill-opacity:1;stroke:none;"/><path id="path119" d="  M 380.87718,315.51766   L 368.87727,325.59759   C 368.87727,325.59759 385.75714,323.11761 386.07714,322.79761   C 386.39714,322.47761 383.91716,317.51765 380.87718,315.51766   z " style="fill:#fcfcfe;fill-rule:evenodd;fill-opacity:1;stroke:none;"/><path id="path121" d="  M 402.39702,379.51719   C 402.23702,378.95719 392.1571,378.3972 386.15714,372.07724   C 380.15718,365.67729 372.87724,357.03736 361.99732,361.27732   C 352.95739,364.7973 355.11737,379.59719 366.63728,383.35716   C 378.2372,387.03713 402.39702,379.51719 402.39702,379.51719   z " style="fill:#f36182;fill-rule:evenodd;fill-opacity:1;stroke:none;"/><path id="path123" d="  M 392.47709,382.07717   z  M 386.79713,383.19716   C 388.79712,382.87716 390.71711,382.47717 392.47709,382.07717   C 392.39709,382.07717 386.71714,382.71717 378.3972,377.5172   C 370.07726,372.31724 369.99726,376.39721 370.71725,377.9972   C 372.47724,381.83717 382.87716,383.43716 386.79713,383.19716   L 386.79713,383.19716  " style="fill:#f14c74;fill-rule:evenodd;fill-opacity:1;stroke:none;"/><path id="path125" d="  M 474.23649,256.2381   C 474.23649,256.2381 449.51667,248.55816 442.95672,252.55813   C 436.39677,256.5581 438.63675,267.75802 435.19678,263.27805   C 431.6768,258.87808 429.83682,250.15815 434.63678,246.63817   C 439.51674,243.0382 457.75661,243.99819 474.23649,256.2381   z " style="fill:#826b6e;fill-rule:evenodd;fill-opacity:1;stroke:none;"/><path id="path127" d="  M 364.4773,286.47788   C 364.4773,286.47788 381.83717,264.87804 388.15712,265.03804   C 394.47708,265.11804 397.11706,274.95796 398.47705,274.55797   C 399.75704,274.07797 399.43704,259.75808 395.91707,256.9581   C 392.39709,254.15812 371.03725,263.27805 364.4773,286.47788   z " style="fill:#826b6e;fill-rule:evenodd;fill-opacity:1;stroke:none;"/><path id="path129" d="  M 358.47734,316.87765   C 358.55734,316.87765 358.63734,316.79765 358.63734,316.79765   C 367.75728,311.43769 379.11719,309.51771 386.07714,319.35763   C 392.23709,328.07757 388.87712,339.99748 379.19719,344.47745   C 370.23726,348.55742 357.19735,344.55745 353.67738,335.03752   C 350.9574,327.75757 353.59738,321.35762 358.47734,316.87765   z  M 380.15718,348.39742   C 392.0771,343.43746 396.87706,329.03756 389.99711,318.07764   C 384.71715,309.59771 372.63724,305.75774 363.9973,310.1577   C 353.83738,313.03768 346.79743,323.8376 349.75741,334.71752   C 353.11738,347.19743 368.55727,353.19738 380.15718,348.39742  " style="fill:#422f30;fill-rule:nonzero;fill-opacity:1;stroke:none;"/><path id="path131" d="  M 490.07637,321.83762   C 481.59643,329.91756 467.83653,325.59759 462.07658,316.15766   C 457.75661,309.11771 458.7966,301.27777 462.95657,295.03781   C 463.35657,295.27781 463.83656,295.19781 464.07656,294.71782   C 466.63654,290.55785 473.0365,290.07785 477.43646,289.75785   C 482.95642,289.43786 488.71638,290.23785 492.71635,294.39782   C 500.39629,302.47776 497.59631,314.79767 490.07637,321.83762   z  M 475.83648,285.75788   C 470.71651,286.23788 465.35655,287.27787 463.03657,291.91784   C 455.59663,298.63779 453.91664,310.3977 459.5966,319.27763   C 463.51657,325.35759 469.83652,328.39757 476.63647,329.91756   C 483.59642,331.51754 489.11638,328.87756 493.91634,323.9176   C 502.63628,314.79767 504.71626,299.51778 494.63634,290.47785   C 489.43637,285.83788 482.55643,285.19789 475.83648,285.75788  " style="fill:#422f30;fill-rule:nonzero;fill-opacity:1;stroke:none;"/><path id="path133" d="  M 358.79734,287.91787   C 365.67729,281.75791 371.43725,274.39797 378.3172,268.31801   C 381.19718,265.67803 386.23714,260.47807 390.07711,259.51808   C 397.19706,257.75809 398.47705,269.358 398.63705,273.67797   C 398.71705,274.07797 399.27704,273.99797 399.35704,273.67797   C 399.99704,268.63801 400.95703,262.55806 397.43706,258.23809   C 394.15708,254.07812 389.51711,254.47811 385.43714,257.19809   C 374.07723,264.55804 368.07727,278.23794 358.55734,287.59787   C 358.39735,287.75787 358.63734,288.07787 358.79734,287.91787   z " style="fill:#422f30;fill-rule:nonzero;fill-opacity:1;stroke:none;"/><path id="path135" d="  M 382.47717,256.1581   C 389.11712,252.15813 397.27706,251.19814 402.55702,257.99809   C 402.79702,258.23809 403.27701,257.99809 403.11701,257.67809   C 398.55705,250.15815 387.35713,247.03817 381.75717,255.27811   C 381.51717,255.75811 381.99717,256.4781 382.47717,256.1581   z " style="fill:#422f30;fill-rule:nonzero;fill-opacity:1;stroke:none;"/><path id="path137" d="  M 429.27682,253.19812   C 428.79682,259.35808 433.51679,265.03804 436.63677,269.918   C 436.79676,270.238 437.27676,269.998 437.19676,269.678   C 435.99677,265.03804 433.11679,259.35808 433.59679,254.47811   C 434.31678,246.55817 443.51671,246.15818 449.35667,247.99816   C 459.5966,251.03814 469.35652,255.43811 479.59645,258.55808   C 479.91645,258.63808 480.15644,258.15809 479.91645,257.99809   C 472.7965,253.99812 465.43655,250.31815 458.15661,246.63817   C 452.15665,243.5982 445.2767,240.71822 438.47675,242.7982   C 433.67679,244.23819 429.59682,248.07816 429.27682,253.19812   z " style="fill:#422f30;fill-rule:nonzero;fill-opacity:1;stroke:none;"/><path id="path139" d="  M 424.15686,257.59809   C 422.79687,253.35812 423.43686,248.47816 426.79684,245.35818   C 429.19682,243.1182 432.3968,242.23821 435.59677,241.67821   C 435.99677,241.59821 436.07677,241.03821 435.67677,240.95822   C 426.23684,238.47823 420.07689,249.91815 423.91686,257.67809   C 423.99686,257.83809 424.15686,257.75809 424.15686,257.59809   z " style="fill:#422f30;fill-rule:nonzero;fill-opacity:1;stroke:none;"/><path id="path141" d="  M 568.23579,579.9957   C 567.91579,580.3157 567.67579,580.6357 567.2758,580.9557   C 567.1958,580.7957 567.1158,580.6357 567.0358,580.4757   C 566.7158,579.9957 566.4758,579.59571 566.15581,579.19571   C 565.35581,578.15572 564.39582,577.35572 563.27583,576.71573   C 561.27584,575.59574 559.11586,575.19574 556.95587,575.99573   C 556.79588,575.99573 556.87587,576.31573 557.03587,576.23573   C 560.15585,575.51574 562.79583,577.11573 564.47582,579.75571   C 564.87582,580.3957 565.19581,581.19569 565.51581,581.99569   C 563.27583,582.95568 560.55585,583.11568 558.39586,583.19568   C 552.15591,583.27568 545.83596,582.39569 539.676,581.0357   C 540.476,574.31575 544.39597,568.79579 551.11592,566.7158   C 554.95589,566.7158 558.87586,566.6358 562.55583,568.07579   C 564.95582,569.03578 567.67579,571.27577 568.87579,573.99575   C 568.23579,572.87576 566.8758,571.99576 565.83581,571.51577   C 564.31582,570.63577 562.55583,570.23578 560.79585,570.31578   C 560.55585,570.31578 560.55585,570.63577 560.79585,570.71577   C 562.47583,570.87577 564.07582,571.43577 565.51581,572.55576   C 566.6358,573.43575 567.3558,574.95574 568.47579,575.67574   C 568.87579,575.91573 569.27578,575.59574 569.27578,575.19574   C 569.27578,575.19574 569.27578,575.19574 569.27578,575.19574   C 569.67578,576.79573 569.43578,578.39572 568.23579,579.9957   z  M 525.03611,576.55573   C 522.55613,575.59574 520.15615,574.15575 517.59617,573.67575   C 520.63614,568.15579 523.51612,562.55583 526.2361,556.95587   C 530.71607,547.75594 534.95604,538.39601 539.03601,529.03608   C 543.19598,519.67615 547.43594,510.39622 549.75593,500.47629   C 549.99593,499.4363 550.15592,498.39631 550.39592,497.43632   C 556.63588,499.4363 563.27583,501.27629 566.4758,507.67624   C 570.07578,515.11618 567.1958,524.79611 564.15582,531.99606   C 561.19584,539.03601 556.71588,545.27596 551.99591,551.35592   C 547.83594,556.71588 541.67599,561.99584 538.87601,568.15579   C 538.55601,568.71579 539.27601,569.35578 539.836,569.11578   C 541.27599,568.31579 542.79598,567.3558 544.15597,566.31581   C 545.83596,566.6358 547.43594,566.7158 549.11593,566.7158   C 543.27598,569.11578 538.95601,574.47574 538.55601,580.7157   C 537.51602,580.4757 536.39603,580.2357 535.35603,579.9157   C 531.83606,578.95571 528.39609,577.83572 525.03611,576.55573   z  M 477.43646,609.83548   C 473.51649,609.59548 469.43652,608.95549 468.95653,604.15552   C 468.55653,599.67556 473.67649,594.6356 477.91646,595.67559   C 478.31646,595.75559 478.71645,595.19559 478.31646,594.95559   C 471.27651,590.79562 463.43657,600.87555 465.27655,607.7555   C 465.03656,607.6755 464.79656,607.6755 464.55656,607.6755   C 461.27658,607.1155 459.3566,604.31552 459.1166,601.11555   C 458.6366,595.59559 463.03657,591.11562 467.35654,588.31564   C 467.83653,587.99564 467.27654,587.19565 466.79654,587.43565   C 464.31656,588.47564 461.99658,589.91563 459.99659,591.83562   C 461.43658,588.95564 463.67657,586.63565 467.19654,585.03567   C 471.51651,583.03568 478.15646,582.31569 483.51642,583.83568   C 483.99641,584.31567 484.71641,584.55567 485.3564,584.47567   C 486.79639,585.03567 488.07638,585.83566 489.19638,586.79565   C 489.67637,587.27565 490.63637,586.87565 490.23637,586.15566   C 489.35638,584.71567 488.31638,583.59568 487.03639,582.63568   C 487.11639,581.99569 487.27639,581.35569 487.35639,580.7157   C 490.63637,577.03573 490.31637,569.83578 490.55637,565.27581   C 490.71637,562.47583 490.71637,559.67585 490.71637,556.79588   C 497.99631,557.67587 509.99622,558.23586 512.7962,565.03581   C 512.7962,565.19581 513.1162,565.11581 513.0362,564.87582   C 510.87622,558.07587 502.63628,558.23586 496.71632,557.35587   C 495.51633,557.11587 488.55638,557.03587 492.23635,555.67588   C 494.15634,554.95589 497.43632,555.51589 499.3563,555.91588   C 505.27626,557.03587 510.47622,560.31585 515.51618,563.51583   C 515.67618,563.67582 515.91618,563.51583 515.91618,563.35583   C 516.39617,551.27592 499.9963,550.47592 490.47637,549.99593   C 490.39637,547.91594 490.23637,545.75596 490.15637,543.67597   C 489.11638,528.23609 487.51639,512.9562 490.47637,497.67631   C 490.55637,497.43632 490.15637,497.35632 490.07637,497.51631   C 486.0764,508.95623 485.3564,520.79614 485.3564,532.79605   C 485.27641,532.63605 485.19641,532.55606 485.19641,532.47606   C 483.43642,529.19608 482.15643,525.75611 481.35643,522.23613   C 479.67645,515.19618 479.83645,507.99624 481.51643,500.95629   C 481.51643,500.87629 481.35643,500.79629 481.35643,500.95629   C 479.27645,507.67624 478.55646,514.63619 479.59645,521.59614   C 480.31644,526.5561 481.75643,534.15604 485.3564,538.23601   C 485.3564,538.71601 485.3564,539.27601 485.4364,539.836   C 485.4364,540.076 485.4364,540.316 485.4364,540.556   C 484.47641,539.916 483.59642,539.356 482.71642,538.55601   C 480.47644,536.63602 478.55646,534.31604 477.03647,531.83606   C 476.95647,531.75606 476.87647,531.75606 476.87647,531.83606   C 478.79645,535.75603 481.75643,540.076 485.4364,542.79598   C 485.5964,549.11593 485.7564,555.43589 485.5964,561.75584   C 485.5164,565.11581 485.27641,568.31579 484.95641,571.59577   C 483.91642,571.91576 483.03642,572.39576 481.67643,572.87576   C 478.39646,574.23575 474.95648,575.11574 471.51651,575.83573   C 465.67655,577.03573 459.75659,577.51572 453.75664,577.83572   C 447.35669,578.23572 440.87673,578.31572 434.47678,577.67572   C 429.67682,577.19572 425.27685,575.83573 420.79688,574.55574   C 420.07689,572.95576 419.27689,571.43577 418.5569,569.91578   C 416.15692,564.31582 413.75694,558.79586 411.59695,553.1159   C 410.71696,550.79592 409.91696,548.47594 409.11697,546.15595   C 408.79697,543.03598 408.87697,539.996 409.03697,536.79602   C 415.19692,528.31609 417.8369,517.03617 414.31693,506.95624   C 414.23693,506.79625 413.99693,506.87625 413.99693,507.03624   C 415.99692,517.35617 414.79693,527.43609 409.03697,535.99603   C 409.11697,534.71604 409.19697,533.43605 409.27697,532.07606   C 409.59697,525.59611 409.19697,519.03616 408.95697,512.5562   C 408.95697,512.23621 408.39697,512.23621 408.31698,512.5562   C 407.11698,520.31615 405.91699,527.99609 405.437,535.75603   C 403.67701,530.55607 401.91702,525.27611 399.99704,520.07615   C 399.83704,519.51615 399.03704,519.83615 399.03704,520.39615   C 400.07704,531.59606 402.63702,542.07598 406.39699,552.63591   C 402.79702,551.99591 397.27706,555.51589 394.79708,557.03587   C 389.27712,560.55585 384.87715,565.35581 381.59717,571.03577   C 381.59717,571.11577 381.67717,571.11577 381.67717,571.11577   C 385.03715,565.59581 389.51711,560.95584 395.11707,557.67587   C 397.43706,556.31588 399.91704,555.19589 402.47702,554.31589   C 404.31701,553.6759 407.11698,552.63591 404.557,555.03589   C 403.51701,556.07588 401.51703,556.79588 400.23704,557.43587   C 392.23709,561.75584 386.79713,568.31579 384.71715,577.11573   C 384.31715,576.47573 383.83716,575.83573 383.51716,575.11574   C 383.51716,575.03574 383.51716,574.95574 383.59716,574.87574   C 383.91716,573.91575 383.11716,572.87576 382.15717,572.87576   C 376.15721,562.79583 370.87725,552.23591 366.23729,541.43599   C 358.15735,522.23613 352.31739,502.31628 350.4774,481.59643   C 349.51741,470.95651 349.51741,460.23659 350.5574,449.67667   C 351.5174,439.83674 353.91738,430.23681 355.35737,420.47689   C 355.67737,420.55688 355.99736,420.71688 356.31736,420.79688   C 357.43735,421.43688 358.39735,422.15687 359.19734,422.55687   C 362.23732,424.07686 365.43729,425.43685 368.63727,426.63684   C 374.71722,428.95682 380.87718,430.63681 387.19713,431.9968   C 400.23704,434.87678 413.51694,436.07677 426.87684,436.79676   C 425.99684,438.71675 425.51685,440.55674 425.51685,442.39672   C 425.27685,453.83664 434.07678,464.95656 445.5967,465.99655   C 456.47662,466.95654 466.39655,459.5966 468.63653,448.95667   C 469.99652,442.39672 468.15653,435.99677 464.23656,431.11681   C 467.59654,430.95681 471.27651,428.87682 473.91649,427.59683   C 480.47644,424.39686 486.71639,420.55688 492.63635,416.15692   C 498.79631,411.59695 504.55626,406.47699 509.83622,400.79703   C 512.8762,397.59705 518.23616,393.03709 520.15615,388.39712   C 522.55613,386.71714 524.87611,385.03715 527.19609,383.19716   C 534.55604,401.51703 541.11599,419.75689 544.63597,439.27675   C 548.23594,459.1966 550.23592,480.87644 545.27596,500.71629   C 542.87598,510.63622 538.47601,519.99615 534.31604,529.27608   C 530.47607,538.07601 526.5561,546.87595 522.31613,555.51589   C 513.75619,573.11575 503.91627,589.67563 491.83636,605.03552   C 487.59639,608.23549 483.11642,610.23548 477.43646,609.83548   z  M 484.23641,577.75572   C 483.91642,578.71571 483.59642,579.75571 483.35642,580.7157   C 480.39644,579.67571 477.03647,579.43571 473.75649,579.67571   C 476.95647,579.11571 481.11644,578.23572 484.31641,576.63573   C 484.31641,577.03573 484.23641,577.35572 484.23641,577.75572   z  M 490.47637,550.31592   C 494.71634,550.87592 498.8763,551.51591 503.03627,552.39591   C 506.55625,553.1959 510.47622,554.1559 512.9562,556.95587   C 513.67619,557.67587 515.83618,561.11584 514.31619,562.07584   C 513.99619,562.31583 510.79622,559.91585 510.39622,559.75585   C 504.23626,556.15588 497.59631,553.8359 490.63637,555.43589   C 490.63637,553.7559 490.55637,551.99591 490.47637,550.31592   z  M 424.71685,581.83569   C 424.07686,581.51569 423.35686,581.27569 422.71687,581.0357   C 422.63687,580.2357 422.55687,579.43571 422.31687,578.71571   C 424.87685,579.8357 427.59683,580.6357 430.47681,581.1157   C 428.55683,581.1157 426.55684,581.35569 424.71685,581.83569   z  M 441.59673,593.3556   C 440.63674,592.15561 439.43674,591.27562 438.07675,590.79562   C 437.51676,590.63562 437.27676,591.19562 437.51676,591.59562   C 439.51674,594.79559 440.79673,597.19558 439.99674,601.11555   C 439.67674,602.87553 438.71675,604.23552 437.59676,605.27552   C 437.35676,599.91556 432.3168,595.35559 427.51683,593.4356   C 427.19684,593.3556 426.87684,593.7556 427.11684,593.9956   C 430.15681,597.59557 437.67676,603.35553 432.0768,608.0755   C 428.79682,610.87547 423.75686,610.79548 419.67689,610.71548   C 414.31693,610.63548 409.51697,609.99548 405.517,606.07551   C 401.99702,602.63554 399.19704,598.31557 396.31706,594.3956   C 392.39709,589.11564 388.71712,583.67568 385.27715,578.07572   C 388.55712,573.91575 391.8371,569.67578 396.15707,566.5558   C 398.39705,564.95582 400.79703,563.51583 403.27701,562.47583   C 404.15701,562.07584 405.517,561.19584 406.55699,561.43584   C 407.91698,561.03584 407.91698,561.43584 406.55699,562.47583   C 405.99699,563.35583 405.277,564.07582 404.397,564.63582   C 404.07701,564.87582 404.557,565.43581 404.877,565.19581   C 406.63699,563.75582 407.75698,562.39583 408.87697,560.39585   C 409.03697,560.15585 408.87697,559.75585 408.55697,559.83585   C 404.477,561.03584 400.63703,562.63583 397.11706,565.03581   C 392.87709,567.83579 390.15711,571.51577 386.63714,575.11574   C 385.51714,576.23573 385.59714,576.87573 385.99714,574.95574   C 386.31714,573.43575 387.19713,571.83576 387.91713,570.39577   C 389.43712,567.5158 391.3571,564.95582 393.75708,562.71583   C 397.67705,559.19586 402.79702,557.43587 407.03698,554.39589   C 408.95697,559.67585 411.03696,564.95582 413.43694,569.99578   C 415.03693,573.51575 416.63691,577.83572 419.35689,580.7957   C 412.87694,581.59569 407.19698,589.03564 406.47699,595.35559   C 406.47699,595.67559 406.87699,595.83559 407.11698,595.59559   C 409.35697,592.47561 410.63696,588.87564 413.43694,586.15566   C 415.75692,583.83568 418.7969,582.63568 421.83688,582.87568   C 415.11693,585.75566 409.75696,592.07561 409.43697,599.59556   C 409.43697,599.83556 409.75696,599.99556 409.83696,599.75556   C 412.31695,591.19562 418.2369,585.99566 427.11684,585.43566   C 430.79681,585.19567 435.35678,585.19567 438.47675,587.43565   C 440.79673,589.03564 441.51673,591.11562 441.59673,593.3556   z  M 362.39732,581.51569   C 360.63733,575.59574 355.67737,570.87577 350.07741,568.07579   C 352.87739,568.23579 355.75736,568.23579 358.47734,567.67579   C 359.11734,567.83579 359.67734,567.91579 360.31733,568.07579   C 360.95733,568.15579 361.11733,567.4358 360.71733,567.0358   C 360.55733,566.9558 360.39733,566.7958 360.23733,566.6358   C 360.23733,566.3958 360.07733,566.15581 359.83733,566.07581   C 359.67734,565.99581 359.51734,565.91581 359.35734,565.83581   C 350.3974,557.75587 340.71748,548.55594 335.75751,537.35602   C 332.95753,531.03607 332.39754,523.03613 337.8375,517.83616   C 341.99747,513.75619 346.31743,514.15619 351.3574,513.4362   C 353.19738,520.15615 355.35737,526.8761 357.83735,533.43605   C 363.19731,547.83594 369.91726,561.75584 377.6772,575.03574   C 372.71724,577.43572 367.59728,579.75571 362.39732,581.51569   z  M 339.27749,585.35566   C 337.6775,585.27566 335.83751,585.03567 334.15752,584.55567   C 335.11752,579.9957 338.55749,576.39573 343.51746,575.83573   C 343.75745,575.75574 343.75745,575.35574 343.43746,575.35574   C 338.47749,575.35574 333.67753,578.87571 332.23754,583.67568   C 330.79755,582.79568 329.59756,581.51569 329.19756,579.59571   C 329.11756,579.19571 329.03756,578.79571 329.03756,578.39572   C 329.67756,577.35572 330.63755,576.39573 331.03755,575.99573   C 332.55754,574.47574 334.39752,573.11575 336.23751,571.99576   C 336.71751,571.67577 336.39751,571.03577 335.83751,571.19577   C 333.67753,571.91576 331.43754,573.19575 329.67756,574.87574   C 331.03755,571.99576 333.99753,569.91578 336.9575,568.95579   C 340.71748,567.5958 344.63745,567.75579 348.55742,567.99579   C 350.8774,569.11578 353.03738,570.55577 354.95737,572.39576   C 357.99735,575.11574 359.75734,578.31572 361.43732,581.83569   C 354.31738,584.15567 346.87743,585.59566 339.27749,585.35566   z  M 460.87659,427.67683   C 459.83659,426.79684 458.7166,425.99684 457.51661,425.35685   C 457.83661,422.63687 457.59661,419.99689 456.71662,417.8369   C 465.67655,414.71693 474.55648,411.43695 483.27642,407.83698   C 491.99636,404.23701 500.71629,400.15704 509.03623,395.35707   C 508.39623,396.07707 507.75624,396.79706 507.11624,397.51706   C 502.79628,402.07702 498.23631,406.23699 493.35635,410.07696   C 488.15638,414.23693 482.63642,417.8369 476.87647,421.11688   C 474.31649,422.63687 471.67651,424.07686 468.95653,425.27685   C 466.31655,426.47684 463.59657,426.95684 460.87659,427.67683   z  M 441.83673,427.27683   C 441.67673,428.23683 441.43673,429.11682 441.19673,430.15681   C 428.63682,437.59676 428.23683,460.63659 445.6767,461.59658   C 452.95664,462.07658 461.51658,458.7966 462.63657,450.71666   C 463.51657,444.39671 462.79657,433.59679 456.31662,430.23681   C 456.47662,429.75682 456.63662,429.19682 456.79662,428.71682   C 462.63657,432.6368 466.31655,439.51674 465.19655,446.71669   C 463.83656,456.15662 455.51663,462.87657 445.9967,462.23658   C 436.63677,461.51658 430.23681,453.35664 429.11682,444.39671   C 428.23683,436.63677 435.03678,430.39681 441.83673,427.27683   z  M 441.83673,422.71687   C 441.91673,423.27686 441.99673,423.83686 441.99673,424.31686   C 437.11676,424.87685 432.1568,428.63682 428.95682,433.19679   C 410.31696,432.3968 392.23709,430.23681 374.79722,424.95685   C 382.07717,426.07684 389.43712,426.71684 396.47706,427.03684   C 412.23695,427.83683 426.71684,427.35683 441.83673,422.71687   z  M 452.55665,419.27689   C 452.55665,420.31689 452.63665,421.35688 452.63665,422.39687   C 452.07665,422.47687 451.43666,422.47687 450.87666,422.55687   C 448.95667,422.63687 447.03669,422.79687 445.1167,422.95687   C 445.0367,422.55687 444.8767,422.15687 444.79671,421.75688   C 447.35669,420.95688 449.91667,420.07689 452.55665,419.27689   z  M 441.51673,435.75677   C 441.51673,435.83677 441.59673,435.83677 441.67673,435.91677   C 441.91673,439.75674 442.71672,443.67671 447.51669,443.35672   C 451.67665,443.03672 455.11663,439.27675 454.55663,435.11678   C 454.55663,434.79678 454.31663,434.47678 454.07664,434.31678   C 454.71663,433.51679 455.19663,432.5568 455.67662,431.5968   C 460.79659,435.67677 462.07658,442.31672 461.59658,448.95667   C 460.87659,457.83661 452.23665,461.51658 444.23671,460.55659   C 428.39683,458.6366 430.55681,437.59676 441.11673,430.47681   C 441.03673,430.79681 440.95673,431.19681 440.95673,431.5968   C 440.63674,433.03679 440.71674,434.39678 441.51673,435.75677   z  M 452.63665,425.91685   C 450.39666,425.59685 447.83668,425.83685 445.5967,426.31684   C 445.5967,425.35685 445.4367,424.47686 445.1967,423.51686   C 447.11669,423.59686 448.95667,423.59686 450.87666,423.59686   C 451.43666,423.59686 452.07665,423.59686 452.71665,423.59686   C 452.71665,424.39686 452.71665,425.19685 452.63665,425.91685   z  M 449.99667,437.91676   C 450.15667,437.83676 450.31666,437.67676 450.47666,437.59676   C 449.75667,438.71675 448.71668,439.59674 447.27669,439.75674   C 445.9967,439.91674 445.5167,439.27675 445.1167,438.31675   C 446.71669,438.71675 448.47668,438.63675 449.99667,437.91676   z  M 451.59665,430.15681   C 450.71666,429.83682 449.83667,429.75682 448.87667,429.67682   C 447.67668,429.51682 446.47669,429.35682 445.3567,429.19682   C 445.4367,428.71682 445.5167,428.31683 445.5167,427.91683   C 445.5967,427.67683 445.5167,427.35683 445.5967,427.11684   C 446.95669,426.95684 448.39668,426.79684 449.83667,426.87684   C 450.71666,426.87684 451.59665,427.03684 452.55665,427.11684   C 452.39665,428.15683 452.07665,429.19682 451.59665,430.15681   z  M 444.8767,431.3568   C 444.8767,430.95681 444.9567,430.55681 445.1167,430.15681   C 446.95669,430.55681 449.11667,431.19681 451.03666,431.19681   C 450.63666,431.9168 450.07667,432.5568 449.35667,433.19679   C 446.95669,435.27678 444.39671,434.63678 444.8767,431.3568   z  M 318.39764,377.6772   C 316.39766,362.87731 319.59763,348.95742 327.27758,336.07751   C 327.35758,335.99751 327.19758,335.83751 327.03758,335.91751   C 323.5176,340.87747 320.07763,346.31743 317.59765,352.15739   C 317.75765,351.0374 317.83765,349.91741 317.99764,348.79742   C 319.43763,343.43746 321.51762,338.0775 323.3576,333.11753   C 323.4376,332.87753 322.95761,332.63754 322.87761,332.95753   C 321.59762,336.15751 320.07763,339.75748 318.71764,343.51746   C 320.07763,333.67753 321.91762,323.8376 322.55761,314.39767   C 323.8376,311.43769 325.11759,308.39772 325.99759,305.27774   C 327.59757,300.23778 327.91757,295.03781 328.63757,289.91785   C 328.79756,289.75785 328.87756,289.59785 329.03756,289.35786   C 330.15755,287.75787 332.55754,286.23788 332.71754,284.1579   C 332.71754,283.5979 332.23754,283.1979 331.67754,283.2779   C 330.95755,283.2779 330.31755,283.6779 329.67756,284.23789   C 329.91756,283.4379 330.07755,282.63791 330.31755,281.83791   C 330.47755,281.43792 329.99756,281.03792 329.59756,281.35792   C 325.99759,284.95789 324.4776,289.83785 323.27761,294.79782   C 321.75762,300.87777 320.71762,307.03773 318.79764,313.03768   C 316.95765,319.11764 313.43768,324.79759 309.43771,329.67756   C 307.35772,332.23754 305.27774,334.79752 303.27775,337.3575   C 302.95776,337.6775 301.27777,340.15748 300.95777,340.07748   C 300.63777,340.07748 300.15778,338.0775 299.83778,336.55751   C 301.51777,335.59751 303.03776,333.43753 303.99775,332.39754   C 307.43772,328.87756 310.4777,324.87759 312.95768,320.71762   C 318.71764,311.1177 320.07763,300.39777 323.9976,290.15785   C 324.0776,290.15785 323.9976,290.07785 323.9976,290.15785   C 320.71762,298.07779 319.35763,306.55773 315.75766,314.31767   C 313.75768,318.47764 311.43769,322.39761 308.63771,326.07758   C 307.03773,328.15757 303.11775,334.07753 299.67778,335.83751   C 299.51778,335.19752 299.43778,334.63752 299.43778,334.47752   C 296.3978,322.95761 285.91788,307.83772 292.87783,295.99781   C 296.23781,290.23785 302.95776,289.67785 308.79771,287.99787   C 305.51774,291.75784 302.39776,295.75781 299.43778,299.75778   C 299.19778,299.99778 299.59778,300.39777 299.83778,300.15778   C 305.59774,295.19781 310.5577,289.43786 316.31766,284.47789   C 319.27763,281.83791 322.39761,279.27793 326.23758,278.15794   C 329.43756,277.27795 332.87753,277.51794 335.11752,280.31792   C 335.03752,280.79792 335.27752,281.19792 335.67751,281.43792   C 336.63751,283.8379 337.9175,289.35786 334.79752,288.79786   C 333.99753,288.63786 333.35753,289.75785 333.99753,290.39785   C 336.9575,293.59783 340.15748,289.91785 340.87747,286.71788   C 341.51747,284.1579 341.11747,281.59791 340.07748,279.35793   C 345.19744,275.67796 349.27741,270.71799 354.23738,266.79802   C 360.39733,261.91806 367.19728,257.75809 374.23723,254.23812   C 389.11712,246.87817 405.197,241.67821 421.51688,238.55823   C 438.95675,235.19826 457.35661,234.39826 474.63648,239.11823   C 483.03642,241.43821 491.11636,245.11818 498.63631,249.51815   C 504.79626,253.11813 510.55622,258.31809 516.95617,261.59806   C 518.87616,265.35803 521.11614,268.95801 524.39612,272.23798   C 526.8761,274.71797 529.59608,277.03795 532.63605,278.71794   C 537.03602,287.11787 542.31598,294.95782 546.39595,303.43775   C 542.15598,298.87779 537.11602,295.11781 531.99606,292.55783   C 531.83606,292.47783 531.75606,292.71783 531.91606,292.79783   C 538.63601,297.67779 544.63597,303.91775 548.95593,311.1177   C 549.43593,311.99769 549.99593,312.95768 550.39592,313.83768   C 554.39589,327.27758 553.5959,341.19747 546.23595,353.51738   C 533.51605,374.95722 511.11621,389.03712 488.87638,399.03704   C 477.67646,404.07701 466.15655,408.23698 454.63663,412.23695   C 440.31674,417.19691 426.47684,421.75688 411.19695,421.83688   C 384.47715,421.99687 352.87739,420.55688 332.07754,401.43703   C 324.3976,394.31708 320.31763,386.31714 318.39764,377.6772   z  M 513.91619,235.75825   C 518.63616,238.87823 522.79613,242.8782 528.71608,243.2782   C 529.11608,243.3582 529.19608,242.7982 528.87608,242.6382   C 523.91612,240.71822 520.79614,236.79825 517.11617,233.35827   C 519.83615,233.51827 522.71613,232.87827 525.51611,232.79828   C 533.35605,232.47828 537.59602,238.23824 540.156,245.03818   C 542.47598,251.19814 543.19598,257.99809 544.31597,264.47804   C 544.47597,265.51803 544.79596,266.71802 545.11596,267.91802   C 542.63598,269.518 540.236,269.998 536.79602,267.99801   C 535.35603,267.19802 533.99604,266.15803 532.63605,265.27803   C 527.59609,261.91806 524.55611,258.63808 521.27614,253.51812   C 519.67615,251.03814 518.15616,248.71816 515.83618,246.79817   C 514.63619,245.83818 513.3562,244.95819 512.15621,244.07819   C 507.99624,238.71823 500.79629,231.03829 494.55634,237.19824   C 494.15634,237.59824 494.55634,238.31823 495.03633,238.07824   C 497.67631,236.71825 500.0763,237.03824 502.23628,238.31823   C 503.91627,240.23822 505.43626,242.31821 506.79625,244.55819   C 507.75624,246.31818 508.55623,248.23816 509.43623,250.07815   C 506.87625,248.15816 504.31626,246.47817 501.91628,244.87819   C 498.55631,242.5582 495.03633,240.47822 491.35636,238.63823   C 494.07634,228.9583 506.71625,231.03829 513.91619,235.75825   z  M 510.39622,250.79814   C 509.27623,246.39817 505.99625,242.07821 502.87627,238.71823   C 507.19624,241.59821 510.63622,248.15816 512.7962,252.63813   C 511.99621,251.99813 511.19621,251.43814 510.39622,250.79814   z  M 544.95596,274.31797   C 543.51597,276.71795 542.39598,275.59796 540.156,274.71797   C 538.63601,274.07797 537.19602,273.27798 535.75603,272.39798   C 530.79607,269.19801 527.43609,264.71804 523.99612,259.99807   C 520.47614,255.11811 516.71617,250.31815 513.1162,245.35818   C 512.9562,245.19818 512.7962,244.95819 512.6362,244.71819   C 513.2762,245.19818 513.91619,245.67818 514.55619,246.23818   C 519.67615,250.31815 521.43614,256.7181 526.0761,261.19807   C 529.27608,264.39804 534.71604,268.71801 538.95601,270.318   C 541.27599,271.19799 543.43597,270.318 545.27596,268.87801   C 545.67596,270.87799 545.83596,272.79798 544.95596,274.31797   z  M 568.95579,566.7158   C 565.67581,564.15582 561.35584,563.11583 557.27587,562.87583   C 554.39589,562.71583 551.03592,562.63583 547.91594,563.03583   C 551.99591,559.19586 555.59588,554.47589 558.55586,550.55592   C 564.31582,543.03598 569.11578,534.71604 571.43577,525.43611   C 573.35575,517.83616 573.83575,509.27623 568.47579,502.87627   C 564.39582,497.91631 557.51587,494.79633 550.95592,494.15634   C 553.9159,475.91647 551.91591,456.55662 548.63594,438.63675   C 545.03596,418.9569 539.19601,398.87705 529.59608,381.19718   C 536.55603,375.43722 542.87598,368.95727 548.15594,361.51732   C 557.67587,347.99742 561.11584,332.47754 557.27587,316.23766   C 554.23589,303.59775 547.99594,291.43784 539.756,281.27792   C 543.75597,281.99791 549.03593,282.07791 550.87592,277.83794   C 551.99591,275.35796 551.27592,272.31798 550.79592,269.838   C 550.15592,265.99803 549.43593,262.23806 548.71594,258.47809   C 547.51594,252.15813 546.31595,245.51818 543.27598,239.75822   C 540.79599,235.11826 536.79602,230.63829 531.51606,229.2783   C 526.2361,227.83831 519.43615,229.7583 513.99619,230.87829   C 510.31622,228.39831 505.83625,227.19832 501.43629,227.35832   C 496.63632,227.59831 488.23638,231.67828 487.91639,236.95824   C 484.31641,235.35826 480.71644,233.99827 476.95647,232.95827   C 458.8766,227.83831 439.75674,228.31831 421.43688,231.75828   C 403.75701,235.11826 385.99714,240.79822 369.91726,249.03816   C 362.39732,252.87813 355.11737,257.43809 348.63742,262.79805   C 344.15745,266.47803 339.67748,270.318 336.9575,275.35796   C 335.99751,274.47797 334.79752,273.75797 333.51753,273.27798   C 326.55758,270.71799 321.11762,275.27796 316.39766,279.91793   C 315.43766,280.87792 314.47767,281.83791 313.51768,282.79791   C 308.15772,285.03789 301.99776,284.0779 296.31781,286.31788   C 290.79785,288.47786 287.35787,293.43783 285.99788,299.11778   C 284.39789,305.83773 285.99788,312.79768 288.63786,319.11764   C 290.23785,322.79761 292.15784,326.31758 293.67782,329.99756   C 295.19781,333.83753 295.43781,337.9975 296.8778,341.75747   C 301.75776,354.63737 314.63767,330.39755 316.55766,326.47758   C 316.79765,326.07758 316.95765,325.75759 317.19765,325.35759   C 314.63767,335.99751 312.95768,346.87743 312.15769,357.59735   C 311.19769,371.19725 313.03768,384.71715 320.87762,396.15707   C 328.71757,407.67698 339.91748,414.87693 352.39739,419.43689   C 345.27744,436.39677 344.55745,457.27661 345.35744,475.19648   C 345.83744,486.87639 347.59743,498.39631 350.3974,509.59623   C 345.67744,508.31623 339.51749,510.63622 335.99751,513.4362   C 330.63755,517.67617 328.47757,524.31612 329.27756,531.03607   C 330.23755,539.676 335.75751,546.95595 341.03747,553.5159   C 343.91745,557.11587 346.71743,560.63585 350.15741,563.27583   C 343.03746,562.39583 335.19752,563.43583 330.15755,567.2758   C 324.0776,571.91576 322.07761,581.51569 328.63757,586.71565   C 335.75751,592.39561 347.99742,589.51563 355.91736,587.75565   C 361.59732,586.55566 367.19728,584.79567 372.55724,582.63568   C 374.87722,581.67569 377.8372,580.7157 380.07718,579.11571   C 381.19718,581.0357 382.39717,582.87568 383.59716,584.71567   C 388.79712,592.95561 394.39708,601.59554 401.03703,608.71549   C 406.63699,614.71545 413.67694,615.91544 421.59688,615.83544   C 426.95684,615.75544 433.59679,614.95544 436.39677,610.07548   C 440.07674,609.03549 442.95672,605.59551 443.75671,601.99554   C 443.99671,601.11555 443.99671,600.07555 443.91671,599.11556   C 447.19669,591.11562 443.03672,583.91567 435.03678,581.75569   C 440.79673,582.31569 446.63669,582.15569 451.59665,581.99569   C 457.27661,581.75569 463.03657,581.43569 468.71653,580.6357   C 467.91653,580.7957 467.19654,581.0357 466.47654,581.27569   C 459.3566,583.91567 451.27666,592.79561 455.51663,600.79555   C 455.43663,602.15554 455.59663,603.59553 456.15662,605.11552   C 457.43661,608.95549 463.91656,613.35546 467.75654,611.35547   C 471.9965,614.63545 479.99644,614.79545 484.87641,613.67545   C 488.95638,612.71546 492.23635,610.79548 494.07634,607.5155   C 494.07634,607.4355 494.15634,607.3555 494.23634,607.2755   C 502.15628,598.39557 508.95623,588.55564 514.95619,578.23572   C 520.23615,578.63571 525.67611,582.15569 530.79607,583.67568   C 535.75603,585.19567 540.79599,586.31566 545.91596,587.03565   C 553.4359,588.07564 564.79582,589.91563 570.95577,583.91567   C 576.07573,578.95571 574.15575,570.87577 568.95579,566.7158  " style="fill:#422f30;fill-rule:nonzero;fill-opacity:1;stroke:none;"/><path id="path143" d="  M 427.19684,370.07726   C 430.55681,367.75728 434.55678,365.27729 437.27676,362.07732   C 445.8367,361.75732 454.79663,364.7173 463.35657,365.1173   C 472.7965,365.59729 482.39643,364.9573 491.51636,362.55731   C 505.59625,358.95734 520.55614,349.27741 527.43609,336.07751   C 527.59609,335.67751 527.0361,335.51751 526.7961,335.75751   C 520.55614,342.63746 514.47619,348.47742 505.83625,352.23739   C 498.07631,355.59737 489.99637,358.23735 481.67643,359.43734   C 472.3165,360.71733 462.95657,360.31733 453.59664,359.27734   C 448.39668,358.71734 443.27672,357.43735 438.63675,358.79734   C 438.31675,357.91735 437.35676,357.27735 436.23677,357.75735   C 432.6368,359.35734 429.75682,362.47731 426.55684,364.7973   C 422.55687,367.67728 418.4769,370.23726 414.15693,372.55724   C 406.39699,376.79721 398.07705,379.99719 389.43712,381.91717   C 372.31724,385.83714 353.99738,386.31714 337.6775,378.95719   C 337.6775,378.95719 337.5975,379.03719 337.6775,379.03719   C 353.51738,387.51713 371.59725,390.47711 389.27712,386.63714   C 398.31705,384.71715 407.11698,381.51717 415.27692,377.19721   C 419.43689,375.11722 423.35686,372.63724 427.19684,370.07726   z " style="fill:#422f30;fill-rule:nonzero;fill-opacity:1;stroke:none;"/><path id="path145" d="  M 429.67682,380.55718   C 429.59682,380.79718 429.91682,380.95718 430.07681,380.79718   C 432.5568,376.95721 436.55677,374.39723 441.11673,373.59723   C 445.7567,372.79724 450.31666,374.39723 454.95663,374.47723   C 455.43663,374.47723 455.75662,373.83723 455.27663,373.51723   C 447.03669,366.87728 433.11679,370.55726 429.67682,380.55718   z " style="fill:#422f30;fill-rule:nonzero;fill-opacity:1;stroke:none;"/><path id="path189" d="  M 326.47758,641.43525   C 326.47758,641.43525 326.47758,641.43525 326.47758,641.43525   C 326.47758,641.43525 326.47758,641.43525 326.47758,641.43525   z " style="fill:#dff4ed;fill-rule:nonzero;fill-opacity:1;stroke:none;"/><path id="path191" d="  M 326.63758,642.15524   L 326.63758,642.15524   C 326.55758,641.99524 326.55758,641.75525 326.47758,641.59525   C 326.55758,641.75525 326.55758,641.99524 326.63758,642.15524   z " style="fill:#dff4ed;fill-rule:nonzero;fill-opacity:1;stroke:none;"/><path id="path193" d="  M 327.35758,644.39523   C 327.35758,644.39523 327.35758,644.31523 327.35758,644.31523   C 327.35758,644.31523 327.35758,644.39523 327.35758,644.39523   z " style="fill:#dff4ed;fill-rule:nonzero;fill-opacity:1;stroke:none;"/><path id="path195" d="  M 327.27758,644.23523   C 327.27758,644.15523 327.27758,644.15523 327.27758,644.07523   C 327.27758,644.15523 327.27758,644.15523 327.27758,644.23523   z " style="fill:#dff4ed;fill-rule:nonzero;fill-opacity:1;stroke:none;"/><path id="path197" d="  M 326.79758,643.03524   C 326.95758,643.35523 327.11758,643.75523 327.27758,644.07523   C 327.11758,643.75523 326.95758,643.35523 326.79758,643.03524   L 326.79758,643.03524   z " style="fill:#dff4ed;fill-rule:nonzero;fill-opacity:1;stroke:none;"/></g></svg>