<?xml version="1.0" encoding="UTF-8" standalone="no"?>
<svg
   xmlns:dc="http://purl.org/dc/elements/1.1/"
   xmlns:cc="http://creativecommons.org/ns#"
   xmlns:rdf="http://www.w3.org/1999/02/22-rdf-syntax-ns#"
   xmlns:svg="http://www.w3.org/2000/svg"
   xmlns="http://www.w3.org/2000/svg"
   id="svg181"
   height="159mm"
   width="163mm"
   version="1.0">
  <metadata
     id="metadata185">
    <rdf:RDF>
      <cc:Work
         rdf:about="">
        <dc:format>image/svg+xml</dc:format>
        <dc:type
           rdf:resource="http://purl.org/dc/dcmitype/StillImage" />
      </cc:Work>
    </rdf:RDF>
  </metadata>
  <defs
     id="defs3">
    <pattern
       y="0"
       x="0"
       height="6"
       width="6"
       patternUnits="userSpaceOnUse"
       id="EMFhbasepattern" />
  </defs>
  <path
     id="path5"
     d="  M 90.239332,546.95595   C 210.47844,617.91542 405.517,617.91542 525.75611,546.95595   C 646.07521,475.91647 646.07521,360.87733 525.75611,289.91785   C 405.517,218.87838 210.47844,218.87838 90.239332,289.91785   C -30.079777,360.87733 -30.079777,475.91647 90.239332,546.95595   z "
     style="fill:#f3f2f1;fill-rule:nonzero;fill-opacity:1;stroke:none;" />
  <path
     id="path7"
     d="  M 535.43603,473.99649   C 558.47586,487.27639 558.47586,508.79623 535.43603,522.07613   C 512.4762,535.35603 475.11648,535.35603 452.15665,522.07613   C 429.11682,508.79623 429.11682,487.27639 452.15665,473.99649   C 475.11648,460.71659 512.4762,460.71659 535.43603,473.99649   z "
     style="fill:#dadbd8;fill-rule:nonzero;fill-opacity:1;stroke:none;" />
  <path
     id="path9"
     d="  M 456.87662,60.159554   L 467.03654,66.079511   C 467.03654,65.599514 466.95654,65.199517 466.95654,64.719521   L 466.95654,61.759543   C 466.95654,56.479582 470.71651,54.319598 475.27648,56.959578   C 477.11647,58.07957 478.79645,59.759557 480.15644,61.759543   C 480.95644,55.119592 486.1564,52.63961 492.39635,56.239583   C 499.2763,60.239554 504.79626,69.839483 504.79626,77.679425   L 504.79626,82.159391   C 504.79626,84.159377 504.39626,85.919364 503.75627,87.279353   L 512.23621,92.159317   C 514.79619,93.599307 516.79617,97.19928 516.79617,100.07926   C 516.79617,103.03924 514.79619,104.23923 512.23621,102.71924   L 456.87662,70.719476   C 454.31663,69.279487 452.23665,65.759513 452.23665,62.799535   C 452.23665,59.919556 454.31663,58.719565 456.87662,60.159554   z "
     style="fill:#e7e8e5;fill-rule:nonzero;fill-opacity:1;stroke:none;" />
  <path
     id="path11"
     d="  M 413.11694,89.999333   L 420.79688,94.399301   C 420.79688,94.079303 420.71688,93.759305 420.71688,93.359308   L 420.71688,91.119325   C 420.71688,87.199354 423.51686,85.599366 426.95684,87.519352   C 428.39683,88.399345 429.67682,89.599336 430.71681,91.119325   C 431.27681,86.159362 435.19678,84.239376 439.91674,87.039355   C 445.1167,89.999333 449.27667,97.19928 449.27667,103.19924   L 449.27667,106.55921   C 449.27667,108.0792 448.95667,109.35919 448.47668,110.39918   L 454.87663,114.07915   C 456.79662,115.19915 458.3966,117.91913 458.3966,120.07911   C 458.3966,122.31909 456.79662,123.19909 454.87663,122.0791   L 413.11694,97.919275   C 411.19695,96.879282 409.59697,94.159303 409.59697,91.919319   C 409.59697,89.759335 411.19695,88.879342 413.11694,89.999333   z "
     style="fill:#e7e8e5;fill-rule:nonzero;fill-opacity:1;stroke:none;" />
  <path
     id="path13"
     d="  M 70.799476,342.15747   C 69.999481,342.55746 56.079585,346.47743 50.959623,339.67748   C 45.759661,332.87753 54.319598,322.23761 49.519633,318.31764   C 44.639669,314.39767 31.03977,318.31764 27.759794,310.0777   C 24.559818,301.83776 34.239746,298.31779 28.799787,289.99785   C 25.359812,284.71789 16.959874,281.83791 16.15988,276.95795   C 14.959889,268.87801 28.31979,265.19804 39.839705,272.79798   C 51.27962,280.47792 58.159569,276.95795 61.839542,276.47795   C 65.439515,275.91796 73.279457,277.03795 73.039459,289.83785   C 72.799461,302.55776 70.799476,342.15747 70.799476,342.15747   z "
     style="fill:#26b6a6;fill-rule:nonzero;fill-opacity:1;stroke:none;" />
  <path
     id="path15"
     d="  M 71.679469,323.9976   C 71.359471,323.9976 71.039474,323.7576 70.959474,323.3576   C 66.959504,299.11778 38.799713,279.43793 24.159821,275.19796   C 23.759824,275.11796 23.519826,274.63797 23.679825,274.23797   C 23.759824,273.83797 24.159821,273.59797 24.559818,273.75797   C 39.599707,278.07794 68.399493,298.23779 72.479463,323.11761   C 72.559463,323.5176 72.239465,323.9176 71.839468,323.9976   L 71.679469,323.9976   z "
     style="fill:#ffffff;fill-rule:nonzero;fill-opacity:1;stroke:none;" />
  <path
     id="path17"
     d="  M 38.479715,303.75775   C 38.239717,303.75775 37.999719,303.59775 37.83972,303.35775   C 37.679721,302.95776 37.75972,302.55776 38.159717,302.31776   C 38.559714,302.07776 49.439634,295.67781 60.079555,298.63779   C 60.479552,298.79779 60.71955,299.19778 60.639551,299.59778   C 60.479552,299.99778 60.079555,300.23778 59.679558,300.15778   C 49.599633,297.3578 39.039711,303.51775 38.879712,303.59775   C 38.799713,303.67775 38.639714,303.75775 38.479715,303.75775   z "
     style="fill:#ffffff;fill-rule:nonzero;fill-opacity:1;stroke:none;" />
  <path
     id="path19"
     d="  M 76.159436,351.4374   C 76.159436,354.87737 78.799416,359.19734 81.999393,361.03733   L 243.75819,454.39663   C 246.87817,456.23662 252.07813,456.23662 255.27811,454.39663   L 476.63647,326.63758   C 479.83645,324.79759 482.39643,320.47763 482.39643,317.03765   C 482.39643,313.59768 479.83645,309.27771 476.63647,307.43772   L 314.87767,214.07841   C 311.67769,212.23843 306.47773,212.23843 303.27775,214.07841   L 81.999393,341.83747   C 78.799416,343.67745 76.159436,347.99742 76.159436,351.4374   z "
     style="fill:#273e47;fill-rule:nonzero;fill-opacity:1;stroke:none;" />
  <path
     id="path21"
     d="  M 249.51815,443.27672   L 249.51815,455.83662   C 247.43817,455.83662 245.27818,455.35663 243.75819,454.39663   L 81.919393,361.03733   C 78.799416,359.19734 76.159436,354.87737 76.159436,351.4374   C 76.159436,348.23742 78.479419,344.23745 81.359397,342.23746   C 78.799416,344.07745 78.959415,346.79743 81.919393,348.55742   L 243.75819,441.91673   C 245.27818,442.87672 247.43817,443.27672 249.51815,443.27672   z "
     style="fill:#17282f;fill-rule:nonzero;fill-opacity:1;stroke:none;" />
  <path
     id="path23"
     d="  M 70.799476,342.07747   C 67.759498,340.31748 65.359516,335.91751 65.359516,332.23754   L 65.359516,139.19897   C 65.359516,135.519 67.919497,131.03903 71.119473,129.19904   L 292.47783,1.4399893   C 295.67781,-0.39999704 300.63777,-0.47999644 303.67775,1.1999911   C 306.63773,2.9599781 309.03771,7.3599455 309.03771,11.039918   L 309.03771,204.07849   C 309.03771,207.75846 306.47773,212.23843 303.27775,214.07841   L 81.999393,341.83747   C 78.799416,343.67745 73.759454,343.75745 70.799476,342.07747   z "
     style="fill:#33535f;fill-rule:nonzero;fill-opacity:1;stroke:none;" />
  <path
     id="path25"
     d="  M 81.279398,342.23746   C 78.079422,343.67745 73.519455,343.67745 70.799476,342.07747   C 67.759498,340.31748 65.359516,335.91751 65.359516,332.23754   L 65.359516,139.19897   C 65.359516,137.35898 65.999511,135.359 67.039503,133.51901   L 77.839423,139.75896   L 77.839423,139.75896   C 76.799431,141.59895 76.159436,143.59894 76.159436,145.43892   L 76.159436,338.55749   C 76.159436,341.91747 78.399419,343.43746 81.279398,342.23746   z "
     style="fill:#17282f;fill-rule:nonzero;fill-opacity:1;stroke:none;" />
  <path
     id="path27"
     d="  M 76.159436,145.51892   L 76.159436,338.55749   C 76.159436,342.23746 78.799416,343.67745 81.999393,341.83747   L 303.27775,214.07841   C 306.47773,212.23843 309.03771,207.75846 309.03771,204.07849   L 309.03771,11.039918   C 309.03771,7.3599455 306.47773,5.8399567 303.27775,7.6799431   L 81.999393,135.519   C 78.799416,137.35898 76.159436,141.83895 76.159436,145.51892   z "
     style="fill:#273e47;fill-rule:nonzero;fill-opacity:1;stroke:none;" />
  <path
     id="path29"
     d="  M 81.999393,348.55742   L 243.75819,441.91673   C 246.87817,443.75671 252.07813,443.75671 255.27811,441.91673   L 476.63647,314.15767   C 479.83645,312.31769 479.83645,309.27771 476.63647,307.43772   L 314.87767,214.07841   C 311.67769,212.23843 306.47773,212.23843 303.27775,214.07841   L 81.999393,341.83747   C 78.799416,343.67745 78.799416,346.71743 81.999393,348.55742   z "
     style="fill:#33535f;fill-rule:nonzero;fill-opacity:1;stroke:none;" />
  <path
     id="path31"
     d="  M 85.03937,146.15892   L 298.47779,23.039829   C 300.39777,21.919838 301.91776,22.799831 301.91776,25.039815   L 301.91776,192.15858   C 301.91776,194.31856 300.39777,197.03854 298.47779,198.15853   L 85.03937,321.27762   C 83.119384,322.39761 81.599396,321.51762 81.599396,319.27763   L 81.599396,152.15887   C 81.599396,149.99889 83.119384,147.27891 85.03937,146.15892   z "
     style="fill:#ffffff;fill-rule:nonzero;fill-opacity:1;stroke:none;" />
  <path
     id="path33"
     d="  M 83.519381,321.75762   C 82.39939,321.75762 81.599396,320.87762 81.599396,319.27763   L 81.599396,152.15887   C 81.599396,149.99889 83.119384,147.27891 85.03937,146.15892   L 298.47779,23.039829   C 299.03778,22.719832 299.51778,22.559833 299.99778,22.559833   C 301.11777,22.559833 301.91776,23.439826 301.91776,25.039815   L 301.91776,192.15858   C 301.91776,194.31856 300.39777,197.03854 298.47779,198.15853   L 85.03937,321.27762   C 84.479374,321.59762 83.999378,321.75762 83.519381,321.75762   z "
     style="fill:#5cc8bc;fill-rule:nonzero;fill-opacity:1;stroke:none;" />
  <path
     id="path35"
     d="  M 191.27858,135.599   C 196.95854,132.31902 201.59851,135.039 201.59851,141.59895   C 201.59851,148.1589 196.95854,156.07884 191.27858,159.35882   C 185.59863,162.6388 181.03866,159.99881 181.03866,153.43886   C 181.03866,146.87891 185.59863,138.87897 191.27858,135.599   z "
     style="fill:#ededeb;fill-rule:nonzero;fill-opacity:1;stroke:none;" />
  <path
     id="path37"
     d="  M 211.59843,170.71874   C 211.59843,159.91882 203.99849,155.11885 194.71856,160.55881   L 188.8786,163.91879   C 179.51867,169.27875 171.91873,182.39865 171.91873,193.19857   L 171.91873,196.07855   L 211.59843,173.19872   L 211.59843,170.71874   z "
     style="fill:#ededeb;fill-rule:nonzero;fill-opacity:1;stroke:none;" />
  <path
     id="path39"
     d="  M 231.59828,176.0787   C 231.27829,175.1987 230.31829,174.9587 229.1983,175.5987   L 159.99881,215.5184   C 159.27882,215.9184 158.63882,216.6384 158.15883,217.43839   C 157.67883,218.23838 157.43883,219.11838 157.43883,219.91837   L 157.43883,228.07831   C 157.43883,229.5183 158.23883,230.1583 159.35882,229.8383   L 159.51882,229.7583   C 159.67882,229.7583 159.83882,229.6783 159.99881,229.5983   L 229.1983,189.5986   C 230.63829,188.7986 231.75828,186.79862 231.75828,185.19863   L 231.75828,177.03869   C 231.75828,176.71869 231.75828,176.31869 231.59828,176.0787   z "
     style="fill:#ededeb;fill-rule:nonzero;fill-opacity:1;stroke:none;" />
  <path
     id="path41"
     d="  M 166.23877,216.5584   C 167.59876,215.7584 168.63875,216.3984 168.63875,217.91839   C 168.63875,219.51837 167.59876,221.35836 166.23877,222.15835   C 164.87878,222.87835 163.83879,222.31835 163.83879,220.71837   C 163.83879,219.19838 164.87878,217.27839 166.23877,216.5584   z "
     style="fill:#26b6a6;fill-rule:nonzero;fill-opacity:1;stroke:none;" />
  <path
     id="path43"
     d="  M 174.31871,211.91843   C 175.5987,211.11844 176.71869,211.75843 176.71869,213.27842   C 176.71869,214.79841 175.5987,216.71839 174.31871,217.51839   C 172.95872,218.23838 171.83873,217.67839 171.83873,216.0784   C 171.83873,214.55841 172.95872,212.63842 174.31871,211.91843   z "
     style="fill:#26b6a6;fill-rule:nonzero;fill-opacity:1;stroke:none;" />
  <path
     id="path45"
     d="  M 182.31865,207.19847   C 183.67864,206.47847 184.79863,207.11847 184.79863,208.63845   C 184.79863,210.15844 183.67864,212.07843 182.31865,212.87842   C 180.95866,213.59842 179.91867,213.03842 179.91867,211.43843   C 179.91867,209.91845 180.95866,207.99846 182.31865,207.19847   z "
     style="fill:#26b6a6;fill-rule:nonzero;fill-opacity:1;stroke:none;" />
  <path
     id="path47"
     d="  M 190.39859,202.5585   C 191.75858,201.8385 192.79857,202.4785 192.79857,203.99849   C 192.79857,205.51848 191.75858,207.43846 190.39859,208.23846   C 189.0386,208.95845 187.91861,208.31846 187.91861,206.79847   C 187.91861,205.27848 189.0386,203.35849 190.39859,202.5585   z "
     style="fill:#26b6a6;fill-rule:nonzero;fill-opacity:1;stroke:none;" />
  <path
     id="path49"
     d="  M 198.39853,197.91853   C 199.75852,197.19854 200.87851,197.83853 200.87851,199.35852   C 200.87851,200.87851 199.75852,202.7985 198.39853,203.59849   C 197.03854,204.31849 195.99855,203.67849 195.99855,202.1585   C 195.99855,200.63851 197.03854,198.71853 198.39853,197.91853   z "
     style="fill:#26b6a6;fill-rule:nonzero;fill-opacity:1;stroke:none;" />
  <path
     id="path51"
     d="  M 206.47847,193.27857   C 207.83846,192.55857 208.87845,193.11857 208.87845,194.71856   C 208.87845,196.23855 207.83846,198.15853 206.47847,198.95853   C 205.11848,199.67852 203.99849,199.03853 203.99849,197.51854   C 203.99849,195.99855 205.11848,194.07856 206.47847,193.27857   z "
     style="fill:#26b6a6;fill-rule:nonzero;fill-opacity:1;stroke:none;" />
  <path
     id="path53"
     d="  M 214.47841,188.6386   C 215.8384,187.91861 216.95839,188.4786 216.95839,190.07859   C 216.95839,191.59858 215.8384,193.51857 214.47841,194.23856   C 213.19842,195.03856 212.07843,194.39856 212.07843,192.87857   C 212.07843,191.35858 213.19842,189.4386 214.47841,188.6386   z "
     style="fill:#26b6a6;fill-rule:nonzero;fill-opacity:1;stroke:none;" />
  <path
     id="path55"
     d="  M 222.55835,183.99864   C 223.91834,183.27864 224.95833,183.83864 224.95833,185.43863   C 224.95833,186.95862 223.91834,188.8786 222.55835,189.5986   C 221.19836,190.39859 220.15837,189.75859 220.15837,188.23861   C 220.15837,186.63862 221.19836,184.79863 222.55835,183.99864   z "
     style="fill:#26b6a6;fill-rule:nonzero;fill-opacity:1;stroke:none;" />
  <path
     id="path57"
     d="  M 100.71925,343.51746   L 306.15773,224.87833   C 307.75772,223.99834 310.3977,223.99834 311.99769,224.87833   L 322.47761,230.95829   C 324.0776,231.91828 324.0776,233.35827 322.47761,234.31826   L 116.95913,352.87739   C 115.35915,353.83738 112.79916,353.83738 111.19918,352.87739   L 100.71925,346.87743   C 99.119266,345.91744 99.119266,344.47745 100.71925,343.51746   z "
     style="fill:#273e47;fill-rule:nonzero;fill-opacity:1;stroke:none;" />
  <path
     id="path59"
     d="  M 127.83905,359.19734   L 333.27753,240.55822   C 334.87752,239.59823 337.4375,239.59823 339.03749,240.55822   L 403.67701,277.83794   C 405.277,278.79793 405.277,280.23792 403.67701,281.19792   L 198.47853,399.67704   C 196.87854,400.55703 194.31856,400.55703 192.71857,399.67704   L 127.83905,362.47731   C 126.23906,361.59732 126.23906,360.07733 127.83905,359.19734   z "
     style="fill:#17282f;fill-rule:nonzero;fill-opacity:1;stroke:none;" />
  <path
     id="path61"
     d="  M 238.31823,308.63771   C 238.63823,308.79771 239.11823,308.79771 239.35823,308.63771   L 245.83818,304.95774   C 246.07818,304.79774 246.07818,304.55774 245.75818,304.39775   L 238.31823,300.07778   C 238.07824,299.91778 237.59824,299.91778 237.27824,300.07778   L 230.87829,303.75775   C 230.63829,303.91775 230.63829,304.15775 230.87829,304.31775   L 238.31823,308.63771   z  M 314.87767,261.27806   C 315.19767,261.51806 315.67766,261.51806 315.91766,261.35806   L 322.31761,257.59809   C 322.63761,257.43809 322.63761,257.19809 322.31761,257.0381   L 320.31763,255.9181   C 320.07763,255.67811 319.59763,255.67811 319.27763,255.8381   L 312.87768,259.59808   C 312.63768,259.75808 312.63768,259.99807 312.87768,260.15807   L 314.87767,261.27806   M 372.79724,283.3579   L 379.27719,279.59793   C 379.51719,279.43793 379.51719,279.19793 379.19719,279.03793   L 371.75725,274.71797   C 371.51725,274.55797 371.03725,274.55797 370.79725,274.71797   L 364.3173,278.39794   C 364.0773,278.55794 364.0773,278.87793 364.3973,279.03793   L 371.83725,283.2779   C 372.07724,283.4379 372.55724,283.5179 372.79724,283.3579   z  M 349.35741,259.43808   C 349.59741,259.67808 350.07741,259.67808 350.31741,259.51808   L 356.79736,255.75811   C 357.03736,255.59811 357.03736,255.35811 356.71736,255.19811   L 349.27741,250.87814   C 349.03741,250.71814 348.55742,250.71814 348.31742,250.87814   L 341.83747,254.55811   C 341.59747,254.71811 341.59747,255.03811 341.91747,255.19811   L 349.35741,259.43808   M 333.67753,250.47814   C 333.99753,250.63814 334.47752,250.63814 334.71752,250.47814   L 341.11747,246.79817   C 341.43747,246.63817 341.43747,246.31818 341.11747,246.15818   L 339.11749,245.03818   C 338.87749,244.87819 338.39749,244.87819 338.0775,245.03818   L 331.67754,248.71816   C 331.43754,248.87816 331.43754,249.11815 331.67754,249.27815   L 333.67753,250.47814   z  M 305.51774,266.71802   C 305.75774,266.87802 306.23773,266.87802 306.55773,266.71802   L 312.95768,263.03805   C 313.19768,262.87805 313.19768,262.63805 312.87768,262.47806   L 310.9577,261.27806   C 310.6377,261.11807 310.1577,261.11807 309.9177,261.27806   L 303.43775,265.03804   C 303.19775,265.19804 303.19775,265.43803 303.51775,265.59803   L 305.51774,266.71802   M 257.1181,297.75779   C 257.43809,297.99779 257.91809,297.99779 258.15809,297.83779   L 264.63804,294.07782   C 264.87804,293.91782 264.87804,293.67782 264.55804,293.51783   L 257.1181,289.19786   C 256.8781,289.03786 256.3981,289.03786 256.0781,289.19786   L 249.67815,292.87783   C 249.43815,293.03783 249.43815,293.35783 249.67815,293.51783   L 257.1181,297.75779   z  M 247.75816,303.19775   C 248.07816,303.35775 248.47816,303.43775 248.79816,303.27775   L 255.19811,299.51778   C 255.51811,299.35778 255.43811,299.11778 255.19811,298.95779   L 247.75816,294.63782   C 247.43817,294.47782 246.95817,294.47782 246.71817,294.63782   L 240.31822,298.31779   C 239.99822,298.47779 239.99822,298.79779 240.31822,298.95779   L 247.75816,303.19775   M 287.43787,280.31792   C 287.75787,280.47792 288.15787,280.47792 288.47786,280.31792   L 294.87782,276.63795   C 295.19781,276.47795 295.11781,276.15795 294.87782,275.99796   L 287.43787,271.75799   C 287.11787,271.59799 286.63788,271.51799 286.39788,271.67799   L 279.99793,275.43796   C 279.67793,275.59796 279.67793,275.83796 279.99793,275.99796   L 287.43787,280.31792   M 266.55803,292.39783   C 266.87802,292.55783 267.27802,292.55783 267.59802,292.39783   L 273.99797,288.63786   C 274.31797,288.47786 274.23797,288.23786 273.99797,288.07787   L 266.55803,283.7579   C 266.23803,283.5979 265.75803,283.5979 265.51803,283.7579   L 259.11808,287.51787   C 258.79808,287.67787 258.79808,287.91787 259.11808,288.07787   L 266.55803,292.39783   M 296.8778,274.87796   C 297.1178,275.03796 297.5978,275.03796 297.83779,274.87796   L 304.31775,271.19799   C 304.55774,271.03799 304.55774,270.79799 304.23775,270.558   L 296.7978,266.31803   C 296.5578,266.15803 296.07781,266.15803 295.83781,266.31803   L 289.35786,269.998   C 289.11786,270.158 289.11786,270.398 289.43786,270.558   L 296.8778,274.87796   M 278.07794,285.75788   C 278.31794,285.91788 278.79793,285.91788 279.03793,285.75788   L 285.51789,282.07791   C 285.75788,281.91791 285.75788,281.59791 285.43789,281.43792   L 277.99794,277.19795   C 277.75794,276.95795 277.27795,276.95795 276.95795,277.11795   L 270.558,280.87792   C 270.318,281.03792 270.318,281.27792 270.638,281.43792   L 278.07794,285.75788   z  M 324.3176,255.9181   C 324.5576,256.0781 325.03759,256.0781 325.35759,255.9181   L 331.75754,252.15813   C 331.99754,251.99813 331.99754,251.75814 331.75754,251.59814   L 329.75756,250.47814   C 329.43756,250.31815 328.95756,250.23815 328.71757,250.39815   L 322.31761,254.15812   C 321.99761,254.31812 321.99761,254.55811 322.31761,254.71811   L 324.3176,255.9181   M 281.27792,336.15751   L 287.67787,332.47754   C 287.99787,332.31754 287.99787,332.07754 287.67787,331.83754   L 280.23792,327.59757   C 279.91793,327.43757 279.51793,327.43757 279.19793,327.59757   L 272.79798,331.27755   C 272.47798,331.43754 272.55798,331.67754 272.79798,331.83754   L 280.23792,336.15751   C 280.55792,336.31751 281.03792,336.31751 281.27792,336.15751   z  M 262.47806,347.03743   L 268.87801,343.35746   C 269.19801,343.19746 269.19801,342.87746 268.87801,342.71746   L 261.43806,338.39749   C 261.11807,338.23749 260.71807,338.23749 260.39807,338.39749   L 253.99812,342.15747   C 253.67812,342.31746 253.75812,342.55746 253.99812,342.71746   L 261.43806,347.03743   C 261.75806,347.19743 262.23806,347.19743 262.47806,347.03743   z  M 271.91799,341.59747   L 278.31794,337.9175   C 278.55794,337.7575 278.55794,337.4375 278.31794,337.2775   L 270.87799,333.03753   C 270.558,332.87753 270.078,332.79753 269.838,332.95753   L 263.35805,336.71751   C 263.11805,336.8775 263.11805,337.1175 263.43805,337.2775   L 270.87799,341.59747   C 271.11799,341.75747 271.59799,341.75747 271.91799,341.59747   z  M 234.23826,363.35731   L 240.71822,359.59734   C 240.95822,359.43734 240.95822,359.19734 240.63822,359.03734   L 233.19827,354.71737   C 232.95827,354.55737 232.47828,354.55737 232.23828,354.71737   L 225.75833,358.39735   C 225.51833,358.55734 225.51833,358.79734 225.83833,359.03734   L 233.27827,363.27731   C 233.51827,363.43731 233.99827,363.51731 234.23826,363.35731   z  M 253.11813,352.47739   L 259.51808,348.71742   C 259.75808,348.55742 259.75808,348.31742 259.43808,348.15742   L 251.99813,343.83745   C 251.75814,343.67745 251.27814,343.67745 251.03814,343.83745   L 244.55819,347.51743   C 244.31819,347.67742 244.31819,347.99742 244.63819,348.15742   L 252.07813,352.47739   C 252.31813,352.63739 252.79813,352.63739 253.11813,352.47739   z  M 243.67819,357.91735   L 250.07815,354.15738   C 250.39815,353.99738 250.39815,353.75738 250.07815,353.59738   L 242.6382,349.27741   C 242.31821,349.11741 241.91821,349.11741 241.59821,349.27741   L 235.19826,352.95739   C 234.87826,353.11738 234.95826,353.43738 235.19826,353.59738   L 242.6382,357.83735   C 242.9582,358.07735 243.4382,358.07735 243.67819,357.91735   z  M 332.23754,306.15773   C 332.47754,306.31773 332.95753,306.31773 333.27753,306.15773   L 339.67748,302.47776   C 339.91748,302.31776 339.91748,302.07776 339.59748,301.83776   L 332.23754,297.5978   C 331.91754,297.4378 331.43754,297.4378 331.19755,297.5978   L 324.71759,301.27777   C 324.4776,301.43777 324.4776,301.67777 324.79759,301.83776   L 332.23754,306.15773   M 290.71785,330.71755   L 297.1178,327.03758   C 297.3578,326.87758 297.3578,326.63758 297.1178,326.47758   L 289.67785,322.15761   C 289.35786,321.99761 288.87786,321.99761 288.63786,322.15761   L 282.15791,325.83759   C 281.91791,325.99759 281.91791,326.23758 282.23791,326.39758   L 289.67785,330.71755   C 289.91785,330.87755 290.39785,330.87755 290.71785,330.71755   M 343.35746,288.07787   L 349.83741,284.31789   C 350.07741,284.1579 350.07741,283.9179 349.75741,283.7579   L 342.31746,279.43793   C 342.07747,279.27793 341.59747,279.27793 341.35747,279.43793   L 334.87752,283.1179   C 334.63752,283.2779 334.63752,283.5979 334.95752,283.7579   L 342.39746,287.99787   C 342.63746,288.23786 343.11746,288.23786 343.35746,288.07787   z  M 352.95739,294.15782   C 353.27738,294.31782 353.75738,294.31782 353.99738,294.15782   L 360.47733,290.47785   C 360.71733,290.31785 360.71733,290.07785 360.39733,289.83785   L 352.95739,285.59788   C 352.71739,285.43789 352.23739,285.43789 351.91739,285.59788   L 345.51744,289.27786   C 345.27744,289.43786 345.27744,289.67785 345.59744,289.83785   L 352.95739,294.15782   M 300.07778,325.35759   L 318.87764,314.47767   C 319.19764,314.31767 319.11764,314.07767 318.87764,313.83768   L 311.43769,309.59771   C 311.1177,309.43771 310.6377,309.43771 310.3977,309.59771   L 291.59784,320.39763   C 291.27784,320.55763 291.35784,320.87762 291.59784,321.03762   L 299.03778,325.27759   C 299.35778,325.43759 299.83778,325.51759 300.07778,325.35759   M 321.35762,288.47786   L 327.83757,284.79789   C 328.07757,284.63789 328.07757,284.31789 327.75757,284.1579   L 320.31763,279.91793   C 320.07763,279.67793 319.59763,279.67793 319.35763,279.83793   L 312.87768,283.5979   C 312.63768,283.7579 312.63768,283.9979 312.95768,284.1579   L 320.39763,288.47786   C 320.63762,288.63786 321.11762,288.63786 321.35762,288.47786   M 363.43731,288.71786   L 369.83726,285.03789   C 370.15726,284.87789 370.07726,284.63789 369.83726,284.47789   L 362.39732,280.15792   C 362.07732,279.99793 361.59732,279.99793 361.35732,280.15792   L 354.95737,283.8379   C 354.63737,283.9979 354.63737,284.23789 354.95737,284.47789   L 362.39732,288.71786   C 362.71731,288.87786 363.11731,288.87786 363.43731,288.71786   M 342.79746,303.67775   C 342.55746,303.51775 342.07747,303.51775 341.83747,303.67775   L 335.35752,307.43772   C 335.11752,307.59772 335.11752,307.83772 335.43752,307.99772   L 342.87746,312.31769   C 343.11746,312.47769 343.59745,312.47769 343.83745,312.31769   L 350.31741,308.63771   C 350.5574,308.47771 350.5574,308.15772 350.23741,307.99772   L 342.79746,303.67775   M 309.19771,323.11761   C 308.87771,322.95761 308.39772,322.95761 308.15772,323.11761   L 300.23778,327.67757   C 299.99778,327.83757 299.99778,328.07757 300.23778,328.31757   L 307.67772,332.55754   C 307.99772,332.71754 308.47771,332.79753 308.71771,332.63754   L 316.63765,327.99757   C 316.95765,327.83757 316.87765,327.59757 316.63765,327.43757   L 309.19771,323.11761   M 209.67845,380.55718   C 209.43845,380.39718 208.95845,380.39718 208.71845,380.55718   L 200.79851,385.11715   C 200.47851,385.27715 200.47851,385.51714 200.79851,385.67714   L 208.23846,389.99711   C 208.55846,390.15711 209.03845,390.15711 209.27845,389.99711   L 217.19839,385.43714   C 217.43839,385.27715 217.43839,385.03715 217.11839,384.87715   L 209.67845,380.55718   z  M 287.43787,335.67751   C 287.11787,335.51751 286.63788,335.51751 286.39788,335.67751   L 278.47794,340.23748   C 278.15794,340.39748 278.23794,340.71748 278.47794,340.87747   L 285.91788,345.11744   C 286.23788,345.35744 286.71788,345.35744 286.95787,345.19744   L 294.87782,340.63748   C 295.11781,340.47748 295.11781,340.15748 294.87782,339.99748   L 287.43787,335.67751   M 220.63837,374.31723   C 220.31837,374.07723 219.83837,374.07723 219.59837,374.23723   L 211.67843,378.79719   C 211.35843,378.95719 211.43843,379.27719 211.67843,379.43719   L 219.11838,383.75716   C 219.43837,383.91716 219.91837,383.91716 220.15837,383.75716   L 228.07831,379.19719   C 228.31831,379.03719 228.31831,378.71719 228.07831,378.5572   L 220.63837,374.31723   z  M 276.55795,341.99747   C 276.23795,341.83747 275.75796,341.83747 275.51796,341.99747   L 222.55835,372.55724   C 222.23835,372.71724 222.31835,372.95724 222.55835,373.11724   L 229.9983,377.4372   C 230.31829,377.5972 230.79829,377.5972 231.03829,377.4372   L 283.9979,346.87743   C 284.23789,346.71743 284.23789,346.47743 283.9179,346.31743   L 276.55795,341.99747   z  M 322.07761,315.67766   C 321.75762,315.51766 321.27762,315.51766 321.03762,315.67766   L 311.1177,321.43762   C 310.8777,321.59762 310.8777,321.83762 311.1177,321.99761   L 318.55764,326.31758   C 318.87764,326.47758 319.35763,326.47758 319.59763,326.31758   L 329.51756,320.63762   C 329.75756,320.47763 329.75756,320.15763 329.51756,319.99763   L 322.07761,315.67766   M 298.31779,329.43756   C 297.99779,329.27756 297.5178,329.27756 297.2778,329.43756   L 289.35786,333.99753   C 289.03786,334.15752 289.11786,334.39752 289.35786,334.55752   L 296.7978,338.87749   C 297.1178,339.03749 297.5978,339.03749 297.83779,338.87749   L 305.75774,334.31752   C 306.07773,334.15752 305.99773,333.91753 305.75774,333.75753   L 298.31779,329.43756   M 399.27704,279.75793   L 381.19718,269.27801   C 380.87718,269.11801 380.39718,269.11801 380.15718,269.27801   L 373.75723,272.95798   C 373.43723,273.11798 373.43723,273.43797 373.75723,273.59797   L 391.8371,283.9979   C 392.1571,284.1579 392.55709,284.1579 392.87709,283.9979   L 399.27704,280.31792   C 399.59704,280.15792 399.51704,279.91793 399.27704,279.75793   M 382.39717,280.87792   C 382.07717,280.71792 381.67717,280.71792 381.35718,280.87792   L 374.95722,284.55789   C 374.71722,284.71789 374.71722,284.95789 374.95722,285.11789   L 382.39717,289.43786   C 382.71717,289.59785 383.19716,289.59785 383.43716,289.43786   L 389.91711,285.75788   C 390.15711,285.59788 390.15711,285.35789 389.83711,285.11789   L 382.39717,280.87792   M 333.43753,309.11771   C 333.11753,308.95771 332.63754,308.95771 332.39754,309.11771   L 325.99759,312.87768   C 325.67759,312.95768 325.67759,313.27768 325.99759,313.43768   L 333.43753,317.75765   C 333.75753,317.91765 334.15752,317.91765 334.47752,317.75765   L 340.87747,313.99767   C 341.19747,313.83768 341.11747,313.59768 340.87747,313.43768   L 333.43753,309.11771   M 224.87833,368.71727   L 231.27829,365.0373   C 231.59828,364.8773 231.59828,364.6373 231.27829,364.4773   L 223.83834,360.15733   C 223.51834,359.99733 223.11835,359.99733 222.79835,360.15733   L 216.3984,363.8373   C 216.0784,363.9973 216.0784,364.2373 216.3984,364.3973   L 223.83834,368.71727   C 224.15834,368.87727 224.63834,368.87727 224.87833,368.71727   z  M 352.23739,298.31779   C 351.91739,298.15779 351.4374,298.07779 351.1974,298.23779   L 344.79745,301.99776   C 344.47745,302.15776 344.47745,302.39776 344.79745,302.55776   L 352.23739,306.87773   C 352.55739,307.03773 352.95739,307.03773 353.27738,306.87773   L 359.67734,303.19775   C 359.99733,303.03776 359.91733,302.71776 359.67734,302.55776   L 352.23739,298.31779   M 373.03724,286.31788   C 372.71724,286.15788 372.23724,286.07788 371.99724,286.23788   L 356.15736,295.43781   C 355.83736,295.59781 355.91736,295.83781 356.15736,295.99781   L 363.59731,300.31778   C 363.9173,300.47777 364.3973,300.47777 364.6373,300.31778   L 380.47718,291.19784   C 380.71718,291.03784 380.71718,290.71785 380.47718,290.55785   L 373.03724,286.31788   M 173.75871,345.91744   C 174.07871,346.07744 174.47871,346.15744 174.79871,345.99744   L 181.19866,342.23746   C 181.51866,342.07747 181.43866,341.83747 181.19866,341.67747   L 173.75871,337.3575   C 173.43872,337.1975 172.95872,337.1975 172.71872,337.3575   L 166.31877,341.03747   C 165.99877,341.19747 165.99877,341.51747 166.31877,341.67747   L 173.75871,345.91744   z  M 183.19864,340.47748   C 183.43864,340.71748 183.91864,340.71748 184.15864,340.55748   L 190.63859,336.79751   C 190.87859,336.63751 190.87859,336.39751 190.55859,336.23751   L 183.11864,331.91754   C 182.87865,331.75754 182.39865,331.75754 182.15865,331.91754   L 175.6787,335.59751   C 175.4387,335.75751 175.4387,336.07751 175.7587,336.23751   L 183.19864,340.47748   z  M 198.79853,386.87713   C 198.55853,386.71714 198.07853,386.63714 197.83853,386.79713   L 187.91861,392.55709   C 187.59861,392.71709 187.67861,392.95709 187.91861,393.11709   L 195.35855,397.43706   C 195.67855,397.59705 196.15855,397.59705 196.39855,397.43706   L 206.31847,391.7571   C 206.55847,391.5971 206.55847,391.2771 206.23847,391.1171   L 198.79853,386.87713   z  M 196.63854,332.71754   C 196.95854,332.87753 197.43854,332.87753 197.67854,332.71754   L 204.07849,329.03756   C 204.39849,328.87756 204.39849,328.63757 204.07849,328.47757   L 196.63854,324.1576   C 196.31855,323.9976 195.91855,323.9976 195.59855,324.1576   L 189.1986,327.83757   C 188.8786,327.99757 188.9586,328.23757 189.1986,328.39757   L 196.63854,332.71754   M 215.4384,321.83762   C 215.7584,322.07761 216.2384,322.07761 216.4784,321.91762   L 222.87835,318.15764   C 223.19835,317.99764 223.19835,317.75765 222.87835,317.59765   L 215.4384,313.27768   C 215.11841,313.11768 214.71841,313.11768 214.39841,313.27768   L 207.99846,316.95765   C 207.67846,317.11765 207.75846,317.43765 207.99846,317.59765   L 215.4384,321.83762   M 164.39878,351.3574   C 164.63878,351.5174 165.11878,351.5174 165.35878,351.3574   L 171.83873,347.67742   C 172.07873,347.51743 172.07873,347.27743 171.75873,347.11743   L 164.31878,342.79746   C 164.07878,342.63746 163.59879,342.63746 163.27879,342.79746   L 156.87884,346.47743   C 156.63884,346.63743 156.63884,346.87743 156.95884,347.03743   L 164.39878,351.3574   z  M 206.07847,327.27758   C 206.31847,327.43757 206.79847,327.43757 207.11847,327.35758   L 213.51842,323.5976   C 213.75842,323.4376 213.75842,323.19761 213.51842,323.03761   L 206.07847,318.71764   C 205.75848,318.55764 205.27848,318.55764 205.03848,318.71764   L 198.55853,322.39761   C 198.31853,322.55761 198.31853,322.79761 198.63853,323.03761   L 206.07847,327.27758   M 224.87833,316.47766   C 225.11833,316.63765 225.59833,316.63765 225.91833,316.47766   L 232.31828,312.71768   C 232.55828,312.55768 232.55828,312.31769 232.31828,312.15769   L 224.87833,307.83772   C 224.55834,307.67772 224.07834,307.67772 223.83834,307.83772   L 217.35839,311.51769   C 217.11839,311.67769 217.11839,311.99769 217.43839,312.15769   L 224.87833,316.47766   z  M 193.67857,386.15714   L 186.23862,381.83717   C 185.91862,381.67717 185.43863,381.67717 185.19863,381.83717   L 177.27869,386.39714   C 177.03869,386.55714 177.03869,386.79713 177.27869,387.03713   L 184.71863,391.2771   C 185.03863,391.4371 185.51863,391.4371 185.75862,391.3571   L 193.67857,386.71714   C 193.99856,386.55714 193.91856,386.31714 193.67857,386.15714   z  M 187.51861,377.4372   L 180.07867,373.11724   C 179.75867,372.95724 179.27867,372.95724 179.03867,373.11724   L 166.63877,380.23718   C 166.39877,380.39718 166.39877,380.71718 166.71877,380.87718   L 174.15871,385.19715   C 174.39871,385.35715 174.8787,385.35715 175.1187,385.19715   L 187.51861,378.0772   C 187.83861,377.9172 187.75861,377.5972 187.51861,377.4372   z  M 154.95885,356.79736   C 155.27885,356.95736 155.67885,356.95736 155.99884,356.79736   L 162.3988,353.11738   C 162.71879,352.95739 162.6388,352.71739 162.3988,352.47739   L 154.95885,348.23742   C 154.63885,348.07742 154.15886,348.07742 153.91886,348.23742   L 147.51891,351.91739   C 147.19891,352.07739 147.19891,352.31739 147.51891,352.47739   L 154.95885,356.79736   z  M 148.8789,360.31733   L 141.43895,355.99736   C 141.11895,355.83736 140.71896,355.83736 140.39896,355.99736   L 132.47902,360.55733   C 132.23902,360.71733 132.23902,360.95733 132.55902,361.11733   L 139.99896,365.43729   C 140.23896,365.59729 140.71896,365.59729 141.03896,365.43729   L 148.9589,360.87733   C 149.19889,360.71733 149.19889,360.47733 148.8789,360.31733   M 174.39871,372.71724   L 166.95876,368.47727   C 166.63877,368.31727 166.23877,368.23727 165.91877,368.39727   L 155.99884,374.15723   C 155.75885,374.31723 155.75885,374.55723 156.07884,374.71722   L 163.51879,379.03719   C 163.75879,379.19719 164.23878,379.19719 164.55878,379.03719   L 174.39871,373.35723   C 174.71871,373.19724 174.71871,372.87724 174.39871,372.71724   z  M 160.31881,368.63727   L 152.87887,364.3173   C 152.55887,364.1573 152.07887,364.1573 151.83888,364.3173   L 145.43892,367.99727   C 145.11893,368.15727 145.11893,368.39727 145.43892,368.55727   L 152.87887,372.87724   C 153.19887,373.03724 153.59886,373.03724 153.91886,372.87724   L 160.31881,369.19727   C 160.63881,369.03727 160.55881,368.79727 160.31881,368.63727   z  M 215.4384,374.15723   L 221.91836,370.47726   C 222.15835,370.31726 222.15835,370.07726 221.83836,369.83726   L 214.39841,365.59729   C 214.15841,365.43729 213.67842,365.35729 213.43842,365.51729   L 206.95847,369.27726   C 206.71847,369.43726 206.71847,369.67726 207.03847,369.83726   L 214.47841,374.15723   C 214.71841,374.31723 215.19841,374.31723 215.4384,374.15723   z  M 222.31835,335.83751   L 215.9184,339.59748   C 215.5984,339.75748 215.6784,339.99748 215.9184,340.15748   L 223.35835,344.47745   C 223.67834,344.63745 224.15834,344.63745 224.39834,344.47745   L 230.79829,340.79748   C 231.11829,340.63748 231.11829,340.31748 230.79829,340.15748   L 223.35835,335.91751   C 223.03835,335.67751 222.63835,335.67751 222.31835,335.83751   z  M 212.95842,341.27747   L 206.47847,345.03744   C 206.23847,345.11744 206.23847,345.43744 206.55847,345.59744   L 213.99841,349.91741   C 214.23841,350.07741 214.71841,350.07741 215.03841,349.91741   L 221.43836,346.15744   C 221.67836,345.99744 221.67836,345.75744 221.43836,345.59744   L 213.99841,341.27747   C 213.67842,341.11747 213.19842,341.11747 212.95842,341.27747   z  M 250.55814,319.59763   L 244.07819,323.27761   C 243.83819,323.4376 243.83819,323.6776 244.15819,323.9176   L 251.59814,328.15757   C 251.83813,328.31757 252.31813,328.31757 252.63813,328.15757   L 259.03808,324.4776   C 259.27808,324.3176 259.27808,324.0776 259.03808,323.9176   L 251.59814,319.59763   C 251.27814,319.43763 250.79814,319.43763 250.55814,319.59763   M 231.75828,330.39755   L 225.27833,334.15752   C 225.03833,334.31752 225.03833,334.55752 225.35833,334.71752   L 232.79828,339.03749   C 233.03827,339.19749 233.51827,339.19749 233.83827,339.03749   L 240.23822,335.35752   C 240.47822,335.19752 240.47822,334.87752 240.23822,334.71752   L 232.79828,330.47755   C 232.47828,330.31755 231.99828,330.23755 231.75828,330.39755   z  M 241.11821,325.03759   L 234.71826,328.71757   C 234.39826,328.87756 234.47826,329.11756 234.71826,329.27756   L 242.15821,333.59753   C 242.4782,333.75753 242.9582,333.75753 243.1982,333.59753   L 249.67815,329.91756   C 249.91815,329.75756 249.91815,329.51756 249.59815,329.27756   L 242.15821,325.03759   C 241.83821,324.87759 241.43821,324.87759 241.11821,325.03759   M 203.51849,346.71743   L 197.11854,350.3974   C 196.79854,350.5574 196.87854,350.8774 197.11854,351.0374   L 204.55848,355.27737   C 204.87848,355.51737 205.35848,355.51737 205.59848,355.35737   L 211.99843,351.5974   C 212.31843,351.4374 212.31843,351.1974 211.99843,351.0374   L 204.55848,346.71743   C 204.23849,346.55743 203.83849,346.55743 203.51849,346.71743   z  M 194.15856,352.15739   L 187.67861,355.83736   C 187.43861,355.99736 187.43861,356.31736 187.75861,356.47736   L 195.19855,360.71733   C 195.43855,360.87733 195.91855,360.95733 196.23855,360.79733   L 202.6385,357.03736   C 202.8785,356.87736 202.8785,356.63736 202.5585,356.47736   L 195.11855,352.15739   C 194.87856,351.99739 194.39856,351.99739 194.15856,352.15739   z  M 228.07831,354.63737   L 234.55826,350.8774   C 234.79826,350.7174 234.79826,350.4774 234.47826,350.31741   L 227.03832,345.99744   C 226.79832,345.83744 226.31832,345.83744 225.99833,345.99744   L 219.59837,349.67741   C 219.35838,349.83741 219.35838,350.15741 219.59837,350.31741   L 227.03832,354.55737   C 227.35832,354.79737 227.83831,354.79737 228.07831,354.63737   z  M 218.71838,360.07733   L 225.11833,356.31736   C 225.43833,356.15736 225.35833,355.91736 225.11833,355.75736   L 217.67839,351.4374   C 217.35839,351.2774 216.87839,351.2774 216.6384,351.4374   L 210.23844,355.11737   C 209.91845,355.27737 209.91845,355.59737 210.23844,355.75736   L 217.67839,359.99733   C 217.99839,360.15733 218.39838,360.23733 218.71838,360.07733   z  M 209.27845,365.43729   L 215.7584,361.75732   C 215.9984,361.59732 215.9984,361.35732 215.6784,361.19732   L 208.23846,356.87736   C 207.99846,356.71736 207.51846,356.71736 207.19847,356.87736   L 200.79851,360.55733   C 200.55851,360.71733 200.55851,360.95733 200.79851,361.11733   L 208.23846,365.43729   C 208.55846,365.59729 209.03845,365.59729 209.27845,365.43729   M 184.71863,357.59735   L 178.31868,361.27732   C 177.99868,361.43732 178.07868,361.67732 178.31868,361.83732   L 185.75862,366.15729   C 186.07862,366.31729 186.55862,366.31729 186.79862,366.15729   L 193.19857,362.47731   C 193.51857,362.31732 193.51857,362.07732 193.19857,361.91732   L 185.75862,357.59735   C 185.43863,357.43735 185.03863,357.43735 184.71863,357.59735   z  M 198.87853,370.87725   C 199.19852,371.03725 199.59852,371.03725 199.91852,370.87725   L 206.31847,367.19728   C 206.63847,367.03728 206.55847,366.79728 206.31847,366.55728   L 198.87853,362.31732   C 198.55853,362.15732 198.07853,362.15732 197.83853,362.23732   L 191.35858,365.99729   C 191.11858,366.15729 191.11858,366.39729 191.43858,366.55728   L 198.87853,370.87725   z  M 269.358,308.71771   L 262.87805,312.39769   C 262.63805,312.55768 262.63805,312.87768 262.95805,313.03768   L 270.398,317.35765   C 270.71799,317.51765 271.11799,317.51765 271.43799,317.35765   L 277.83794,313.59768   C 278.15794,313.43768 278.07794,313.19768 277.83794,313.03768   L 270.398,308.71771   C 270.078,308.55771 269.598,308.55771 269.358,308.71771   M 351.75739,282.63791   C 352.07739,282.79791 352.55739,282.79791 352.79739,282.63791   L 359.19734,278.87793   C 359.51734,278.71794 359.51734,278.47794 359.19734,278.31794   L 351.75739,273.99797   C 351.4374,273.83797 351.0374,273.83797 350.7174,273.99797   L 344.31745,277.67794   C 343.99745,277.83794 344.07745,278.15794 344.31745,278.31794   L 351.75739,282.63791   M 259.91807,314.15767   L 253.51812,317.83765   C 253.19812,317.99764 253.27812,318.31764 253.51812,318.47764   L 260.95807,322.71761   C 261.27806,322.87761 261.75806,322.95761 261.99806,322.79761   L 268.47801,319.03764   C 268.71801,318.87764 268.71801,318.63764 268.39801,318.47764   L 260.95807,314.15767   C 260.63807,313.99767 260.23807,313.99767 259.91807,314.15767   M 330.71755,273.27798   L 324.2376,277.03795   C 323.9976,277.19795 323.9976,277.43794 324.3176,277.59794   L 331.75754,281.91791   C 332.07754,282.07791 332.47754,282.07791 332.79753,281.91791   L 339.19749,278.23794   C 339.43749,278.07794 339.43749,277.75794 339.19749,277.59794   L 331.75754,273.27798   C 331.43754,273.11798 330.95755,273.11798 330.71755,273.27798   M 352.47739,261.27806   L 370.55726,271.75799   C 370.87725,271.91799 371.35725,271.91799 371.59725,271.75799   L 377.9972,268.07801   C 378.3172,267.91802 378.3172,267.59802 377.9972,267.43802   L 359.91733,257.0381   C 359.67734,256.8781 359.19734,256.8781 358.87734,257.0381   L 352.47739,260.71807   C 352.23739,260.87807 352.23739,261.11807 352.47739,261.27806   M 350.5574,262.47806   C 350.23741,262.31806 349.75741,262.31806 349.51741,262.39806   L 343.03746,266.15803   C 342.79746,266.31803 342.79746,266.55803 343.11746,266.71802   L 350.5574,271.03799   C 350.8774,271.19799 351.2774,271.19799 351.5974,271.03799   L 357.99735,267.35802   C 358.31735,267.19802 358.23735,266.95802 357.99735,266.71802   L 350.5574,262.47806   M 342.15747,276.47795   L 348.63742,272.79798   C 348.87742,272.63798 348.87742,272.31798 348.55742,272.15798   L 341.11747,267.91802   C 340.79748,267.67802 340.39748,267.67802 340.07748,267.83802   L 333.67753,271.59799   C 333.43753,271.75799 333.43753,271.99799 333.67753,272.15798   L 341.11747,276.47795   C 341.43747,276.63795 341.91747,276.63795 342.15747,276.47795   z  M 362.23732,277.19795   L 368.63727,273.51797   C 368.87727,273.35798 368.87727,273.03798 368.55727,272.87798   L 361.19732,268.55801   C 360.87733,268.39801 360.39733,268.39801 360.15733,268.55801   L 353.67738,272.31798   C 353.43738,272.47798 353.43738,272.71798 353.75738,272.87798   L 361.19732,277.19795   C 361.43732,277.35795 361.91732,277.35795 362.23732,277.19795   M 246.87817,343.75745   L 253.35812,340.07748   C 253.59812,339.91748 253.59812,339.59748 253.27812,339.43749   L 245.83818,335.11752   C 245.59818,334.95752 245.11818,334.95752 244.79819,335.11752   L 238.39823,338.87749   C 238.15824,339.03749 238.15824,339.27749 238.47823,339.43749   L 245.91818,343.75745   C 246.15818,343.91745 246.63817,343.91745 246.87817,343.75745   z  M 339.91748,256.3181   C 339.59748,256.1581 339.11749,256.1581 338.87749,256.3181   L 332.47754,259.99807   C 332.15754,260.15807 332.15754,260.47807 332.47754,260.63807   L 339.91748,264.87804   C 340.23748,265.03804 340.63748,265.11804 340.95747,264.95804   L 347.35743,261.19807   C 347.67742,261.03807 347.67742,260.79807 347.35743,260.63807   L 339.91748,256.3181   z  M 280.79792,311.91769   L 287.27787,308.23772   C 287.51787,308.07772 287.51787,307.75772 287.19787,307.59772   L 279.75793,303.27775   C 279.51793,303.11775 279.03793,303.11775 278.71794,303.27775   L 272.31798,307.03773   C 272.07798,307.19772 272.07798,307.43772 272.31798,307.59772   L 279.75793,311.91769   C 280.07793,312.07769 280.55792,312.07769 280.79792,311.91769   M 329.51756,261.75806   L 323.03761,265.43803   C 322.79761,265.59803 322.79761,265.83803 323.11761,265.99803   L 330.55755,270.318   C 330.79755,270.478 331.27755,270.478 331.51754,270.318   L 337.9975,266.63802   C 338.23749,266.47803 338.23749,266.23803 337.9175,266.07803   L 330.47755,261.75806   C 330.23755,261.59806 329.75756,261.59806 329.51756,261.75806   M 308.71771,273.75797   L 302.23776,277.43794   C 301.99776,277.59794 301.99776,277.83794 302.31776,277.99794   L 309.75771,282.31791   C 309.9977,282.47791 310.4777,282.47791 310.7977,282.31791   L 317.19765,278.63794   C 317.43765,278.47794 317.43765,278.23794 317.19765,278.07794   L 309.75771,273.75797   C 309.43771,273.59797 308.95771,273.59797 308.71771,273.75797   M 320.07763,267.11802   L 313.67768,270.87799   C 313.35768,271.03799 313.35768,271.27799 313.67768,271.43799   L 321.11762,275.75796   C 321.43762,275.91796 321.83762,275.91796 322.15761,275.75796   L 328.55757,272.07798   C 328.87756,271.91799 328.79756,271.67799 328.55757,271.43799   L 321.11762,267.19802   C 320.79762,267.03802 320.31763,267.03802 320.07763,267.11802   M 237.51824,349.19741   L 243.91819,345.43744   C 244.23819,345.27744 244.15819,345.03744 243.91819,344.87745   L 236.47825,340.55748   C 236.15825,340.39748 235.67825,340.39748 235.43826,340.55748   L 229.0383,344.31745   C 228.71831,344.39745 228.71831,344.71745 229.0383,344.87745   L 236.47825,349.19741   C 236.79825,349.35741 237.19824,349.35741 237.51824,349.19741   z  M 189.4386,342.55746   L 183.03864,346.31743   C 182.71865,346.47743 182.71865,346.71743 183.03864,346.87743   L 190.47859,351.1974   C 190.79859,351.3574 191.19858,351.3574 191.51858,351.1974   L 197.91853,347.51743   C 198.23853,347.35743 198.23853,347.03743 197.91853,346.87743   L 190.47859,342.63746   C 190.15859,342.39746 189.67859,342.39746 189.4386,342.55746   z  M 198.87853,337.1175   L 192.39857,340.87747   C 192.15858,341.03747 192.15858,341.27747 192.47857,341.43747   L 199.91852,345.75744   C 200.15852,345.91744 200.63851,345.91744 200.87851,345.75744   L 207.35846,342.07747   C 207.59846,341.91747 207.59846,341.59747 207.27846,341.43747   L 199.83852,337.1975   C 199.59852,337.0375 199.11853,336.9575 198.87853,337.1175   z  M 208.23846,331.75754   L 201.8385,335.43752   C 201.51851,335.59751 201.51851,335.83751 201.8385,335.99751   L 209.27845,340.31748   C 209.59845,340.47748 210.07844,340.47748 210.31844,340.31748   L 216.71839,336.63751   C 217.03839,336.47751 217.03839,336.23751 216.71839,336.07751   L 209.27845,331.75754   C 208.95845,331.59754 208.55846,331.59754 208.23846,331.75754   z  M 227.03832,320.87762   L 220.63837,324.5576   C 220.31837,324.71759 220.39837,325.03759 220.63837,325.19759   L 228.07831,329.43756   C 228.39831,329.59756 228.8783,329.67756 229.1183,329.51756   L 235.51826,325.75759   C 235.83825,325.59759 235.83825,325.35759 235.51826,325.19759   L 228.07831,320.87762   C 227.75831,320.71762 227.35832,320.71762 227.03832,320.87762   M 180.07867,347.99742   L 173.59871,351.75739   C 173.35872,351.91739 173.35872,352.15739 173.67871,352.31739   L 181.11866,356.63736   C 181.35866,356.79736 181.83865,356.79736 182.07865,356.63736   L 188.5586,352.87739   C 188.7986,352.71739 188.7986,352.47739 188.4786,352.31739   L 181.03866,347.99742   C 180.79866,347.83742 180.31866,347.83742 180.07867,347.99742   z  M 217.67839,326.31758   L 211.19844,329.99756   C 210.95844,330.15755 210.95844,330.39755 211.27843,330.63755   L 218.71838,334.87752   C 218.95838,335.03752 219.43837,335.03752 219.67837,334.87752   L 226.15832,331.19755   C 226.39832,331.03755 226.39832,330.79755 226.07833,330.63755   L 218.63838,326.31758   C 218.39838,326.15758 217.91839,326.15758 217.67839,326.31758   M 170.63874,353.43738   L 164.23878,357.11735   C 163.91879,357.27735 163.91879,357.59735 164.23878,357.75735   L 171.67873,361.99732   C 171.99873,362.23732 172.39872,362.23732 172.71872,362.07732   L 179.11867,358.31735   C 179.43867,358.15735 179.35867,357.91735 179.11867,357.75735   L 171.67873,353.43738   C 171.35873,353.27738 170.87873,353.27738 170.63874,353.43738   z  M 195.67855,385.03715   C 195.91855,385.19715 196.39855,385.19715 196.63854,385.03715   L 203.1185,381.35718   C 203.35849,381.19718 203.35849,380.87718 203.0385,380.71718   L 195.59855,376.39721   C 195.35855,376.23721 194.87856,376.23721 194.63856,376.39721   L 188.15861,380.15718   C 187.91861,380.31718 187.91861,380.55718 188.23861,380.71718   L 195.67855,385.03715   z  M 206.07847,379.59719   L 212.47843,375.91722   C 212.79842,375.75722 212.79842,375.43722 212.47843,375.27722   L 205.03848,371.03725   C 204.71848,370.79725 204.23849,370.79725 203.99849,370.95725   L 197.59854,374.71722   C 197.27854,374.87722 197.27854,375.11722 197.59854,375.27722   L 205.03848,379.59719   C 205.35848,379.75719 205.75848,379.75719 206.07847,379.59719   z  M 176.39869,371.59725   C 176.63869,371.75725 177.11869,371.75725 177.35869,371.59725   L 183.83864,367.91727   C 184.07864,367.75728 184.07864,367.51728 183.75864,367.27728   L 176.31869,363.03731   C 176.0787,362.87731 175.5987,362.87731 175.3587,363.03731   L 168.87875,366.71728   C 168.63875,366.87728 168.63875,367.11728 168.95875,367.27728   L 176.39869,371.59725   z  M 161.19881,358.87734   L 154.79885,362.55731   C 154.55886,362.71731 154.55886,363.03731 154.87885,363.19731   L 162.3188,367.43728   C 162.5588,367.59728 163.03879,367.67728 163.27879,367.51728   L 169.75874,363.75731   C 169.99874,363.59731 169.99874,363.35731 169.67874,363.19731   L 162.2388,358.87734   C 161.9988,358.71734 161.5188,358.71734 161.19881,358.87734   z  M 189.4386,376.31721   C 189.75859,376.47721 190.23859,376.47721 190.47859,376.31721   L 196.95854,372.63724   C 197.19854,372.47724 197.19854,372.15724 196.87854,371.99724   L 189.4386,367.75728   C 189.1986,367.51728 188.7186,367.51728 188.3986,367.67728   L 181.99865,371.43725   C 181.75865,371.59725 181.75865,371.83725 181.99865,371.99724   L 189.4386,376.31721   z  M 236.47825,315.43766   L 229.9983,319.11764   C 229.7583,319.27763 229.7583,319.59763 230.0783,319.75763   L 237.51824,324.0776   C 237.75824,324.2376 238.23824,324.2376 238.55823,324.0776   L 244.95819,320.31763   C 245.19818,320.15763 245.19818,319.91763 244.87819,319.75763   L 237.43824,315.43766   C 237.19824,315.27766 236.71825,315.27766 236.47825,315.43766   M 245.83818,309.9977   L 239.43823,313.75768   C 239.11823,313.91767 239.19823,314.15767 239.43823,314.31767   L 246.87817,318.63764   C 247.19817,318.79764 247.67817,318.79764 247.91816,318.63764   L 254.31812,314.95767   C 254.63811,314.79767 254.63811,314.47767 254.31812,314.31767   L 246.87817,309.9977   C 246.55817,309.8377 246.15818,309.8377 245.83818,309.9977   M 293.91782,316.63765   L 308.23772,308.31772   C 308.55771,308.15772 308.55771,307.91772 308.23772,307.75772   L 290.15785,297.2778   C 289.83785,297.1178 289.43786,297.1178 289.11786,297.2778   L 281.67791,301.59777   C 281.43792,301.75776 281.43792,301.99776 281.75791,302.15776   L 291.27784,307.67772   C 291.59784,307.83772 291.59784,308.15772 291.35784,308.31772   L 285.43789,311.67769   C 285.11789,311.83769 285.11789,312.15769 285.43789,312.31769   L 292.87783,316.55766   C 293.19783,316.79765 293.67782,316.79765 293.91782,316.63765   M 302.55776,299.35778   L 309.03771,295.59781   C 309.27771,295.43781 309.27771,295.19781 308.95771,295.03781   L 301.51777,290.71785   C 301.27777,290.55785 300.79777,290.55785 300.55777,290.71785   L 294.07782,294.39782   C 293.83782,294.55782 293.83782,294.87782 294.15782,295.03781   L 301.59777,299.35778   C 301.83776,299.51778 302.31776,299.51778 302.55776,299.35778   M 256.3181,338.31749   L 262.71805,334.63752   C 263.03805,334.47752 262.95805,334.15752 262.71805,333.99753   L 255.27811,329.75756   C 254.95811,329.59756 254.47811,329.51756 254.23812,329.67756   L 247.83816,333.43753   C 247.51817,333.59753 247.51817,333.83753 247.83816,333.99753   L 255.27811,338.31749   C 255.59811,338.47749 255.9981,338.47749 256.3181,338.31749   z  M 265.67803,332.87753   L 272.15798,329.19756   C 272.39798,329.03756 272.39798,328.79756 272.07798,328.55757   L 264.63804,324.3176   C 264.39804,324.1576 263.91805,324.1576 263.67805,324.3176   L 257.19809,327.99757   C 256.9581,328.15757 256.9581,328.39757 257.27809,328.55757   L 264.71804,332.87753   C 264.95804,333.03753 265.43803,333.03753 265.67803,332.87753   M 275.11796,327.43757   L 281.51791,323.7576   C 281.83791,323.5976 281.83791,323.3576 281.51791,323.19761   L 274.07797,318.87764   C 273.75797,318.71764 273.27798,318.71764 273.03798,318.87764   L 266.63802,322.55761   C 266.31803,322.71761 266.31803,322.95761 266.63802,323.19761   L 274.07797,327.43757   C 274.39797,327.59757 274.79796,327.59757 275.11796,327.43757   M 284.47789,322.07761   L 290.95784,318.31764   C 291.19784,318.15764 291.19784,317.91765 290.87785,317.75765   L 283.4379,313.43768   C 283.1979,313.27768 282.71791,313.27768 282.47791,313.43768   L 275.99796,317.11765   C 275.75796,317.27765 275.75796,317.59765 276.07795,317.75765   L 283.5179,321.99761   C 283.7579,322.15761 284.23789,322.23761 284.47789,322.07761   M 255.27811,304.55774   L 248.79816,308.31772   C 248.55816,308.47771 248.55816,308.71771 248.87816,308.87771   L 256.3181,313.19768   C 256.5581,313.35768 257.0381,313.35768 257.35809,313.19768   L 263.75805,309.51771   C 263.99804,309.35771 263.99804,309.03771 263.75805,308.87771   L 256.3181,304.63774   C 255.9981,304.39775 255.51811,304.39775 255.27811,304.55774   z  M 264.63804,299.11778   L 258.23809,302.87776   C 257.91809,303.03776 257.99809,303.27775 258.23809,303.43775   L 265.67803,307.75772   C 265.99803,307.91772 266.47803,307.91772 266.71802,307.75772   L 273.11798,304.07775   C 273.43797,303.91775 273.43797,303.67775 273.11798,303.43775   L 265.67803,299.19778   C 265.35803,299.03778 264.95804,298.95779 264.63804,299.11778   M 289.91785,284.55789   L 283.4379,288.31786   C 283.1979,288.47786 283.1979,288.71786 283.5179,288.87786   L 290.95784,293.19783   C 291.19784,293.35783 291.67784,293.35783 291.99784,293.19783   L 298.39779,289.51786   C 298.63779,289.35786 298.63779,289.03786 298.31779,288.87786   L 290.95784,284.63789   C 290.63785,284.39789 290.15785,284.39789 289.91785,284.55789   z  M 278.47794,291.11784   L 267.59802,297.4378   C 267.35802,297.5978 267.35802,297.83779 267.67802,297.99779   L 275.11796,302.31776   C 275.35796,302.47776 275.83796,302.47776 276.15795,302.31776   L 287.03787,296.07781   C 287.27787,295.91781 287.27787,295.67781 286.95787,295.43781   L 279.51793,291.19784   C 279.27793,291.03784 278.79793,290.95784 278.47794,291.11784   M 299.27778,279.11793   L 292.87783,282.8779   C 292.55783,283.0379 292.63783,283.2779 292.87783,283.4379   L 300.31778,287.75787   C 300.63777,287.91787 301.11777,287.91787 301.35777,287.75787   L 307.75772,284.0779   C 308.07772,283.9179 308.07772,283.6779 307.75772,283.4379   L 300.31778,279.19793   C 299.99778,279.03793 299.59778,279.03793 299.27778,279.11793   M 311.99769,293.91782   L 318.39764,290.23785   C 318.71764,290.07785 318.63764,289.75785 318.39764,289.59785   L 310.9577,285.27789   C 310.6377,285.11789 310.1577,285.11789 309.9177,285.27789   L 303.51775,289.03786   C 303.19775,289.19786 303.19775,289.43786 303.51775,289.59785   L 310.9577,293.91782   C 311.27769,294.07782 311.67769,294.07782 311.99769,293.91782  "
     style="fill:#33535f;fill-rule:nonzero;fill-opacity:1;stroke:none;" />
  <path
     id="path63"
     d="  M 280.07793,365.1173   L 343.51746,328.39757   C 345.43744,327.35758 348.55742,327.35758 350.4774,328.39757   L 386.87713,349.43741   C 388.79712,350.5574 388.79712,352.31739 386.87713,353.43738   L 323.3576,390.07711   C 321.43762,391.1971 318.39764,391.1971 316.47766,390.07711   L 280.07793,369.11727   C 278.15794,367.99727 278.15794,366.15729 280.07793,365.1173   z "
     style="fill:#17282f;fill-rule:nonzero;fill-opacity:1;stroke:none;" />
  <path
     id="path65"
     d="  M 396.79706,188.7986   L 396.79706,188.7986   L 396.71706,188.7986   L 385.91714,182.55865   C 385.27715,182.23865 384.31715,182.47865 383.19716,183.35864   C 373.11724,191.03858 359.59734,193.43857 348.47742,189.91859   C 347.83742,189.2786 347.11743,188.5586 346.47743,187.83861   L 346.23744,187.59861   L 346.23744,187.59861   C 345.91744,187.19861 345.51744,186.87862 345.11744,186.71862   L 344.95744,186.55862   L 334.07753,180.31866   C 332.87753,179.75867 331.75754,180.31866 331.03755,182.15865   C 320.55763,208.23846 298.15779,234.63826 283.2779,241.19821   C 282.15791,241.67821 281.19792,242.4782 280.39792,243.4382   C 279.27793,244.63819 278.63794,246.07818 278.71794,247.67817   L 280.87792,306.15773   C 280.87792,323.03761 287.99787,340.87747 302.55776,349.51741   L 313.75768,355.99736   L 313.91767,356.15736   C 319.51763,359.35734 326.15758,361.19732 333.83753,361.19732   C 335.43752,361.19732 336.9575,361.11733 338.63749,360.95733   C 341.35747,360.71733 345.19744,358.71734 347.11743,356.71736   C 379.67719,323.11761 395.51707,277.59794 395.51707,252.47813   L 397.67705,191.27858   C 397.67705,189.99859 397.35706,189.1186 396.79706,188.7986   z "
     style="fill:#26b6a6;fill-rule:nonzero;fill-opacity:1;stroke:none;" />
  <path
     id="path67"
     d="  M 397.67705,191.27858   L 395.51707,252.47813   C 395.51707,277.59794 379.67719,323.11761 347.11743,356.71736   C 345.19744,358.71734 341.35747,360.71733 338.63749,360.95733   C 336.9575,361.11733 335.43752,361.19732 333.83753,361.19732   C 326.15758,361.19732 319.51763,359.35734 313.91767,356.15736   L 313.75768,355.99736   L 313.35768,355.75736   C 298.79779,347.11743 291.67784,329.27756 291.67784,312.39769   L 289.51786,253.91812   C 289.51786,252.31813 290.15785,250.87814 291.19784,249.67815   C 291.99784,248.71816 293.03783,247.91816 294.15782,247.43817   C 309.03771,240.87822 331.35755,214.47841 341.83747,188.3986   C 342.55746,186.55862 343.67745,185.99862 344.95744,186.55862   L 345.11744,186.71862   C 345.51744,186.87862 345.91744,187.19861 346.23744,187.59861   L 346.23744,187.59861   L 346.47743,187.83861   C 357.59735,200.79851 379.43719,200.79851 394.07708,189.5986   C 395.19707,188.7186 396.07707,188.4786 396.71706,188.7986   L 396.79706,188.7986   L 396.79706,188.7986   C 397.35706,189.1186 397.67705,189.99859 397.67705,191.27858   z "
     style="fill:#26b6a6;fill-rule:nonzero;fill-opacity:1;stroke:none;" />
  <path
     id="path69"
     d="  M 358.63734,191.51858   C 355.19737,191.51858 351.75739,190.95859 348.55742,189.91859   C 348.55742,189.91859 348.55742,189.91859 348.55742,189.91859   C 351.75739,190.95859 355.19737,191.51858 358.63734,191.51858   M 396.71706,188.7986   C 396.71706,188.7186 396.71706,188.7186 396.63706,188.7186   L 385.91714,182.55865   C 385.75714,182.47865 385.51714,182.39865 385.35715,182.39865   C 384.79715,182.39865 384.07715,182.71865 383.19716,183.35864   C 381.75717,184.47863 380.23718,185.43863 378.6372,186.31862   C 380.23718,185.43863 381.75717,184.47863 383.19716,183.35864   C 384.07715,182.71865 384.79715,182.39865 385.35715,182.39865   C 385.51714,182.39865 385.75714,182.47865 385.91714,182.55865   L 396.71706,188.7986   M 378.6372,186.39862   L 378.6372,186.39862   L 378.6372,186.39862   z "
     style="fill:#ffffff;fill-rule:nonzero;fill-opacity:1;stroke:none;" />
  <path
     id="path71"
     d="  M 369.91726,197.75854   C 361.91732,197.75854 354.23738,195.19855 348.55742,189.91859   C 351.75739,190.95859 355.19737,191.51858 358.63734,191.51858   C 358.79734,191.51858 358.95734,191.51858 359.11734,191.51858   C 365.75729,191.51858 372.63724,189.75859 378.6372,186.39862   L 378.6372,186.39862   L 378.6372,186.31862   C 380.23718,185.43863 381.75717,184.47863 383.19716,183.35864   C 384.07715,182.71865 384.79715,182.39865 385.35715,182.39865   C 385.51714,182.39865 385.75714,182.47865 385.91714,182.55865   L 396.63706,188.7186   C 396.55706,188.7186 396.39706,188.6386 396.15707,188.6386   C 395.59707,188.6386 394.87707,188.9586 394.07708,189.5986   C 387.03713,194.95856 378.3172,197.75854 369.91726,197.75854   z "
     style="fill:#5cc8bc;fill-rule:nonzero;fill-opacity:1;stroke:none;" />
  <path
     id="path73"
     d="  M 280.15792,243.67819   C 280.23792,243.5982 280.31792,243.5182 280.39792,243.4382   C 280.39792,243.3582 280.47792,243.2782 280.55792,243.1982   C 280.47792,243.2782 280.39792,243.3582 280.39792,243.4382   C 280.31792,243.5182 280.23792,243.5982 280.15792,243.67819   z "
     style="fill:#75898d;fill-rule:nonzero;fill-opacity:1;stroke:none;" />
  <path
     id="path75"
     d="  M 313.19768,213.35842   C 313.19768,213.35842 313.19768,213.35842 313.19768,213.35842   C 320.23763,203.83849 326.63758,192.95857 331.03755,182.15865   C 331.59754,180.79866 332.31754,180.15867 333.19753,180.15867   C 333.51753,180.15867 333.83753,180.23866 334.07753,180.31866   L 344.95744,186.55862   C 344.95744,186.55862 344.87745,186.55862 344.87745,186.55862   L 334.07753,180.31866   C 333.83753,180.23866 333.51753,180.15867 333.19753,180.15867   C 332.31754,180.15867 331.59754,180.79866 331.03755,182.15865   C 326.63758,192.95857 320.23763,203.83849 313.19768,213.35842   z "
     style="fill:#ffffff;fill-rule:nonzero;fill-opacity:1;stroke:none;" />
  <path
     id="path77"
     d="  M 300.55777,228.15831   C 304.79774,223.83834 309.11771,218.87838 313.19768,213.35842   C 313.19768,213.35842 313.19768,213.35842 313.19768,213.35842   C 309.11771,218.79838 304.79774,223.83834 300.55777,228.15831   L 300.55777,228.15831   z "
     style="fill:#7d969b;fill-rule:nonzero;fill-opacity:1;stroke:none;" />
  <path
     id="path79"
     d="  M 281.27792,242.4782   C 281.91791,241.99821 282.55791,241.51821 283.2779,241.19821   C 288.39786,238.95823 294.47782,234.31826 300.55777,228.15831   L 300.55777,228.15831   C 294.47782,234.31826 288.39786,238.95823 283.2779,241.19821   C 282.55791,241.51821 281.91791,241.99821 281.27792,242.4782   z "
     style="fill:#75898d;fill-rule:nonzero;fill-opacity:1;stroke:none;" />
  <path
     id="path81"
     d="  M 290.47785,250.63814   L 279.59793,244.39819   C 279.75793,244.15819 279.91793,243.91819 280.15792,243.67819   C 280.23792,243.5982 280.31792,243.5182 280.39792,243.4382   C 280.39792,243.3582 280.47792,243.2782 280.55792,243.1982   C 280.63792,243.1182 280.71792,243.0382 280.87792,242.8782   L 280.87792,242.8782   L 281.03792,242.7182   L 281.19792,242.5582   C 281.27792,242.5582 281.27792,242.4782 281.27792,242.4782   C 281.91791,241.99821 282.55791,241.51821 283.2779,241.19821   C 288.39786,238.95823 294.47782,234.31826 300.55777,228.15831   C 304.79774,223.83834 309.11771,218.79838 313.19768,213.35842   L 313.19768,213.35842   C 320.23763,203.83849 326.63758,192.95857 331.03755,182.15865   C 331.59754,180.79866 332.31754,180.15867 333.19753,180.15867   C 333.51753,180.15867 333.83753,180.23866 334.07753,180.31866   L 344.87745,186.55862   C 344.63745,186.39862 344.31745,186.31862 344.07745,186.31862   C 343.43746,186.31862 342.79746,186.71862 342.31746,187.43861   C 342.15747,187.75861 341.99747,188.07861 341.83747,188.3986   C 338.55749,196.63854 334.07753,204.87848 328.95756,212.55843   C 317.99764,229.1183 304.31775,242.9582 294.15782,247.43817   C 293.03783,247.91816 291.99784,248.71816 291.19784,249.67815   C 291.03784,249.83815 290.87785,249.99815 290.71785,250.23815   C 290.63785,250.39815 290.55785,250.47814 290.47785,250.63814   z "
     style="fill:#5cc8bc;fill-rule:nonzero;fill-opacity:1;stroke:none;" />
  <path
     id="path83"
     d="  M 290.47785,250.63814   L 290.47785,250.63814   C 290.55785,250.47814 290.63785,250.39815 290.71785,250.23815   C 290.63785,250.39815 290.55785,250.47814 290.47785,250.63814   z  M 328.95756,212.55843   C 334.07753,204.87848 338.55749,196.63854 341.83747,188.3986   C 341.99747,188.07861 342.15747,187.75861 342.31746,187.43861   C 342.15747,187.75861 341.99747,188.07861 341.83747,188.3986   C 338.55749,196.63854 334.07753,204.87848 328.95756,212.55843   z "
     style="fill:#5cc8bc;fill-rule:nonzero;fill-opacity:1;stroke:none;" />
  <path
     id="path85"
     d="  M 280.87792,242.8782   L 281.03792,242.7182   L 280.87792,242.8782   L 280.87792,242.8782  z "
     style="fill:#26b6a6;fill-rule:nonzero;fill-opacity:1;stroke:none;" />
  <path
     id="path87"
     d="  M 280.87792,242.8782   L 280.87792,242.8782   L 281.03792,242.7182   L 280.87792,242.8782  z "
     style="fill:#19b19d;fill-rule:nonzero;fill-opacity:1;stroke:none;" />
  <path
     id="path89"
     d="  M 313.83768,356.07736   L 313.75768,356.07736   L 308.39772,352.95739   L 313.75768,355.99736   L 313.83768,356.07736  z "
     style="fill:#122026;fill-rule:nonzero;fill-opacity:1;stroke:none;" />
  <path
     id="path91"
     d="  M 313.83768,356.07736   L 313.83768,356.07736   L 313.75768,355.99736   L 308.39772,352.95739   L 302.55776,349.51741   C 287.99787,340.87747 280.87792,323.03761 280.87792,306.15773   L 278.71794,247.67817   C 278.63794,246.55817 279.03793,245.43818 279.59793,244.39819   L 290.47785,250.63814   C 289.83785,251.67814 289.51786,252.79813 289.51786,253.91812   L 291.67784,312.39769   C 291.67784,329.27756 298.79779,347.11743 313.35768,355.75736   L 313.75768,355.99736   L 313.83768,356.07736   z "
     style="fill:#19b19d;fill-rule:nonzero;fill-opacity:1;stroke:none;" />
  <path
     id="path93"
     d="  M 313.99767,356.15736   L 313.83768,356.07736   L 313.75768,355.99736   L 313.35768,355.75736   C 298.79779,347.11743 291.67784,329.27756 291.67784,312.39769   L 289.51786,253.91812   C 289.51786,252.79813 289.83785,251.67814 290.47785,250.63814   L 290.47785,250.63814   C 289.83785,251.67814 289.51786,252.79813 289.51786,253.91812   L 291.67784,312.39769   C 291.67784,329.27756 298.79779,347.11743 313.35768,355.75736   L 313.75768,355.99736   L 313.99767,356.15736   z "
     style="fill:#19b19d;fill-rule:nonzero;fill-opacity:1;stroke:none;" />
  <path
     id="path95"
     d="  M 352.23739,302.31776   L 334.95752,312.31769   L 337.5975,280.95792   C 335.51751,279.91793 334.23752,277.19795 334.23752,273.35798   C 334.23752,266.39803 338.39749,258.39809 343.59745,255.43811   C 348.79742,252.39813 352.95739,255.59811 352.95739,262.47806   C 352.95739,266.39803 351.67739,270.638 349.59741,274.07797   L 352.23739,302.31776   z "
     style="fill:#33535f;fill-rule:nonzero;fill-opacity:1;stroke:none;" />
  <path
     id="path97"
     d="  M 352.23739,302.31776   L 336.55751,293.27783   L 334.95752,312.31769   z "
     style="fill:#273e47;fill-rule:nonzero;fill-opacity:1;stroke:none;" />
  <path
     id="path99"
     d="  M 343.59745,255.43811   C 340.23748,257.35809 337.2775,261.51806 335.59751,265.99803   L 349.59741,274.07797   L 349.59741,274.07797   C 351.67739,270.638 352.95739,266.39803 352.95739,262.47806   C 352.95739,255.59811 348.79742,252.39813 343.59745,255.43811   z "
     style="fill:#273e47;fill-rule:nonzero;fill-opacity:1;stroke:none;" />
  <path
     id="path101"
     d="  M 149.0389,478.31646   C 153.59886,475.67648 161.03881,475.67648 165.59877,478.31646   C 170.15874,480.95644 170.15874,485.27641 165.59877,487.91639   C 161.03881,490.55637 153.59886,490.55637 149.0389,487.91639   C 144.47893,485.27641 144.47893,480.95644 149.0389,478.31646   z  M 126.87906,484.39641   L 126.87906,489.67637   C 126.79906,495.75633 130.87903,501.91628 138.95897,506.55625   C 151.11888,513.5962 169.03875,515.35618 183.99864,511.75621   L 197.91853,519.75615   L 208.63845,517.35617   L 215.9184,521.59614   L 216.3184,530.39607   L 220.23837,532.63605   L 230.1583,533.51605   L 237.27824,537.51602   L 237.27824,542.47598   L 246.15818,547.59594   L 268.79801,547.59594   L 276.95795,542.87598   L 276.95795,537.67602   L 204.47849,501.11629   C 207.83846,497.51631 209.51845,493.59634 209.51845,489.67637   L 209.51845,484.39641   C 208.39846,479.35645 204.15849,476.71647 197.43854,472.7965   C 181.27866,463.51657 155.11885,463.51657 138.95897,472.7965   C 131.67902,477.03647 127.59905,478.95645 126.87906,484.39641   z "
     style="fill:#26b6a6;fill-rule:nonzero;fill-opacity:1;stroke:none;" />
  <path
     id="path103"
     d="  M 268.79801,547.59594   L 268.79801,542.31598   L 246.15818,542.31598   L 246.15818,547.59594   L 237.27824,542.47598   L 237.27824,537.51602   L 230.1583,533.51605   L 230.1583,528.23609   L 220.23837,527.35609   L 220.23837,532.63605   L 216.3184,530.39607   L 216.3184,525.11611   L 215.9184,516.31618   L 215.9184,521.59614   L 208.63845,517.35617   L 208.63845,512.07621   L 197.91853,514.47619   L 197.91853,519.75615   L 183.99864,511.75621   C 178.95867,512.9562 173.51871,513.5162 168.15875,513.5162   C 157.59883,513.5162 147.03891,511.19621 138.95897,506.55625   C 130.87903,501.91628 126.79906,495.75633 126.87906,489.67637   C 126.87906,489.67637 126.87906,489.67637 126.87906,489.67637   L 126.87906,484.39641   L 126.87906,484.39641   C 126.87906,490.55637 130.87903,496.63632 138.95897,501.27629   C 143.19894,503.75627 148.0789,505.51626 153.27886,506.71625   L 153.27886,511.91621   C 158.07883,513.0362 163.11879,513.5162 168.15875,513.5162   C 173.59871,513.5162 178.95867,512.9562 183.99864,511.75621   L 183.99864,506.47625   C 182.95864,506.71625 181.91865,506.95624 180.87866,507.11624   C 181.91865,506.95624 182.95864,506.71625 183.99864,506.47625   L 197.91853,514.47619   L 208.63845,512.07621   L 215.9184,516.31618   L 216.3184,525.11611   L 220.23837,527.35609   L 230.1583,528.23609   L 237.83824,532.55606   L 237.27824,537.19602   L 246.15818,542.31598   L 268.79801,542.31598   L 268.79801,547.59594   z "
     style="fill:#1db3a0;fill-rule:nonzero;fill-opacity:1;stroke:none;" />
  <path
     id="path105"
     d="  M 207.27846,497.43632   L 204.47849,495.83633   C 207.75846,492.31635 209.43845,488.39638 209.51845,484.55641   L 209.51845,489.67637   C 209.51845,492.31635 208.71845,494.95633 207.27846,497.43632   z "
     style="fill:#1db3a0;fill-rule:nonzero;fill-opacity:1;stroke:none;" />
  <path
     id="path107"
     d="  M 168.07875,480.47644   C 167.51876,479.67645 166.71877,478.95645 165.59877,478.31646   C 163.27879,477.03647 160.31881,476.39647 157.27883,476.39647   C 154.31886,476.39647 151.27888,477.03647 149.0389,478.31646   C 147.9189,478.95645 147.11891,479.67645 146.47891,480.47644   C 144.71893,477.99646 145.51892,475.11648 149.0389,473.1165   C 151.27888,471.75651 154.31886,471.11651 157.27883,471.11651   C 160.31881,471.11651 163.27879,471.75651 165.59877,473.1165   C 169.03875,475.11648 169.91874,477.99646 168.07875,480.47644   z "
     style="fill:#1db3a0;fill-rule:nonzero;fill-opacity:1;stroke:none;" />
  <path
     id="path109"
     d="  M 149.0389,473.1165   C 153.59886,470.47651 161.03881,470.47651 165.59877,473.1165   C 170.15874,475.75648 170.15874,479.99644 165.59877,482.63642   C 161.03881,485.27641 153.59886,485.27641 149.0389,482.63642   C 144.47893,479.99644 144.47893,475.75648 149.0389,473.1165   z  M 138.95897,501.27629   C 151.11888,508.31623 169.03875,510.07622 183.99864,506.47625   L 197.91853,514.47619   L 208.63845,512.07621   L 215.9184,516.31618   L 216.3184,525.11611   L 220.23837,527.35609   L 230.1583,528.23609   L 237.83824,532.55606   L 237.27824,537.19602   L 246.15818,542.31598   L 268.79801,542.31598   L 276.95795,537.67602   L 204.47849,495.83633   C 213.03842,486.79639 210.63844,475.19648 197.43854,467.51654   C 181.27866,458.23661 155.11885,458.23661 138.95897,467.51654   C 122.79909,476.87647 122.79909,491.99636 138.95897,501.27629  "
     style="fill:#26b6a6;fill-rule:nonzero;fill-opacity:1;stroke:none;" />
  <path
     id="path111"
     d="  M 168.15875,503.67627   C 157.91883,503.67627 148.3989,501.43629 141.19895,497.35632   C 134.959,493.75634 131.43903,489.03638 131.43903,484.39641   C 131.43903,479.83645 134.959,475.11648 141.19895,471.51651   C 148.3989,467.43654 157.91883,465.11655 168.15875,465.11655   C 178.39868,465.11655 187.99861,467.43654 195.11855,471.51651   C 201.35851,475.11648 204.95848,479.83645 204.95848,484.39641   C 204.95848,489.03638 201.35851,493.75634 195.11855,497.35632   C 187.99861,501.43629 178.39868,503.67627 168.15875,503.67627   z  M 168.15875,466.95654   C 158.23883,466.95654 149.0389,469.11653 142.15895,473.1165   C 136.47899,476.39647 133.27901,480.47644 133.27901,484.39641   C 133.27901,488.39638 136.47899,492.47635 142.15895,495.75633   C 149.0389,499.6763 158.23883,501.91628 168.15875,501.91628   C 178.07868,501.91628 187.35861,499.6763 194.15856,495.75633   C 199.83852,492.47635 203.1185,488.39638 203.1185,484.39641   C 203.1185,480.47644 199.83852,476.39647 194.15856,473.1165   C 187.35861,469.11653 178.07868,466.95654 168.15875,466.95654   z "
     style="fill:#06ab91;fill-rule:nonzero;fill-opacity:1;stroke:none;" />
  <path
     id="path113"
     d="  M 168.15875,513.5162   C 163.11879,513.5162 158.07883,513.0362 153.27886,511.91621   L 153.27886,506.71625   C 158.07883,507.75624 163.11879,508.31623 168.15875,508.31623   C 172.47872,508.31623 176.71869,507.91624 180.87866,507.11624   C 181.91865,506.95624 182.95864,506.71625 183.99864,506.47625   L 183.99864,511.75621   C 178.95867,512.9562 173.59871,513.5162 168.15875,513.5162   z "
     style="fill:#14b09a;fill-rule:nonzero;fill-opacity:1;stroke:none;" />
  <path
     id="path115"
     d="  M 168.15875,508.31623   C 163.11879,508.31623 158.07883,507.75624 153.27886,506.71625   L 153.27886,506.71625   C 158.07883,507.75624 163.11879,508.31623 168.15875,508.31623   C 172.47872,508.31623 176.71869,507.91624 180.87866,507.11624   C 176.71869,507.91624 172.47872,508.31623 168.15875,508.31623   z "
     style="fill:#1db3a0;fill-rule:nonzero;fill-opacity:1;stroke:none;" />
  <path
     id="path117"
     d="  M 197.91853,519.75615   L 197.91853,514.47619   L 208.63845,512.07621   L 208.63845,517.35617   L 197.91853,519.75615  z "
     style="fill:#14b09a;fill-rule:nonzero;fill-opacity:1;stroke:none;" />
  <path
     id="path119"
     d="  M 216.3184,530.39607   L 216.3184,530.39607   L 215.9184,521.59614   L 215.9184,516.31618   L 216.3184,525.11611   L 216.3184,530.39607  z "
     style="fill:#14b09a;fill-rule:nonzero;fill-opacity:1;stroke:none;" />
  <path
     id="path121"
     d="  M 230.1583,533.51605   L 230.1583,533.51605   L 220.23837,532.63605   L 220.23837,527.35609   L 230.1583,528.23609   L 230.1583,533.51605  z "
     style="fill:#14b09a;fill-rule:nonzero;fill-opacity:1;stroke:none;" />
  <path
     id="path123"
     d="  M 246.15818,547.59594   L 268.79801,547.59594   L 268.79801,542.31598   L 246.15818,542.31598   z "
     style="fill:#14b09a;fill-rule:nonzero;fill-opacity:1;stroke:none;" />
  <path
     id="path125"
     d="  M 268.79801,547.59594   L 268.79801,542.31598   L 272.39798,540.316   L 272.39798,542.55598   L 274.31797,541.43599   L 274.31797,539.11601   L 276.95795,537.67602   L 276.95795,542.87598   L 268.79801,547.59594  z "
     style="fill:#0eae97;fill-rule:nonzero;fill-opacity:1;stroke:none;" />
  <path
     id="path127"
     d="  M 268.79801,542.31598   L 272.39798,540.316   L 272.39798,540.316   L 268.79801,542.31598   z  M 274.31797,539.11601   L 274.31797,539.11601   L 276.95795,537.67602   L 274.31797,539.11601   z "
     style="fill:#19b19d;fill-rule:nonzero;fill-opacity:1;stroke:none;" />
  <path
     id="path129"
     d="  M 274.31797,539.11601   L 272.39798,540.316   L 272.39798,542.55598   L 274.31797,541.43599   L 274.31797,539.11601  z "
     style="fill:#26b6a6;fill-rule:nonzero;fill-opacity:1;stroke:none;" />
  <path
     id="path131"
     d="  M 272.39798,540.316   L 272.39798,540.316   L 272.39798,540.316   L 201.9985,499.6763   L 201.9985,497.35632   L 199.99852,498.55631   L 201.9985,497.35632   L 274.31797,539.11601   L 272.39798,540.316   L 272.39798,540.316  z "
     style="fill:#19b19d;fill-rule:nonzero;fill-opacity:1;stroke:none;" />
  <path
     id="path133"
     d="  M 272.39798,540.316   L 272.39798,540.316   L 272.39798,540.316  z "
     style="fill:#069f88;fill-rule:nonzero;fill-opacity:1;stroke:none;" />
  <path
     id="path135"
     d="  M 272.39798,540.316   L 272.39798,540.316   L 272.39798,540.316   L 272.39798,540.316  z "
     style="fill:#0aac94;fill-rule:nonzero;fill-opacity:1;stroke:none;" />
  <path
     id="path137"
     d="  M 274.31797,541.43599   L 272.39798,540.316   L 272.39798,540.316   L 274.31797,539.11601   L 274.31797,541.43599  z "
     style="fill:#19b19d;fill-rule:nonzero;fill-opacity:1;stroke:none;" />
  <path
     id="path139"
     d="  M 201.9985,499.6763   L 199.99852,498.55631   L 201.9985,499.6763   L 201.9985,499.6763  z "
     style="fill:#19b19d;fill-rule:nonzero;fill-opacity:1;stroke:none;" />
  <path
     id="path141"
     d="  M 201.9985,499.6763   L 199.99852,498.55631   L 201.9985,497.35632   L 201.9985,499.6763  z "
     style="fill:#0aac94;fill-rule:nonzero;fill-opacity:1;stroke:none;" />
  <path
     id="path143"
     d="  M 524.95611,342.07747   C 525.9161,307.35772 523.11613,299.03778 513.91619,292.63783   L 510.31622,312.79768   C 510.31622,312.79768 514.55619,336.47751 514.07619,344.39745   C 513.67619,351.3574 513.0362,359.99733 511.35621,365.59729   C 511.03621,366.63728 510.39622,367.43728 509.51623,367.99727   C 507.19624,369.43726 506.23625,370.95725 504.47626,372.79724   C 503.03627,374.31723 501.83628,374.63722 502.07628,375.11722   C 502.31628,375.67722 503.27627,376.63721 504.95626,376.15721   C 505.83625,375.91722 506.95624,375.19722 508.31623,374.31723   C 508.31623,374.31723 507.35624,377.19721 504.87626,380.23718   C 501.59628,384.23715 501.43629,386.71714 508.15624,386.79713   C 512.31621,386.87713 515.59618,384.23715 518.79616,375.03722   C 519.67615,372.39724 521.11614,368.23727 521.67614,364.7173   C 523.27612,355.59737 524.87611,347.67742 524.95611,342.07747   z "
     style="fill:#c35363;fill-rule:nonzero;fill-opacity:1;stroke:none;" />
  <path
     id="path145"
     d="  M 506.15625,289.99785   C 510.55622,289.35786 516.55617,290.31785 520.39615,297.1978   C 524.31612,304.15775 525.19611,316.07766 525.67611,327.91757   C 525.67611,327.91757 517.99616,334.39752 508.71623,331.19755   L 506.15625,289.99785   z "
     style="fill:#26b6a6;fill-rule:nonzero;fill-opacity:1;stroke:none;" />
  <path
     id="path147"
     d="  M 519.43615,331.19755   C 519.35615,326.39758 519.27615,321.83762 519.19615,318.55764   C 518.79616,308.47771 518.63616,301.03777 517.67617,298.07779   C 516.39617,294.23782 511.83621,289.99785 506.95624,289.99785   C 506.63625,289.99785 506.39625,289.99785 506.15625,290.07785   L 506.15625,289.99785   C 506.87625,289.91785 507.59624,289.83785 508.39623,289.83785   C 512.4762,289.83785 517.19617,291.43784 520.39615,297.1978   C 524.31612,304.15775 525.19611,316.07766 525.67611,327.91757   C 525.67611,327.91757 523.19612,329.99756 519.43615,331.19755   z "
     style="fill:#093b33;fill-rule:nonzero;fill-opacity:1;stroke:none;" />
  <path
     id="path149"
     d="  M 519.11615,481.03644   C 519.83615,481.27643 519.99615,482.63642 520.07615,485.27641   C 520.15615,487.27639 520.55614,490.79636 518.23616,491.51636   C 515.91618,492.15635 512.4762,491.83636 510.95622,489.91637   C 509.03623,487.59639 507.75624,485.5164 505.11626,482.63642   C 502.79628,480.07644 500.23629,477.75646 499.2763,474.23649   C 498.47631,471.11651 499.1963,469.75652 501.35629,468.79653   C 504.31626,467.51654 508.95623,471.67651 511.27621,472.3165   C 513.2762,472.8765 518.39616,480.71644 519.11615,481.03644   z "
     style="fill:#17282f;fill-rule:nonzero;fill-opacity:1;stroke:none;" />
  <path
     id="path151"
     d="  M 519.11615,478.55646   L 519.11615,481.83643   C 519.11615,481.83643 515.67618,484.39641 510.87622,482.07643   C 510.71622,481.75643 509.99622,477.35646 509.99622,477.35646   L 519.11615,478.55646   z "
     style="fill:#c35363;fill-rule:nonzero;fill-opacity:1;stroke:none;" />
  <path
     id="path153"
     d="  M 492.71635,499.7563   C 492.71635,499.7563 493.67634,502.63628 494.15634,505.11626   C 494.55634,507.11624 495.11633,510.39622 494.39634,511.83621   C 493.75634,513.3562 491.03636,514.31619 486.87639,514.23619   C 484.15641,514.23619 479.99644,516.07618 477.11647,517.67617   C 474.07649,519.35615 467.91653,519.99615 464.79656,519.59615   C 461.03658,519.19615 457.19661,517.03617 456.63662,515.51618   C 455.99662,513.99619 456.79662,512.3962 465.51655,508.63623   C 465.59655,508.63623 477.67646,504.71626 481.91643,499.9963   L 492.71635,499.7563   z "
     style="fill:#17282f;fill-rule:nonzero;fill-opacity:1;stroke:none;" />
  <path
     id="path155"
     d="  M 492.71635,496.23632   C 492.71635,496.23632 492.71635,498.71631 492.71635,500.0763   C 492.71635,501.43629 491.11636,503.51627 486.87639,503.35627   C 483.91642,503.27627 481.83643,502.47628 481.91643,499.9963   L 481.91643,496.47632   L 492.71635,496.23632   z "
     style="fill:#c35363;fill-rule:nonzero;fill-opacity:1;stroke:none;" />
  <path
     id="path157"
     d="  M 521.19614,435.35678   C 519.75615,424.63685 517.35617,418.3169 517.35617,418.3169   C 517.35617,418.3169 518.55616,403.67701 519.11615,389.83711   C 519.67615,374.79722 519.03616,355.99736 519.35615,352.23739   C 519.35615,352.23739 470.95651,342.47746 470.07652,359.75734   C 469.19652,377.11721 471.9965,421.27688 472.5565,428.87682   C 473.1165,436.47677 474.47649,443.19672 476.07647,455.51663   C 477.59646,467.75654 481.91643,496.47632 481.91643,496.47632   C 487.43639,499.5163 492.71635,496.23632 492.71635,496.23632   C 492.71635,496.23632 496.15632,461.59658 495.75633,452.79665   C 495.35633,442.07673 492.39635,433.67679 492.39635,433.67679   C 492.39635,433.67679 493.35635,419.35689 494.15634,406.95699   C 494.95633,394.47708 495.83633,388.55712 495.99633,383.11716   L 497.03632,382.55717   C 497.03632,382.55717 498.07631,404.07701 498.71631,411.67695   C 499.2763,419.27689 500.47629,426.55684 502.63628,440.71674   C 504.55626,452.95664 510.23622,478.95645 510.23622,478.95645   C 515.83618,481.91643 519.11615,478.55646 519.11615,478.55646   C 519.11615,478.55646 522.71613,445.9967 521.19614,435.35678   z "
     style="fill:#273e47;fill-rule:nonzero;fill-opacity:1;stroke:none;" />
  <path
     id="path159"
     d="  M 495.99633,383.11716   C 495.99633,383.11716 507.75624,377.3572 513.5962,372.07724   C 513.5962,372.07724 508.15624,379.75719 501.03629,383.19716   C 501.03629,383.19716 498.47631,409.83696 498.47631,409.35697   L 497.03632,383.03716   L 495.99633,383.11716   z "
     style="fill:#17282f;fill-rule:nonzero;fill-opacity:1;stroke:none;" />
  <path
     id="path161"
     d="  M 485.5964,284.55789   L 488.39638,300.31778   L 502.63628,299.27778   L 499.6763,281.35792   L 485.5964,284.55789  z "
     style="fill:#c35363;fill-rule:nonzero;fill-opacity:1;stroke:none;" />
  <path
     id="path163"
     d="  M 517.67617,298.07779   C 516.31618,293.83782 510.87622,289.11786 505.43626,290.15785   C 495.43633,291.99784 487.51639,293.99782 481.59643,296.07781   C 476.63647,297.91779 472.0765,302.15776 471.67651,318.55764   C 471.67651,318.55764 469.99652,356.71736 469.99652,364.1573   C 482.47643,369.11727 495.43633,368.95727 502.63628,367.35728   C 517.59617,364.0773 519.43615,357.91735 519.43615,357.91735   C 519.43615,357.91735 519.59615,330.39755 519.19615,318.55764   C 518.79616,308.47771 518.63616,301.03777 517.67617,298.07779   z "
     style="fill:#26b6a6;fill-rule:nonzero;fill-opacity:1;stroke:none;" />
  <path
     id="path165"
     d="  M 492.47635,368.31727   C 485.8364,368.31727 477.83646,367.27728 469.99652,364.1573   C 469.99652,359.51734 470.63651,343.03746 471.11651,331.19755   C 471.59651,330.71755 481.59643,320.39763 484.47641,314.63767   C 485.9164,311.59769 486.79639,307.67772 486.79639,303.99775   C 486.79639,300.47777 485.9964,297.1978 484.23641,295.19781   C 489.75637,293.43783 496.87632,291.75784 505.43626,290.15785   C 505.91625,290.07785 506.39625,289.99785 506.95624,289.99785   C 511.83621,289.99785 516.39617,294.23782 517.67617,298.07779   C 518.63616,301.03777 518.79616,308.47771 519.19615,318.55764   C 519.43615,324.95759 519.43615,335.83751 519.43615,344.47745   C 519.43615,351.99739 519.43615,357.91735 519.43615,357.91735   C 519.43615,357.91735 517.59617,364.0773 502.63628,367.35728   C 499.9963,367.91727 496.47632,368.31727 492.47635,368.31727   z "
     style="fill:#19b19d;fill-rule:nonzero;fill-opacity:1;stroke:none;" />
  <path
     id="path167"
     d="  M 474.55648,265.35803   C 474.55648,265.35803 470.95651,271.11799 471.43651,271.67799   C 471.8365,272.23798 474.63648,272.63798 474.63648,272.63798   L 474.55648,265.35803   z "
     style="fill:#aa3b4b;fill-rule:nonzero;fill-opacity:1;stroke:none;" />
  <path
     id="path169"
     d="  M 484.63641,249.43815   C 477.11647,251.19814 474.95648,254.55811 474.55648,266.63802   C 474.07649,279.19793 475.43648,283.1179 477.11647,284.71789   C 478.23646,285.83788 484.47641,285.91788 487.51639,285.03789   C 491.43636,283.8379 500.1563,280.47792 504.15627,274.07797   C 508.87623,266.55803 509.91622,256.4781 504.63626,252.47813   C 497.19632,246.79817 487.67639,248.71816 484.63641,249.43815   z "
     style="fill:#c35363;fill-rule:nonzero;fill-opacity:1;stroke:none;" />
  <path
     id="path171"
     d="  M 474.63648,252.55813   C 476.79647,256.3181 481.59643,258.15809 481.59643,258.15809   C 483.03642,259.83808 482.23643,266.23803 484.79641,267.19802   C 484.79641,267.19802 485.9164,262.55806 489.83637,263.03805   C 493.75634,263.51805 494.39634,268.55801 491.99636,271.67799   C 489.59637,274.79796 487.27639,273.67797 487.27639,273.67797   C 487.27639,273.67797 487.51639,280.31792 490.55637,283.9979   C 490.55637,283.9979 493.91634,284.95789 499.9963,283.5179   C 503.75627,282.63791 509.03623,277.75794 511.19621,272.71798   C 515.67618,262.07806 515.83618,252.47813 508.95623,249.83815   C 508.15624,244.95819 504.23626,242.8782 499.8363,241.91821   C 490.39637,239.99822 484.23641,245.91818 476.95647,245.35818   C 472.7965,245.11818 471.9965,248.15816 474.63648,252.55813   z "
     style="fill:#17282f;fill-rule:nonzero;fill-opacity:1;stroke:none;" />
  <path
     id="path173"
     d="  M 509.11623,251.43814   L 513.5962,248.63816   C 512.7962,247.43817 511.19621,247.03817 509.99622,247.83816   C 508.71623,248.55816 508.39623,250.23815 509.11623,251.43814   z "
     style="fill:#17282f;fill-rule:nonzero;fill-opacity:1;stroke:none;" />
  <path
     id="path175"
     d="  M 421.35688,324.4776   C 423.75686,325.51759 451.35666,345.91744 455.59663,343.51746   C 459.91659,341.11747 481.99643,315.35766 481.99643,315.35766   C 488.39638,304.79774 481.99643,295.99781 481.99643,295.99781   C 481.99643,295.99781 474.87648,297.3578 471.19651,302.95776   C 467.51654,308.55771 451.51666,328.55757 451.51666,328.55757   C 447.59668,326.63758 443.59671,324.6376 439.67674,322.55761   C 436.47677,320.87762 433.27679,319.19764 430.07681,317.43765   C 429.27682,316.95765 428.23683,316.55766 427.59683,315.91766   C 425.99684,314.39767 426.31684,310.6377 426.31684,308.55771   C 426.31684,307.67772 426.31684,306.71773 426.47684,305.75774   C 426.63684,304.55774 426.79684,301.75776 424.71685,302.63776   C 424.31686,302.79776 423.99686,303.11775 423.75686,303.51775   C 423.43686,303.91775 423.11687,304.39775 422.95687,304.95774   C 422.63687,306.15773 422.71687,307.51772 422.39687,308.71771   C 422.31687,308.87771 422.23687,309.11771 422.07687,309.19771   C 421.91687,309.35771 421.67688,309.43771 421.43688,309.43771   C 418.3969,309.35771 415.51692,305.03774 414.15693,302.79776   C 413.51694,301.83776 412.87694,300.71777 411.83695,300.15778   C 410.15696,299.43778 408.15698,300.47777 407.11698,301.99776   C 405.75699,303.91775 405.357,306.39773 405.597,308.71771   C 405.99699,311.91769 407.19698,314.87767 409.51697,317.11765   C 413.11694,320.39763 416.95691,322.47761 421.35688,324.4776   z "
     style="fill:#c35363;fill-rule:nonzero;fill-opacity:1;stroke:none;" />
  <path
     id="path177"
     d="  M 484.23641,295.19781   C 481.19644,295.51781 476.15647,295.75781 471.19651,301.35777   C 465.35655,307.91772 457.75661,318.63764 457.75661,318.63764   C 457.75661,318.63764 459.83659,329.03756 471.11651,331.19755   C 471.11651,331.19755 481.51643,320.47763 484.47641,314.63767   C 487.35639,308.71771 487.83639,299.19778 484.23641,295.19781   z "
     style="fill:#26b6a6;fill-rule:nonzero;fill-opacity:1;stroke:none;" />
  <path
     id="path179"
     d="  M 471.11651,331.19755   C 470.23652,331.03755 469.35652,330.79755 468.63653,330.55755   C 461.83658,328.23757 459.1166,322.79761 458.23661,320.15763   C 457.91661,319.19764 457.75661,318.63764 457.75661,318.63764   C 457.75661,318.63764 465.35655,307.91772 471.19651,301.35777   C 476.15647,295.75781 481.19644,295.51781 484.23641,295.19781   C 485.9964,297.1178 486.79639,300.47777 486.79639,303.99775   C 486.79639,307.67772 485.9164,311.59769 484.47641,314.63767   C 481.59643,320.39763 471.59651,330.71755 471.11651,331.19755   L 471.11651,331.19755   z "
     style="fill:#093b33;fill-rule:nonzero;fill-opacity:1;stroke:none;" />
</svg>
