<?xml version="1.0" encoding="UTF-8" standalone="no"?>
<svg
   xmlns:dc="http://purl.org/dc/elements/1.1/"
   xmlns:cc="http://creativecommons.org/ns#"
   xmlns:rdf="http://www.w3.org/1999/02/22-rdf-syntax-ns#"
   xmlns:svg="http://www.w3.org/2000/svg"
   xmlns="http://www.w3.org/2000/svg"
   id="svg301"
   height="283mm"
   width="389mm"
   version="1.0">
  <metadata
     id="metadata305">
    <rdf:RDF>
      <cc:Work
         rdf:about="">
        <dc:format>image/svg+xml</dc:format>
        <dc:type
           rdf:resource="http://purl.org/dc/dcmitype/StillImage" />
      </cc:Work>
    </rdf:RDF>
  </metadata>
  <defs
     id="defs3">
    <pattern
       y="0"
       x="0"
       height="6"
       width="6"
       patternUnits="userSpaceOnUse"
       id="EMFhbasepattern" />
  </defs>
  <path
     id="path5"
     d="  M 0,1066.6321   L 1466.6291,1066.6321   L 1466.6291,1.3599899   L 0,1.3599899   z "
     style="fill:#ebb044;fill-rule:nonzero;fill-opacity:1;stroke:none;" />
  <path
     id="path7"
     d="  M 342.79746,1017.7525   C 327.19758,1017.7525 311.59769,1017.2725 295.99781,1016.1525   C 274.79796,1014.6325 252.95813,1011.6725 234.95826,1000.3126   C 225.03833,994.15264 216.3184,985.0327 213.27842,973.67279   C 210.15844,962.31287 213.91842,948.79297 223.91834,942.63302   C 227.59831,940.39303 231.91828,939.19304 235.27826,936.55306   C 238.71823,933.91308 241.03821,928.95312 238.71823,925.27315   C 235.03826,925.35315 223.91834,925.91314 210.39844,925.91314   C 174.07871,925.91314 120.63911,921.75317 148.1589,891.5934   C 158.47883,880.23348 188.7986,878.95349 213.91842,878.95349   C 217.51839,878.95349 220.95836,879.03349 224.31834,879.03349   C 227.59831,879.03349 230.71829,879.11349 233.59827,879.11349   C 237.83824,879.11349 241.51821,879.03349 244.39819,878.87349   C 267.27802,877.2735 290.23785,875.99351 313.11768,874.95352   C 314.95767,875.91351 316.71765,876.79351 318.55764,877.6735   C 327.99757,882.31346 337.8375,886.87343 348.15742,891.1934   C 354.39737,897.03336 361.35732,902.15332 368.71727,906.39329   C 373.27723,908.95327 378.2372,910.87325 383.51716,912.23324   C 384.31715,913.75323 385.27715,915.19322 386.39714,916.55321   L 386.39714,916.55321   C 386.39714,916.55321 386.39714,916.55321 386.47714,916.63321   C 386.47714,916.63321 386.47714,916.63321 386.47714,916.63321   C 386.47714,916.63321 386.47714,916.63321 386.47714,916.63321   C 386.47714,916.63321 386.47714,916.63321 386.47714,916.63321   C 386.55714,916.71321 386.55714,916.71321 386.55714,916.71321   L 386.55714,916.71321   C 386.55714,916.79321 386.55714,916.79321 386.63714,916.79321   C 386.63714,916.79321 386.63714,916.79321 386.63714,916.79321   L 386.63714,916.79321   C 383.75716,924.07316 381.11718,931.5131 378.79719,939.03304   C 377.27721,943.99301 375.91722,949.11297 376.07721,954.39293   C 376.39721,962.63287 382.71717,969.35282 389.51711,969.35282   C 392.79709,969.35282 396.15707,967.83283 399.11704,964.15286   C 402.95702,959.19289 406.07699,953.67294 408.31698,947.75298   C 409.43697,944.713 409.35697,943.35301 408.47697,942.71302   C 408.79697,942.39302 409.11697,942.07302 409.43697,941.67302   C 412.95694,937.51306 415.51692,932.47309 419.35689,928.79312   C 419.43689,928.79312 419.43689,928.79312 419.43689,928.79312   C 421.27688,931.2731 422.95687,932.95309 423.99686,932.95309   C 424.07686,932.95309 424.15686,932.95309 424.23686,932.87309   C 447.35669,926.79313 470.07652,916.39321 491.67636,904.0733   C 500.79629,900.95333 509.59623,897.19335 518.15616,892.71339   C 528.07609,887.51343 537.27602,881.67347 540.636,872.47354   C 544.87596,869.43356 549.11593,866.39358 553.1959,863.4336   C 556.79588,863.19361 560.39585,862.95361 564.07582,862.71361   C 579.51571,861.83362 595.03559,860.95362 610.55548,860.15363   L 618.23542,897.75335   L 681.67495,884.79345   L 698.55483,886.23344   L 699.91482,881.11347   L 846.47373,851.1137   C 862.71361,850.7937 878.95349,850.4737 895.19337,850.2337   C 921.99317,849.9137 948.71297,849.67371 975.51277,849.67371   C 1006.1525,849.67371 1036.8723,849.9937 1067.5121,850.4737   C 1073.992,850.6337 1080.472,850.7137 1086.9519,850.8737   L 1088.3119,854.79367   L 1118.7117,852.47369   L 1118.7917,851.91369   C 1153.1915,853.43368 1187.5912,856.39366 1221.191,862.79361   C 1229.7509,864.4736 1238.3108,866.31358 1246.7908,868.47357   L 1251.9107,876.23351   L 1261.5107,872.39354   C 1268.7106,874.55352 1275.8305,876.79351 1282.8705,879.35349   C 1295.2704,883.75345 1308.7103,890.07341 1313.5103,902.31332   C 1319.5102,917.4332 1308.9503,934.95307 1294.6304,942.47302   C 1281.5905,949.27297 1266.5506,949.99296 1251.8307,949.99296   C 1250.2307,949.99296 1248.6308,949.91296 1247.0308,949.91296   C 1200.2311,949.67297 1153.5115,949.51297 1106.7918,949.51297   C 984.55271,949.51297 862.23361,950.39296 739.99452,951.19295   C 712.55472,951.35295 685.11493,951.59295 657.75513,951.75295   C 652.71517,951.83295 647.4352,951.91295 643.03524,954.39293   C 633.19531,959.83289 640.95525,964.55286 639.43526,971.19281   C 637.67528,979.35275 633.75531,986.39269 626.55536,991.19266   C 615.91544,998.31261 602.39554,999.5926 589.59563,1000.7126   C 549.99593,1003.9926 510.47622,1007.3525 470.95651,1010.6325   C 428.31683,1014.2325 385.51714,1017.7525 342.79746,1017.7525   z "
     style="fill:#d6a03e;fill-rule:nonzero;fill-opacity:1;stroke:none;" />
  <path
     id="path9"
     d="  M 219.99837,863.6736   C 215.8384,863.9936 211.99843,862.47361 207.91846,862.07361   C 208.15846,847.67372 209.67845,833.99382 212.79842,819.83393   C 219.11838,826.79388 224.39834,822.71391 224.15834,835.91381   C 224.07834,840.15378 219.19838,857.19365 219.99837,863.6736   z "
     style="fill:#e5d1bd;fill-rule:nonzero;fill-opacity:1;stroke:none;" />
  <path
     id="path11"
     d="  M 207.03847,854.87367   C 202.2385,853.19368 201.19851,864.5536 201.11851,867.27358   C 201.11851,868.87356 201.35851,870.47355 200.87851,872.07354   C 200.47851,873.75353 199.35852,875.19352 198.23853,876.55351   C 195.91855,879.51349 193.59857,882.39346 191.35858,885.27344   C 190.31859,886.55343 189.1986,887.91342 188.6386,889.51341   C 187.27861,893.35338 189.5986,897.99335 193.27857,899.83333   C 205.99847,906.31329 217.67839,890.6334 220.47837,880.31348   C 220.87836,878.79349 221.19836,877.1935 221.51836,875.51351   C 222.15835,872.23354 224.63834,864.95359 223.35835,861.75362   C 221.83836,857.91365 217.11839,860.63362 214.07841,859.27364   C 211.27843,857.91365 208.95845,855.59366 207.03847,854.87367   z "
     style="fill:#3b455a;fill-rule:nonzero;fill-opacity:1;stroke:none;" />
  <path
     id="path13"
     d="  M 297.83779,627.51535   C 285.91788,659.91511 272.15798,691.67488 264.31804,725.59463   C 254.63811,767.59431 239.03823,808.47401 230.95829,850.4737   C 225.83833,850.6337 220.63837,850.4737 215.5184,849.8337   C 209.59845,849.11371 200.23852,847.51372 198.07853,841.11377   C 197.03854,837.83379 198.15853,832.47383 198.31853,829.03386   C 198.87853,818.07394 199.67852,807.11402 200.47851,796.2341   C 202.7185,765.27433 204.31849,733.91456 209.99844,703.43479   C 215.9984,671.35503 221.67836,639.19527 226.95832,607.1155   C 229.6783,590.47563 233.03827,573.99575 237.19824,557.75587   C 238.23824,553.5159 249.27815,510.23622 251.43814,510.63622   C 277.27795,514.71619 301.35777,523.27612 323.8376,536.55603   C 325.99759,537.83602 328.15757,539.436 328.87756,541.67599   C 329.59756,543.99597 328.95756,545.99596 328.23757,548.07594   C 321.51762,567.99579 312.55768,586.71565 305.43774,606.63551   C 302.95776,613.51546 300.39777,620.3954 297.83779,627.51535   z "
     style="fill:#474ebb;fill-rule:nonzero;fill-opacity:1;stroke:none;" />
  <path
     id="path15"
     d="  M 304.71774,856.31366   C 308.63771,857.83365 312.71768,857.59365 316.71765,858.31364   C 320.79762,844.63374 323.4376,831.03384 324.71759,816.63395   C 316.55766,821.43392 312.71768,815.91396 309.03771,828.55386   C 307.83772,832.63383 307.43772,850.3937 304.71774,856.31366   z "
     style="fill:#e5d1bd;fill-rule:nonzero;fill-opacity:1;stroke:none;" />
  <path
     id="path17"
     d="  M 320.87762,854.23367   C 320.87762,861.99361 326.95758,870.31355 330.39755,877.3535   C 330.79755,878.1535 331.19755,879.03349 331.19755,879.91348   C 331.19755,881.27347 330.39755,882.47346 329.59756,883.59345   C 328.47757,885.11344 327.27758,886.71343 325.51759,887.43343   C 323.8376,888.07342 321.83762,887.75342 320.07763,887.35343   C 317.03765,886.71343 314.07767,885.91344 311.1177,884.95344   C 310.3177,884.71345 309.59771,884.47345 309.03771,883.99345   C 308.31772,883.43346 307.83772,882.55346 307.43772,881.75347   C 305.35774,877.5135 303.59775,874.55352 303.67775,869.83356   C 303.83775,865.03359 304.39775,859.99363 303.51775,855.27366   C 303.11775,852.87368 302.55776,849.9137 304.55774,848.63371   C 306.07773,847.67372 308.87771,849.03371 310.5577,849.27371   C 313.51768,849.75371 316.23766,849.59371 318.95764,851.19369   C 319.51763,851.51369 320.07763,851.83369 320.39763,852.39369   C 320.71762,852.95368 320.87762,853.59368 320.87762,854.23367   z "
     style="fill:#3b455a;fill-rule:nonzero;fill-opacity:1;stroke:none;" />
  <path
     id="path19"
     d="  M 300.71777,607.6755   C 302.39776,642.23524 306.15773,676.63499 303.51775,711.35473   C 300.31778,754.23441 303.03776,797.99409 298.15779,840.47377   C 303.03776,842.15376 308.07772,843.51375 313.19768,844.47374   C 319.03764,845.51374 328.39757,846.79373 332.39754,841.27377   C 334.39752,838.47379 334.87752,833.03383 335.75751,829.67385   C 338.47749,819.11393 341.03747,808.39401 343.51746,797.75409   C 350.5574,767.51431 358.31735,737.11454 361.99732,706.31477   C 365.83729,673.91501 369.91726,641.43525 374.39723,609.27549   C 376.71721,592.63561 378.4772,575.91573 379.35719,559.11586   C 379.59719,554.79589 381.91717,510.15622 379.75719,509.91622   C 353.91738,506.15625 328.31757,507.11624 302.87776,513.1162   C 300.47777,513.75619 297.99779,514.55619 296.5578,516.55617   C 295.11781,518.55616 295.19781,520.63614 295.27781,522.79613   C 295.75781,543.83597 298.71779,564.39582 299.67778,585.43566   C 299.99778,592.79561 300.31778,600.15555 300.71777,607.6755   z "
     style="fill:#474ebb;fill-rule:nonzero;fill-opacity:1;stroke:none;" />
  <path
     id="path21"
     d="  M 663.51509,889.51341   C 664.07508,887.67342 665.03507,886.07344 666.39506,884.79345   C 667.11506,884.23345 667.99505,883.67345 668.71505,883.03346   C 672.07502,879.91348 671.67502,876.9535 676.55499,877.5935   C 682.15495,878.39349 687.75491,879.43349 693.35486,880.31348   C 693.51486,880.39348 693.75486,880.39348 693.91486,880.55348   C 694.23486,880.79348 694.23486,881.11347 694.31486,881.43347   C 694.55486,883.35346 694.79485,885.35344 694.95485,887.27343   C 695.59485,892.47339 700.31481,893.99338 704.15478,896.07336   C 705.11478,896.63336 706.15477,897.11335 707.19476,897.67335   C 711.51473,899.99333 724.71463,905.1133 718.23468,911.91325   C 715.5147,914.71322 710.87473,914.71322 707.27476,915.11322   C 703.83479,915.43322 700.31481,914.63322 696.95484,914.15323   C 685.99492,912.07324 675.91499,908.87327 665.99507,903.59331   C 662.39509,901.67332 662.63509,896.31336 662.95509,892.55339   C 663.03509,891.5134 663.27509,890.4734 663.51509,889.51341   z "
     style="fill:#3b455a;fill-rule:nonzero;fill-opacity:1;stroke:none;" />
  <path
     id="path23"
     d="  M 679.19497,549.75593   L 668.07505,593.4356   L 680.39496,717.91468   L 665.91507,883.51346   L 698.55483,886.23344   L 740.95451,727.83461   L 774.39426,554.55589   L 679.19497,549.75593  z "
     style="fill:#474ebb;fill-rule:nonzero;fill-opacity:1;stroke:none;" />
  <path
     id="path25"
     d="  M 846.23373,893.83338   C 846.15373,891.91339 846.47373,890.07341 847.43372,888.47342   C 847.91372,887.59343 848.47372,886.87343 848.95371,885.99344   C 851.1137,881.91347 849.75371,879.27349 854.55367,878.23349   C 860.15363,877.1135 865.75359,876.23351 871.27355,875.19352   C 871.51354,875.19352 871.75354,875.11352 871.91354,875.19352   C 872.23354,875.35352 872.39354,875.67351 872.55354,875.99351   C 873.43353,877.7535 874.31352,879.43349 875.11352,881.19347   C 877.5135,885.91344 882.39346,885.83344 886.71343,886.47343   C 887.83342,886.63343 888.95342,886.79343 890.15341,886.95343   C 894.95337,887.75342 909.11327,888.15342 905.27329,896.79336   C 903.67331,900.31333 899.27334,901.83332 895.99336,903.43331   C 892.87339,904.8733 889.27341,905.27329 885.91344,905.91329   C 874.95352,907.67328 864.3136,907.91327 853.19368,906.23329   C 849.27371,905.67329 847.67372,900.55333 846.71373,896.87336   C 846.47373,895.83336 846.31373,894.79337 846.23373,893.83338   z "
     style="fill:#3b455a;fill-rule:nonzero;fill-opacity:1;stroke:none;" />
  <path
     id="path27"
     d="  M 747.91446,568.23579   L 735.91455,601.35555   L 805.03404,726.39462   L 846.47373,887.35343   L 878.23349,879.11349   L 865.43359,715.5947   L 839.27378,541.03599   L 747.91446,568.23579  z "
     style="fill:#474ebb;fill-rule:nonzero;fill-opacity:1;stroke:none;" />
  <path
     id="path29"
     d="  M 641.11525,561.51584   C 641.43525,553.4359 641.91525,546.63595 641.91525,544.15597   C 642.55524,522.15613 644.63522,499.9963 647.6752,477.83646   C 650.31518,457.83661 653.75516,437.67676 657.51513,417.51691   C 663.27509,385.83714 668.55505,357.99735 680.23496,327.83757   C 684.39493,317.11765 688.6349,306.23773 695.75485,297.3578   C 702.3948,289.19786 712.15472,283.5179 722.07465,280.23792   C 726.63462,278.71794 731.83458,277.35795 736.47454,276.31795   C 741.67451,275.11796 744.31449,277.51794 749.27445,279.67793   C 752.63442,281.11792 756.5544,281.43792 760.07437,282.71791   C 780.79422,289.91785 792.55413,304.55774 799.59408,325.27759   C 805.19404,341.91747 810.87399,358.63734 816.47395,375.27722   C 821.11392,389.03712 825.75388,402.71702 829.75385,416.63691   C 840.23378,452.95664 846.47373,490.47637 851.0337,528.07609   C 853.27368,546.87595 855.19367,565.75581 856.95365,584.71567   C 858.15364,596.71558 851.99369,591.67562 844.71374,587.99564   C 832.23384,581.59569 819.83393,574.95574 805.83403,572.63576   C 799.03408,571.51577 792.07413,571.43577 785.19418,571.59577   C 743.19449,572.15576 701.11481,578.39572 661.7551,592.79561   C 659.43512,593.6756 657.03513,594.5556 655.11515,596.15558   C 652.55517,598.31557 649.11519,603.19553 645.43522,600.63555   C 643.11524,599.03556 642.55524,593.6756 642.15524,591.27562   C 640.47526,581.51569 640.79525,571.35577 641.11525,561.51584   z "
     style="fill:#7fc5a3;fill-rule:nonzero;fill-opacity:1;stroke:none;" />
  <path
     id="path31"
     d="  M 741.11451,193.99856   C 746.47447,199.91852 750.07444,207.19847 752.15443,214.87841   C 752.71442,216.87839 753.35442,219.27838 755.27441,220.07837   C 757.35439,221.03836 756.4744,224.23834 757.43439,222.15835   C 758.31438,220.15837 761.43436,213.03842 761.19436,210.79844   C 760.47437,205.59848 759.27438,200.39852 757.59439,195.35855   C 756.1544,191.03858 754.23441,186.55862 750.55444,183.75864   C 748.39446,182.15865 745.75448,181.27866 743.19449,180.39866   C 739.51452,179.11867 735.67455,177.83868 731.83458,177.99868   C 725.11463,178.23868 721.67465,181.51866 728.3946,184.79863   C 733.19457,187.11861 737.51454,189.99859 741.11451,193.99856   z "
     style="fill:#534741;fill-rule:nonzero;fill-opacity:1;stroke:none;" />
  <path
     id="path33"
     d="  M 721.27466,290.87785   C 730.31459,289.67785 739.35452,288.47786 748.39446,287.35787   C 747.91446,279.27793 746.95447,271.19799 745.35448,263.19805   C 752.71442,260.15807 761.19436,255.51811 761.99436,246.71817   C 762.23435,243.91819 761.59436,241.11821 761.03436,238.39823   C 758.47438,226.95832 755.9944,215.5984 753.43442,204.23849   C 752.55443,200.23852 751.67443,196.23855 749.51445,192.87857   C 745.67448,186.95862 738.95453,184.55863 732.55457,183.43864   C 716.39469,180.63866 699.19482,184.79863 687.59491,196.63854   C 684.47493,199.75852 681.75495,203.51849 680.55496,208.07846   C 678.79497,215.03841 680.95496,222.63835 683.11494,229.7583   C 685.03493,236.31825 687.03491,242.8782 689.0349,249.35815   C 691.27488,256.9581 694.47486,265.43803 701.19481,268.15801   C 704.79478,269.598 708.95475,269.11801 712.23472,271.27799   C 718.07468,275.11796 717.91468,284.31789 721.27466,290.87785   z "
     style="fill:#eac5b0;fill-rule:nonzero;fill-opacity:1;stroke:none;" />
  <path
     id="path35"
     d="  M 738.39453,255.59811   C 735.03456,259.19808 730.63459,260.39807 725.83462,259.99807   C 723.83464,259.91807 723.91464,256.4781 725.91462,256.6381   C 729.91459,256.8781 733.35457,256.0781 736.23455,253.03813   C 737.59454,251.51814 739.83452,254.07812 738.39453,255.59811   z  M 762.63435,233.19827   C 762.07436,231.11829 759.75437,225.19833 757.51439,229.7583   C 756.95439,230.95829 757.03439,232.47828 757.35439,233.83827   C 757.59439,235.19826 757.91439,236.55825 757.83439,237.91824   C 757.51439,241.03821 754.63441,243.1182 751.83443,243.67819   C 750.71444,243.91819 749.51445,243.99819 748.39446,243.67819   C 747.27446,243.3582 746.31447,242.6382 745.35448,241.91821   C 743.0345,240.23822 740.71451,238.47823 738.39453,236.79825   C 734.47456,233.83827 728.6346,236.79825 724.55463,238.31823   C 719.83467,240.07822 715.3547,242.7182 712.07473,246.79817   C 711.75473,247.27817 711.43473,247.67817 711.11473,248.07816   C 710.39474,249.19815 709.59474,250.23815 708.63475,251.03814   C 705.27478,253.75812 700.23481,252.87813 696.79484,249.99815   C 695.19485,248.63816 693.59486,246.87817 691.67488,247.03817   C 690.15489,247.11817 689.0349,248.55816 688.5549,250.07815   C 688.1549,251.67814 688.3149,253.35812 688.5549,254.95811   C 689.59489,260.95807 691.75488,266.79802 695.43485,271.43799   C 703.43479,281.51791 714.23471,280.55792 724.79463,277.91794   C 728.8746,276.87795 733.03457,275.75796 737.19454,274.71797   C 744.79448,272.79798 752.79442,270.71799 758.15438,264.71804   C 762.95435,259.43808 764.79433,251.91813 764.55434,244.55819   C 764.39434,240.71822 763.75434,236.87825 762.63435,233.19827   z "
     style="fill:#3b455a;fill-rule:nonzero;fill-opacity:1;stroke:none;" />
  <path
     id="path37"
     d="  M 750.15444,171.27873   C 750.31444,168.31875 750.15444,165.43877 749.91445,162.4788   C 747.51446,163.99879 744.71448,164.87878 741.9145,165.03878   C 741.59451,163.35879 741.19451,161.7588 740.79451,160.15881   C 740.47452,158.79882 722.15465,161.9188 720.63466,162.1588   C 706.63477,164.07878 693.83486,165.91877 683.03494,176.23869   C 673.91501,185.03863 669.27504,196.15855 670.47503,209.03845   C 671.67502,221.27836 679.03497,235.99825 688.0749,244.31819   C 687.35491,241.11821 683.83493,234.07827 683.83493,230.87829   C 683.59494,227.75831 683.99493,224.63834 684.79493,221.59836   C 686.39492,215.5984 689.75489,210.07844 694.07486,205.75848   C 700.95481,198.71853 709.75474,193.91856 718.79468,190.47859   C 727.11461,187.27861 737.27454,183.75864 746.31447,184.15864   C 750.63444,184.39863 751.51443,185.27863 753.03442,180.47866   C 753.35442,179.67867 754.79441,170.23874 754.47441,170.31874   C 753.03442,170.63874 751.59443,170.95873 750.15444,171.27873   z "
     style="fill:#3b455a;fill-rule:nonzero;fill-opacity:1;stroke:none;" />
  <path
     id="path39"
     d="  M 628.23535,208.39846   L 637.27528,247.51817   L 653.43516,257.19809   L 713.99471,243.1982   L 721.91465,225.43833   C 722.55465,223.51834 724.87463,222.95835 726.31462,224.39834   L 741.51451,236.79825   L 801.75406,222.87835   L 812.07398,207.11847   L 803.03405,167.91876   L 628.23535,208.39846   z "
     style="fill:#f7f7f7;fill-rule:nonzero;fill-opacity:1;stroke:none;" />
  <path
     id="path41"
     d="  M 705.75477,234.47826   L 654.07515,246.47817   C 652.39517,246.87817 650.71518,245.75818 650.31518,244.07819   L 643.67523,215.3584   C 643.27523,213.67842 644.31523,211.99843 645.99521,211.59843   L 697.67483,199.67852   C 699.35482,199.27852 701.03481,200.31852 701.4348,201.9985   L 708.07476,230.71829   C 708.47475,232.39828 707.43476,234.07827 705.75477,234.47826   z "
     style="fill:#d34e4e;fill-rule:nonzero;fill-opacity:1;stroke:none;" />
  <path
     id="path43"
     d="  M 796.3941,213.51842   L 744.79448,225.43833   C 743.1145,225.83833 741.43451,224.79833 741.03451,223.11835   L 734.39456,194.39856   C 733.99456,192.71857 735.03456,191.03858 736.71454,190.63859   L 788.31416,178.71868   C 789.99415,178.31868 791.67414,179.35867 792.07413,181.03866   L 798.71408,209.75845   C 799.11408,211.43843 798.07409,213.11842 796.3941,213.51842   z "
     style="fill:#474ebb;fill-rule:nonzero;fill-opacity:1;stroke:none;" />
  <path
     id="path45"
     d="  M 960.07289,553.5959   L 564.39582,634.4753   L 618.23542,897.75335   L 1013.8325,816.95395   L 960.07289,553.5959  z "
     style="fill:#3b455a;fill-rule:nonzero;fill-opacity:1;stroke:none;" />
  <path
     id="path47"
     d="  M 951.83295,507.11624   L 554.95589,588.15564   L 564.39582,634.4753   L 961.27288,553.3559   L 951.83295,507.11624  z "
     style="fill:#59595b;fill-rule:nonzero;fill-opacity:1;stroke:none;" />
  <path
     id="path49"
     d="  M 914.23323,563.03583   L 961.27288,553.3559   L 951.83295,507.11624   L 951.03296,507.27624   L 914.23323,563.03583  z "
     style="fill:#f7f7f7;fill-rule:nonzero;fill-opacity:1;stroke:none;" />
  <path
     id="path51"
     d="  M 554.95589,588.15564   L 562.95583,627.35535   L 594.1556,580.1557   z "
     style="fill:#e6e6e7;fill-rule:nonzero;fill-opacity:1;stroke:none;" />
  <path
     id="path53"
     d="  M 664.47508,565.83581   L 627.67535,621.5954   L 700.55481,606.63551   L 737.43454,550.87592   L 664.47508,565.83581  z "
     style="fill:#f7f7f7;fill-rule:nonzero;fill-opacity:1;stroke:none;" />
  <path
     id="path55"
     d="  M 807.75402,536.55603   L 770.95429,592.31561   L 843.91375,577.35572   L 880.71348,521.59614   L 807.75402,536.55603  z "
     style="fill:#f7f7f7;fill-rule:nonzero;fill-opacity:1;stroke:none;" />
  <path
     id="path57"
     d="  M 594.1556,580.1557   L 562.95583,627.35535   L 564.39582,634.4753   L 627.67535,621.5954   L 664.47508,565.83581   L 594.1556,580.1557  z "
     style="fill:#3b455a;fill-rule:nonzero;fill-opacity:1;stroke:none;" />
  <path
     id="path59"
     d="  M 737.43454,550.87592   L 700.55481,606.63551   L 770.95429,592.31561   L 807.75402,536.55603   L 737.43454,550.87592  z "
     style="fill:#3b455a;fill-rule:nonzero;fill-opacity:1;stroke:none;" />
  <path
     id="path61"
     d="  M 880.71348,521.59614   L 843.91375,577.35572   L 914.23323,563.03583   L 951.03296,507.27624   L 880.71348,521.59614  z "
     style="fill:#3b455a;fill-rule:nonzero;fill-opacity:1;stroke:none;" />
  <path
     id="path63"
     d="  M 598.63557,567.5158   L 555.19589,588.07564   L 535.03604,545.35596   L 535.67603,545.03596   L 598.63557,567.5158  z "
     style="fill:#e6e6e7;fill-rule:nonzero;fill-opacity:1;stroke:none;" />
  <path
     id="path65"
     d="  M 901.19332,372.31724   L 918.3132,408.39697   L 865.03359,389.35712   z "
     style="fill:#f7f7f7;fill-rule:nonzero;fill-opacity:1;stroke:none;" />
  <path
     id="path67"
     d="  M 800.15407,420.07689   L 863.03361,442.55672   L 795.75411,474.39649   L 732.79457,451.83665   L 800.15407,420.07689  z "
     style="fill:#f7f7f7;fill-rule:nonzero;fill-opacity:1;stroke:none;" />
  <path
     id="path69"
     d="  M 667.91505,482.55643   L 730.87459,505.03626   L 663.51509,536.87602   L 600.63555,514.31619   L 667.91505,482.55643  z "
     style="fill:#f7f7f7;fill-rule:nonzero;fill-opacity:1;stroke:none;" />
  <path
     id="path71"
     d="  M 865.03359,389.35712   L 918.3132,408.39697   L 921.43317,415.03693   L 863.03361,442.55672   L 800.15407,420.07689   L 865.03359,389.35712  z "
     style="fill:#3b455a;fill-rule:nonzero;fill-opacity:1;stroke:none;" />
  <path
     id="path73"
     d="  M 732.79457,451.83665   L 795.75411,474.39649   L 730.87459,505.03626   L 667.91505,482.55643   L 732.79457,451.83665  z "
     style="fill:#3b455a;fill-rule:nonzero;fill-opacity:1;stroke:none;" />
  <path
     id="path75"
     d="  M 600.63555,514.31619   L 663.51509,536.87602   L 598.63557,567.5158   L 535.67603,545.03596   L 600.63555,514.31619  z "
     style="fill:#3b455a;fill-rule:nonzero;fill-opacity:1;stroke:none;" />
  <path
     id="path77"
     d="  M 564.39582,634.4753   L 535.03604,545.43596   L 578.47571,524.87611   L 660.07511,614.95544   L 564.39582,634.4753  z "
     style="fill:#3b455a;fill-rule:nonzero;fill-opacity:1;stroke:none;" />
  <path
     id="path79"
     d="  M 611.19547,561.03584   L 578.47571,524.87611   L 625.75536,554.71589   L 611.19547,561.03584  z "
     style="fill:#262c3a;fill-rule:nonzero;fill-opacity:1;stroke:none;" />
  <path
     id="path81"
     d="  M 611.19547,561.03584   L 578.47571,524.87611   L 611.19547,561.03584   L 611.19547,561.03584  z "
     style="fill:#262c3a;fill-rule:nonzero;fill-opacity:1;stroke:none;" />
  <path
     id="path83"
     d="  M 660.07511,614.95544   L 660.07511,614.95544   L 643.83523,597.03558   L 647.11521,592.07561   L 673.91501,612.07547   L 660.07511,614.95544  z "
     style="fill:#9f9e9e;fill-rule:nonzero;fill-opacity:1;stroke:none;" />
  <path
     id="path85"
     d="  M 643.83523,597.03558   L 623.19538,574.23575   L 647.11521,592.07561   L 643.83523,597.03558  z "
     style="fill:#262c3a;fill-rule:nonzero;fill-opacity:1;stroke:none;" />
  <path
     id="path87"
     d="  M 660.07511,614.95544   L 623.19538,574.23575   L 623.19538,574.23575   L 643.83523,597.03558   L 660.07511,614.95544  z "
     style="fill:#262c3a;fill-rule:nonzero;fill-opacity:1;stroke:none;" />
  <path
     id="path89"
     d="  M 574.71574,552.23591   C 575.51574,555.67588 573.35575,559.11586 569.91578,559.91585   C 566.4758,560.71585 563.03583,558.63586 562.23584,555.19589   C 561.43584,551.75591 563.59583,548.31594 567.0358,547.51594   C 570.47577,546.63595 573.91575,548.79593 574.71574,552.23591   z "
     style="fill:#f7f7f7;fill-rule:nonzero;fill-opacity:1;stroke:none;" />
  <path
     id="path91"
     d="  M 581.35569,609.03549   C 582.15569,612.47546 579.9957,615.91544 576.55573,616.71543   C 573.11575,617.51543 569.67578,615.35544 568.87579,611.91547   C 568.07579,608.47549 570.23578,605.03552 573.67575,604.23552   C 577.11573,603.43553 580.5557,605.51551 581.35569,609.03549   z "
     style="fill:#f7f7f7;fill-rule:nonzero;fill-opacity:1;stroke:none;" />
  <path
     id="path93"
     d="  M 627.27535,598.31557   C 628.07535,601.75554 625.99536,605.19552 622.55539,605.99551   C 619.11541,606.79551 615.67544,604.63552 614.87545,601.19555   C 614.07545,597.75557 616.15544,594.3156 619.59541,593.5156   C 623.03538,592.71561 626.47536,594.87559 627.27535,598.31557   z "
     style="fill:#f7f7f7;fill-rule:nonzero;fill-opacity:1;stroke:none;" />
  <path
     id="path95"
     d="  M 984.79271,766.23432   L 625.11537,839.75378   L 624.55537,837.1138   L 984.23271,763.59434   L 984.79271,766.23432  z "
     style="fill:#e6e6e7;fill-rule:nonzero;fill-opacity:1;stroke:none;" />
  <path
     id="path97"
     d="  M 741.59451,817.83394   L 750.47444,861.51362   L 747.51446,862.15361   L 738.63453,818.47394   L 741.59451,817.83394  z "
     style="fill:#e6e6e7;fill-rule:nonzero;fill-opacity:1;stroke:none;" />
  <path
     id="path99"
     d="  M 871.99354,791.19414   L 880.87348,834.87382   L 877.9935,835.51381   L 869.03356,791.75414   L 871.99354,791.19414  z "
     style="fill:#e6e6e7;fill-rule:nonzero;fill-opacity:1;stroke:none;" />
  <path
     id="path101"
     d="  M 950.47296,598.47557   L 590.79562,671.91502   L 590.15563,669.03504   L 949.91296,595.51559   L 950.47296,598.47557  z "
     style="fill:#e6e6e7;fill-rule:nonzero;fill-opacity:1;stroke:none;" />
  <path
     id="path103"
     d="  M 632.07532,526.7161   C 632.39532,528.71608 632.71531,530.87607 633.8353,532.55606   C 635.43529,534.87604 638.31527,535.91603 641.11525,536.71602   C 645.35522,537.91602 649.83519,538.95601 654.31515,538.55601   C 658.71512,538.15601 663.19509,536.15603 665.75507,532.47606   C 663.59508,528.23609 661.0351,524.23612 658.23512,520.39615   C 657.99513,519.19615 659.67511,518.63616 660.9551,518.63616   C 662.1551,518.63616 663.83508,518.31616 663.83508,517.03617   C 663.83508,516.63617 663.67508,516.31618 663.43509,515.99618   C 661.1151,512.15621 657.67513,509.11623 654.23515,506.23625   C 649.67519,502.39628 645.19522,498.55631 640.63525,494.63634   C 639.75526,493.91634 638.87527,493.19635 637.75528,493.03635   C 636.79528,492.87635 635.75529,493.19635 634.7953,493.51634   C 630.71533,494.87633 626.55536,496.15632 622.63539,497.83631   C 623.43538,507.83624 630.31533,516.63617 632.07532,526.7161   z "
     style="fill:#eac5b0;fill-rule:nonzero;fill-opacity:1;stroke:none;" />
  <path
     id="path105"
     d="  M 704.55478,289.03786   L 580.4757,418.1569   L 622.87539,514.31619   L 653.19516,499.4363   L 634.7953,424.23686   L 710.55474,382.55717   L 704.55478,289.03786  z "
     style="fill:#7fc5a3;fill-rule:nonzero;fill-opacity:1;stroke:none;" />
  <path
     id="path107"
     d="  M 896.79336,279.67793   C 897.27335,279.11793 897.67335,278.55794 897.67335,277.91794   C 897.67335,277.11795 896.95336,276.47795 896.39336,275.91796   C 893.99338,273.35798 894.39337,268.71801 897.27335,266.79802   C 900.23333,264.87804 904.7933,266.47803 905.75329,269.838   C 909.27326,268.31801 912.55324,266.15803 915.27322,263.43805   C 916.31321,262.39806 917.4332,261.19807 918.87319,261.11807   C 919.75319,261.11807 920.55318,261.51806 921.35318,261.91806   C 923.03316,262.79805 924.79315,263.67805 926.47314,264.63804   C 928.71312,265.83803 931.1131,267.27802 931.9931,269.678   C 933.43309,273.43797 930.63311,277.35795 928.07313,280.47792   C 927.43313,281.11792 926.87313,281.83791 926.15314,282.31791   C 925.19315,282.8779 924.15315,283.1179 923.19316,283.4379   C 920.79318,284.1579 918.5532,285.51789 916.47321,286.87787   C 909.83326,290.95784 903.19331,295.03781 896.55336,299.11778   C 896.31336,299.27778 890.8734,290.07785 890.8734,288.87786   C 890.8734,285.19789 894.63337,282.23791 896.79336,279.67793   z "
     style="fill:#eacdb0;fill-rule:nonzero;fill-opacity:1;stroke:none;" />
  <path
     id="path109"
     d="  M 760.07437,282.71791   L 847.67372,318.95764   L 887.03343,282.71791   L 911.91325,291.43784   L 847.67372,374.63722   L 774.95426,374.63722   L 760.07437,282.71791  z "
     style="fill:#7fc5a3;fill-rule:nonzero;fill-opacity:1;stroke:none;" />
  <path
     id="path111"
     d="  M 996.87262,306.07773   L 839.27378,250.47814   C 837.75379,249.91815 836.9538,248.23816 837.5138,246.71817   L 894.95337,83.999378   C 895.51337,82.39939 897.19335,81.599396 898.71334,82.159391   L 1056.3122,137.83898   C 1057.8322,138.39897 1058.7122,140.07896 1058.1522,141.59895   L 1000.6326,304.31775   C 1000.1526,305.83773 998.4726,306.63773 996.87262,306.07773   z "
     style="fill:#d34e4e;fill-rule:nonzero;fill-opacity:1;stroke:none;" />
  <path
     id="path113"
     d="  M 895.03337,270.158   L 849.9937,254.23812   L 849.9937,254.23812   L 895.03337,270.158   L 895.03337,270.158  z "
     style="fill:#d39e3d;fill-rule:nonzero;fill-opacity:1;stroke:none;" />
  <path
     id="path115"
     d="  M 924.07316,280.39792   L 895.03337,270.158   L 895.03337,270.158   L 924.07316,280.39792  z "
     style="fill:#d2b89e;fill-rule:nonzero;fill-opacity:1;stroke:none;" />
  <path
     id="path117"
     d="  M 1009.7525,278.55794   L 1032.9523,212.87842   C 1032.9523,212.79842 1033.0323,212.71842 1033.0323,212.63842   L 1009.7525,278.55794   z "
     style="fill:#d39e3d;fill-rule:nonzero;fill-opacity:1;stroke:none;" />
  <path
     id="path119"
     d="  M 993.75264,304.39775   C 992.63265,304.39775 991.51266,304.23775 990.47266,303.83775   L 924.07316,280.39792   L 895.03337,270.158   L 849.9937,254.23812   C 877.9935,261.11807 913.19324,271.11799 945.83299,271.11799   C 983.03272,271.11799 1016.8725,258.15809 1032.9523,212.87842   L 1009.7525,278.55794   L 1002.8726,297.99779   C 1001.5126,301.91776 997.75261,304.39775 993.75264,304.39775   z "
     style="fill:#bd4646;fill-rule:nonzero;fill-opacity:1;stroke:none;" />
  <path
     id="path121"
     d="  M 897.27335,96.879282   L 888.07342,123.03909   C 892.63339,112.15917 906.55328,89.999333 940.47303,101.91925   L 909.67326,91.119325   C 904.6333,89.279339 899.03334,91.919319 897.27335,96.879282   z "
     style="fill:#ffffff;fill-rule:nonzero;fill-opacity:1;stroke:none;" />
  <path
     id="path123"
     d="  M 993.27264,210.15844   L 925.27315,131.75902   L 891.1134,228.47831   z "
     style="fill:#f7f7f7;fill-rule:nonzero;fill-opacity:1;stroke:none;" />
  <path
     id="path125"
     d="  M 1087.7519,291.91784   L 1092.5519,280.07793   L 1102.8718,275.67796   L 1103.1118,273.03798   L 1099.8319,272.71798   L 1107.4318,266.63802   L 1109.1118,258.95808   L 1102.0718,251.35814   L 1091.4319,249.67815   L 1084.472,257.59809   L 1081.992,269.758   L 1074.792,285.59788   L 1087.7519,291.91784  z "
     style="fill:#7b4f34;fill-rule:nonzero;fill-opacity:1;stroke:none;" />
  <path
     id="path127"
     d="  M 1095.7519,291.67784   C 1096.1519,292.31783 1096.3919,293.03783 1096.4719,293.75782   C 1097.1919,298.47779 1082.232,318.47764 1079.832,324.2376   C 1074.712,336.23751 1070.7921,348.71742 1068.2321,361.51732   C 1086.392,360.07733 1104.5518,358.63734 1122.7917,357.19735   C 1111.1118,394.39708 1094.9519,430.15681 1074.712,463.51657   C 1073.912,464.79656 1072.9521,466.23655 1071.4321,466.55654   C 1069.9921,466.87654 1068.5521,466.07655 1067.2721,465.27655   C 1040.5523,448.47668 1017.3525,426.15684 999.4326,400.07704   C 983.59271,376.95721 1020.4724,344.15745 1034.0723,325.75759   C 1046.7122,308.55771 1059.4322,291.27784 1072.1521,274.07797   C 1077.672,277.99794 1092.2319,285.11789 1095.7519,291.67784   z "
     style="fill:#474ebb;fill-rule:nonzero;fill-opacity:1;stroke:none;" />
  <path
     id="path129"
     d="  M 1123.5117,272.87798   C 1124.3917,269.678 1125.5117,266.39803 1127.7516,263.83805   C 1128.3116,263.19805 1129.0316,262.55806 1129.5916,261.83806   C 1149.4315,237.59824 1191.5912,242.5582 1199.0311,281.75791   C 1202.9511,302.87776 1189.6712,325.59759 1170.5513,332.87753   C 1171.2713,338.47749 1170.3913,345.27744 1170.5513,349.51741   C 1170.5513,350.3974 1170.5513,351.3574 1169.9913,351.99739   C 1169.5113,352.63739 1168.7913,352.87739 1167.9913,353.03738   C 1161.1114,354.55737 1153.7515,353.43738 1147.5115,349.83741   C 1147.1115,349.59741 1146.6315,349.27741 1146.3115,348.87742   C 1145.9915,348.31742 1145.9115,347.59743 1145.9115,346.95743   C 1145.6715,342.39746 1145.7515,337.7575 1146.2315,333.19753   C 1134.8716,329.51756 1126.5517,318.79764 1123.0317,307.19772   C 1119.7517,296.07781 1120.3917,283.9979 1123.5117,272.87798   z "
     style="fill:#7b4f34;fill-rule:nonzero;fill-opacity:1;stroke:none;" />
  <path
     id="path131"
     d="  M 1084.712,860.23363   L 1075.432,869.99356   C 1069.3521,876.23351 1071.4321,886.95343 1079.592,889.99341   C 1084.392,891.75339 1090.9519,891.1134 1099.7519,884.31345   L 1119.4317,859.35363   L 1115.5917,851.83369   L 1093.4319,849.67371   L 1084.712,860.23363   z "
     style="fill:#3b455a;fill-rule:nonzero;fill-opacity:1;stroke:none;" />
  <path
     id="path133"
     d="  M 1105.3518,586.71565   L 1043.9923,726.31462   L 1088.3119,854.79367   L 1118.7117,852.47369   L 1127.2716,753.27442   C 1127.2716,753.27442 1219.831,623.51538 1213.591,619.67541   C 1207.2711,615.83544 1105.3518,586.71565 1105.3518,586.71565   z "
     style="fill:#3b455a;fill-rule:nonzero;fill-opacity:1;stroke:none;" />
  <path
     id="path135"
     d="  M 1250.1507,882.55346   L 1244.1508,894.63337   C 1240.2308,902.39332 1245.3508,911.99324 1254.0707,912.39324   C 1259.1907,912.71324 1265.2706,910.07326 1271.5906,901.03333   L 1282.9505,871.35355   L 1277.0305,865.27359   L 1255.3507,869.83356   L 1250.1507,882.55346   z "
     style="fill:#3b455a;fill-rule:nonzero;fill-opacity:1;stroke:none;" />
  <path
     id="path137"
     d="  M 1150.9515,636.47529   C 1142.7115,653.27516 1162.8714,695.83485 1167.7513,712.39472   C 1173.1113,730.95459 1175.8313,760.71437 1186.5512,776.95424   L 1251.9107,876.23351   L 1280.2305,864.95359   C 1273.9906,836.7938 1263.8306,807.19402 1260.3107,778.71423   C 1255.2707,737.59454 1286.7905,693.91486 1295.4304,652.39517   C 1297.9904,640.31526 1299.7504,627.67535 1297.1904,615.59544   C 1294.5504,603.51553 1286.9505,591.83562 1275.3506,587.43565   C 1257.6707,580.7157 1238.7908,592.15561 1222.7109,602.23554   C 1203.2711,614.55545 1182.5512,625.67537 1159.9914,629.83533   C 1155.5114,630.63533 1152.6315,633.03531 1150.9515,636.47529   z "
     style="fill:#3b455a;fill-rule:nonzero;fill-opacity:1;stroke:none;" />
  <path
     id="path139"
     d="  M 1238.2308,365.0373   C 1268.3906,389.75711 1279.9905,431.5968 1287.2705,471.03651   C 1293.7504,505.91625 1298.1504,541.19599 1300.6304,576.55573   C 1301.5104,589.19564 1301.8304,602.87553 1294.8704,613.03546   C 1290.2304,619.67541 1283.0305,623.83538 1275.9905,627.43535   C 1223.2709,654.71515 1163.9914,667.75505 1105.1118,665.11507   C 1098.5519,664.87507 1091.6719,664.23508 1086.232,660.31511   C 1082.152,657.43513 1079.352,652.95516 1076.792,648.4752   C 1051.9922,603.83553 1049.5922,549.51593 1052.9522,498.15631   C 1055.2722,461.19658 1060.7121,423.19687 1079.352,391.9171   C 1113.5118,334.87752 1187.9112,323.8376 1238.2308,365.0373   z "
     style="fill:#474ebb;fill-rule:nonzero;fill-opacity:1;stroke:none;" />
  <path
     id="path141"
     d="  M 1270.1506,522.31613   L 1270.8706,530.39607   C 1271.0306,532.15606 1269.9906,533.83605 1268.3906,534.55604   L 1147.8315,582.95568   C 1145.3515,583.99567 1142.5515,582.31569 1142.2315,579.59571   L 1141.4315,571.11577   C 1141.2715,569.35578 1142.3115,567.67579 1143.9915,566.9558   L 1264.5506,518.87616   C 1267.1106,517.91616 1269.8306,519.59615 1270.1506,522.31613   M 1295.7504,464.79656   C 1294.5504,464.07656 1293.0304,463.91656 1291.7504,464.47656   C 1291.7504,464.47656 1113.7517,535.43603 1109.5918,537.03602   C 1108.8718,537.35602 1108.1518,537.51602 1107.5918,537.99601   C 1106.3918,538.87601 1105.7518,540.316 1105.9118,541.83599   L 1124.5517,739.43452   C 1124.7917,741.8345 1122.7917,743.91449 1120.3917,743.83449   C 1109.5118,743.59449 1097.9119,746.31447 1087.3519,751.83443   C 1059.7521,766.07433 1046.3122,794.87411 1057.2722,815.83396   C 1062.7121,826.23388 1073.1121,833.19383 1086.552,835.35381   C 1091.3519,836.15381 1096.3119,836.23381 1101.3518,835.83381   C 1109.9918,834.95382 1118.7917,832.39383 1127.1117,828.07387   C 1148.7115,816.87395 1162.2314,796.6341 1160.9514,777.59424   C 1160.9514,777.43424 1160.9514,777.27424 1160.9514,777.11424   L 1146.1515,621.0354   C 1145.9915,619.19541 1147.0315,617.51543 1148.7115,616.87543   L 1269.2706,568.79579   C 1271.8306,567.75579 1274.5506,569.43578 1274.8706,572.15576   L 1285.5105,684.71493   C 1285.7505,687.19491 1283.7505,689.19489 1281.2705,689.19489   C 1270.3906,688.8749 1258.7907,691.67488 1248.2308,697.11484   C 1235.1109,703.99479 1224.7109,714.23471 1218.951,726.07462   C 1213.031,738.31453 1212.711,750.79444 1218.151,761.19436   C 1223.5909,771.59428 1233.9909,778.55423 1247.5108,780.71422   C 1260.5507,782.7942 1274.9506,780.23422 1288.0705,773.35427   C 1309.9103,762.07436 1323.4302,741.59451 1321.8302,722.31465   L 1321.8302,722.15465   L 1297.8304,468.15653   C 1297.6704,466.79654 1296.8704,465.51655 1295.7504,464.79656   z "
     style="fill:#f7f7f7;fill-rule:nonzero;fill-opacity:1;stroke:none;" />
  <path
     id="path143"
     d="  M 1160.9514,777.11424   L 1156.7914,733.59457   L 1156.7914,733.59457   L 1160.9514,777.11424  z "
     style="fill:#dea741;fill-rule:nonzero;fill-opacity:1;stroke:none;" />
  <path
     id="path145"
     d="  M 1095.5919,836.07381   C 1092.5519,836.07381 1089.5119,835.83381 1086.552,835.35381   C 1086.552,835.35381 1086.552,835.35381 1086.552,835.35381   C 1086.552,835.35381 1086.552,835.35381 1086.552,835.35381   C 1089.5119,835.83381 1092.5519,836.07381 1095.5919,836.07381   C 1097.5119,836.07381 1099.4319,835.99381 1101.3518,835.83381   C 1107.7518,835.19381 1114.2317,833.59383 1120.5517,831.03384   L 1120.5517,831.03384   C 1114.2317,833.59383 1107.7518,835.19381 1101.3518,835.83381   C 1099.4319,835.99381 1097.5119,836.07381 1095.5919,836.07381   z "
     style="fill:#394256;fill-rule:nonzero;fill-opacity:1;stroke:none;" />
  <path
     id="path147"
     d="  M 1095.5919,836.07381   C 1092.5519,836.07381 1089.5119,835.83381 1086.552,835.35381   C 1086.552,835.35381 1086.552,835.35381 1086.552,835.35381   C 1080.072,834.31382 1074.312,832.15384 1069.4321,829.03386   C 1094.8719,819.51393 1133.9116,795.19411 1156.7914,733.59457   L 1160.9514,777.11424   C 1160.9514,777.27424 1160.9514,777.43424 1160.9514,777.59424   C 1161.0314,778.39423 1161.0314,779.19423 1161.0314,779.99422   C 1161.0314,798.31409 1147.7515,817.35395 1127.1117,828.07387   C 1124.9517,829.19386 1122.7917,830.15385 1120.5517,831.03384   C 1114.2317,833.59383 1107.7518,835.19381 1101.3518,835.83381   C 1099.4319,835.99381 1097.5119,836.07381 1095.5919,836.07381   z "
     style="fill:#eaeaea;fill-rule:nonzero;fill-opacity:1;stroke:none;" />
  <path
     id="path149"
     d="  M 1256.5507,781.43421   C 1253.4307,781.43421 1250.4707,781.19421 1247.5108,780.71422   C 1247.1908,780.63422 1246.8708,780.63422 1246.5508,780.55422   C 1246.8708,780.63422 1247.1908,780.63422 1247.5108,780.71422   C 1250.4707,781.19421 1253.4307,781.43421 1256.5507,781.43421   C 1257.9107,781.43421 1259.2707,781.35421 1260.6307,781.27421   L 1260.6307,781.27421   C 1259.2707,781.35421 1257.9107,781.43421 1256.5507,781.43421   z  M 1246.5508,780.55422   C 1246.5508,780.55422 1246.5508,780.55422 1246.4708,780.55422   C 1246.5508,780.55422 1246.5508,780.55422 1246.5508,780.55422   z  M 1246.4708,780.55422   C 1246.4708,780.55422 1246.4708,780.55422 1246.4708,780.55422   C 1246.4708,780.55422 1246.4708,780.55422 1246.4708,780.55422   z  M 1246.3908,780.55422   C 1246.3908,780.55422 1246.3908,780.55422 1246.3908,780.47422   C 1246.3908,780.55422 1246.3908,780.55422 1246.3908,780.55422   z  M 1246.3108,780.47422   C 1246.3108,780.47422 1246.3108,780.47422 1246.3108,780.47422   C 1246.3108,780.47422 1246.3108,780.47422 1246.3108,780.47422   z  M 1246.2308,780.47422   C 1246.2308,780.47422 1246.2308,780.47422 1246.2308,780.47422   C 1246.2308,780.47422 1246.2308,780.47422 1246.2308,780.47422   z  M 1246.1508,780.47422   C 1246.1508,780.47422 1246.1508,780.47422 1246.1508,780.47422   C 1246.1508,780.47422 1246.1508,780.47422 1246.1508,780.47422   z "
     style="fill:#394256;fill-rule:nonzero;fill-opacity:1;stroke:none;" />
  <path
     id="path151"
     d="  M 1256.5507,781.43421   C 1253.4307,781.43421 1250.4707,781.19421 1247.5108,780.71422   C 1247.1908,780.63422 1246.8708,780.63422 1246.5508,780.55422   L 1246.5508,780.55422   C 1246.5508,780.55422 1246.5508,780.55422 1246.4708,780.55422   C 1246.4708,780.55422 1246.4708,780.55422 1246.4708,780.55422   C 1246.4708,780.55422 1246.4708,780.55422 1246.4708,780.55422   C 1246.3908,780.55422 1246.3908,780.55422 1246.3908,780.55422   C 1246.3908,780.55422 1246.3908,780.55422 1246.3908,780.47422   C 1246.3908,780.47422 1246.3108,780.47422 1246.3108,780.47422   C 1246.3108,780.47422 1246.3108,780.47422 1246.3108,780.47422   C 1246.3108,780.47422 1246.2308,780.47422 1246.2308,780.47422   C 1246.2308,780.47422 1246.2308,780.47422 1246.2308,780.47422   L 1246.1508,780.47422   C 1246.1508,780.47422 1246.1508,780.47422 1246.1508,780.47422   C 1239.9108,779.27423 1234.3109,777.03424 1229.6709,773.91427   C 1253.1107,766.55432 1293.2704,745.67448 1318.5502,687.43491   L 1321.8302,722.15465   L 1321.8302,722.31465   C 1321.9102,723.35464 1321.9902,724.39463 1321.9902,725.35463   C 1321.9902,743.67449 1308.7103,762.63435 1288.0705,773.35427   C 1279.1905,777.99424 1269.8306,780.63422 1260.6307,781.27421   C 1259.2707,781.35421 1257.9107,781.43421 1256.5507,781.43421   z "
     style="fill:#eaeaea;fill-rule:nonzero;fill-opacity:1;stroke:none;" />
  <path
     id="path153"
     d="  M 1129.1116,310.6377   C 1129.2716,311.67769 1129.5916,312.63768 1130.1516,313.51768   C 1132.6316,317.27765 1138.1516,316.95765 1142.6315,316.55766   C 1149.4315,315.91766 1156.2314,316.15766 1162.9514,317.11765   C 1165.5914,317.43765 1168.2313,317.91765 1170.8713,317.75765   C 1176.7913,317.35765 1189.8312,300.63777 1192.8712,307.19772   C 1193.5112,308.55771 1193.1112,310.1577 1192.6312,311.67769   C 1191.1912,316.55766 1189.5912,321.75762 1185.9112,325.35759   C 1181.9912,329.35756 1176.2313,330.95755 1170.7913,332.31754   C 1167.1914,333.27753 1163.5114,334.15752 1159.8314,334.07753   C 1156.4714,333.99753 1153.2715,333.19753 1150.0715,332.31754   C 1137.8316,329.03756 1122.9517,323.6776 1120.4717,308.95771   C 1119.9917,306.31773 1120.9517,302.71776 1123.6717,302.39776   C 1125.9917,302.07776 1127.7516,304.47774 1128.3116,306.79773   C 1128.6316,308.07772 1128.7916,309.35771 1129.1116,310.6377   z "
     style="fill:#3b455a;fill-rule:nonzero;fill-opacity:1;stroke:none;" />
  <path
     id="path155"
     d="  M 1211.271,530.39607   L 1208.951,542.95598   L 1199.6711,549.27593   L 1199.9911,551.91591   L 1203.1911,551.59591   L 1196.9511,559.03586   L 1196.8711,566.8758   L 1205.2711,572.95576   L 1215.991,572.47576   L 1221.271,563.35583   L 1221.271,551.03592   L 1225.1909,533.99604   L 1211.271,530.39607  z "
     style="fill:#7b4f34;fill-rule:nonzero;fill-opacity:1;stroke:none;" />
  <path
     id="path157"
     d="  M 1203.2711,532.23606   C 1202.9511,532.07606 1202.6311,531.91606 1202.3911,531.67606   C 1206.9511,513.67619 1227.5909,482.31643 1223.7509,464.95656   C 1221.7509,455.67662 1209.431,443.27672 1204.2311,435.27678   C 1196.7111,423.91686 1189.2712,412.47694 1181.8312,401.11703   C 1179.7513,397.91705 1177.5913,394.63708 1176.7913,390.9571   C 1175.7513,386.15714 1177.0313,381.11718 1178.8713,376.63721   C 1182.0712,368.87727 1187.1912,361.59732 1194.5512,357.59735   C 1205.8311,351.5174 1227.9109,352.55739 1238.0708,360.39733   C 1245.1108,365.83729 1249.9107,373.51723 1254.4707,381.11718   C 1260.7107,391.5171 1266.7106,402.07702 1272.4706,412.71694   C 1278.6305,424.07686 1284.6305,436.07677 1284.7905,448.95667   C 1284.9505,457.59661 1282.3905,465.99655 1279.9105,474.31649   C 1274.0706,493.59634 1247.9908,551.75591 1219.511,539.996   C 1213.991,537.83602 1208.311,535.35603 1203.2711,532.23606   z "
     style="fill:#474ebb;fill-rule:nonzero;fill-opacity:1;stroke:none;" />
  <path
     id="path159"
     d="  M 1214.391,280.07793   C 1213.671,275.19796 1211.671,270.398 1207.9911,267.27802   C 1207.5911,266.95802 1207.2711,266.63802 1206.8711,266.39803   C 1207.5111,254.07812 1203.6711,241.75821 1196.3111,231.83828   C 1185.1912,216.79839 1166.5514,207.67846 1146.3115,211.11844   C 1122.2317,215.19841 1112.8718,242.31821 1112.7118,264.95804   C 1111.4318,265.67803 1110.3918,266.71802 1109.5118,267.91802   C 1105.5118,273.59797 1104.9518,283.7579 1104.8718,289.03786   C 1104.8718,293.11783 1105.1918,297.3578 1107.1118,300.87777   C 1109.5918,305.35774 1117.9917,309.75771 1121.9917,304.23775   C 1123.9117,301.59777 1122.8717,295.67781 1122.7117,292.47783   C 1122.5517,288.23786 1122.1517,284.0779 1121.9117,279.83793   C 1121.9117,278.79793 1121.9917,277.51794 1122.0717,276.23795   C 1122.7117,275.27796 1123.0317,274.15797 1122.8717,272.79798   C 1121.2717,259.51808 1123.1917,243.75819 1131.5116,233.03827   C 1139.4316,222.79835 1144.0715,220.39837 1153.1915,220.23837   C 1177.0313,219.91837 1198.3111,237.91824 1197.9111,262.47806   C 1197.9111,262.79805 1197.9111,263.27805 1197.9911,263.83805   C 1190.4712,266.47803 1188.6312,283.0379 1189.6712,291.19784   C 1190.1512,295.35781 1191.3512,299.51778 1193.9112,302.71776   C 1196.4711,305.91773 1200.7111,307.91772 1204.4711,306.79773   C 1208.1511,305.67774 1210.551,301.91776 1211.991,298.23779   C 1214.311,292.55783 1215.271,286.23788 1214.391,280.07793   z "
     style="fill:#d34e4e;fill-rule:nonzero;fill-opacity:1;stroke:none;" />
  <path
     id="path161"
     d="  M 286.15788,330.79755   C 285.75788,330.95755 285.35789,331.11755 284.95789,331.27755   C 277.99794,333.83753 272.07798,338.63749 266.31803,343.27746   C 257.67809,350.23741 253.35812,353.35738 250.07815,363.67731   C 246.95817,373.35723 244.95819,383.59716 243.0382,393.59708   C 233.27827,444.71671 231.35829,495.67633 224.31834,547.27595   C 222.39835,561.27584 220.87836,577.75572 231.27829,587.43565   C 249.67815,573.11575 272.79798,572.23576 295.19781,572.23576   C 310.8777,572.23576 326.15758,567.1158 341.91747,568.87579   C 356.95736,570.55577 370.07726,566.7958 385.27715,567.83579   C 388.95712,568.07579 393.67708,567.99579 395.11707,564.63582   C 389.83711,548.79593 389.91711,531.75606 388.71712,515.19618   C 385.67714,472.1565 371.43725,430.87681 365.67729,388.15712   C 363.67731,373.59723 362.63731,349.51741 351.4374,338.47749   C 339.19749,326.55758 311.27769,326.31758 295.59781,328.63757   C 292.39783,329.11756 289.27786,329.75756 286.15788,330.79755   z "
     style="fill:#ccd2d9;fill-rule:nonzero;fill-opacity:1;stroke:none;" />
  <path
     id="path163"
     d="  M 238.71823,536.31603   C 240.95822,525.59611 234.07827,520.31615 227.83831,511.19621   C 224.31834,506.07625 222.87835,491.19636 214.47841,492.39635   C 212.87842,492.63635 211.19844,492.87635 209.75845,493.59634   C 208.55846,494.23634 207.59846,495.19633 206.71847,496.23632   C 205.99847,496.95632 204.71848,498.07631 204.71848,499.0363   C 204.79848,500.1563 206.55847,502.15628 207.11847,503.11627   C 214.39841,515.43618 217.51839,530.07607 214.07841,544.55597   C 213.67842,546.23595 213.27842,547.99594 213.83842,549.67593   C 214.63841,551.59591 216.79839,552.71591 218.87838,553.1959   C 225.91833,554.63589 233.19827,549.75593 236.23825,543.27598   C 237.43824,540.71599 238.23824,538.39601 238.71823,536.31603   z "
     style="fill:#eac5b0;fill-rule:nonzero;fill-opacity:1;stroke:none;" />
  <path
     id="path165"
     d="  M 175.3587,438.63675   C 185.11863,465.51655 202.9585,512.07621 208.55846,510.47622   C 217.35839,507.99624 225.67833,503.67627 232.87827,497.91631   C 225.83833,479.11645 216.4784,459.4366 215.8384,438.95675   C 215.03841,414.39693 246.31818,415.11693 265.67803,407.11698   C 271.59799,404.637 277.67794,401.83702 281.83791,397.03706   C 286.79788,391.3571 288.55786,383.59716 289.27786,376.15721   C 290.07785,366.15729 291.51784,344.87745 280.63792,339.51749   C 263.99804,331.19755 238.47823,355.99736 226.07833,364.6373   C 205.83848,378.6372 187.11861,395.03707 170.63874,413.43694   C 169.59874,414.55693 168.63875,415.67692 168.39875,417.19691   C 168.23875,418.3169 168.63875,419.51689 168.95875,420.63688   C 169.51874,422.23687 171.91873,429.27682 175.3587,438.63675   z "
     style="fill:#ccd2d9;fill-rule:nonzero;fill-opacity:1;stroke:none;" />
  <path
     id="path167"
     d="  M 297.83779,330.07755   C 298.15779,330.55755 298.47779,331.03755 298.95779,331.51754   C 300.71777,333.27753 303.27775,334.31752 305.75774,334.71752   C 309.11771,335.19752 312.47769,334.63752 315.75766,333.99753   C 320.15763,333.11753 319.99763,330.55755 320.63762,326.55758   C 321.03762,324.3176 321.27762,322.07761 321.43762,319.91763   C 321.51762,318.63764 321.03762,314.31767 321.83762,313.43768   C 322.31761,312.87768 324.4776,313.03768 325.43759,312.55768   C 326.87758,311.83769 328.15757,310.3977 329.03756,308.95771   C 330.47755,306.71773 331.27755,304.15775 332.07754,301.59777   C 333.43753,297.1178 334.71752,292.71783 336.07751,288.31786   C 337.5175,283.7579 338.87749,279.19793 339.35749,274.47797   C 339.99748,267.35802 338.87749,257.27809 333.43753,252.07813   C 328.55757,247.35817 321.43762,245.67818 314.87767,244.87819   C 306.15773,243.75819 297.1978,245.35818 289.67785,249.91815   C 286.63788,251.75814 283.8379,254.23812 281.99791,257.51809   C 279.27793,262.63805 279.43793,269.03801 279.75793,274.95796   L 280.55792,291.51784   C 280.87792,297.83779 281.67791,305.11774 286.47788,308.55771   C 288.95786,310.3977 292.23784,310.7977 294.39782,313.11768   C 297.1178,316.07766 296.9578,320.47763 297.0378,324.1576   C 297.1178,326.31758 296.9578,328.31757 297.83779,330.07755   z "
     style="fill:#eac5b0;fill-rule:nonzero;fill-opacity:1;stroke:none;" />
  <path
     id="path169"
     d="  M 325.35759,258.87808   C 325.59759,259.35808 325.91759,259.91807 326.07758,260.47807   C 327.11758,263.35805 326.39758,266.71802 327.35758,269.598   C 328.95756,274.23797 334.39752,277.03795 335.19752,281.83791   C 335.83751,285.83788 333.19753,289.59785 332.95753,293.59783   C 332.71754,297.91779 335.51751,302.07776 335.03752,306.39773   C 334.63752,310.1577 332.31754,315.43766 330.07755,318.39764   C 330.71755,317.51765 337.0375,317.83765 338.63749,316.79765   C 341.11747,315.27766 341.43747,314.31767 342.15747,311.75769   C 342.87746,309.19771 342.31746,306.63773 343.51746,303.99775   C 344.87745,300.71777 347.75742,298.39779 348.79742,294.87782   C 350.15741,290.15785 347.67742,285.19789 347.83742,280.31792   C 348.15742,272.87798 354.55737,265.83803 352.23739,258.79808   C 350.8774,254.63811 346.87743,251.99813 344.63745,248.23816   C 342.87746,245.43818 342.23746,242.07821 341.03747,238.95823   C 339.83748,235.91825 337.8375,232.79828 334.63752,231.83828   C 332.87753,231.35829 330.95755,231.51829 329.11756,231.19829   C 325.99759,230.63829 323.4376,228.47831 320.39763,227.43832   C 316.07766,225.99833 308.47771,230.31829 305.99773,233.99827   C 303.43775,237.59824 304.71774,240.71822 307.27772,243.91819   C 311.51769,249.27815 321.83762,252.79813 325.35759,258.87808   z "
     style="fill:#3b455a;fill-rule:nonzero;fill-opacity:1;stroke:none;" />
  <path
     id="path171"
     d="  M 267.19802,236.87825   C 264.63804,238.79823 261.43806,240.15822 259.11808,242.3982   C 254.47811,246.71817 253.59812,253.59812 253.43812,259.91807   C 253.27812,265.51803 250.79814,270.558 251.43814,276.39795   C 251.83813,280.31792 253.51812,284.31789 256.7181,286.63788   C 260.71807,289.51786 266.95802,289.99785 268.71801,294.55782   C 270.71799,299.59778 265.51803,305.83773 268.63801,310.1577   C 270.398,312.55768 273.75797,312.95768 276.23795,314.55767   C 279.03793,316.31766 280.39792,319.51763 282.15791,322.39761   C 283.8379,325.19759 286.31788,327.99757 289.59785,328.07757   C 289.75785,323.11761 289.91785,319.11764 287.75787,314.55767   C 286.55788,311.83769 282.8779,306.95773 285.67788,304.07775   C 287.43787,301.67777 291.67784,300.87777 291.75784,297.91779   C 291.83784,296.4778 290.79785,295.27781 290.07785,294.15782   C 287.03787,289.59785 286.79788,283.5179 288.79786,278.47794   C 290.79785,273.43797 294.95782,269.438 299.91778,267.11802   C 305.59774,264.31804 304.71774,262.87805 306.31773,257.43809   C 307.91772,252.39813 310.7177,251.19814 315.27766,249.35815   C 319.35763,247.67817 320.71762,246.63817 322.15761,242.8782   C 323.27761,240.07822 324.6376,236.71825 323.03761,233.59827   C 321.75762,231.11829 319.51763,229.3583 317.27765,227.67831   C 312.63768,224.15834 307.43772,220.39837 301.67777,220.87836   C 298.39779,221.03836 295.43781,222.55835 292.15784,222.79835   C 289.99785,222.87835 287.91787,222.39835 285.75788,222.31835   C 282.07791,222.23835 278.15794,223.35835 275.19796,225.51833   C 272.23798,227.75831 272.31798,229.9983 270.638,233.19827   C 269.838,234.71826 268.63801,235.83825 267.19802,236.87825   z "
     style="fill:#3b455a;fill-rule:nonzero;fill-opacity:1;stroke:none;" />
  <path
     id="path173"
     d="  M 280.23792,216.3184   C 280.79792,212.79842 280.39792,208.23846 277.11795,207.11847   C 275.27796,206.39847 273.19798,207.11847 271.27799,206.71847   C 267.27802,205.91847 265.91803,201.03851 263.75805,197.51854   C 263.43805,196.95854 263.03805,196.39855 262.47806,196.15855   C 261.67806,195.83855 260.79807,196.15855 259.91807,196.23855   C 255.8381,196.71854 252.79813,192.79857 249.03816,191.35858   C 244.31819,189.5186 238.39823,192.47857 237.03824,197.27854   C 236.47825,199.27852 236.55825,201.35851 235.99825,203.35849   C 233.75827,211.43843 221.99836,214.87841 221.67836,223.19835   C 221.51836,228.8783 227.03832,234.23826 224.87833,239.51823   C 223.51834,242.7982 219.19838,245.11818 219.67837,248.63816   C 219.99837,250.95814 222.47835,252.55813 224.79833,252.47813   C 227.11832,252.47813 229.1983,251.19814 230.95829,249.67815   C 233.75827,247.27817 235.83825,244.15819 238.47823,241.59821   C 241.11821,239.03823 244.63819,236.95824 248.31816,237.35824   C 251.83813,237.83824 255.03811,240.55822 258.55808,239.99822   C 261.43806,239.51823 263.51805,237.03824 266.23803,236.31825   C 268.87801,235.59825 271.51799,236.63825 274.23797,236.79825   C 276.87795,236.95824 280.15792,235.59825 280.23792,232.87827   C 280.23792,232.23828 280.07793,231.59828 280.23792,230.95829   C 280.87792,229.2783 283.7579,229.3583 284.31789,227.59831   C 282.9579,225.51833 280.95792,226.23832 279.99793,223.43834   C 279.19793,221.27836 279.83793,218.47838 280.23792,216.3184   z "
     style="fill:#3b455a;fill-rule:nonzero;fill-opacity:1;stroke:none;" />
  <path
     id="path175"
     d="  M 427.59683,254.95811   C 426.87684,254.95811 426.23684,254.95811 425.51685,255.03811   C 425.11685,255.03811 424.71685,255.03811 424.31686,255.19811   C 423.99686,255.35811 423.67686,255.67811 423.43686,255.9981   C 420.47689,259.35808 418.4769,263.11805 416.55691,267.11802   C 415.75692,268.63801 415.59692,268.71801 416.31692,270.318   C 417.11691,272.07798 418.1569,273.75797 419.1169,275.43796   C 419.59689,278.07794 420.15689,280.63792 420.39689,283.2779   C 421.03688,289.91785 415.27692,304.55774 422.95687,307.91772   C 424.47686,308.63771 425.99684,309.27771 427.59683,309.35771   C 428.87682,309.35771 430.15681,308.95771 431.4368,308.55771   C 432.3968,308.23772 433.99679,307.91772 434.39678,306.95773   C 434.87678,305.91773 434.31678,303.03776 434.23678,301.91776   C 434.15678,298.47779 434.07678,295.11781 433.99679,291.75784   C 433.91679,288.39786 434.07678,284.47789 436.55677,282.71791   C 437.11676,282.31791 437.67676,282.07791 438.23675,281.59791   C 438.79675,281.11792 439.11675,280.31792 439.35675,279.59793   C 440.47674,276.87795 441.43673,273.99797 441.91673,271.03799   C 442.31672,268.31801 440.79673,266.95802 439.43674,264.87804   C 438.07675,262.63805 437.99676,259.99807 436.87676,257.67809   C 435.67677,255.43811 433.51679,254.95811 431.03681,254.95811   C 429.91682,254.87811 428.71682,254.87811 427.59683,254.95811   z "
     style="fill:#eac5b0;fill-rule:nonzero;fill-opacity:1;stroke:none;" />
  <path
     id="path177"
     d="  M 433.51679,380.63718   C 434.63678,373.67723 435.67677,366.47729 437.11676,359.19734   C 441.35673,338.79749 442.63672,317.59765 441.03673,296.6378   C 432.3168,294.31782 423.19687,293.83782 414.39693,295.35781   C 414.55693,295.35781 403.59701,344.15745 401.19703,349.03741   C 395.11707,361.75732 395.59707,360.23733 384.47715,354.87737   C 374.71722,350.15741 365.75729,342.95746 356.15736,337.8375   C 346.87743,332.79753 336.63751,328.07757 326.15758,329.51756   C 325.19759,341.51747 324.71759,353.67738 324.6376,365.75729   C 324.6376,370.07726 324.71759,374.55723 326.23758,378.5572   C 327.75757,382.47717 330.63755,385.67714 333.35753,388.79712   C 350.6374,408.31698 368.47727,428.39683 392.0771,439.35675   C 393.27709,439.91674 394.47708,440.47674 395.75707,440.55674   C 397.75705,440.63674 399.67704,439.59674 401.43703,438.63675   C 423.59686,426.31684 429.67682,404.637 433.51679,380.63718   z "
     style="fill:#ccd2d9;fill-rule:nonzero;fill-opacity:1;stroke:none;" />
  <path
     id="path179"
     d="  M 567.1158,300.55777   L 527.19609,337.4375   C 516.07618,347.67742 497.27632,345.67744 484.71641,332.79753   L 314.39767,158.47883   C 308.39772,152.31887 307.59772,143.35894 312.71768,138.63897   L 387.51713,69.519485   C 392.63709,64.79952 401.43703,66.319509 407.03698,72.87946   L 566.07581,257.67809   C 577.75572,271.27799 578.23572,290.31785 567.1158,300.55777   z "
     style="fill:#3b455a;fill-rule:nonzero;fill-opacity:1;stroke:none;" />
  <path
     id="path181"
     d="  M 377.9172,167.03876   L 361.99732,181.67865   L 355.91736,174.9587   L 371.83725,160.39881   L 377.9172,167.03876  z "
     style="fill:#e6e6e6;fill-rule:nonzero;fill-opacity:1;stroke:none;" />
  <path
     id="path183"
     d="  M 401.75702,145.11893   L 385.83714,159.75882   L 379.75719,153.11887   L 395.67707,138.47897   L 401.75702,145.11893  z "
     style="fill:#e6e6e6;fill-rule:nonzero;fill-opacity:1;stroke:none;" />
  <path
     id="path185"
     d="  M 425.67685,123.27909   L 409.67697,137.83898   L 403.67701,131.19903   L 419.59689,116.55914   L 425.67685,123.27909  z "
     style="fill:#e6e6e6;fill-rule:nonzero;fill-opacity:1;stroke:none;" />
  <path
     id="path187"
     d="  M 395.03707,185.91862   L 379.11719,200.47851   L 373.03724,193.83856   L 388.95712,179.19867   L 395.03707,185.91862  z "
     style="fill:#e6e6e6;fill-rule:nonzero;fill-opacity:1;stroke:none;" />
  <path
     id="path189"
     d="  M 418.9569,163.99879   L 403.03701,178.63868   L 396.95706,171.91873   L 412.87694,157.35883   L 418.9569,163.99879  z "
     style="fill:#e6e6e6;fill-rule:nonzero;fill-opacity:1;stroke:none;" />
  <path
     id="path191"
     d="  M 442.79672,142.07895   L 426.87684,156.71884   L 420.79688,150.07889   L 436.71677,135.439   L 442.79672,142.07895  z "
     style="fill:#e6e6e6;fill-rule:nonzero;fill-opacity:1;stroke:none;" />
  <path
     id="path193"
     d="  M 412.23695,204.71848   L 396.31706,219.35838   L 390.23711,212.71842   L 406.15699,198.07853   L 412.23695,204.71848  z "
     style="fill:#e6e6e6;fill-rule:nonzero;fill-opacity:1;stroke:none;" />
  <path
     id="path195"
     d="  M 436.07677,182.87865   L 420.15689,197.43854   L 414.07693,190.79859   L 429.99681,176.1587   L 436.07677,182.87865  z "
     style="fill:#e6e6e6;fill-rule:nonzero;fill-opacity:1;stroke:none;" />
  <path
     id="path197"
     d="  M 459.99659,160.95881   L 444.07671,175.5187   L 437.99676,168.87875   L 453.91664,154.31886   L 459.99659,160.95881  z "
     style="fill:#e6e6e6;fill-rule:nonzero;fill-opacity:1;stroke:none;" />
  <path
     id="path199"
     d="  M 497.59631,236.07825   L 507.35624,234.71826   C 506.31625,227.59831 503.11627,220.95836 498.23631,215.7584   C 493.27635,210.55844 486.87639,206.95847 479.83645,205.51848   L 478.15646,214.31841   C 488.31638,216.6384 496.39632,225.11833 497.59631,236.07825   z "
     style="fill:#e6e6e6;fill-rule:nonzero;fill-opacity:1;stroke:none;" />
  <path
     id="path201"
     d="  M 476.87647,263.51805   L 478.47646,273.91797   C 485.5164,272.87798 492.07635,269.598 497.19632,264.63804   C 502.39628,259.59808 505.83625,253.19812 507.11624,246.07818   L 497.19632,244.23819   C 495.03633,253.99812 487.11639,261.83806 476.87647,263.51805   z "
     style="fill:#e6e6e6;fill-rule:nonzero;fill-opacity:1;stroke:none;" />
  <path
     id="path203"
     d="  M 448.47668,244.23819   L 439.19675,246.07818   C 440.55674,253.11813 443.99671,259.59808 449.19667,264.55804   C 454.39663,269.598 460.95659,272.87798 467.99653,273.91797   L 469.59652,263.59805   C 459.3566,262.23806 450.79666,254.55811 448.47668,244.23819   z "
     style="fill:#e6e6e6;fill-rule:nonzero;fill-opacity:1;stroke:none;" />
  <path
     id="path205"
     d="  M 468.31653,214.15841   L 466.63654,205.43848   C 459.5966,206.79847 453.19664,210.23844 448.23668,215.4384   C 443.27672,220.55837 439.99674,227.19832 438.95675,234.31826   L 448.07668,235.67825   C 449.35667,224.95833 457.43661,216.1584 468.31653,214.15841   z "
     style="fill:#e6e6e6;fill-rule:nonzero;fill-opacity:1;stroke:none;" />
  <path
     id="path207"
     d="  M 473.75649,224.63834   C 481.99643,225.03833 488.39638,232.07828 488.07638,240.31822   C 487.67639,248.55816 480.71644,254.95811 472.4765,254.55811   C 464.31656,254.15812 457.91661,247.19817 458.23661,238.87823   C 458.6366,230.63829 465.59655,224.23834 473.75649,224.63834   z "
     style="fill:#e6e6e6;fill-rule:nonzero;fill-opacity:1;stroke:none;" />
  <path
     id="path209"
     d="  M 496.39632,298.79779   L 482.95642,311.1177   L 480.07644,307.99772   L 493.51634,295.67781   L 496.39632,298.79779  z "
     style="fill:#7fc5a3;fill-rule:nonzero;fill-opacity:1;stroke:none;" />
  <path
     id="path211"
     d="  M 520.07615,275.99796   L 506.63625,288.31786   L 503.83627,285.19789   L 517.27617,272.87798   L 520.07615,275.99796  z "
     style="fill:#ebb044;fill-rule:nonzero;fill-opacity:1;stroke:none;" />
  <path
     id="path213"
     d="  M 543.83597,253.27812   L 530.39607,265.59803   L 527.51609,262.39806   L 540.95599,250.15815   L 543.83597,253.27812  z "
     style="fill:#474ebb;fill-rule:nonzero;fill-opacity:1;stroke:none;" />
  <path
     id="path215"
     d="  M 402.07702,93.359308   C 405.277,96.879282 405.037,102.23924 401.59703,105.43922   C 398.07705,108.6392 392.71709,108.3992 389.51711,104.87922   C 386.31714,101.43925 386.55714,95.999289 390.07711,92.799313   C 393.51709,89.599336 398.87705,89.919334 402.07702,93.359308   z "
     style="fill:#7fc5a3;fill-rule:nonzero;fill-opacity:1;stroke:none;" />
  <path
     id="path217"
     d="  M 463.51657,619.11541   C 515.11618,612.23546 515.51618,680.39496 520.47614,715.6747   C 522.23613,727.83461 525.19611,740.79451 525.11611,753.03442   C 525.03611,762.87435 522.47613,772.39428 523.27612,782.4742   C 523.83612,790.15415 527.27609,798.47409 534.55604,801.59406   C 538.23601,803.19405 542.47598,803.27405 546.23595,804.79404   C 549.91593,806.39403 553.0359,810.554 551.19592,813.99397   C 550.31592,815.67396 548.55594,816.63395 546.87595,817.51394   C 537.75602,822.39391 528.63608,827.35387 519.43615,832.23384   C 512.4762,835.99381 505.43626,839.75378 497.99631,842.31376   C 487.27639,845.99373 475.91647,847.27372 464.63656,847.83372   C 435.43677,849.27371 405.99699,846.15373 377.8372,838.63379   C 367.27728,835.83381 349.91741,828.55386 348.55742,815.51396   C 348.07742,811.19399 349.51741,806.87402 350.8774,802.71405   C 362.15732,768.63431 373.35723,734.47456 384.63715,700.39481   C 394.07708,671.67502 398.55705,630.31533 432.0768,619.67541   C 438.07675,617.75542 443.75671,618.39542 449.51667,618.95542   C 453.99664,619.35541 458.5566,619.83541 463.51657,619.11541   z "
     style="fill:#7fc5a3;fill-rule:nonzero;fill-opacity:1;stroke:none;" />
  <path
     id="path219"
     d="  M 468.95653,921.11318   C 478.07646,924.95315 487.43639,928.31312 496.87632,931.1931   C 501.91628,932.71309 507.03624,934.07308 512.31621,933.83308   C 524.55611,933.35309 533.35605,919.67319 521.99613,910.79325   C 516.95617,906.95328 511.43621,903.8333 505.51626,901.67332   C 496.71632,898.39335 501.83628,905.27329 499.1963,911.11325   C 496.15632,917.8332 493.75634,917.6732 487.43639,914.87322   C 479.35645,911.27325 474.07649,906.95328 464.71656,907.51328   C 462.15658,907.67328 459.1966,908.39327 458.15661,910.79325   C 457.43661,912.55324 458.15661,914.71322 459.5166,916.15321   C 460.87659,917.5932 462.71657,918.3932 464.47656,919.19319   C 465.99655,919.91319 467.51654,920.55318 468.95653,921.11318   z "
     style="fill:#3b455a;fill-rule:nonzero;fill-opacity:1;stroke:none;" />
  <path
     id="path221"
     d="  M 491.83636,916.87321   C 494.47634,916.95321 497.03632,917.11321 499.6763,917.27321   C 502.55628,917.4332 505.75625,917.4332 507.91624,915.51322   C 510.47622,913.19324 510.15622,908.79327 508.07624,905.99329   C 505.99625,903.19331 502.55628,901.75332 499.2763,900.63333   C 491.19636,898.07335 482.71642,897.27335 474.31649,896.95336   C 473.43649,896.95336 472.5565,896.87336 471.8365,897.19335   C 470.47651,897.75335 469.67652,899.19334 469.19652,900.63333   C 464.39656,915.11322 481.59643,916.31321 491.83636,916.87321   z "
     style="fill:#eacdb0;fill-rule:nonzero;fill-opacity:1;stroke:none;" />
  <path
     id="path223"
     d="  M 541.83599,861.27362   C 539.916,844.63374 531.59606,831.51384 516.23618,824.31389   C 503.75627,818.47394 489.75637,817.03395 476.15647,815.27396   C 445.7567,811.43399 416.71691,807.51402 385.99714,808.71401   C 361.51732,809.674 346.39743,830.63385 334.87752,851.27369   C 327.59757,864.3136 329.67756,870.39355 338.79749,881.27347   C 347.19743,891.3534 357.35735,899.91333 368.71727,906.39329   C 391.2771,919.19319 425.99684,915.99321 450.79666,913.27324   C 474.23649,910.63325 497.19632,903.67331 518.15616,892.71339   C 531.59606,885.67344 543.67597,877.4335 541.83599,861.27362   z "
     style="fill:#3b455a;fill-rule:nonzero;fill-opacity:1;stroke:none;" />
  <path
     id="path225"
     d="  M 390.55711,941.59303   C 390.39711,942.71302 390.31711,943.99301 390.79711,945.033   C 391.1171,945.83299 391.8371,946.39299 392.55709,946.87299   C 397.99705,950.31296 405.277,946.63299 409.43697,941.67302   C 413.59694,936.79306 416.39692,930.55311 421.67688,926.95313   C 433.83679,918.5532 422.71687,903.27331 410.07696,906.79328   C 395.27707,910.87325 392.1571,928.63312 390.55711,941.59303   z "
     style="fill:#eacdb0;fill-rule:nonzero;fill-opacity:1;stroke:none;" />
  <path
     id="path227"
     d="  M 553.9959,862.79361   C 564.47582,855.11367 574.95574,846.39373 578.79571,833.43383   C 582.63568,820.47392 577.27572,802.15406 563.75582,794.63411   C 547.27595,785.51418 531.03607,796.7141 519.27615,807.35402   C 495.27633,828.95386 469.03653,848.07372 443.35672,867.83357   C 434.71678,874.55352 404.637,899.19334 404.637,899.19334   C 403.83701,902.63331 419.99689,934.07308 424.23686,932.87309   C 471.03651,920.55318 516.55617,890.31341 553.9959,862.79361   z "
     style="fill:#3b455a;fill-rule:nonzero;fill-opacity:1;stroke:none;" />
  <path
     id="path229"
     d="  M 318.55764,877.6735   C 308.31772,872.71354 297.99779,866.71358 293.91782,854.71367   C 289.91785,842.71376 294.47782,822.9539 307.19772,811.99399   C 322.71761,798.63408 338.55749,805.59403 350.07741,813.19398   C 373.75723,828.63386 399.43704,840.95377 424.55686,854.15367   C 433.11679,858.55364 462.55657,875.43352 462.55657,875.43352   C 463.51657,878.71349 448.95667,914.31323 444.8767,914.31323   C 399.67704,913.99323 355.27737,895.59337 318.55764,877.6735   z "
     style="fill:#3b455a;fill-rule:nonzero;fill-opacity:1;stroke:none;" />
  <path
     id="path231"
     d="  M 388.95712,911.11325   C 385.11715,920.23318 381.67717,929.51311 378.79719,939.03304   C 377.27721,943.99301 375.91722,949.11297 376.07721,954.39293   C 376.55721,966.63284 390.15711,975.51277 399.11704,964.15286   C 402.95702,959.19289 406.07699,953.67294 408.31698,947.75298   C 410.39696,942.15302 408.31698,942.23302 405.037,942.31302   C 403.19701,942.31302 400.95703,942.39302 398.87705,941.43303   C 392.1571,938.31305 392.31709,935.91307 395.19707,929.67311   C 398.79705,921.59317 403.19701,916.31321 402.63702,906.95328   C 402.47702,904.3933 401.75702,901.43332 399.43704,900.39333   C 397.59705,899.67334 395.43707,900.39333 393.99708,901.75332   C 392.63709,903.03331 391.7571,904.8733 390.9571,906.63328   C 390.31711,908.15327 389.59711,909.67326 388.95712,911.11325   z "
     style="fill:#3b455a;fill-rule:nonzero;fill-opacity:1;stroke:none;" />
  <path
     id="path233"
     d="  M 421.35688,579.51571   C 425.43685,586.95565 430.47681,593.8356 436.39677,599.91556   C 433.43679,585.35566 432.5568,570.39577 433.75679,555.59588   C 433.83679,554.47589 433.91679,553.1959 433.11679,552.31591   C 432.3968,551.51591 431.27681,551.43592 430.15681,551.35592   C 411.27695,550.71592 414.23693,566.6358 421.35688,579.51571   z "
     style="fill:#3b455a;fill-rule:nonzero;fill-opacity:1;stroke:none;" />
  <path
     id="path235"
     d="  M 455.43663,522.71613   C 409.99696,518.07616 423.03687,577.11573 435.91677,600.31555   C 438.39675,604.71552 441.67673,609.43549 446.39669,612.39546   C 447.19669,612.87546 444.55671,622.55539 444.23671,623.75538   C 443.51671,627.11535 441.27673,630.87533 444.8767,633.35531   C 446.39669,634.3153 448.31668,634.6353 450.07667,634.7953   C 452.39665,634.9553 454.79663,634.8753 457.11661,634.5553   C 459.5166,634.2353 461.99658,633.59531 463.99656,632.15532   C 469.75652,628.15535 467.11654,617.99542 466.95654,611.99547   C 468.39653,611.03547 469.67652,609.99548 470.87651,608.95549   C 486.6364,594.3156 505.43626,527.75609 455.43663,522.71613   z "
     style="fill:#eac5b0;fill-rule:nonzero;fill-opacity:1;stroke:none;" />
  <path
     id="path237"
     d="  M 473.1165,592.95561   C 476.79647,596.47558 482.95642,594.2356 487.03639,591.19562   C 503.83627,578.55571 510.63622,554.1559 502.87627,534.63604   C 496.39632,518.31616 472.7165,509.43623 472.1565,531.27606   C 471.9965,538.95601 478.39646,548.47594 478.87645,556.95587   C 479.51645,569.03578 476.07647,581.35569 473.1165,592.95561   z "
     style="fill:#3b455a;fill-rule:nonzero;fill-opacity:1;stroke:none;" />
  <path
     id="path239"
     d="  M 408.15698,509.91622   C 389.19712,526.1561 384.95715,554.1559 368.47727,572.87576   C 387.67713,577.27572 408.71697,573.51575 425.19685,562.63583   C 441.35673,551.91591 482.23643,539.03601 471.67651,515.75618   C 461.03658,492.07635 424.71685,495.67633 408.15698,509.91622   z "
     style="fill:#3b455a;fill-rule:nonzero;fill-opacity:1;stroke:none;" />
  <path
     id="path241"
     d="  M 512.5562,853.83368   C 535.11604,832.07384 536.87602,796.1541 516.07618,772.23428   C 502.23628,756.3944 481.83643,749.67445 462.47657,752.55443   L 420.63688,704.47478   C 426.15684,685.67492 422.31687,664.47508 408.47697,648.6352   C 387.67713,624.71537 351.91739,621.5154 327.27758,640.79525   L 327.19758,640.71525   L 248.07816,709.59474   L 248.07816,709.67474   C 235.75825,722.23465 234.95826,742.3945 246.71817,755.9944   C 255.9981,766.63432 270.558,770.1543 283.1979,765.91433   L 326.87758,753.83442   L 400.55703,838.55379   L 382.47717,880.07348   C 376.55721,892.07339 377.9972,906.95328 387.35713,917.6732   C 399.11704,931.1931 419.19689,933.19309 433.35679,922.63317   L 433.43679,922.71317   L 512.6362,853.91367   L 512.5562,853.83368   z "
     style="fill:#d34e4e;fill-rule:nonzero;fill-opacity:1;stroke:none;" />
  <path
     id="path243"
     d="  M 419.43689,928.79312   L 419.43689,928.79312   C 424.31686,927.83313 429.11682,925.83314 433.35679,922.63317   L 433.43679,922.71317   L 443.19672,914.23323   L 443.19672,914.23323   L 433.43679,922.71317   L 433.35679,922.63317   C 429.11682,925.83314 424.31686,927.83313 419.43689,928.79312   z  M 449.35667,908.87327   L 449.35667,908.87327   L 512.5562,853.91367   L 512.5562,853.91367   L 449.35667,908.87327   z "
     style="fill:#364053;fill-rule:nonzero;fill-opacity:1;stroke:none;" />
  <path
     id="path245"
     d="  M 443.19672,914.23323   L 443.19672,914.23323   L 449.35667,908.87327   L 449.35667,908.87327   L 443.19672,914.23323  z "
     style="fill:#364053;fill-rule:nonzero;fill-opacity:1;stroke:none;" />
  <path
     id="path247"
     d="  M 397.19706,925.43314   C 393.51709,923.59316 390.15711,920.95318 387.35713,917.6732   C 387.27713,917.5932 387.27713,917.5932 387.27713,917.5932   C 387.27713,917.5932 387.27713,917.5932 387.35713,917.6732   C 390.15711,920.95318 393.51709,923.59316 397.19706,925.43314   L 397.19706,925.43314   z  M 387.27713,917.5932   C 387.27713,917.5932 387.27713,917.5132 387.19713,917.5132   C 387.27713,917.5132 387.27713,917.5932 387.27713,917.5932   z  M 387.19713,917.5132   C 387.19713,917.5132 387.19713,917.5132 387.19713,917.5132   C 387.19713,917.5132 387.19713,917.5132 387.19713,917.5132   z  M 387.19713,917.4332   C 387.11713,917.4332 387.11713,917.4332 387.11713,917.4332   C 387.11713,917.4332 387.11713,917.4332 387.19713,917.4332   z  M 387.11713,917.3532   C 387.11713,917.3532 387.11713,917.3532 387.03713,917.3532   C 387.11713,917.3532 387.11713,917.3532 387.11713,917.3532   z  M 387.03713,917.3532   C 387.03713,917.27321 387.03713,917.27321 387.03713,917.27321   C 387.03713,917.27321 387.03713,917.27321 387.03713,917.3532   z  M 386.95713,917.27321   C 386.95713,917.27321 386.95713,917.27321 386.95713,917.19321   C 386.95713,917.27321 386.95713,917.27321 386.95713,917.27321   z  M 386.95713,917.19321   C 386.95713,917.19321 386.95713,917.19321 386.87713,917.11321   C 386.95713,917.19321 386.95713,917.19321 386.95713,917.19321   z  M 386.87713,917.11321   C 386.87713,917.11321 386.87713,917.11321 386.87713,917.11321   C 386.87713,917.11321 386.87713,917.11321 386.87713,917.11321   z  M 386.79713,917.03321   L 386.79713,917.03321   L 386.79713,917.03321   z  M 386.79713,917.03321   C 386.79713,917.03321 386.79713,916.95321 386.79713,916.95321   C 386.79713,916.95321 386.79713,917.03321 386.79713,917.03321   z  M 386.71714,916.95321   C 386.71714,916.87321 386.71714,916.87321 386.71714,916.87321   C 386.71714,916.87321 386.71714,916.87321 386.71714,916.95321   z  M 386.63714,916.87321   C 386.63714,916.87321 386.63714,916.87321 386.63714,916.87321   C 386.63714,916.87321 386.63714,916.87321 386.63714,916.87321   z "
     style="fill:#364053;fill-rule:nonzero;fill-opacity:1;stroke:none;" />
  <path
     id="path249"
     d="  M 386.63714,916.79321   C 386.63714,916.79321 386.63714,916.79321 386.63714,916.79321   C 386.63714,916.79321 386.63714,916.79321 386.63714,916.79321   z  M 386.55714,916.71321   L 386.55714,916.71321   L 386.55714,916.71321   z  M 386.47714,916.63321   C 386.47714,916.63321 386.47714,916.63321 386.47714,916.63321   L 386.47714,916.63321   z  M 386.47714,916.63321   C 386.47714,916.63321 386.47714,916.63321 386.47714,916.63321   C 386.47714,916.63321 386.47714,916.63321 386.47714,916.63321   z  M 386.39714,916.55321   L 386.39714,916.55321   C 386.39714,916.55321 386.39714,916.55321 386.39714,916.55321   z "
     style="fill:#c59339;fill-rule:nonzero;fill-opacity:1;stroke:none;" />
  <path
     id="path251"
     d="  M 413.03694,929.35312   C 407.59698,929.35312 402.15702,928.07313 397.19706,925.43314   C 393.51709,923.59316 390.15711,920.95318 387.35713,917.6732   C 387.27713,917.5932 387.27713,917.5932 387.27713,917.5932   C 387.27713,917.5932 387.27713,917.5932 387.27713,917.5932   C 387.27713,917.5932 387.27713,917.5132 387.19713,917.5132   C 387.19713,917.5132 387.19713,917.5132 387.19713,917.5132   C 387.19713,917.5132 387.19713,917.5132 387.19713,917.5132   L 387.19713,917.4332   C 387.11713,917.4332 387.11713,917.4332 387.11713,917.4332   C 387.11713,917.4332 387.11713,917.3532 387.11713,917.3532   C 387.11713,917.3532 387.11713,917.3532 387.03713,917.3532   C 387.03713,917.3532 387.03713,917.3532 387.03713,917.3532   C 387.03713,917.27321 387.03713,917.27321 387.03713,917.27321   C 387.03713,917.27321 387.03713,917.27321 386.95713,917.27321   C 386.95713,917.27321 386.95713,917.27321 386.95713,917.19321   L 386.95713,917.19321   C 386.95713,917.19321 386.95713,917.19321 386.87713,917.11321   C 386.87713,917.11321 386.87713,917.11321 386.87713,917.11321   C 386.87713,917.11321 386.87713,917.11321 386.87713,917.11321   L 386.79713,917.03321   L 386.79713,917.03321   C 386.79713,917.03321 386.79713,917.03321 386.79713,917.03321   C 386.79713,917.03321 386.79713,916.95321 386.79713,916.95321   C 386.71714,916.95321 386.71714,916.95321 386.71714,916.95321   C 386.71714,916.87321 386.71714,916.87321 386.71714,916.87321   C 386.71714,916.87321 386.63714,916.87321 386.63714,916.87321   C 386.63714,916.87321 386.63714,916.87321 386.63714,916.87321   C 386.63714,916.79321 386.63714,916.79321 386.63714,916.79321   C 386.63714,916.79321 386.63714,916.79321 386.63714,916.79321   C 386.55714,916.79321 386.55714,916.79321 386.55714,916.71321   L 386.55714,916.71321   L 386.47714,916.63321   L 386.47714,916.63321   C 386.47714,916.63321 386.47714,916.63321 386.47714,916.63321   C 386.47714,916.63321 386.47714,916.63321 386.47714,916.63321   C 386.39714,916.55321 386.39714,916.55321 386.39714,916.55321   C 386.39714,916.55321 386.39714,916.55321 386.39714,916.55321   C 379.75719,908.23327 377.6772,897.75335 379.75719,888.07342   C 388.07713,897.59335 399.11704,901.35332 411.27695,901.35332   C 454.63663,901.35332 512.3962,853.83368 512.3962,853.83368   L 512.5562,853.91367   L 449.35667,908.87327   L 443.19672,914.23323   L 433.43679,922.71317   L 433.35679,922.63317   C 429.11682,925.83314 424.31686,927.83313 419.43689,928.79312   C 417.27691,929.19312 415.19692,929.35312 413.03694,929.35312   z "
     style="fill:#c24848;fill-rule:nonzero;fill-opacity:1;stroke:none;" />
  <path
     id="path253"
     d="  M 382.63717,715.7547   L 372.23724,703.83479   C 371.03725,702.3948 371.19725,700.31481 372.55724,699.11482   L 384.47715,688.7149   C 385.91714,687.51491 385.99714,685.43492 384.79715,684.07493   L 374.47723,672.15502   C 373.27723,670.79503 371.19725,670.63503 369.75726,671.83502   L 357.83735,682.23495   C 356.47736,683.43494 354.39737,683.27494 353.19738,681.91495   L 342.95746,670.15504   C 341.83747,668.79505 339.67748,668.63505 338.31749,669.83504   L 326.39758,680.23496   C 325.03759,681.43495 324.87759,683.51494 326.07758,684.87493   L 336.23751,696.63484   C 337.4375,697.99483 337.2775,700.07481 335.91751,701.27481   L 324.2376,711.43473   C 322.87761,712.63472 322.71761,714.71471 323.9176,716.0747   L 334.31752,728.07461   C 335.51751,729.4346 337.5975,729.5946 338.95749,728.3946   L 350.6374,718.23468   C 351.99739,717.03469 354.07738,717.11469 355.27737,718.55468   L 365.67729,730.47459   C 366.87728,731.83458 368.95727,731.99458 370.31726,730.79459   L 382.31717,720.39466   C 383.67716,719.19467 383.83716,717.11469 382.63717,715.7547   z "
     style="fill:#273d54;fill-rule:nonzero;fill-opacity:1;stroke:none;" />
  <path
     id="path255"
     d="  M 486.95639,818.31394   C 482.39643,822.23391 475.43648,821.75391 471.43651,817.19395   C 467.43654,812.63398 467.91653,805.67403 472.5565,801.67406   C 477.11647,797.67409 484.07641,798.15409 488.07638,802.79405   C 491.99636,807.35402 491.51636,814.31397 486.95639,818.31394   z "
     style="fill:#273d54;fill-rule:nonzero;fill-opacity:1;stroke:none;" />
  <path
     id="path257"
     d="  M 455.59663,816.39395   C 450.95666,820.39392 443.99671,819.91393 440.07674,815.35396   C 436.07677,810.79399 436.55677,803.83405 441.11673,799.83408   C 445.6767,795.8341 452.63665,796.3141 456.63662,800.87407   C 460.63659,805.51403 460.15659,812.47398 455.59663,816.39395   z "
     style="fill:#273d54;fill-rule:nonzero;fill-opacity:1;stroke:none;" />
  <path
     id="path259"
     d="  M 483.83642,848.95371   C 479.27645,852.87368 472.3165,852.39369 468.31653,847.83372   C 464.31656,843.27375 464.79656,836.31381 469.35652,832.31383   C 473.99649,828.31386 480.95644,828.79386 484.87641,833.43383   C 488.87638,837.99379 488.39638,844.95374 483.83642,848.95371   z "
     style="fill:#273d54;fill-rule:nonzero;fill-opacity:1;stroke:none;" />
  <path
     id="path261"
     d="  M 453.51664,847.35372   C 448.95667,851.35369 441.99673,850.8737 437.99676,846.31373   C 433.99679,841.67377 434.47678,834.79382 439.11675,830.79385   C 443.67671,826.79388 450.63666,827.27387 454.63663,831.83384   C 458.5566,836.3938 458.07661,843.35375 453.51664,847.35372   z "
     style="fill:#273d54;fill-rule:nonzero;fill-opacity:1;stroke:none;" />
  <path
     id="path263"
     d="  M 382.95716,711.11473   L 372.55724,699.11482   C 371.35725,697.75483 371.51725,695.67485 372.87724,694.47486   L 384.79715,684.07493   C 386.23714,682.87494 386.31714,680.79496 385.11715,679.43497   L 374.79722,667.51506   C 373.59723,666.15507 371.51725,665.99507 370.07726,667.19506   L 358.15735,677.59498   C 356.79736,678.79497 354.71737,678.63497 353.51738,677.27498   L 343.35746,665.51507   C 342.15747,664.15508 340.07748,663.99508 338.63749,665.19507   L 326.71758,675.595   C 325.35759,676.79499 325.19759,678.87497 326.39758,680.23496   L 336.55751,691.99487   C 337.7575,693.35486 337.5975,695.43485 336.23751,696.63484   L 324.5576,706.79476   C 323.19761,707.99476 323.03761,710.07474 324.2376,711.43473   L 334.63752,723.43464   C 335.83751,724.79463 337.9175,724.95463 339.27749,723.75464   L 350.9574,713.51471   C 352.31739,712.39472 354.39737,712.47472 355.59737,713.91471   L 365.99729,725.83462   C 367.19728,727.19461 369.27726,727.35461 370.63725,726.15462   L 382.63717,715.7547   C 383.99716,714.55471 384.15715,712.47472 382.95716,711.11473   z "
     style="fill:#f7f7f7;fill-rule:nonzero;fill-opacity:1;stroke:none;" />
  <path
     id="path265"
     d="  M 487.27639,813.59397   C 482.71642,817.59394 475.75648,817.11395 471.75651,812.55398   C 467.75654,807.99401 468.23653,801.03407 472.8765,797.0341   C 477.43646,793.03413 484.39641,793.51412 488.39638,798.07409   C 492.39635,802.71405 491.83636,809.674 487.27639,813.59397   z "
     style="fill:#f7f7f7;fill-rule:nonzero;fill-opacity:1;stroke:none;" />
  <path
     id="path267"
     d="  M 455.91662,811.75399   C 451.27666,815.75396 444.31671,815.27396 440.39674,810.71399   C 436.39677,806.15403 436.87676,799.19408 441.43673,795.19411   C 445.9967,791.19414 452.95664,791.67414 456.95662,796.2341   C 460.95659,800.87407 460.47659,807.83402 455.91662,811.75399   z "
     style="fill:#f7f7f7;fill-rule:nonzero;fill-opacity:1;stroke:none;" />
  <path
     id="path269"
     d="  M 484.15641,844.31375   C 479.59645,848.23372 472.6365,847.75372 468.63653,843.19375   C 464.63656,838.63379 465.11655,831.67384 469.67652,827.67387   C 474.31649,823.6739 481.27643,824.1539 485.19641,828.79386   C 489.19638,833.35383 488.71638,840.31378 484.15641,844.31375   z "
     style="fill:#f7f7f7;fill-rule:nonzero;fill-opacity:1;stroke:none;" />
  <path
     id="path271"
     d="  M 453.83664,842.71376   C 449.27667,846.71373 442.31672,846.23373 438.31675,841.67377   C 434.31678,837.0338 434.79678,830.07385 439.43674,826.15388   C 443.99671,822.15391 450.95666,822.63391 454.95663,827.19387   C 458.8766,831.75384 458.3966,838.71379 453.83664,842.71376   z "
     style="fill:#f7f7f7;fill-rule:nonzero;fill-opacity:1;stroke:none;" />
  <path
     id="path273"
     d="  M 414.07693,688.3149   C 412.07695,679.91496 407.99698,671.83502 401.91702,664.79508   C 390.71711,651.99517 375.03722,645.43522 359.27734,645.43522   C 347.03743,645.43522 334.71752,649.43519 324.3976,657.51513   C 326.71758,654.23515 329.43756,651.19518 332.55754,648.3952   C 341.91747,640.31526 353.43738,636.31529 364.8773,636.31529   C 378.6372,636.31529 392.31709,642.07524 402.07702,653.27516   C 410.87696,663.35509 414.79693,675.91499 414.07693,688.3149   z "
     style="fill:#c24848;fill-rule:nonzero;fill-opacity:1;stroke:none;" />
  <path
     id="path275"
     d="  M 272.39798,767.67431   C 266.15803,767.67431 259.99807,765.99433 254.47811,762.63435   L 254.47811,762.63435   C 259.99807,765.99433 266.15803,767.67431 272.39798,767.67431   C 276.07795,767.67431 279.67793,767.11432 283.1979,765.91433   L 301.67777,760.79436   L 301.67777,760.79436   L 283.1979,765.91433   C 279.67793,767.11432 276.07795,767.67431 272.39798,767.67431   z "
     style="fill:#d9a23f;fill-rule:nonzero;fill-opacity:1;stroke:none;" />
  <path
     id="path277"
     d="  M 254.47811,762.63435   C 251.67814,760.87436 249.03816,758.63438 246.71817,755.9944   C 246.63817,755.9144 246.63817,755.9144 246.63817,755.9144   C 246.63817,755.9144 246.63817,755.9144 246.71817,755.9944   C 249.03816,758.63438 251.67814,760.87436 254.47811,762.63435   L 254.47811,762.63435   z  M 246.63817,755.8344   C 246.63817,755.8344 246.55817,755.8344 246.55817,755.8344   C 246.55817,755.8344 246.63817,755.8344 246.63817,755.8344   z  M 246.55817,755.7544   C 246.55817,755.7544 246.47817,755.7544 246.47817,755.7544   C 246.47817,755.7544 246.55817,755.7544 246.55817,755.7544   z  M 246.47817,755.7544   C 246.47817,755.6744 246.47817,755.6744 246.39817,755.6744   C 246.47817,755.6744 246.47817,755.6744 246.47817,755.7544   z  M 246.39817,755.5944   C 246.39817,755.5944 246.39817,755.5944 246.39817,755.5944   C 246.39817,755.5944 246.39817,755.5944 246.39817,755.5944   z  M 246.31818,755.5144   C 246.31818,755.5144 246.31818,755.5144 246.31818,755.5144   C 246.31818,755.5144 246.31818,755.5144 246.31818,755.5144   z  M 246.23818,755.4344   C 246.23818,755.4344 246.23818,755.4344 246.23818,755.4344   C 246.23818,755.4344 246.23818,755.4344 246.23818,755.4344   z  M 246.23818,755.3544   C 246.15818,755.3544 246.15818,755.3544 246.15818,755.3544   C 246.15818,755.3544 246.15818,755.3544 246.23818,755.3544   z  M 246.15818,755.27441   C 246.15818,755.27441 246.07818,755.27441 246.07818,755.27441   C 246.07818,755.27441 246.15818,755.27441 246.15818,755.27441   z  M 246.07818,755.19441   L 245.99818,755.19441   C 246.07818,755.19441 246.07818,755.19441 246.07818,755.19441   z  M 245.99818,755.11441   C 245.99818,755.11441 245.99818,755.11441 245.99818,755.11441   C 245.99818,755.11441 245.99818,755.11441 245.99818,755.11441   z  M 245.91818,755.03441   C 245.91818,755.03441 245.91818,755.03441 245.91818,755.03441   C 245.91818,755.03441 245.91818,755.03441 245.91818,755.03441   z  M 245.83818,754.95441   C 245.83818,754.95441 245.83818,754.95441 245.83818,754.95441   C 245.83818,754.95441 245.83818,754.95441 245.83818,754.95441   z  M 245.83818,754.87441   L 245.75818,754.87441   L 245.83818,754.87441   z  M 245.75818,754.79441   C 245.75818,754.79441 245.75818,754.79441 245.75818,754.79441   C 245.75818,754.79441 245.75818,754.79441 245.75818,754.79441   z  M 245.67818,754.71441   C 245.67818,754.71441 245.67818,754.71441 245.67818,754.71441   C 245.67818,754.71441 245.67818,754.71441 245.67818,754.71441   z  M 245.59818,754.63441   C 245.59818,754.63441 245.59818,754.63441 245.59818,754.63441   C 245.59818,754.63441 245.59818,754.63441 245.59818,754.63441   z  M 245.51818,754.55441   C 245.51818,754.55441 245.51818,754.55441 245.51818,754.55441   C 245.51818,754.55441 245.51818,754.55441 245.51818,754.55441   z  M 245.43818,754.47441   C 245.43818,754.47441 245.43818,754.47441 245.43818,754.47441   C 245.43818,754.47441 245.43818,754.47441 245.43818,754.47441   z  M 245.43818,754.39441   C 245.43818,754.39441 245.43818,754.39441 245.43818,754.39441   L 245.43818,754.39441   z  M 245.35818,754.31441   C 245.35818,754.31441 245.35818,754.31441 245.35818,754.31441   C 245.35818,754.31441 245.35818,754.31441 245.35818,754.31441   z  M 245.19818,754.15441   L 245.19818,754.15441   L 245.19818,754.15441   z "
     style="fill:#4148ac;fill-rule:nonzero;fill-opacity:1;stroke:none;" />
  <path
     id="path279"
     d="  M 301.67777,760.79436   L 301.67777,760.79436   L 325.51759,754.23441   C 325.59759,754.23441 325.59759,754.23441 325.59759,754.23441   L 301.67777,760.79436   z "
     style="fill:#4148ac;fill-rule:nonzero;fill-opacity:1;stroke:none;" />
  <path
     id="path281"
     d="  M 272.39798,767.67431   C 266.15803,767.67431 259.99807,765.99433 254.47811,762.63435   C 251.67814,760.87436 249.03816,758.63438 246.71817,755.9944   C 246.63817,755.9144 246.63817,755.9144 246.63817,755.9144   C 246.63817,755.9144 246.63817,755.9144 246.63817,755.8344   C 246.63817,755.8344 246.55817,755.8344 246.55817,755.8344   C 246.55817,755.8344 246.55817,755.7544 246.55817,755.7544   C 246.55817,755.7544 246.47817,755.7544 246.47817,755.7544   C 246.47817,755.7544 246.47817,755.7544 246.47817,755.7544   C 246.47817,755.6744 246.47817,755.6744 246.39817,755.6744   C 246.39817,755.6744 246.39817,755.6744 246.39817,755.5944   C 246.39817,755.5944 246.39817,755.5944 246.39817,755.5944   C 246.31818,755.5944 246.31818,755.5944 246.31818,755.5144   C 246.31818,755.5144 246.31818,755.5144 246.31818,755.5144   C 246.31818,755.5144 246.31818,755.5144 246.23818,755.4344   C 246.23818,755.4344 246.23818,755.4344 246.23818,755.4344   C 246.23818,755.4344 246.23818,755.3544 246.23818,755.3544   C 246.15818,755.3544 246.15818,755.3544 246.15818,755.3544   C 246.15818,755.3544 246.15818,755.3544 246.15818,755.27441   C 246.15818,755.27441 246.07818,755.27441 246.07818,755.27441   C 246.07818,755.27441 246.07818,755.19441 246.07818,755.19441   C 246.07818,755.19441 246.07818,755.19441 245.99818,755.19441   C 245.99818,755.19441 245.99818,755.11441 245.99818,755.11441   C 245.99818,755.11441 245.99818,755.11441 245.99818,755.11441   C 245.99818,755.11441 245.91818,755.03441 245.91818,755.03441   C 245.91818,755.03441 245.91818,755.03441 245.91818,755.03441   C 245.91818,755.03441 245.83818,754.95441 245.83818,754.95441   C 245.83818,754.95441 245.83818,754.95441 245.83818,754.95441   C 245.83818,754.95441 245.83818,754.87441 245.83818,754.87441   L 245.75818,754.87441   C 245.75818,754.87441 245.75818,754.79441 245.75818,754.79441   C 245.75818,754.79441 245.75818,754.79441 245.75818,754.79441   C 245.67818,754.79441 245.67818,754.71441 245.67818,754.71441   C 245.67818,754.71441 245.67818,754.71441 245.67818,754.71441   C 245.59818,754.71441 245.59818,754.63441 245.59818,754.63441   C 245.59818,754.63441 245.59818,754.63441 245.59818,754.63441   C 245.59818,754.63441 245.59818,754.55441 245.51818,754.55441   C 245.51818,754.55441 245.51818,754.55441 245.51818,754.55441   C 245.51818,754.47441 245.51818,754.47441 245.43818,754.47441   C 245.43818,754.47441 245.43818,754.47441 245.43818,754.47441   C 245.43818,754.39441 245.43818,754.39441 245.43818,754.39441   L 245.43818,754.39441   C 245.35818,754.39441 245.35818,754.31441 245.35818,754.31441   C 245.35818,754.31441 245.35818,754.31441 245.35818,754.31441   C 245.27818,754.23441 245.27818,754.15441 245.19818,754.15441   L 245.19818,754.15441   C 239.03823,745.99447 237.03824,735.75455 239.11823,726.31462   C 260.79807,751.27444 288.23786,756.1544 306.31773,756.1544   C 317.59765,756.1544 325.27759,754.31441 325.51759,754.23441   L 301.67777,760.79436   L 283.1979,765.91433   C 279.67793,767.11432 276.07795,767.67431 272.39798,767.67431   z "
     style="fill:#c24848;fill-rule:nonzero;fill-opacity:1;stroke:none;" />
  <path
     id="path283"
     d="  M 355.91736,787.27417   L 348.07742,778.23424   C 348.07742,778.23424 348.07742,778.23424 348.07742,778.23424   L 355.99736,787.27417   C 355.99736,787.27417 355.91736,787.27417 355.91736,787.27417   z "
     style="fill:#d9a23f;fill-rule:nonzero;fill-opacity:1;stroke:none;" />
  <path
     id="path285"
     d="  M 348.07742,778.23424   L 326.79758,753.83442   L 326.87758,753.83442   L 348.07742,778.23424   C 348.07742,778.23424 348.07742,778.23424 348.07742,778.23424   z "
     style="fill:#4148ac;fill-rule:nonzero;fill-opacity:1;stroke:none;" />
  <path
     id="path287"
     d="  M 375.83722,810.314   L 363.75731,796.2341   L 355.91736,787.27417   C 355.91736,787.27417 355.99736,787.27417 355.99736,787.27417   L 375.99721,810.314   C 375.91722,810.314 375.91722,810.314 375.83722,810.314   z "
     style="fill:#75b696;fill-rule:nonzero;fill-opacity:1;stroke:none;" />
  <path
     id="path289"
     d="  M 400.39703,838.87379   L 375.83722,810.314   C 375.91722,810.314 375.91722,810.314 375.99721,810.314   L 400.55703,838.55379   L 400.39703,838.87379   z "
     style="fill:#364053;fill-rule:nonzero;fill-opacity:1;stroke:none;" />
  <path
     id="path291"
     d="  M 400.39703,838.95379   L 400.39703,838.87379   L 400.55703,838.55379   L 375.99721,810.314   L 355.99736,787.27417   L 348.07742,778.23424   L 326.87758,753.83442   L 343.51746,749.27445   L 375.43722,786.15418   L 407.35698,823.0339   L 400.39703,838.95379  z "
     style="fill:#c24848;fill-rule:nonzero;fill-opacity:1;stroke:none;" />
  <path
     id="path293"
     d="  M 445.5967,787.03417   C 445.3567,787.19417 445.1967,787.27417 444.9567,787.35417   C 437.99676,790.15415 430.47681,791.27414 423.03687,790.71414   C 422.63687,790.63414 422.31687,790.63414 421.99687,790.47414   C 421.59688,790.23415 421.35688,789.91415 421.11688,789.59415   C 418.9569,786.47417 416.71691,783.2742 416.15692,779.59423   C 415.91692,778.47423 415.99692,777.11424 416.95691,776.55425   C 417.59691,776.07425 418.3969,776.15425 419.1169,776.23425   C 420.31689,776.31425 423.43686,777.11424 424.39686,776.39425   C 425.51685,775.67425 424.63685,774.15427 424.31686,773.27427   C 425.75685,772.31428 427.27683,771.43429 428.71682,770.55429   C 429.59682,769.9943 431.8368,767.91431 432.87679,767.99431   L 448.47668,768.23431   L 453.51664,778.87423   C 451.19666,781.35421 448.63668,785.51418 445.5967,787.03417   z "
     style="fill:#eac5b0;fill-rule:nonzero;fill-opacity:1;stroke:none;" />
  <path
     id="path295"
     d="  M 530.87607,709.75474   C 533.03605,719.83467 534.79604,729.91459 536.55603,739.99452   C 536.95602,742.3945 537.43602,744.79448 537.03602,747.19447   C 535.83603,754.15441 528.47609,757.91439 521.99613,760.71437   C 511.67621,765.03433 501.43629,769.4343 491.11636,773.75427   C 480.87644,778.15424 469.59652,784.95419 458.7166,787.51417   C 452.47665,788.95416 452.31665,786.39417 447.91668,780.95422   C 445.7567,778.23424 442.95672,772.87428 439.99674,771.11429   C 443.91671,772.79428 455.27663,762.55435 458.23661,760.23437   C 467.51654,753.03442 477.27646,746.07447 486.0764,738.07453   C 488.15638,736.15455 490.31637,733.91456 490.79636,731.11458   C 491.11636,729.0346 490.47637,727.03461 489.83637,725.03463   C 482.07643,701.6748 474.39649,678.39497 466.63654,655.03515   C 464.71656,649.11519 462.79657,642.71524 464.71656,636.87528   C 468.07653,627.11535 481.11644,623.83538 490.55637,627.83535   C 499.9963,631.83532 506.23625,640.87525 510.95622,649.91519   C 520.79614,668.63505 526.5561,689.0349 530.87607,709.75474   z "
     style="fill:#7fc5a3;fill-rule:nonzero;fill-opacity:1;stroke:none;" />
  <path
     id="path297"
     d="  M 370.71725,780.87422   C 370.87725,780.87422 371.03725,780.87422 371.27725,780.95422   C 377.5172,781.59421 383.91716,780.87422 389.83711,778.71423   C 390.07711,778.63423 390.39711,778.47423 390.63711,778.31423   C 390.8771,778.07424 390.9571,777.75424 391.1171,777.43424   C 392.1571,774.39426 393.27709,771.27429 392.87709,768.15431   C 392.79709,767.19432 392.47709,766.15432 391.5971,765.83433   C 390.9571,765.67433 390.31711,765.83433 389.67711,766.07433   C 388.79712,766.47432 386.39714,767.83431 385.43714,767.43432   C 384.39715,767.03432 384.79715,765.67433 384.87715,764.87433   C 383.43716,764.47434 382.07717,763.99434 380.63718,763.59434   C 379.83719,763.35435 377.5972,762.23435 376.71721,762.47435   L 364.1573,766.23432   L 362.39732,775.91425   C 364.7973,777.43424 367.83728,780.23422 370.71725,780.87422   z "
     style="fill:#eac5b0;fill-rule:nonzero;fill-opacity:1;stroke:none;" />
  <path
     id="path299"
     d="  M 326.55758,761.35436   C 326.31758,762.47435 326.07758,763.51434 325.99759,764.63434   C 325.43759,769.4343 325.99759,774.63426 329.03756,778.39423   C 330.47755,780.07422 332.31754,781.43421 334.23752,782.4742   C 341.75747,786.55417 350.07741,786.47417 358.15735,784.79419   C 362.71731,783.83419 360.79733,786.31418 364.4773,782.23421   C 366.79728,779.67422 369.03727,773.99427 369.35726,770.55429   C 369.75726,765.75433 370.31726,768.71431 366.79728,765.51433   C 363.43731,762.39435 357.91735,759.91437 353.99738,757.43439   C 349.83741,754.79441 345.19744,752.63442 340.23748,752.39443   C 335.35752,752.15443 330.07755,754.31441 327.67757,758.63438   C 327.19758,759.51437 326.87758,760.39437 326.55758,761.35436   z "
     style="fill:#7fc5a3;fill-rule:nonzero;fill-opacity:1;stroke:none;" />
</svg>
