<?xml version="1.0" encoding="utf-8"?>
<svg id="master-artboard" viewBox="0 0 296.0083312988281 334.0749206542969" xmlns="http://www.w3.org/2000/svg" width="296.0083312988281px" height="334.0749206542969px" version="1.1" style="shape-rendering:geometricPrecision; text-rendering:geometricPrecision; image-rendering:optimizeQuality; fill-rule:evenodd; clip-rule:evenodd"><defs><pattern y="0" x="0" height="6" width="6" patternUnits="userSpaceOnUse" id="EMFhbasepattern"/></defs><rect id="ee-background" x="0" y="0" width="296.0083312988281" height="334.0749206542969" style="fill: white; fill-opacity: 0; pointer-events: none;"/>
 
 <metadata id="CorelCorpID_0Corel-Layer"/>
<g transform="matrix(1.349521279335022, 0, 0, 1.349521279335022, -52.487518310546875, -128.6703383922577)"><metadata id="metadata201">
    
  </metadata><path id="path65" d="  M 294.87782,187.11861   C 294.87782,203.35849 291.27784,218.79838 284.71789,232.63828   C 270.158,263.59805 241.27821,286.47788 206.55847,292.71783   C 200.39852,293.75782 194.07856,294.31782 187.59861,294.31782   C 181.67865,294.31782 175.8387,293.83782 170.15874,292.95783   C 169.51874,292.79783 168.87875,292.71783 168.31875,292.55783   C 165.75877,292.15784 163.19879,291.59784 160.71881,290.95784   C 155.51885,289.59785 150.47889,287.91787 145.59892,285.83788   C 136.07899,281.75791 127.27906,276.31795 119.35912,269.838   C 104.15923,257.27809 92.479315,240.55822 85.999363,221.51836   C 82.39939,210.71844 80.399404,199.11853 80.399404,187.11861   C 80.399404,127.83905 128.39905,79.839409 187.59861,79.839409   C 246.87817,79.839409 294.87782,127.83905 294.87782,187.11861   z " style="fill:#f89b3e;fill-rule:nonzero;fill-opacity:1;stroke:none;" transform="matrix(0.9999999999999999, 0, 0, 0.9999999999999999, -38.13807729721009, 41.95187986737244)"/><path id="path67" d="  M 284.71789,232.63828   C 267.59802,269.11801 230.55829,294.31782 187.59861,294.31782   C 181.67865,294.31782 175.8387,293.83782 170.15874,292.95783   C 166.95876,292.39783 163.83879,291.75784 160.71881,290.95784   C 160.55881,290.71785 160.31881,290.55785 160.15881,290.31785   C 152.31887,281.75791 144.47893,273.19798 138.87897,263.03805   C 133.27901,252.95813 130.07904,241.03821 132.39902,229.7583   C 133.35901,225.11833 135.359,220.55837 138.23898,216.71839   C 140.79896,213.35842 144.07893,210.55844 147.9189,208.79845   C 160.23881,203.27849 174.31871,209.03845 187.67861,210.87844   C 200.31852,212.71842 213.03842,211.03844 225.75833,209.99844   C 238.39823,209.03845 251.51814,208.79845 263.43805,213.35842   C 272.55798,216.87839 280.87792,223.83834 284.71789,232.63828   z " style="fill:#2b2834;fill-rule:nonzero;fill-opacity:1;stroke:none;" transform="matrix(0.9999999999999999, 0, 0, 0.9999999999999999, -38.13807729721009, 41.95187986737244)"/><path id="path69" d="  M 173.03872,292.31783   C 172.07873,292.55783 171.11873,292.71783 170.15874,292.95783   C 166.95876,292.39783 163.83879,291.75784 160.71881,290.95784   C 155.51885,289.59785 150.47889,287.91787 145.59892,285.83788   C 136.07899,281.75791 127.27906,276.31795 119.35912,269.838   C 121.9191,262.23806 123.35909,254.23812 125.11907,246.39817   C 125.67907,243.99819 126.23906,241.67821 126.95906,239.27823   C 129.11904,231.43829 132.23902,223.83834 137.43898,217.67839   C 137.67898,217.35839 137.91898,217.03839 138.23898,216.71839   C 145.03893,209.27845 155.75885,204.55848 165.35878,207.51846   C 170.15874,235.35826 174.79871,264.15804 173.03872,292.31783   z " style="fill:#2b2834;fill-rule:nonzero;fill-opacity:1;stroke:none;" transform="matrix(0.9999999999999999, 0, 0, 0.9999999999999999, -38.13807729721009, 41.95187986737244)"/><path id="path71" d="  M 145.59892,285.83788   C 136.07899,281.75791 127.27906,276.31795 119.35912,269.838   C 104.15923,257.27809 92.479315,240.55822 85.999363,221.51836   C 86.799357,217.27839 87.199354,212.95842 86.799357,208.71845   C 86.159362,201.11851 87.359353,196.47854 92.559314,194.23856   C 94.159303,193.51857 96.239287,193.03857 98.719269,192.79857   C 102.87924,192.31858 107.8392,192.23858 112.07917,193.51857   C 115.19915,194.39856 117.91913,196.07855 119.75911,198.95853   C 124.95907,206.71847 122.63909,219.43837 124.23908,228.31831   C 124.87907,232.07828 125.75907,235.67825 126.95906,239.27823   C 129.75904,248.31816 133.91901,256.9581 138.15898,265.35803   C 140.63896,270.398 146.39892,279.03793 145.59892,285.83788   z " style="fill:#2b2834;fill-rule:nonzero;fill-opacity:1;stroke:none;" transform="matrix(0.9999999999999999, 0, 0, 0.9999999999999999, -38.13807729721009, 41.95187986737244)"/><path id="path73" d="  M 90.799327,170.87873   C 92.399316,169.99874 95.679291,177.27869 95.679291,177.27869   C 95.679291,177.27869 91.999319,167.51876 93.11931,166.63877   C 94.879297,165.27878 98.879268,176.47869 98.879268,176.47869   C 98.879268,176.47869 94.799298,164.15878 97.19928,163.67879   C 99.599262,163.19879 102.23924,175.8387 102.23924,175.8387   C 102.23924,175.8387 100.47926,163.83879 102.63924,163.75879   C 104.71922,163.75879 106.39921,179.35867 106.39921,179.35867   C 106.39921,179.35867 110.71918,172.71872 112.15917,173.51871   C 114.55915,174.8787 105.83922,189.4386 105.83922,189.4386   L 96.879282,191.75858   C 96.879282,191.75858 89.199339,171.67873 90.799327,170.87873   z " style="fill:#f35b5b;fill-rule:nonzero;fill-opacity:1;stroke:none;" transform="matrix(0.9999999999999999, 0, 0, 0.9999999999999999, -38.13807729721009, 41.95187986737244)"/><path id="path75" d="  M 107.8392,198.63853   L 96.799283,198.63853   C 94.4793,198.63853 92.559314,196.71854 92.559314,194.39856   L 92.559314,191.51858   C 92.559314,189.1986 94.4793,187.27861 96.799283,187.27861   L 107.8392,187.27861   C 110.15918,187.27861 112.07917,189.1986 112.07917,191.51858   L 112.07917,194.39856   C 112.07917,196.71854 110.15918,198.63853 107.8392,198.63853   z " style="fill:#2b2834;fill-rule:nonzero;fill-opacity:1;stroke:none;" transform="matrix(0.9999999999999999, 0, 0, 0.9999999999999999, -38.13807729721009, 41.95187986737244)"/><path id="path77" d="  M 206.55847,292.71783   C 200.39852,293.75782 194.07856,294.31782 187.59861,294.31782   C 181.67865,294.31782 175.8387,293.83782 170.15874,292.95783   C 169.51874,292.79783 168.87875,292.71783 168.31875,292.55783   C 166.63877,283.4379 166.71877,273.91797 166.23877,264.63804   C 165.75877,255.11811 165.51877,245.35818 167.83876,236.07825   C 170.15874,226.79832 175.2787,217.83839 183.43864,212.79842   C 189.91859,208.71845 190.39859,202.8785 190.47859,195.19855   C 190.55859,187.51861 187.59861,179.99867 183.51864,173.51871   C 180.15867,168.07875 188.3986,159.83882 194.71856,159.27882   C 201.03851,158.79882 207.19847,162.79879 210.55844,168.23875   C 212.31843,171.19873 213.35842,174.47871 214.47841,177.75868   C 216.3184,183.59864 218.23838,189.5186 220.15837,195.35855   C 221.59836,199.91852 223.11835,205.35848 226.87832,208.39846   C 208.39846,231.59828 203.35849,263.03805 206.55847,292.71783   z " style="fill:#f35c59;fill-rule:nonzero;fill-opacity:1;stroke:none;" transform="matrix(0.9999999999999999, 0, 0, 0.9999999999999999, -38.13807729721009, 41.95187986737244)"/><path id="path79" d="  M 206.55847,292.71783   C 200.39852,293.75782 194.07856,294.31782 187.59861,294.31782   C 181.67865,294.31782 175.8387,293.83782 170.15874,292.95783   C 169.51874,292.79783 168.87875,292.71783 168.31875,292.55783   C 166.63877,283.4379 166.71877,273.91797 166.23877,264.63804   C 165.75877,255.11811 165.51877,245.35818 167.83876,236.07825   C 170.15874,226.79832 175.2787,217.83839 183.43864,212.79842   C 183.91864,212.39843 184.39863,212.07843 184.87863,211.75843   C 185.11863,213.35842 185.59863,214.87841 186.47862,216.2384   C 189.2786,220.39837 194.87856,221.83836 199.59852,221.51836   C 210.07844,220.71837 217.83839,212.23843 223.51834,204.15849   C 224.39834,205.83848 225.51833,207.27846 226.87832,208.39846   C 208.39846,231.59828 203.35849,263.03805 206.55847,292.71783   z " style="fill:#ffffff;fill-rule:nonzero;fill-opacity:1;stroke:none;" transform="matrix(0.9999999999999999, 0, 0, 0.9999999999999999, -38.13807729721009, 41.95187986737244)"/><path id="path81" d="  M 189.67859,189.0386   L 189.67859,189.0386   C 177.75868,189.0386 167.99876,179.27867 167.99876,167.43876   L 167.99876,136.07899   C 167.99876,124.15908 177.75868,114.47915 189.67859,114.47915   L 189.67859,114.47915   C 201.51851,114.47915 211.27843,124.15908 211.27843,136.07899   L 211.27843,167.43876   C 211.27843,179.27867 201.51851,189.0386 189.67859,189.0386   z " style="fill:#f35c59;fill-rule:nonzero;fill-opacity:1;stroke:none;" transform="matrix(0.9999999999999999, 0, 0, 0.9999999999999999, -38.13807729721009, 41.95187986737244)"/><path id="path83" d="  M 223.83834,159.43882   C 223.83834,163.99879 220.07837,167.75876 215.4384,167.75876   C 210.87844,167.75876 207.11847,163.99879 207.11847,159.43882   C 207.11847,154.79885 210.87844,151.11888 215.4384,151.11888   C 220.07837,151.11888 223.83834,154.79885 223.83834,159.43882   z " style="fill:#f35c59;fill-rule:nonzero;fill-opacity:1;stroke:none;" transform="matrix(0.9999999999999999, 0, 0, 0.9999999999999999, -38.13807729721009, 41.95187986737244)"/><path id="path85" d="  M 200.87851,136.31899   C 192.71857,137.83898 184.23864,138.87897 176.1587,136.95899   C 169.11875,135.199 162.79879,131.27903 157.19884,126.63906   C 149.1189,119.83911 142.07895,111.27918 138.95897,101.11925   C 135.83899,91.039326 137.03898,79.279413 143.67894,70.959474   C 150.31889,62.719535 162.71879,59.039563 172.15872,63.839527   C 179.11867,67.359501 183.51864,74.799446 184.79863,82.559388   C 186.07862,90.239332 184.47863,98.239272 181.91865,105.59922   C 184.31863,102.07924 190.71859,102.79924 192.23858,106.79921   C 192.79857,108.2392 192.71857,109.91919 193.59857,111.19918   C 195.51855,114.23915 200.07852,113.27916 203.51849,114.07915   C 209.67845,115.59914 212.31843,122.87909 213.19842,129.11904   C 213.83842,134.23901 216.71839,153.67886 209.67845,155.51885   C 201.59851,157.59883 199.35852,141.19895 200.87851,136.31899   z " style="fill:#2b2834;fill-rule:nonzero;fill-opacity:1;stroke:none;" transform="matrix(0.9999999999999999, 0, 0, 0.9999999999999999, -38.13807729721009, 41.95187986737244)"/><path id="path87" d="  M 192.63857,166.87876   C 192.15858,171.35873 188.5586,174.8787 184.07864,174.8787   C 179.59867,174.9587 175.9187,171.51873 175.3587,167.03876   L 192.63857,166.87876   z " style="fill:#ffffff;fill-rule:nonzero;fill-opacity:1;stroke:none;" transform="matrix(0.9999999999999999, 0, 0, 0.9999999999999999, -38.13807729721009, 41.95187986737244)"/><path id="path89" d="  M 214.55841,253.43812   C 214.55841,257.91809 210.87844,261.59806 206.39847,261.59806   C 201.8385,261.59806 198.15853,257.91809 198.15853,253.43812   C 198.15853,248.87816 201.8385,245.19818 206.39847,245.19818   C 210.87844,245.19818 214.55841,248.87816 214.55841,253.43812   z " style="fill:#ef3454;fill-rule:nonzero;fill-opacity:1;stroke:none;" transform="matrix(0.9999999999999999, 0, 0, 0.9999999999999999, -38.13807729721009, 41.95187986737244)"/><path id="path91" d="  M 229.4383,222.71835   L 209.03845,232.71828   L 228.79831,242.3982   z " style="fill:#477fc9;fill-rule:nonzero;fill-opacity:1;stroke:none;" transform="matrix(0.9999999999999999, 0, 0, 0.9999999999999999, -38.13807729721009, 41.95187986737244)"/><path id="path93" d="  M 241.83821,260.79807   C 241.83821,266.15803 237.43824,270.478 232.07828,270.478   C 226.71832,270.478 222.39835,266.15803 222.39835,260.79807   C 222.39835,255.35811 226.71832,251.03814 232.07828,251.03814   C 237.43824,251.03814 241.83821,255.35811 241.83821,260.79807   z " style="fill:#f89b3e;fill-rule:nonzero;fill-opacity:1;stroke:none;" transform="matrix(0.9999999999999999, 0, 0, 0.9999999999999999, -38.13807729721009, 41.95187986737244)"/><path id="path95" d="  M 161.27881,150.23889   C 160.87881,151.19888 160.63881,152.31887 160.63881,153.43886   C 160.63881,158.23883 164.55878,162.0788 169.35875,162.0788   C 174.07871,162.0788 177.99868,158.23883 177.99868,153.43886   C 177.99868,152.31887 177.75868,151.19888 177.35869,150.23889   L 161.27881,150.23889   z " style="fill:#2b2834;fill-rule:nonzero;fill-opacity:1;stroke:none;" transform="matrix(0.9999999999999999, 0, 0, 0.9999999999999999, -38.13807729721009, 41.95187986737244)"/><path id="path97" d="  M 181.19866,150.23889   C 180.87866,151.03888 180.71866,151.99887 180.71866,152.95887   C 180.71866,157.75883 184.63863,161.5988 189.4386,161.5988   C 194.15856,161.5988 198.07853,157.75883 198.07853,152.95887   C 198.07853,151.99887 197.91853,151.03888 197.59854,150.23889   L 181.19866,150.23889   z " style="fill:#2b2834;fill-rule:nonzero;fill-opacity:1;stroke:none;" transform="matrix(0.9999999999999999, 0, 0, 0.9999999999999999, -38.13807729721009, 41.95187986737244)"/><path id="path99" d="  M 206.71847,151.35888   L 159.75882,151.35888   C 158.95882,151.35888 158.39883,150.71888 158.39883,149.99889   L 158.39883,149.99889   C 158.39883,149.19889 158.95882,148.6389 159.75882,148.6389   L 206.71847,148.6389   C 207.51846,148.6389 208.07846,149.19889 208.07846,149.99889   L 208.07846,149.99889   C 208.07846,150.71888 207.51846,151.35888 206.71847,151.35888   z " style="fill:#2b2834;fill-rule:nonzero;fill-opacity:1;stroke:none;" transform="matrix(0.9999999999999999, 0, 0, 0.9999999999999999, -38.13807729721009, 41.95187986737244)"/></g></svg>