<?xml version="1.0" encoding="utf-8"?>
<svg id="master-artboard" viewBox="0 0 980.9766235351562 944.396728515625" version="1.1" xmlns="http://www.w3.org/2000/svg" x="0px" y="0px" style="enable-background:new 0 0 1400 980;" width="980.9766235351562px" height="944.396728515625px"><defs><pattern y="0" x="0" height="6" width="6" patternUnits="userSpaceOnUse" id="EMFhbasepattern"/></defs><rect id="ee-background" x="0" y="0" width="980.9766235351562" height="944.396728515625" style="fill: white; fill-opacity: 0; pointer-events: none;"/>


<g transform="matrix(1.4649245738983154, 0, 0, 1.4649245738983154, 100.45138549804688, 10.954849243164062)"><metadata id="metadata303">
    
  </metadata><path id="path9" d="  M 0.39999704,0.39999704   C 22.479833,63.919527 72.87946,135.75899 157.27883,195.03856   C 211.67843,233.19827 301.19777,230.31829 365.67729,269.11801   C 422.39687,303.27775 435.67677,441.19673 491.11636,520.87614   C 546.55595,600.47555 650.31518,587.75565 667.03506,667.03506   L 0.39999704,667.03506   L 0.39999704,0.39999704   z " style="fill:#cde6f3;fill-rule:evenodd;fill-opacity:1;stroke:none;" transform="matrix(-1.2215496157754613, 0, 0, -1.2215496157754613, 736.6961808612908, 762.8695817401971)"/><path id="path11" d="  M 284.23789,571.19577   L 184.95863,571.19577   C 182.71865,570.39577 180.55866,569.27578 178.47868,567.1958   C 171.99873,560.71585 170.07874,556.15588 170.07874,556.15588   C 170.07874,556.39588 188.8786,561.75584 186.55862,557.51587   C 184.23864,553.5959 168.31875,553.7559 163.91879,548.15594   C 159.43882,542.71598 154.15886,532.79605 154.15886,532.79605   C 154.15886,532.95605 167.99876,541.67599 167.75876,537.43602   C 167.43876,533.43605 151.59888,526.4761 148.0789,519.67615   C 144.63893,513.1962 161.8388,524.87611 163.67879,522.71613   C 165.35878,521.03614 147.11891,509.19623 143.51894,503.27627   C 139.75896,497.67631 139.19897,486.79639 141.75895,489.11638   C 144.31893,491.51636 148.4789,495.27633 148.4789,492.79635   C 148.3989,490.39637 137.51898,475.19648 137.59898,470.15652   C 137.51898,465.35655 149.27889,478.87645 150.15889,477.11647   C 150.87888,475.67648 136.71899,461.67658 135.359,453.51664   C 133.91901,445.5967 135.039,438.71675 135.75899,438.87675   C 136.39899,439.03675 142.87894,449.43667 144.31893,449.03667   C 145.59892,448.79668 142.31895,399.91704 165.35878,389.51711   C 184.47863,401.91702 202.0785,433.83679 202.1585,433.83679   C 203.59849,433.43679 205.19848,423.83686 205.91847,423.59686   C 206.47847,423.27686 209.91845,427.35683 212.07843,432.79679   C 214.07841,438.07675 209.99844,453.51664 211.75843,454.07664   C 213.19842,454.47663 215.5184,440.71674 218.07838,443.43672   C 220.39837,446.0767 220.71837,459.83659 222.39835,461.03658   C 223.99834,462.15658 224.63834,457.83661 225.27833,455.27663   C 225.83833,452.71665 231.67828,457.83661 232.63828,462.23658   C 233.35827,466.55654 230.47829,483.51642 233.11827,482.79642   C 235.43826,481.91643 237.99824,466.39655 240.39822,470.79651   C 242.5582,474.95648 238.95823,488.39638 242.15821,489.59637   C 245.11818,490.55637 245.83818,478.39646 245.99818,478.47646   C 245.91818,478.47646 250.15815,484.39641 252.23813,488.39638   C 254.23812,492.31635 247.67817,505.19626 250.39815,507.51624   C 252.79813,509.59623 255.51811,493.99634 255.67811,494.07634   C 255.67811,494.07634 258.31809,496.07633 261.19807,501.27629   C 264.07804,506.47625 259.67808,513.1162 262.39806,518.07616   C 265.11804,523.03613 270.238,515.11618 270.318,515.19618   C 286.07788,537.83602 286.79788,557.99587 284.23789,571.19577   z " style="fill:#689ad8;fill-rule:evenodd;fill-opacity:1;stroke:none;"/><path id="path13" d="  M 284.1579,542.63598   L 191.59858,578.39572   C 189.1986,578.47571 186.79862,578.15572 184.15864,577.03573   C 175.7587,573.27575 172.31872,569.75578 172.31872,569.75578   C 172.39872,569.91578 191.83858,568.15579 188.15861,565.11581   C 184.63863,562.23584 169.75874,568.07579 163.67879,564.47582   C 157.59883,560.95584 149.0389,553.6759 149.0389,553.5959   C 149.0389,553.7559 165.19878,556.95587 163.35879,553.0359   C 161.6788,549.51593 144.39893,548.71594 138.63897,543.59597   C 133.11901,538.79601 153.35886,543.51597 154.31886,540.79599   C 155.27885,538.63601 133.99901,534.15604 128.47905,529.91607   C 122.95909,526.0761 118.47912,516.07618 121.7591,517.43617   C 125.03907,518.71616 130.31903,520.71614 129.35904,518.39616   C 128.39905,516.23618 112.79916,505.91625 111.03918,501.19629   C 109.27919,496.79632 125.03907,505.19626 125.19907,503.11627   C 125.35907,501.51629 107.11921,493.59634 102.95924,486.4764   C 98.799268,479.59645 97.359279,472.7965 98.079273,472.6365   C 98.719269,472.5565 108.4792,479.99644 109.75919,479.03645   C 110.79918,478.31646 90.159332,433.99679 107.9192,415.99692   C 130.23904,420.63688 158.15883,444.07671 158.23883,444.07671   C 159.35882,443.19672 157.43883,433.67679 157.99883,433.11679   C 158.47883,432.6368 163.11879,435.19678 167.11876,439.51674   C 170.79873,443.75671 172.63872,459.5966 174.39871,459.5166   C 175.9187,459.2766 173.11872,445.5967 176.47869,447.27669   C 179.59867,448.95667 184.87863,461.67658 186.87862,462.07658   C 188.7986,462.63657 187.83861,458.31661 187.43861,455.67662   C 187.11861,453.11664 194.39856,455.83662 196.87854,459.5966   C 199.03853,463.35657 202.5585,480.15644 204.71848,478.55646   C 206.55847,476.95647 203.35849,461.51658 207.19847,464.71656   C 210.71844,467.91653 212.15843,481.75643 215.5184,481.67643   C 218.63838,481.51643 215.03841,469.91652 215.11841,469.91652   C 215.11841,469.91652 221.19836,473.91649 224.63834,476.95647   C 227.83831,479.91645 226.39832,494.23634 229.7583,495.43633   C 232.71828,496.47632 229.5983,480.95644 229.8383,480.95644   C 229.8383,480.95644 232.95827,481.83643 237.51824,485.7564   C 242.15821,489.51637 240.39822,497.27632 244.71819,500.95629   C 249.03816,504.55626 251.03814,495.35633 251.03814,495.43633   C 273.99797,510.87622 281.83791,529.43608 284.1579,542.63598   z " style="fill:#5f91d3;fill-rule:evenodd;fill-opacity:1;stroke:none;"/><path id="path15" d="  M 359.03734,570.79577   L 471.8365,570.79577   C 474.39649,569.91578 476.87647,568.63579 479.19645,566.31581   C 486.5564,558.87586 488.71638,553.6759 488.79638,553.7559   C 488.71638,553.9959 467.35654,560.07585 470.07652,555.27589   C 472.6365,550.79592 490.79636,550.95592 495.75633,544.55597   C 500.79629,538.39601 506.87625,527.1161 506.79625,527.1161   C 506.87625,527.27609 491.11636,537.27602 491.43636,532.39606   C 491.75636,527.91609 509.75622,519.99615 513.75619,512.23621   C 517.67617,504.87626 498.07631,518.15616 496.07633,515.67618   C 494.07634,513.75619 514.87619,500.31629 518.95616,493.59634   C 523.19612,487.19639 523.91612,474.87648 520.95614,477.51646   C 517.99616,480.23644 513.2762,484.55641 513.2762,481.67643   C 513.3562,479.03645 525.75611,461.75658 525.67611,455.99662   C 525.75611,450.55666 512.3962,465.91655 511.43621,463.83656   C 510.63622,462.23658 526.7161,446.31669 528.15609,437.03676   C 529.83608,427.99683 528.55608,420.23689 527.75609,420.39689   C 527.0361,420.55688 519.67615,432.4768 517.99616,431.9168   C 516.55617,431.6768 520.31615,376.15721 494.15634,364.3173   C 472.3165,378.3972 452.31665,414.71693 452.23665,414.71693   C 450.71666,414.23693 448.79668,403.35701 448.07668,403.03701   C 447.35669,402.63702 443.43672,407.35698 441.03673,413.51694   C 438.79675,419.51689 443.35672,437.11676 441.35673,437.67676   C 439.75674,438.07675 437.11676,422.47687 434.23678,425.59685   C 431.5968,428.63682 431.19681,444.23671 429.27682,445.5967   C 427.43683,446.87669 426.71684,441.91673 426.07684,439.03675   C 425.35685,436.15677 418.7169,441.99673 417.67691,446.95669   C 416.87691,451.83665 420.07689,471.11651 417.11691,470.31652   C 414.47693,469.35652 411.51695,451.67665 408.79697,456.71662   C 406.39699,461.43658 410.47696,476.71647 406.87699,477.99646   C 403.51701,479.11645 402.63702,465.35655 402.47702,465.35655   C 402.55702,465.43655 397.67705,472.1565 395.35707,476.71647   C 393.11709,481.19644 400.55703,495.83633 397.51706,498.39631   C 394.71708,500.79629 391.6771,483.03642 391.4371,483.11642   C 391.4371,483.11642 388.47712,485.3564 385.19715,491.35636   C 381.91717,497.27632 386.95713,504.71626 383.83716,510.47622   C 380.71718,516.07618 374.87722,507.11624 374.87722,507.11624   C 356.87736,532.95605 356.07736,555.75588 359.03734,570.79577   z " style="fill:#689ad8;fill-rule:evenodd;fill-opacity:1;stroke:none;"/><path id="path17" d="  M 515.19618,341.51747   C 504.79626,353.35738 496.55632,367.51728 489.35638,381.51717   C 476.47647,406.55699 467.91653,433.67679 463.91656,461.51658   L 462.55657,461.03658   C 466.55654,433.67679 474.95648,407.11698 487.35639,382.31717   C 494.63634,367.75728 503.19627,352.95739 514.07619,340.63748   C 514.63619,339.99748 515.83618,340.79748 515.19618,341.51747   z " style="fill:#3870c0;fill-rule:evenodd;fill-opacity:1;stroke:none;"/><path id="path19" d="  M 462.95657,461.11658   C 462.95657,461.11658 460.47659,447.83668 439.27675,439.11675   C 439.27675,439.11675 445.3567,455.51663 462.95657,461.11658   z " style="fill:#3870c0;fill-rule:evenodd;fill-opacity:1;stroke:none;"/><path id="path21" d="  M 464.55656,451.03666   C 464.55656,451.03666 461.43658,436.39677 436.79676,426.31684   C 436.79676,426.31684 444.15671,444.39671 464.55656,451.03666   z " style="fill:#3870c0;fill-rule:evenodd;fill-opacity:1;stroke:none;"/><path id="path23" d="  M 466.15655,443.03672   C 466.15655,443.03672 465.19655,428.15683 442.23672,414.63693   C 442.23672,414.63693 446.95669,433.59679 466.15655,443.03672   z " style="fill:#3870c0;fill-rule:evenodd;fill-opacity:1;stroke:none;"/><path id="path25" d="  M 469.35652,434.23678   C 469.35652,434.23678 469.91652,419.35689 448.47668,403.51701   C 448.47668,403.51701 451.19666,422.87687 469.35652,434.23678   z " style="fill:#3870c0;fill-rule:evenodd;fill-opacity:1;stroke:none;"/><path id="path27" d="  M 472.4765,422.31687   C 472.4765,422.31687 472.7965,405.117 447.19669,386.23714   C 447.19669,386.23714 450.79666,408.71697 472.4765,422.31687   z " style="fill:#3870c0;fill-rule:evenodd;fill-opacity:1;stroke:none;"/><path id="path29" d="  M 476.79647,410.39696   C 476.79647,410.39696 477.11647,392.47709 450.55666,372.95724   C 450.55666,372.95724 454.31663,396.23706 476.79647,410.39696   z " style="fill:#3870c0;fill-rule:evenodd;fill-opacity:1;stroke:none;"/><path id="path31" d="  M 479.67645,400.39703   C 479.67645,400.39703 482.79642,382.79716 459.67659,359.27734   C 459.67659,359.27734 459.67659,382.87716 479.67645,400.39703   z " style="fill:#3870c0;fill-rule:evenodd;fill-opacity:1;stroke:none;"/><path id="path33" d="  M 485.11641,387.51713   C 485.11641,387.51713 490.07637,372.15724 472.2365,348.39742   C 472.2365,348.39742 469.43652,369.43726 485.11641,387.51713   z " style="fill:#3870c0;fill-rule:evenodd;fill-opacity:1;stroke:none;"/><path id="path35" d="  M 492.15635,375.27722   C 492.15635,375.27722 495.99633,361.43732 479.03645,339.03749   C 479.03645,339.03749 477.27646,358.23735 492.15635,375.27722   z " style="fill:#3870c0;fill-rule:evenodd;fill-opacity:1;stroke:none;"/><path id="path37" d="  M 498.47631,363.27731   C 498.47631,363.27731 501.11629,351.5174 485.9164,331.59754   C 485.9164,331.59754 485.27641,347.99742 498.47631,363.27731   z " style="fill:#3870c0;fill-rule:evenodd;fill-opacity:1;stroke:none;"/><path id="path39" d="  M 503.19627,356.95736   C 503.19627,356.95736 506.95624,347.27743 496.79632,326.39758   C 496.79632,326.39758 494.15634,340.63748 503.19627,356.95736   z " style="fill:#3870c0;fill-rule:evenodd;fill-opacity:1;stroke:none;"/><path id="path41" d="  M 508.79623,348.07742   C 508.79623,348.07742 512.8762,340.07748 505.35626,324.3176   C 505.35626,324.3176 501.91628,335.83751 508.79623,348.07742   z " style="fill:#3870c0;fill-rule:evenodd;fill-opacity:1;stroke:none;"/><path id="path43" d="  M 512.9562,342.71746   C 512.9562,342.71746 524.23612,340.71748 526.1561,324.6376   C 526.1561,324.6376 513.3562,329.91756 512.9562,342.71746   z " style="fill:#3870c0;fill-rule:evenodd;fill-opacity:1;stroke:none;"/><path id="path45" d="  M 532.39606,341.11747   C 532.39606,341.11747 523.99612,337.9175 509.19623,347.11743   C 509.19623,347.11743 520.95614,349.27741 532.39606,341.11747   z " style="fill:#3870c0;fill-rule:evenodd;fill-opacity:1;stroke:none;"/><path id="path47" d="  M 462.87657,460.15659   C 462.87657,460.15659 473.19649,451.51666 495.19633,458.23661   C 495.19633,458.23661 480.07644,467.03654 462.87657,460.15659   z " style="fill:#3870c0;fill-rule:evenodd;fill-opacity:1;stroke:none;"/><path id="path49" d="  M 466.47654,443.11672   C 466.47654,443.11672 476.71647,432.2368 503.03627,436.39677   C 503.03627,436.39677 487.27639,448.07668 466.47654,443.11672   z " style="fill:#3870c0;fill-rule:evenodd;fill-opacity:1;stroke:none;"/><path id="path51" d="  M 468.71653,433.35679   C 468.71653,433.35679 477.75646,421.51688 504.39626,422.87687   C 504.39626,422.87687 489.99637,436.15677 468.71653,433.35679   z " style="fill:#3870c0;fill-rule:evenodd;fill-opacity:1;stroke:none;"/><path id="path53" d="  M 472.0765,421.67688   C 472.0765,421.67688 482.79642,408.23698 514.55619,409.91696   C 514.55619,409.91696 497.51631,424.95685 472.0765,421.67688   z " style="fill:#3870c0;fill-rule:evenodd;fill-opacity:1;stroke:none;"/><path id="path55" d="  M 476.39647,409.35697   C 476.39647,409.35697 487.51639,395.35707 520.47614,397.19706   C 520.47614,397.19706 502.71628,412.71694 476.39647,409.35697   z " style="fill:#3870c0;fill-rule:evenodd;fill-opacity:1;stroke:none;"/><path id="path57" d="  M 480.15644,399.67704   C 480.15644,399.67704 488.87638,384.07715 521.75614,380.63718   C 521.67614,380.63718 506.71625,398.79705 480.15644,399.67704   z " style="fill:#3870c0;fill-rule:evenodd;fill-opacity:1;stroke:none;"/><path id="path59" d="  M 485.8364,386.47714   C 485.8364,386.47714 493.43634,372.31724 523.03613,368.63727   C 523.03613,368.63727 509.75622,385.27715 485.8364,386.47714   z " style="fill:#3870c0;fill-rule:evenodd;fill-opacity:1;stroke:none;"/><path id="path61" d="  M 492.63635,373.83723   C 492.63635,373.83723 498.55631,360.71733 525.9161,354.15738   C 525.9161,354.15738 515.03618,370.07726 492.63635,373.83723   z " style="fill:#3870c0;fill-rule:evenodd;fill-opacity:1;stroke:none;"/><path id="path63" d="  M 503.43627,356.55736   C 503.43627,356.55736 509.75622,348.31742 532.95605,346.23744   C 532.95605,346.23744 522.07613,355.91736 503.43627,356.55736   z " style="fill:#3870c0;fill-rule:evenodd;fill-opacity:1;stroke:none;"/><path id="path65" d="  M 464.23656,450.87666   C 464.23656,450.87666 475.91647,441.59673 501.35629,449.51667   C 501.35629,449.51667 484.15641,458.7966 464.23656,450.87666   z " style="fill:#3870c0;fill-rule:evenodd;fill-opacity:1;stroke:none;"/><path id="path67" d="  M 364.3973,533.51605   L 469.59652,574.07575   C 472.3165,574.23575 475.11648,573.91575 478.07646,572.55576   C 487.59639,568.31579 491.51636,564.23582 491.51636,564.31582   C 491.43636,564.55582 469.27652,562.47583 473.51649,559.03586   C 477.51646,555.75588 494.39634,562.39583 501.35629,558.31586   C 508.31623,554.31589 517.99616,545.99596 517.99616,545.99596   C 517.91616,546.15595 499.6763,549.75593 501.67628,545.35596   C 503.59627,541.27599 523.27612,540.396 529.75608,534.55604   C 536.07603,529.19608 513.0362,534.47604 511.99621,531.43606   C 510.87622,528.95608 535.11604,523.83612 541.35599,519.03616   C 547.59594,514.63619 552.71591,503.35627 548.95593,504.79626   C 545.27596,506.23625 539.27601,508.55623 540.316,505.91625   C 541.43599,503.43627 559.19586,491.75636 561.19584,486.3964   C 563.19583,481.35643 545.27596,490.87636 545.03596,488.63638   C 544.87596,486.79639 565.59581,477.75646 570.31578,469.59652   C 575.11574,461.83658 576.71573,454.07664 575.91573,453.91664   C 575.19574,453.83664 564.07582,462.31658 562.63583,461.19658   C 561.43584,460.39659 584.95567,409.99696 564.71582,389.51711   C 539.356,394.79708 507.59624,421.51688 507.51624,421.43688   C 506.23625,420.47689 508.39623,409.59697 507.83624,409.03697   C 507.27624,408.47697 501.99628,411.43695 497.43632,416.31692   C 493.19635,421.11688 491.19636,439.11675 489.11638,439.03675   C 487.43639,438.79675 490.63637,423.27686 486.79639,425.11685   C 483.19642,427.03684 477.27646,441.43673 474.95648,441.99673   C 472.7965,442.55672 473.91649,437.67676 474.31649,434.71678   C 474.71648,431.7568 466.47654,434.79678 463.59657,439.11675   C 461.11658,443.35672 457.19661,462.47657 454.71663,460.71659   C 452.63665,458.7966 456.23662,441.27673 451.91665,444.9567   C 447.91668,448.55668 446.23669,464.31656 442.39672,464.15656   C 438.87675,463.99656 443.03672,450.79666 442.87672,450.79666   C 442.87672,450.87666 435.99677,455.43663 432.0768,458.7966   C 428.39683,462.15658 430.07681,478.47646 426.31684,479.83645   C 422.87687,481.03644 426.39684,463.35657 426.15684,463.43657   C 426.15684,463.43657 422.63687,464.39656 417.43691,468.79653   C 412.15695,473.1165 414.15693,481.91643 409.27697,486.1564   C 404.31701,490.23637 402.07702,479.75645 402.07702,479.83645   C 375.99721,497.43632 367.03728,518.47616 364.3973,533.51605   z " style="fill:#5f91d3;fill-rule:evenodd;fill-opacity:1;stroke:none;"/><path id="path69" d="  M 157.91883,360.39733   C 168.31875,372.23724 176.55869,386.47714 183.67864,400.39703   C 196.55854,425.51685 205.19848,452.63665 209.11845,480.39644   L 210.47844,479.91645   C 206.55847,452.63665 198.07853,426.07684 185.67862,401.19703   C 178.39868,386.63714 169.83874,371.83725 159.03882,359.59734   C 158.47883,358.87734 157.27883,359.75734 157.91883,360.39733   z " style="fill:#3870c0;fill-rule:evenodd;fill-opacity:1;stroke:none;"/><path id="path71" d="  M 210.15844,479.99644   C 210.15844,479.99644 212.55843,466.79654 233.83827,457.99661   C 233.83827,457.99661 227.75831,474.39649 210.15844,479.99644   z " style="fill:#3870c0;fill-rule:evenodd;fill-opacity:1;stroke:none;"/><path id="path73" d="  M 208.55846,469.91652   C 208.55846,469.91652 211.59843,455.35663 236.31825,445.1967   C 236.31825,445.1967 228.9583,463.35657 208.55846,469.91652   z " style="fill:#3870c0;fill-rule:evenodd;fill-opacity:1;stroke:none;"/><path id="path75" d="  M 206.87847,461.91658   C 206.87847,461.91658 207.91846,447.03669 230.87829,433.51679   C 230.87829,433.51679 226.15832,452.55665 206.87847,461.91658   z " style="fill:#3870c0;fill-rule:evenodd;fill-opacity:1;stroke:none;"/><path id="path77" d="  M 203.75849,453.19664   C 203.75849,453.19664 203.19849,438.23675 224.55834,422.39687   C 224.55834,422.39687 221.91836,441.75673 203.75849,453.19664   z " style="fill:#3870c0;fill-rule:evenodd;fill-opacity:1;stroke:none;"/><path id="path79" d="  M 200.63851,441.27673   C 200.63851,441.27673 200.31852,424.07686 225.91833,405.197   C 225.91833,405.197 222.23835,427.59683 200.63851,441.27673   z " style="fill:#3870c0;fill-rule:evenodd;fill-opacity:1;stroke:none;"/><path id="path81" d="  M 196.31855,429.27682   C 196.31855,429.27682 195.99855,411.43695 222.55835,391.8371   C 222.55835,391.8371 218.79838,415.11693 196.31855,429.27682   z " style="fill:#3870c0;fill-rule:evenodd;fill-opacity:1;stroke:none;"/><path id="path83" d="  M 193.43857,419.27689   C 193.43857,419.27689 190.31859,401.67702 213.43842,378.1572   C 213.43842,378.1572 213.35842,401.75702 193.43857,419.27689   z " style="fill:#3870c0;fill-rule:evenodd;fill-opacity:1;stroke:none;"/><path id="path85" d="  M 187.91861,406.39699   C 187.91861,406.39699 183.03864,391.1171 200.87851,367.27728   C 200.87851,367.27728 203.67849,388.39712 187.91861,406.39699   z " style="fill:#3870c0;fill-rule:evenodd;fill-opacity:1;stroke:none;"/><path id="path87" d="  M 180.95866,394.23708   C 180.95866,394.23708 177.11869,380.39718 194.07856,357.91735   C 194.07856,357.91735 195.75855,377.11721 180.95866,394.23708   z " style="fill:#3870c0;fill-rule:evenodd;fill-opacity:1;stroke:none;"/><path id="path89" d="  M 174.63871,382.15717   C 174.63871,382.15717 171.99873,370.47726 187.19861,350.4774   C 187.19861,350.4774 187.83861,366.87728 174.63871,382.15717   z " style="fill:#3870c0;fill-rule:evenodd;fill-opacity:1;stroke:none;"/><path id="path91" d="  M 169.83874,375.91722   C 169.83874,375.91722 166.15877,366.23729 176.31869,345.27744   C 176.31869,345.27744 178.95867,359.59734 169.83874,375.91722   z " style="fill:#3870c0;fill-rule:evenodd;fill-opacity:1;stroke:none;"/><path id="path93" d="  M 164.31878,366.95728   C 164.31878,366.95728 160.15881,358.95734 167.67876,343.27746   C 167.67876,343.27746 171.19873,354.71737 164.31878,366.95728   z " style="fill:#3870c0;fill-rule:evenodd;fill-opacity:1;stroke:none;"/><path id="path95" d="  M 160.15881,361.59732   C 160.15881,361.59732 148.8789,359.59734 146.95891,343.59745   C 146.95891,343.59745 159.75882,348.87742 160.15881,361.59732   z " style="fill:#3870c0;fill-rule:evenodd;fill-opacity:1;stroke:none;"/><path id="path97" d="  M 140.71896,359.99733   C 140.71896,359.99733 149.1189,356.79736 163.91879,365.99729   C 163.91879,365.99729 152.07887,368.23727 140.71896,359.99733   z " style="fill:#3870c0;fill-rule:evenodd;fill-opacity:1;stroke:none;"/><path id="path99" d="  M 210.23844,479.11645   C 210.23844,479.11645 199.91852,470.47651 177.91868,477.19647   C 177.91868,477.19647 193.03857,485.9964 210.23844,479.11645   z " style="fill:#3870c0;fill-rule:evenodd;fill-opacity:1;stroke:none;"/><path id="path101" d="  M 206.63847,462.07658   C 206.63847,462.07658 196.39855,451.19666 170.07874,455.35663   C 170.07874,455.35663 185.75862,467.03654 206.63847,462.07658   z " style="fill:#3870c0;fill-rule:evenodd;fill-opacity:1;stroke:none;"/><path id="path103" d="  M 204.31849,452.31665   C 204.31849,452.31665 195.35855,440.39674 168.71875,441.83673   C 168.71875,441.83673 183.11864,455.03663 204.31849,452.31665   z " style="fill:#3870c0;fill-rule:evenodd;fill-opacity:1;stroke:none;"/><path id="path105" d="  M 200.95851,440.55674   C 200.95851,440.55674 190.23859,427.11684 158.47883,428.87682   C 158.47883,428.87682 175.5987,443.83671 200.95851,440.55674   z " style="fill:#3870c0;fill-rule:evenodd;fill-opacity:1;stroke:none;"/><path id="path107" d="  M 196.63854,428.23683   C 196.63854,428.23683 185.51863,414.31693 152.63887,416.07692   C 152.63887,416.07692 170.31874,431.6768 196.63854,428.23683   z " style="fill:#3870c0;fill-rule:evenodd;fill-opacity:1;stroke:none;"/><path id="path109" d="  M 192.95857,418.5569   C 192.95857,418.5569 184.15864,403.03701 151.35888,399.51704   C 151.35888,399.51704 166.39877,417.75691 192.95857,418.5569   z " style="fill:#3870c0;fill-rule:evenodd;fill-opacity:1;stroke:none;"/><path id="path111" d="  M 187.27861,405.357   C 187.27861,405.357 179.59867,391.1971 150.07889,387.51713   C 150.07889,387.51713 163.35879,404.15701 187.27861,405.357   z " style="fill:#3870c0;fill-rule:evenodd;fill-opacity:1;stroke:none;"/><path id="path113" d="  M 180.39866,392.71709   C 180.39866,392.71709 174.55871,379.59719 147.19891,373.11724   C 147.19891,373.11724 158.07883,388.95712 180.39866,392.71709   z " style="fill:#3870c0;fill-rule:evenodd;fill-opacity:1;stroke:none;"/><path id="path115" d="  M 169.67874,375.43722   C 169.67874,375.43722 163.27879,367.27728 140.15896,365.19729   C 140.15896,365.19729 151.03888,374.79722 169.67874,375.43722   z " style="fill:#3870c0;fill-rule:evenodd;fill-opacity:1;stroke:none;"/><path id="path117" d="  M 208.79845,469.83652   C 208.79845,469.83652 197.11854,460.55659 171.67873,468.39653   C 171.67873,468.39653 188.8786,477.67646 208.79845,469.83652   z " style="fill:#3870c0;fill-rule:evenodd;fill-opacity:1;stroke:none;"/><path id="path119" d="  M 331.19755,582.87568   C 428.07683,582.87568 507.19624,577.43572 507.19624,570.71577   C 507.19624,564.07582 428.07683,558.63586 331.19755,558.63586   C 234.23826,558.63586 155.19885,564.07582 155.19885,570.71577   C 155.19885,577.43572 234.23826,582.87568 331.19755,582.87568   z " style="fill:#a7d5f0;fill-rule:evenodd;fill-opacity:1;stroke:none;"/><path id="path121" d="  M 443.51671,177.75868   L 443.51671,538.63601   C 443.51671,556.39588 429.11682,570.79577 411.35695,570.79577   L 252.71813,570.79577   C 234.95826,570.79577 220.55837,556.39588 220.55837,538.63601   L 220.55837,177.75868   C 220.55837,160.07881 234.95826,145.67892 252.71813,145.67892   L 411.35695,145.67892   C 429.11682,145.67892 443.51671,160.07881 443.51671,177.75868   z " style="fill:#5f91d3;fill-rule:evenodd;fill-opacity:1;stroke:none;"/><path id="path123" d="  M 434.79678,177.75868   C 434.79678,164.87878 424.31686,154.39886 411.35695,154.39886   L 252.71813,154.39886   C 239.75822,154.39886 229.2783,164.87878 229.2783,177.75868   L 229.2783,538.63601   C 229.2783,551.59591 239.75822,562.07584 252.71813,562.07584   L 411.35695,562.07584   C 424.31686,562.07584 434.79678,551.59591 434.79678,538.63601   L 434.79678,177.75868   z " style="fill:#e3f6f6;fill-rule:evenodd;fill-opacity:1;stroke:none;"/><path id="path125" d="  M 330.39755,504.07627   C 364.7173,504.07627 392.79709,499.1163 392.79709,493.11635   C 392.79709,487.03639 364.7173,482.07643 330.39755,482.07643   C 295.99781,482.07643 267.91802,487.03639 267.91802,493.11635   C 267.91802,499.1163 295.99781,504.07627 330.39755,504.07627   z " style="fill:#96b2e2;fill-rule:evenodd;fill-opacity:1;stroke:none;"/><path id="path127" d="  M 445.4367,296.5578   L 443.51671,296.5578   L 443.51671,211.43843   L 445.4367,211.43843   C 447.75668,211.43843 449.59667,213.27842 449.59667,215.5984   L 449.59667,292.31783   C 449.59667,294.63782 447.75668,296.5578 445.4367,296.5578   z " style="fill:#3971c1;fill-rule:evenodd;fill-opacity:1;stroke:none;"/><path id="path129" d="  M 220.55837,251.35814   L 218.79838,251.35814   C 216.6384,251.35814 214.87841,249.59815 214.87841,247.43817   L 214.87841,213.83842   C 214.87841,211.67843 216.6384,209.91845 218.79838,209.91845   L 220.55837,209.91845   L 220.55837,251.35814   z " style="fill:#3971c1;fill-rule:evenodd;fill-opacity:1;stroke:none;"/><path id="path131" d="  M 220.55837,296.5578   L 219.03838,296.5578   C 217.19839,296.5578 215.5984,295.03781 215.5984,293.11783   L 215.5984,274.47797   C 215.5984,272.55798 217.19839,271.03799 219.03838,271.03799   L 220.55837,271.03799   L 220.55837,296.5578   z " style="fill:#3971c1;fill-rule:evenodd;fill-opacity:1;stroke:none;"/><path id="path133" d="  M 279.43793,145.67892   L 384.79715,145.67892   L 384.79715,160.79881   C 384.79715,169.11875 377.9972,175.9187 369.67726,175.9187   L 294.55782,175.9187   C 286.23788,175.9187 279.43793,169.11875 279.43793,160.79881   L 279.43793,145.67892   z " style="fill:#5f91d3;fill-rule:evenodd;fill-opacity:1;stroke:none;"/><path id="path135" d="  M 309.59771,160.79881   C 309.59771,162.79879 307.99772,164.47878 305.99773,164.47878   C 303.91775,164.47878 302.31776,162.79879 302.31776,160.79881   C 302.31776,158.71882 303.91775,157.11884 305.99773,157.11884   C 307.99772,157.11884 309.59771,158.71882 309.59771,160.79881   z " style="fill:#374b9e;fill-rule:evenodd;fill-opacity:1;stroke:none;"/><path id="path137" d="  M 360.07733,163.43879   L 314.71767,163.43879   C 313.67768,163.43879 312.87768,162.6388 312.87768,161.5988   L 312.87768,159.91882   C 312.87768,158.95882 313.67768,158.07883 314.71767,158.07883   L 360.07733,158.07883   C 361.11733,158.07883 361.91732,158.95882 361.91732,159.91882   L 361.91732,161.5988   C 361.91732,162.6388 361.11733,163.43879 360.07733,163.43879   z " style="fill:#374b9e;fill-rule:evenodd;fill-opacity:1;stroke:none;"/><path id="path139" d="  M 210.31844,286.39788   C 213.99841,284.55789 219.27838,288.31786 222.15835,294.71782   C 224.23834,295.19781 225.67833,298.31779 225.43833,302.07776   C 225.19833,305.19774 223.83834,307.83772 222.15835,308.87771   C 221.75836,309.35771 221.19836,309.8377 220.63837,310.0777   C 216.87839,311.91769 211.59843,308.15772 208.71845,301.59777   C 205.91847,295.11781 206.55847,288.31786 210.31844,286.39788   z " style="fill:#fab89a;fill-rule:evenodd;fill-opacity:1;stroke:none;"/><path id="path141" d="  M 436.07677,333.43753   C 432.3968,331.59754 427.11684,335.27752 424.23686,341.75747   C 422.15687,342.15747 420.71688,345.27744 420.95688,349.03741   C 421.19688,352.15739 422.55687,354.79737 424.23686,355.83736   C 424.63685,356.39736 425.19685,356.79736 425.75685,357.11735   C 429.51682,358.95734 434.79678,355.11737 437.67676,348.63742   C 440.55674,342.07747 439.83674,335.27752 436.07677,333.43753   z " style="fill:#fab89a;fill-rule:evenodd;fill-opacity:1;stroke:none;"/><path id="path143" d="  M 320.95762,352.87739   L 294.23782,356.71736   C 260.31807,361.51732 236.39825,340.15748 225.19833,305.43774   C 221.99836,308.39772 218.23838,309.67771 213.83842,309.11771   C 219.27838,353.19738 244.63819,378.5572 289.03786,387.99713   C 290.07785,422.55687 291.99784,459.83659 291.11784,493.75634   C 315.75766,499.1963 340.79748,499.9163 366.15729,495.59633   C 363.27731,461.19658 363.9173,430.95681 367.11728,397.59705   C 378.5572,409.03697 399.59704,422.87687 407.03698,421.51688   C 420.15689,419.1169 427.11684,386.23714 431.27681,356.47736   C 426.39684,356.07736 423.03687,353.51738 420.95688,349.03741   C 415.91692,365.67729 409.99696,379.43719 403.51701,395.03707   C 379.83719,379.43719 370.95725,365.35729 343.99745,351.5974   L 320.95762,352.87739   z " style="fill:#3971c1;fill-rule:evenodd;fill-opacity:1;stroke:none;"/><path id="path145" d="  M 320.63762,339.67748   L 343.99745,339.67748   L 343.99745,351.5974   C 350.4774,357.99735 347.11743,362.87731 337.8375,362.39732   C 329.91756,361.99732 320.63762,359.19734 320.63762,349.83741   L 320.63762,339.67748   z " style="fill:#fab89a;fill-rule:evenodd;fill-opacity:1;stroke:none;"/><path id="path147" d="  M 320.63762,339.67748   L 343.99745,339.67748   L 343.99745,345.67744   L 324.2376,358.07735   C 321.99761,356.15736 320.63762,353.51738 320.63762,349.83741   L 320.63762,339.67748   z " style="fill:#f89f84;fill-rule:evenodd;fill-opacity:1;stroke:none;"/><path id="path149" d="  M 353.27738,293.99782   L 320.63762,339.67748   L 320.87762,344.71745   C 311.83769,332.07754 302.47776,329.51756 298.39779,315.99766   C 293.03783,298.23779 297.5178,282.9579 313.35768,277.27795   C 317.99764,275.59796 323.5176,278.87793 327.91757,276.55795   C 339.35749,270.398 344.31745,272.79798 345.27744,277.03795   C 346.95743,284.1579 358.79734,273.99797 362.23732,280.71792   C 365.67729,287.43787 361.59732,292.79783 353.27738,293.99782   z " style="fill:#374b9e;fill-rule:evenodd;fill-opacity:1;stroke:none;"/><path id="path151" d="  M 331.03755,296.9578   C 338.87749,297.99779 346.23744,297.0378 353.27738,293.99782   C 364.7973,313.27768 365.19729,340.47748 344.79745,345.67744   C 333.51753,348.55742 318.31764,344.23745 316.47766,330.55755   C 308.47771,329.75756 304.87774,316.71765 309.19771,313.27768   C 313.75768,309.75771 316.79765,316.39766 317.51765,320.23763   L 319.51763,319.67763   L 318.47764,309.27771   C 324.2376,306.71773 328.31757,302.55776 331.03755,296.9578   z " style="fill:#fab89a;fill-rule:evenodd;fill-opacity:1;stroke:none;"/><path id="path153" d="  M 331.03755,296.9578   C 338.87749,297.99779 346.23744,297.0378 353.27738,293.99782   C 347.59743,299.67778 340.63748,303.51775 331.83754,304.31775   C 322.31761,320.23763 326.95758,339.19749 348.15742,344.55745   C 347.11743,344.95744 345.99744,345.35744 344.79745,345.67744   C 333.51753,348.55742 318.31764,344.23745 316.47766,330.55755   C 308.47771,329.75756 304.87774,316.71765 309.19771,313.27768   C 313.75768,309.75771 316.79765,316.39766 317.51765,320.23763   L 319.51763,319.67763   L 318.47764,309.27771   C 324.2376,306.71773 328.31757,302.55776 331.03755,296.9578   z " style="fill:#f89f84;fill-rule:evenodd;fill-opacity:1;stroke:none;"/><path id="path155" d="  M 424.15686,335.99751   L 432.87679,333.99753   L 436.15677,348.23742   C 436.39677,349.35741 435.67677,350.4774 434.55678,350.7174   L 429.91682,351.75739   C 428.79682,351.99739 427.67683,351.3574 427.43683,350.23741   L 424.15686,335.99751   z " style="fill:#336bbd;fill-rule:evenodd;fill-opacity:1;stroke:none;"/><path id="path157" d="  M 415.51692,306.55773   C 435.43677,303.43775 452.15665,298.07779 461.59658,285.67788   L 481.11644,329.83756   L 468.07653,345.75744   C 449.43667,334.15752 435.99677,334.87752 418.8769,336.47751   C 410.71696,337.2775 403.35701,331.75754 402.47702,323.5976   L 402.47702,323.5976   C 402.15702,320.71762 402.63702,317.91765 403.83701,315.43766   L 403.83701,315.43766   C 403.83701,315.35766 403.91701,315.27766 403.91701,315.19767   L 403.99701,315.11767   C 404.23701,314.55767 404.557,313.99767 404.957,313.51768   L 404.957,313.51768   C 404.957,313.43768 405.037,313.35768 405.117,313.27768   L 405.117,313.19768   C 405.197,313.11768 405.197,313.03768 405.277,312.95768   L 405.277,312.95768   C 405.357,312.87768 405.437,312.79768 405.437,312.71768   L 405.517,312.71768   C 405.517,312.63768 405.597,312.55768 405.67699,312.47769   L 405.67699,312.39769   C 405.91699,312.07769 406.23699,311.75769 406.47699,311.51769   L 406.47699,311.43769   L 406.63699,311.27769   L 406.71699,311.19769   L 406.87699,311.0377   L 407.03698,310.9577   L 407.11698,310.7977   L 407.19698,310.7177   L 407.35698,310.5577   L 407.51698,310.4777   C 407.51698,310.3977 407.59698,310.3977 407.67698,310.3177   L 407.67698,310.2377   C 407.75698,310.2377 407.83698,310.1577 407.91698,310.1577   C 407.99698,310.0777 408.07698,309.9977 408.15698,309.9177   L 408.31698,309.75771   L 408.39697,309.67771   L 408.55697,309.59771   L 408.71697,309.51771   L 408.87697,309.35771   L 408.95697,309.27771   L 409.11697,309.19771   L 409.27697,309.11771   L 409.35697,308.95771   L 409.59697,308.87771   L 409.67697,308.79771   C 409.75696,308.79771 409.83696,308.71771 409.83696,308.71771   L 409.99696,308.63771   C 410.07696,308.55771 410.07696,308.55771 410.15696,308.47771   L 410.23696,308.47771   L 410.23696,308.47771   L 410.39696,308.39772   C 410.39696,308.31772 410.47696,308.31772 410.55696,308.23772   L 410.71696,308.23772   L 410.87696,308.07772   L 411.03696,308.07772   L 411.19695,307.91772   L 411.35695,307.91772   L 411.51695,307.83772   L 411.67695,307.75772   C 411.75695,307.67772 411.75695,307.67772 411.83695,307.67772   L 411.99695,307.59772   C 412.07695,307.59772 412.15695,307.51772 412.15695,307.51772   L 412.31695,307.43772   C 412.39695,307.43772 412.47694,307.43772 412.55694,307.35772   L 412.63694,307.35772   L 412.63694,307.35772   C 412.71694,307.27772 412.87694,307.27772 412.95694,307.19772   L 412.95694,307.19772   L 413.11694,307.19772   C 413.19694,307.11773 413.19694,307.11773 413.27694,307.11773   L 413.43694,307.03773   C 413.51694,307.03773 413.59694,307.03773 413.67694,307.03773   L 413.75694,306.95773   L 413.99693,306.87773   L 414.15693,306.87773   L 414.31693,306.79773   L 414.47693,306.79773   C 414.55693,306.79773 414.63693,306.71773 414.71693,306.71773   L 414.79693,306.71773   C 414.87693,306.71773 414.95693,306.63773 415.03693,306.63773   L 415.19692,306.63773   C 415.27692,306.63773 415.43692,306.55773 415.51692,306.55773   z " style="fill:#96b2e2;fill-rule:evenodd;fill-opacity:1;stroke:none;"/><path id="path159" d="  M 415.51692,306.55773   C 435.43677,303.43775 452.15665,298.07779 461.59658,285.67788   C 456.47662,301.11777 454.87663,316.47766 457.27661,331.83754   C 444.71671,329.19756 432.0768,329.27756 419.51689,330.79755   L 410.31696,308.39772   L 410.39696,308.39772   C 410.39696,308.31772 410.47696,308.31772 410.55696,308.23772   L 410.71696,308.23772   L 410.87696,308.07772   L 411.03696,308.07772   L 411.19695,307.91772   L 411.35695,307.91772   L 411.51695,307.83772   L 411.67695,307.75772   C 411.75695,307.67772 411.75695,307.67772 411.83695,307.67772   L 411.99695,307.59772   C 412.07695,307.59772 412.15695,307.51772 412.15695,307.51772   L 412.31695,307.43772   C 412.39695,307.43772 412.47694,307.43772 412.55694,307.35772   L 412.63694,307.35772   L 412.63694,307.35772   C 412.71694,307.27772 412.87694,307.27772 412.95694,307.19772   L 412.95694,307.19772   L 413.11694,307.19772   C 413.19694,307.11773 413.19694,307.11773 413.27694,307.11773   L 413.43694,307.03773   C 413.51694,307.03773 413.59694,307.03773 413.67694,307.03773   L 413.75694,306.95773   L 413.99693,306.87773   L 414.15693,306.87773   L 414.31693,306.79773   L 414.47693,306.79773   C 414.55693,306.79773 414.63693,306.71773 414.71693,306.71773   L 414.79693,306.71773   C 414.87693,306.71773 414.95693,306.63773 415.03693,306.63773   L 415.19692,306.63773   C 415.27692,306.63773 415.43692,306.55773 415.51692,306.55773   z " style="fill:#a4c1e9;fill-rule:evenodd;fill-opacity:1;stroke:none;"/><path id="path161" d="  M 415.51692,306.55773   C 416.63691,306.39773 417.67691,306.23773 418.7969,306.07773   C 417.9169,311.35769 417.8369,317.59765 418.5569,324.2376   C 419.0369,328.55757 419.83689,332.63754 420.87688,336.31751   C 420.15689,336.39751 419.51689,336.39751 418.8769,336.47751   C 410.71696,337.2775 403.35701,331.75754 402.47702,323.5976   L 402.47702,323.5976   C 401.51703,315.43766 407.43698,307.83772 415.51692,306.55773   z " style="fill:#3971c1;fill-rule:evenodd;fill-opacity:1;stroke:none;"/><path id="path163" d="  M 480.07644,262.07806   C 494.31634,260.47807 508.39623,282.31791 511.59621,310.8777   C 514.71619,339.43749 505.75625,363.8373 491.59636,365.43729   C 477.35646,367.03728 463.27657,345.11744 460.07659,316.55766   C 456.95662,288.07787 465.91655,263.59805 480.07644,262.07806   z " style="fill:#a4c1e9;fill-rule:evenodd;fill-opacity:1;stroke:none;"/><path id="path165" d="  M 480.47644,265.19804   C 492.87635,263.83805 505.43626,284.47789 508.39623,311.19769   C 511.35621,337.9975 503.67627,360.87733 491.19636,362.23732   C 478.79645,363.59731 466.23655,343.03746 463.27657,316.23766   C 460.31659,289.43786 467.99653,266.63802 480.47644,265.19804   z " style="fill:#96b2e2;fill-rule:evenodd;fill-opacity:1;stroke:none;"/><path id="path167" d="  M 480.87644,268.71801   C 492.15635,267.43802 503.51627,286.55788 506.23625,311.43769   C 509.03623,336.31751 502.15628,357.51735 490.79636,358.79734   C 479.51645,359.99733 468.15653,340.87747 465.35655,315.99766   C 462.63657,291.11784 469.51652,269.918 480.87644,268.71801   z " style="fill:#5f91d3;fill-rule:evenodd;fill-opacity:1;stroke:none;"/><path id="path169" d="  M 477.03647,350.3974   C 471.43651,342.63746 466.95654,330.31755 465.35655,315.99766   C 464.47656,307.51772 464.63656,299.43778 465.75655,292.47783   C 472.1565,292.31783 478.79645,305.27774 480.63644,321.99761   C 481.99643,334.15752 480.47644,344.95744 477.03647,350.3974   z " style="fill:#4d88cf;fill-rule:evenodd;fill-opacity:1;stroke:none;"/><path id="path171" d="  M 479.35645,310.8777   L 464.79656,307.27772   C 464.87656,310.0777 465.03656,313.03768 465.35655,315.99766   C 465.83655,319.99763 466.47654,323.8376 467.35654,327.51757   L 480.71644,322.63761   L 479.35645,310.8777   z " style="fill:#4556af;fill-rule:evenodd;fill-opacity:1;stroke:none;"/><path id="path173" d="  M 465.75655,319.03764   L 480.07644,316.79765   L 480.71644,322.63761   L 467.35654,327.51757   C 466.71654,324.79759 466.23655,321.99761 465.75655,319.03764   z " style="fill:#374b9e;fill-rule:evenodd;fill-opacity:1;stroke:none;"/><path id="path175" d="  M 479.35645,310.8777   C 481.03644,310.7177 482.63642,313.19768 482.95642,316.39766   C 483.35642,319.67763 482.31643,322.47761 480.63644,322.63761   C 479.03645,322.79761 477.35646,320.31763 477.03647,317.11765   C 476.63647,313.83768 477.67646,311.1177 479.35645,310.8777   z " style="fill:#96b2e2;fill-rule:evenodd;fill-opacity:1;stroke:none;"/><path id="path177" d="  M 420.31689,305.75774   C 419.43689,311.1177 419.27689,317.35765 420.07689,324.0776   C 420.55688,328.39757 421.35688,332.47754 422.39687,336.15751   C 421.83688,336.23751 421.35688,336.23751 420.87688,336.31751   C 419.83689,332.63754 419.0369,328.55757 418.5569,324.2376   C 417.8369,317.59765 417.9169,311.35769 418.7969,306.07773   C 419.27689,305.99773 419.75689,305.83773 420.31689,305.75774   z " style="fill:#374b9e;fill-rule:evenodd;fill-opacity:1;stroke:none;"/><path id="path179" d="  M 213.03842,242.6382   L 226.23832,260.87807   C 235.59825,273.83797 232.63828,291.99784 219.75837,301.35777   C 206.79847,310.7177 188.5586,307.83772 179.19867,294.87782   L 166.07877,276.63795   L 177.19869,268.55801   L 190.39859,286.79788   C 195.27855,293.59783 204.87848,295.11781 211.67843,290.23785   L 211.67843,290.23785   C 218.39838,285.27789 219.99837,275.75796 215.03841,268.95801   L 201.9185,250.71814   L 213.03842,242.6382   z " style="fill:#a4c1e9;fill-rule:evenodd;fill-opacity:1;stroke:none;"/><path id="path181" d="  M 166.31877,277.03795   L 157.35883,264.71804   L 168.55875,256.6381   L 177.43869,268.95801   L 166.31877,277.03795  z " style="fill:#374b9e;fill-rule:evenodd;fill-opacity:1;stroke:none;"/><path id="path183" d="  M 157.59883,264.71804   L 166.31877,276.79795   L 177.19869,268.87801   L 168.47875,256.8781   z  M 166.23877,277.27795   L 166.15877,277.11795   L 157.11884,264.63804   L 157.27883,264.55804   L 168.55875,256.3981   L 168.71875,256.4781   L 177.67868,268.95801   L 177.59868,269.11801   L 166.23877,277.27795  " style="fill:#3970c0;fill-rule:nonzero;fill-opacity:1;stroke:none;"/><path id="path185" d="  M 193.19857,238.71823   L 204.39849,230.71829   L 213.27842,243.0382   L 202.1585,251.11814   L 193.19857,238.71823  z " style="fill:#374b9e;fill-rule:evenodd;fill-opacity:1;stroke:none;"/><path id="path187" d="  M 519.91615,286.47788   L 521.19614,289.67785   L 552.55591,278.23794   L 548.23594,268.79801   L 519.91615,286.47788  z " style="fill:#a4c1e9;fill-rule:evenodd;fill-opacity:1;stroke:none;"/><path id="path189" d="  M 522.95613,308.71771   L 523.35612,314.71767   L 570.55577,321.51762   L 569.91578,307.59772   L 522.95613,308.71771  z " style="fill:#a4c1e9;fill-rule:evenodd;fill-opacity:1;stroke:none;"/><path id="path191" d="  M 520.79614,332.07754   L 518.87616,336.55751   L 543.27598,357.83735   L 547.83594,350.31741   L 520.79614,332.07754  z " style="fill:#a4c1e9;fill-rule:evenodd;fill-opacity:1;stroke:none;"/><path id="path193" d="  M 130.55903,336.71751   L 174.9587,336.71751   C 185.51863,336.71751 194.07856,345.27744 194.07856,355.83736   L 194.07856,394.55708   C 194.07856,405.117 185.51863,413.67694 174.9587,413.67694   L 130.55903,413.67694   C 120.07911,413.67694 111.43917,405.117 111.43917,394.55708   L 111.43917,355.83736   C 111.43917,345.27744 120.07911,336.71751 130.55903,336.71751   z " style="fill:#a4c1e9;fill-rule:evenodd;fill-opacity:1;stroke:none;"/><path id="path195" d="  M 131.43903,353.35738   L 174.07871,353.35738   C 177.43869,353.35738 180.23866,356.15736 180.23866,359.51734   L 180.23866,390.8771   C 180.23866,394.23708 177.43869,397.03706 174.07871,397.03706   L 131.43903,397.03706   C 128.07905,397.03706 125.27907,394.23708 125.27907,390.8771   L 125.27907,359.51734   C 125.27907,356.15736 128.07905,353.35738 131.43903,353.35738   z " style="fill:#ffffff;fill-rule:evenodd;fill-opacity:1;stroke:none;"/><path id="path197" d="  M 152.79887,377.9972   L 129.83904,357.83735   L 152.79887,372.47724   L 175.7587,357.83735   L 152.79887,377.9972  z " style="fill:#a4c1e9;fill-rule:evenodd;fill-opacity:1;stroke:none;"/><path id="path199" d="  M 460.23659,217.03839   C 479.03645,217.03839 494.47634,201.67851 494.47634,182.79865   C 494.47634,163.99879 479.03645,148.5589 460.23659,148.5589   C 441.35673,148.5589 425.99684,163.99879 425.99684,182.79865   C 425.99684,201.67851 441.35673,217.03839 460.23659,217.03839   z " style="fill:#a4c1e9;fill-rule:evenodd;fill-opacity:1;stroke:none;"/><path id="path201" d="  M 466.71654,171.27873   L 451.43666,178.15868   C 451.19666,178.07868 450.95666,177.83868 450.71666,177.67868   C 446.23669,174.79871 440.23674,178.15868 440.63674,183.67864   C 440.95673,187.91861 445.1967,190.55859 449.03667,189.4386   C 449.59667,189.1986 450.15667,188.9586 450.63666,188.6386   C 450.95666,188.4786 451.11666,188.31861 451.35666,188.15861   C 451.51666,187.99861 451.91665,187.59861 452.07665,187.51861   C 452.47665,187.67861 453.03664,187.99861 453.43664,188.31861   C 457.59661,190.63859 461.91658,192.87857 466.07655,195.19855   C 467.03654,195.67855 466.63654,195.43855 466.95654,196.47854   C 468.47653,201.9985 475.75648,202.8785 478.71645,198.23853   C 481.51643,193.83856 478.39646,188.31861 473.43649,188.15861   C 472.0765,188.15861 470.87651,188.4786 469.99652,189.0386   C 469.43652,189.3586 469.11653,189.5986 468.71653,189.99859   C 468.15653,190.55859 468.07653,190.79859 467.75654,191.19858   C 467.43654,191.11858 457.91661,185.83862 457.19661,185.43863   L 453.67664,183.51864   L 453.59664,181.91865   C 456.07662,180.79866 458.4766,179.67867 460.95659,178.55868   C 461.43658,178.39868 467.99653,175.2787 468.31653,175.2787   C 469.27652,176.23869 470.23652,176.95869 471.9965,177.35869   C 473.83649,177.75868 475.51648,177.19869 476.71647,176.47869   C 477.83646,175.7587 478.79645,174.71871 479.35645,173.27872   C 479.91645,171.75873 479.91645,169.83874 479.27645,168.31875   C 477.11647,163.67879 471.11651,163.11879 468.15653,166.87876   C 467.43654,167.75876 467.03654,168.71875 466.79654,169.83874   C 466.71654,170.39874 466.71654,170.79873 466.71654,171.27873   z " style="fill:#ffffff;fill-rule:evenodd;fill-opacity:1;stroke:none;"/><path id="path203" d="  M 139.83896,175.2787   L 228.47831,175.2787   C 239.11823,175.2787 247.75816,166.87876 247.75816,156.47884   C 247.75816,146.07892 239.11823,137.67898 228.47831,137.67898   C 224.55834,137.67898 220.95836,138.79897 217.91839,140.71896   C 218.31838,139.19897 218.47838,137.59898 218.47838,135.91899   C 218.47838,125.67907 210.15844,117.27913 199.83852,117.27913   C 194.79856,117.27913 190.23859,119.27912 186.87862,122.55909   C 185.43863,115.59914 179.27867,110.31918 171.91873,110.31918   C 163.51879,110.31918 156.63884,117.19913 156.63884,125.59907   C 156.63884,127.83905 157.11884,129.91904 157.99883,131.83902   C 157.67883,131.83902 157.35883,131.75902 157.03884,131.75902   C 149.51889,131.75902 143.35894,137.91898 143.35894,145.43892   C 143.35894,146.79891 143.59894,148.1589 143.99893,149.43889   C 142.71894,148.9589 141.27895,148.7989 139.83896,148.7989   C 132.55902,148.7989 126.55906,154.71885 126.55906,161.9988   C 126.55906,169.35875 132.55902,175.2787 139.83896,175.2787   z " style="fill:#a4c1e9;fill-rule:evenodd;fill-opacity:1;stroke:none;"/><path id="path205" d="  M 266.15803,215.9184   L 411.99695,215.9184   C 413.75694,215.9184 415.27692,217.43839 415.27692,219.19838   L 415.27692,219.19838   C 415.27692,221.03836 413.75694,222.47835 411.99695,222.47835   L 266.15803,222.47835   C 264.39804,222.47835 262.87805,221.03836 262.87805,219.19838   L 262.87805,219.19838   C 262.87805,217.43839 264.39804,215.9184 266.15803,215.9184   z " style="fill:#c2cdec;fill-rule:evenodd;fill-opacity:1;stroke:none;"/><path id="path207" d="  M 266.15803,234.31826   L 411.99695,234.31826   C 413.75694,234.31826 415.27692,235.75825 415.27692,237.59824   L 415.27692,237.59824   C 415.27692,239.35823 413.75694,240.87822 411.99695,240.87822   L 266.15803,240.87822   C 264.39804,240.87822 262.87805,239.35823 262.87805,237.59824   L 262.87805,237.59824   C 262.87805,235.75825 264.39804,234.31826 266.15803,234.31826   z " style="fill:#c2cdec;fill-rule:evenodd;fill-opacity:1;stroke:none;"/><path id="path209" d="  M 266.15803,252.71813   L 411.99695,252.71813   C 413.75694,252.71813 415.27692,254.15812 415.27692,255.9981   L 415.27692,255.9981   C 415.27692,257.75809 413.75694,259.27808 411.99695,259.27808   L 266.15803,259.27808   C 264.39804,259.27808 262.87805,257.75809 262.87805,255.9981   L 262.87805,255.9981   C 262.87805,254.15812 264.39804,252.71813 266.15803,252.71813   z " style="fill:#c2cdec;fill-rule:evenodd;fill-opacity:1;stroke:none;"/><path id="path211" d="  M 252.07813,215.9184   L 253.83812,215.9184   C 255.67811,215.9184 257.1181,217.43839 257.1181,219.19838   L 257.1181,219.19838   C 257.1181,221.03836 255.67811,222.47835 253.83812,222.47835   L 252.07813,222.47835   C 250.31815,222.47835 248.79816,221.03836 248.79816,219.19838   L 248.79816,219.19838   C 248.79816,217.43839 250.31815,215.9184 252.07813,215.9184   z " style="fill:#3971c1;fill-rule:evenodd;fill-opacity:1;stroke:none;"/><path id="path213" d="  M 252.07813,234.31826   L 253.83812,234.31826   C 255.67811,234.31826 257.1181,235.75825 257.1181,237.59824   L 257.1181,237.59824   C 257.1181,239.35823 255.67811,240.87822 253.83812,240.87822   L 252.07813,240.87822   C 250.31815,240.87822 248.79816,239.35823 248.79816,237.59824   L 248.79816,237.59824   C 248.79816,235.75825 250.31815,234.31826 252.07813,234.31826   z " style="fill:#3971c1;fill-rule:evenodd;fill-opacity:1;stroke:none;"/><path id="path215" d="  M 252.07813,252.71813   L 253.83812,252.71813   C 255.67811,252.71813 257.1181,254.15812 257.1181,255.9981   L 257.1181,255.9981   C 257.1181,257.75809 255.67811,259.27808 253.83812,259.27808   L 252.07813,259.27808   C 250.31815,259.27808 248.79816,257.75809 248.79816,255.9981   L 248.79816,255.9981   C 248.79816,254.15812 250.31815,252.71813 252.07813,252.71813   z " style="fill:#3971c1;fill-rule:evenodd;fill-opacity:1;stroke:none;"/><path id="path217" d="  M 266.15803,518.15616   L 411.99695,518.15616   C 413.75694,518.15616 415.27692,519.59615 415.27692,521.43614   L 415.27692,521.43614   C 415.27692,523.19612 413.75694,524.71611 411.99695,524.71611   L 266.15803,524.71611   C 264.39804,524.71611 262.87805,523.19612 262.87805,521.43614   L 262.87805,521.43614   C 262.87805,519.59615 264.39804,518.15616 266.15803,518.15616   z " style="fill:#c2cdec;fill-rule:evenodd;fill-opacity:1;stroke:none;"/><path id="path219" d="  M 266.15803,536.55603   L 411.99695,536.55603   C 413.75694,536.55603 415.27692,537.99601 415.27692,539.836   L 415.27692,539.836   C 415.27692,541.59599 413.75694,543.11598 411.99695,543.11598   L 266.15803,543.11598   C 264.39804,543.11598 262.87805,541.59599 262.87805,539.836   L 262.87805,539.836   C 262.87805,537.99601 264.39804,536.55603 266.15803,536.55603   z " style="fill:#c2cdec;fill-rule:evenodd;fill-opacity:1;stroke:none;"/><path id="path221" d="  M 252.07813,518.15616   L 253.83812,518.15616   C 255.67811,518.15616 257.1181,519.59615 257.1181,521.43614   L 257.1181,521.43614   C 257.1181,523.19612 255.67811,524.71611 253.83812,524.71611   L 252.07813,524.71611   C 250.31815,524.71611 248.79816,523.19612 248.79816,521.43614   L 248.79816,521.43614   C 248.79816,519.59615 250.31815,518.15616 252.07813,518.15616   z " style="fill:#3971c1;fill-rule:evenodd;fill-opacity:1;stroke:none;"/><path id="path223" d="  M 252.07813,536.55603   L 253.83812,536.55603   C 255.67811,536.55603 257.1181,537.99601 257.1181,539.836   L 257.1181,539.836   C 257.1181,541.59599 255.67811,543.11598 253.83812,543.11598   L 252.07813,543.11598   C 250.31815,543.11598 248.79816,541.59599 248.79816,539.836   L 248.79816,539.836   C 248.79816,537.99601 250.31815,536.55603 252.07813,536.55603   z " style="fill:#3971c1;fill-rule:evenodd;fill-opacity:1;stroke:none;"/><path id="path225" d="  M 417.9169,543.91597   L 521.27614,543.91597   C 528.47609,543.91597 534.39604,537.99601 534.39604,530.71607   L 534.39604,467.99653   C 534.39604,460.71659 528.47609,454.79663 521.27614,454.79663   L 417.9169,454.79663   C 410.63696,454.79663 404.717,460.71659 404.717,467.99653   L 404.717,530.71607   C 404.717,537.99601 410.63696,543.91597 417.9169,543.91597   z " style="fill:#a4c1e9;fill-rule:evenodd;fill-opacity:1;stroke:none;"/><path id="path227" d="  M 452.07665,482.95642   L 487.03639,499.3563   L 452.07665,515.75618   z " style="fill:#ffffff;fill-rule:evenodd;fill-opacity:1;stroke:none;"/><path id="path229" d="  M 156.63884,475.75648   L 175.4387,475.75648   L 180.23866,467.75654   C 180.95866,466.63654 181.43866,465.43655 183.91864,465.43655   L 193.27857,465.43655   L 202.6385,465.43655   C 205.03848,465.43655 205.59848,466.63654 206.23847,467.75654   L 211.03844,475.75648   L 229.8383,475.75648   C 233.67827,475.75648 236.79825,478.87645 236.79825,482.71642   L 236.79825,530.31607   C 236.79825,534.15604 233.67827,537.27602 229.8383,537.27602   L 156.63884,537.27602   C 152.79887,537.27602 149.67889,534.15604 149.67889,530.31607   L 149.67889,482.71642   C 149.67889,478.87645 152.79887,475.75648 156.63884,475.75648   z " style="fill:#a4c1e9;fill-rule:evenodd;fill-opacity:1;stroke:none;"/><path id="path231" d="  M 193.27857,526.6361   C 202.7985,526.6361 210.63844,518.79616 210.63844,509.27623   C 210.63844,499.6763 202.7985,491.83636 193.27857,491.83636   C 183.67864,491.83636 175.8387,499.6763 175.8387,509.27623   C 175.8387,518.79616 183.67864,526.6361 193.27857,526.6361   z " style="fill:#ffffff;fill-rule:evenodd;fill-opacity:1;stroke:none;"/><path id="path233" d="  M 102.39924,254.63811   C 97.839275,258.87808 97.519278,265.99803 101.75925,270.638   C 105.99921,275.27796 113.19916,275.59796 117.75913,271.35799   C 122.39909,267.11802 122.71909,259.91807 118.47912,255.27811   C 114.23915,250.63814 107.03921,250.39815 102.39924,254.63811   z  M 97.759276,249.51815   C 105.19922,242.6382 116.79913,243.1182 123.59908,250.55814   C 129.59904,257.1181 129.91904,266.87802 124.87907,273.75797   L 133.19901,282.8779   C 134.15901,283.8379 134.07901,285.51789 133.03901,286.39788   L 131.51903,287.83787   C 130.47903,288.79786 128.87905,288.71786 127.91905,287.67787   L 119.59911,278.63794   C 112.31917,283.1179 102.63924,281.91791 96.639284,275.35796   C 89.759335,267.91802 90.239332,256.3181 97.759276,249.51815   L 97.759276,249.51815   z " style="fill:#a4c1e9;fill-rule:evenodd;fill-opacity:1;stroke:none;"/><path id="path235" d="  M 486.2364,122.87909   C 484.95641,122.87909 483.99641,121.9191 483.99641,120.63911   L 483.99641,104.79922   C 483.99641,103.51923 484.95641,102.47924 486.2364,102.47924   C 487.51639,102.47924 488.47638,103.51923 488.47638,104.79922   L 488.47638,120.63911   C 488.47638,121.9191 487.51639,122.87909 486.2364,122.87909   z " style="fill:#94cff1;fill-rule:evenodd;fill-opacity:1;stroke:none;"/><path id="path237" d="  M 494.15634,114.95915   L 478.31646,114.95915   C 477.03647,114.95915 475.99647,113.91916 475.99647,112.71917   C 475.99647,111.43917 477.03647,110.47918 478.31646,110.47918   L 494.15634,110.47918   C 495.43633,110.47918 496.39632,111.43917 496.39632,112.71917   C 496.39632,113.91916 495.43633,114.95915 494.15634,114.95915   z " style="fill:#94cff1;fill-rule:evenodd;fill-opacity:1;stroke:none;"/><path id="path239" d="  M 521.19614,243.5182   C 520.07615,243.5182 519.19615,242.5582 519.19615,241.43821   L 519.19615,227.27832   C 519.19615,226.15832 520.07615,225.19833 521.19614,225.19833   C 522.31613,225.19833 523.19612,226.15832 523.19612,227.27832   L 523.19612,241.43821   C 523.19612,242.5582 522.31613,243.5182 521.19614,243.5182   z " style="fill:#94cff1;fill-rule:evenodd;fill-opacity:1;stroke:none;"/><path id="path241" d="  M 528.31609,236.39825   L 514.07619,236.39825   C 512.9562,236.39825 512.07621,235.43826 512.07621,234.31826   C 512.07621,233.27827 512.9562,232.31828 514.07619,232.31828   L 528.31609,232.31828   C 529.43608,232.31828 530.31607,233.27827 530.31607,234.31826   C 530.31607,235.43826 529.43608,236.39825 528.31609,236.39825   z " style="fill:#94cff1;fill-rule:evenodd;fill-opacity:1;stroke:none;"/><path id="path243" d="  M 216.1584,89.03934   C 215.03841,89.03934 214.15841,88.159347 214.15841,87.039355   L 214.15841,72.799461   C 214.15841,71.679469 215.03841,70.799476 216.1584,70.799476   C 217.27839,70.799476 218.15838,71.679469 218.15838,72.799461   L 218.15838,87.039355   C 218.15838,88.159347 217.27839,89.03934 216.1584,89.03934   z " style="fill:#94cff1;fill-rule:evenodd;fill-opacity:1;stroke:none;"/><path id="path245" d="  M 223.27835,81.919393   L 209.03845,81.919393   C 207.91846,81.919393 207.03847,81.0394 207.03847,79.919408   C 207.03847,78.799416 207.91846,77.919423 209.03845,77.919423   L 223.27835,77.919423   C 224.39834,77.919423 225.27833,78.799416 225.27833,79.919408   C 225.27833,81.0394 224.39834,81.919393 223.27835,81.919393   z " style="fill:#94cff1;fill-rule:evenodd;fill-opacity:1;stroke:none;"/><path id="path247" d="  M 85.119369,359.35734   C 83.999378,359.35734 83.039385,358.39735 83.039385,357.35735   L 83.039385,343.11746   C 83.039385,341.99747 83.999378,341.11747 85.119369,341.11747   C 86.239361,341.11747 87.119355,341.99747 87.119355,343.11746   L 87.119355,357.35735   C 87.119355,358.39735 86.239361,359.35734 85.119369,359.35734   z " style="fill:#94cff1;fill-rule:evenodd;fill-opacity:1;stroke:none;"/><path id="path249" d="  M 92.239317,352.23739   L 77.999422,352.23739   C 76.879431,352.23739 75.999437,351.3574 75.999437,350.23741   C 75.999437,349.11741 76.879431,348.15742 77.999422,348.15742   L 92.239317,348.15742   C 93.279309,348.15742 94.239302,349.11741 94.239302,350.23741   C 94.239302,351.3574 93.279309,352.23739 92.239317,352.23739   z " style="fill:#94cff1;fill-rule:evenodd;fill-opacity:1;stroke:none;"/><path id="path251" d="  M 321.35762,113.11916   C 321.35762,114.47915 320.31763,115.51914 318.95764,115.51914   C 317.67765,115.51914 316.55766,114.47915 316.55766,113.11916   C 316.55766,111.83917 317.67765,110.79918 318.95764,110.79918   C 320.31763,110.71918 321.35762,111.83917 321.35762,113.11916   z " style="fill:#94cff1;fill-rule:evenodd;fill-opacity:1;stroke:none;"/><path id="path253" d="  M 352.39739,91.919319   C 352.39739,93.999304 350.6374,95.679291 348.55742,95.679291   C 346.39743,95.679291 344.71745,93.999304 344.71745,91.919319   C 344.71745,89.759335 346.39743,88.079348 348.55742,88.079348   C 350.6374,88.079348 352.39739,89.759335 352.39739,91.919319   z " style="fill:#94cff1;fill-rule:evenodd;fill-opacity:1;stroke:none;"/><path id="path255" d="  M 303.51775,91.919319   C 303.51775,93.999304 301.83776,95.679291 299.67778,95.679291   C 297.5978,95.679291 295.91781,93.999304 295.91781,91.919319   C 295.91781,89.759335 297.5978,88.079348 299.67778,88.079348   C 301.83776,88.079348 303.51775,89.759335 303.51775,91.919319   z " style="fill:#94cff1;fill-rule:evenodd;fill-opacity:1;stroke:none;"/><path id="path257" d="  M 572.63576,366.07729   C 571.35577,366.39729 570.07578,365.59729 569.75578,364.3173   C 569.43578,363.03731 570.23578,361.75732 571.51577,361.43732   C 572.79576,361.11733 574.15575,361.91732 574.39575,363.19731   C 574.71574,364.4773 573.91575,365.75729 572.63576,366.07729   z " style="fill:#94cff1;fill-rule:evenodd;fill-opacity:1;stroke:none;"/><path id="path259" d="  M 600.31555,391.5171   C 598.23557,391.9971 596.23558,390.71711 595.75559,388.63712   C 595.27559,386.63714 596.55558,384.55715 598.55557,384.07715   C 600.63555,383.59716 602.71554,384.87715 603.19553,386.95713   C 603.67553,388.95712 602.39554,391.0371 600.31555,391.5171   z " style="fill:#94cff1;fill-rule:evenodd;fill-opacity:1;stroke:none;"/><path id="path261" d="  M 589.27563,343.91745   C 587.27565,344.39745 585.19567,343.11746 584.71567,341.03747   C 584.23567,339.03749 585.51566,336.9575 587.59565,336.47751   C 589.67563,335.99751 591.67562,337.2775 592.15561,339.35749   C 592.63561,341.43747 591.35562,343.43746 589.27563,343.91745   z " style="fill:#94cff1;fill-rule:evenodd;fill-opacity:1;stroke:none;"/><path id="path263" d="  M 537.75602,196.87854   C 536.47603,197.19854 535.19604,196.31855 534.87604,195.03856   C 534.55604,193.75856 535.35603,192.47857 536.63602,192.23858   C 537.91602,191.91858 539.27601,192.71857 539.516,193.99856   C 539.836,195.27855 539.03601,196.55854 537.75602,196.87854   z " style="fill:#94cff1;fill-rule:evenodd;fill-opacity:1;stroke:none;"/><path id="path265" d="  M 565.43581,222.31835   C 563.35583,222.79835 561.35584,221.51836 560.87585,219.43837   C 560.39585,217.35839 561.67584,215.3584 563.67582,214.87841   C 565.75581,214.39841 567.83579,215.6784 568.31579,217.67839   C 568.79579,219.75837 567.5158,221.83836 565.43581,222.31835   z " style="fill:#94cff1;fill-rule:evenodd;fill-opacity:1;stroke:none;"/><path id="path267" d="  M 554.39589,174.71871   C 552.39591,175.1987 550.31592,173.91871 549.83593,171.83873   C 549.35593,169.75874 550.63592,167.75876 552.71591,167.27876   C 554.79589,166.79876 556.79588,168.07875 557.27587,170.15874   C 557.75587,172.15872 556.47588,174.23871 554.39589,174.71871   z " style="fill:#94cff1;fill-rule:evenodd;fill-opacity:1;stroke:none;"/><path id="path269" d="  M 125.75907,218.55838   C 124.63908,218.55838 123.75908,217.67839 123.75908,216.5584   L 123.75908,202.3185   C 123.75908,201.19851 124.63908,200.31852 125.75907,200.31852   C 126.87906,200.31852 127.75905,201.19851 127.75905,202.3185   L 127.75905,216.5584   C 127.75905,217.67839 126.87906,218.55838 125.75907,218.55838   z " style="fill:#94cff1;fill-rule:evenodd;fill-opacity:1;stroke:none;"/><path id="path271" d="  M 132.87902,211.43843   L 118.63912,211.43843   C 117.51913,211.43843 116.63914,210.55844 116.63914,209.43845   C 116.63914,208.31846 117.51913,207.43846 118.63912,207.43846   L 132.87902,207.43846   C 133.99901,207.43846 134.879,208.31846 134.879,209.43845   C 134.879,210.55844 133.99901,211.43843 132.87902,211.43843   z " style="fill:#94cff1;fill-rule:evenodd;fill-opacity:1;stroke:none;"/><path id="path273" d="  M 169.27875,211.83843   C 169.27875,213.19842 168.15875,214.23841 166.87876,214.23841   C 165.51877,214.23841 164.47878,213.19842 164.47878,211.83843   C 164.47878,210.55844 165.51877,209.43845 166.87876,209.43845   C 168.15875,209.43845 169.27875,210.55844 169.27875,211.83843   z " style="fill:#94cff1;fill-rule:evenodd;fill-opacity:1;stroke:none;"/><path id="path275" d="  M 200.23852,190.55859   C 200.23852,192.71857 198.55853,194.39856 196.39855,194.39856   C 194.31856,194.39856 192.63857,192.71857 192.63857,190.55859   C 192.63857,188.4786 194.31856,186.79862 196.39855,186.79862   C 198.55853,186.79862 200.23852,188.4786 200.23852,190.55859   z " style="fill:#94cff1;fill-rule:evenodd;fill-opacity:1;stroke:none;"/><path id="path277" d="  M 151.35888,190.55859   C 151.35888,192.71857 149.67889,194.39856 147.59891,194.39856   C 145.43892,194.39856 143.75894,192.71857 143.75894,190.55859   C 143.75894,188.4786 145.43892,186.79862 147.59891,186.79862   C 149.67889,186.79862 151.35888,188.4786 151.35888,190.55859   z " style="fill:#94cff1;fill-rule:evenodd;fill-opacity:1;stroke:none;"/><path id="path279" d="  M 74.399449,307.43772   C 74.399449,309.51771 72.639462,311.27769 70.559477,311.27769   C 68.479493,311.27769 66.719506,309.51771 66.719506,307.43772   C 66.719506,305.35774 68.479493,303.59775 70.559477,303.59775   C 72.639462,303.59775 74.399449,305.35774 74.399449,307.43772   z " style="fill:#94cff1;fill-rule:evenodd;fill-opacity:1;stroke:none;"/><path id="path281" d="  M 73.199458,418.0769   C 73.999452,419.1169 73.759454,420.63688 72.719461,421.43688   C 71.679469,422.23687 70.15948,421.99687 69.359486,420.87688   C 68.559492,419.83689 68.79949,418.3169 69.919482,417.59691   C 70.959474,416.79691 72.479463,417.03691 73.199458,418.0769   z " style="fill:#94cff1;fill-rule:evenodd;fill-opacity:1;stroke:none;"/><path id="path283" d="  M 85.679365,382.63717   C 86.959356,384.31715 86.559359,386.71714 84.879371,387.91713   C 83.199384,389.19712 80.799401,388.79712 79.519411,387.11713   C 78.31942,385.43714 78.639417,383.03716 80.319405,381.75717   C 82.079392,380.55718 84.479374,380.87718 85.679365,382.63717   z " style="fill:#94cff1;fill-rule:evenodd;fill-opacity:1;stroke:none;"/><path id="path285" d="  M 46.239657,411.43695   C 47.519648,413.19694 47.119651,415.59692 45.439663,416.79691   C 43.759676,418.0769 41.359694,417.67691 40.079703,415.99692   C 38.879712,414.31693 39.279709,411.91695 40.959697,410.63696   C 42.639684,409.43697 45.039666,409.75696 46.239657,411.43695   z " style="fill:#94cff1;fill-rule:evenodd;fill-opacity:1;stroke:none;"/><path id="path287" d="  M 154.47886,318.71764   C 153.35886,318.71764 152.47887,317.83765 152.47887,316.71765   L 152.47887,302.47776   C 152.47887,301.35777 153.35886,300.47777 154.47886,300.47777   C 155.59885,300.47777 156.47884,301.35777 156.47884,302.47776   L 156.47884,316.71765   C 156.47884,317.83765 155.59885,318.71764 154.47886,318.71764   z " style="fill:#94cff1;fill-rule:evenodd;fill-opacity:1;stroke:none;"/><path id="path289" d="  M 161.5988,311.59769   L 147.35891,311.59769   C 146.23892,311.59769 145.35892,310.7177 145.35892,309.59771   C 145.35892,308.47771 146.23892,307.59772 147.35891,307.59772   L 161.5988,307.59772   C 162.71879,307.59772 163.59879,308.47771 163.59879,309.59771   C 163.59879,310.7177 162.71879,311.59769 161.5988,311.59769   z " style="fill:#94cff1;fill-rule:evenodd;fill-opacity:1;stroke:none;"/><path id="path291" d="  M 617.03543,289.99785   C 615.99544,289.99785 615.03544,289.11786 615.03544,287.99787   L 615.03544,273.75797   C 615.03544,272.63798 615.99544,271.75799 617.03543,271.75799   C 618.15542,271.75799 619.11541,272.63798 619.11541,273.75797   L 619.11541,287.99787   C 619.11541,289.11786 618.15542,289.99785 617.03543,289.99785   z " style="fill:#94cff1;fill-rule:evenodd;fill-opacity:1;stroke:none;"/><path id="path293" d="  M 624.15538,282.8779   L 609.99548,282.8779   C 608.87549,282.8779 607.9155,281.99791 607.9155,280.87792   C 607.9155,279.75793 608.87549,278.87793 609.99548,278.87793   L 624.15538,278.87793   C 625.27537,278.87793 626.23536,279.75793 626.23536,280.87792   C 626.23536,281.99791 625.27537,282.8779 624.15538,282.8779   z " style="fill:#94cff1;fill-rule:evenodd;fill-opacity:1;stroke:none;"/><path id="path295" d="  M 45.039666,264.63804   C 43.919675,264.63804 42.959682,263.75805 42.959682,262.63805   L 42.959682,248.47816   C 42.959682,247.35817 43.919675,246.39817 45.039666,246.39817   C 46.079659,246.39817 47.039652,247.35817 47.039652,248.47816   L 47.039652,262.63805   C 47.039652,263.75805 46.079659,264.63804 45.039666,264.63804   z " style="fill:#94cff1;fill-rule:evenodd;fill-opacity:1;stroke:none;"/><path id="path297" d="  M 52.079614,257.59809   L 37.919719,257.59809   C 36.799727,257.59809 35.839735,256.6381 35.839735,255.51811   C 35.839735,254.39812 36.799727,253.51812 37.919719,253.51812   L 52.079614,253.51812   C 53.199606,253.51812 54.159599,254.39812 54.159599,255.51811   C 54.159599,256.6381 53.199606,257.59809 52.079614,257.59809   z " style="fill:#94cff1;fill-rule:evenodd;fill-opacity:1;stroke:none;"/></g></svg>