<?xml version="1.0" encoding="utf-8"?>
<svg id="master-artboard" viewBox="0 0 293.4349365234375 439.5845642089844" xmlns="http://www.w3.org/2000/svg" width="293.4349365234375px" height="439.5845642089844px" version="1.1" style="shape-rendering:geometricPrecision; text-rendering:geometricPrecision; image-rendering:optimizeQuality; fill-rule:evenodd; clip-rule:evenodd"><defs><pattern y="0" x="0" height="6" width="6" patternUnits="userSpaceOnUse" id="EMFhbasepattern"/></defs><rect id="ee-background" x="0" y="0" width="293.4349365234375" height="439.5845642089844" style="fill: white; fill-opacity: 0; pointer-events: none;"/>
 
 <metadata id="CorelCorpID_0Corel-Layer"/>
<path id="path201" d="  M 212.39843,636.63528   L 281.67791,636.63528   L 281.67791,359.03734   L 212.39843,359.03734   z " style="fill:#eaeae8;fill-rule:nonzero;fill-opacity:1;stroke:none;" transform="matrix(1.4649248123168945, 0, 0, 1.4649248123168945, -117.73243713378906, -493.7336540222168)"/><path id="path203" d="  M 128.55905,382.87716   C 124.39908,376.31721 123.91908,366.47729 130.23904,357.75735   C 133.99901,352.55739 139.51897,347.19743 145.67892,348.95742   C 150.07889,350.23741 153.19887,354.31738 157.51883,355.59737   C 161.4388,356.79736 165.91877,355.35737 168.47875,352.15739   C 171.03873,348.95742 171.35873,344.63745 171.67873,340.55748   C 178.87867,342.47746 183.27864,351.83739 180.71866,358.79734   C 178.15868,365.75729 169.51874,369.59726 162.4788,367.27728   C 157.43883,365.59729 153.43886,361.35732 148.1589,360.79733   C 143.83893,360.23733 139.51897,362.47731 136.47899,365.67729   C 133.51901,368.79727 129.99904,377.9172 128.55905,382.87716   z " style="fill:#271917;fill-rule:nonzero;fill-opacity:1;stroke:none;" transform="matrix(1.4649248123168945, 0, 0, 1.4649248123168945, -117.73243713378906, -493.7336540222168)"/><path id="path205" d="  M 118.79912,379.35719   C 120.47911,376.39721 123.75908,374.79722 126.79906,373.27723   C 127.91905,372.71724 129.03904,372.15724 130.31903,371.91725   C 132.23902,371.59725 134.15901,372.07724 135.91899,372.87724   C 137.67898,373.67723 139.27897,374.87722 140.79896,376.07721   C 139.67897,379.83719 136.55899,383.19716 132.87902,384.55715   C 130.31903,385.51714 127.43906,385.91714 124.79908,385.27715   C 122.1591,384.63715 119.83911,381.91717 118.79912,379.35719   z " style="fill:#772519;fill-rule:nonzero;fill-opacity:1;stroke:none;" transform="matrix(1.4649248123168945, 0, 0, 1.4649248123168945, -117.73243713378906, -493.7336540222168)"/><path id="path207" d="  M 99.439263,379.59719   C 92.159317,389.11712 99.439263,403.11701 96.399286,414.71693   C 94.639299,421.59688 89.199339,427.43683 89.199339,434.47678   C 89.199339,439.11675 91.439323,443.35672 92.639314,447.83668   C 94.5593,454.79663 93.599307,462.39657 90.239332,468.71653   C 89.439337,470.15652 88.559344,471.51651 88.479345,473.1165   C 88.319346,477.51646 94.159303,479.43645 98.479271,478.79645   C 102.79924,478.07646 107.4392,476.31647 111.27918,478.39646   C 113.59916,479.75645 115.03915,482.23643 117.43913,483.35642   C 123.35909,485.9964 128.71905,478.79645 134.799,476.47647   C 141.11895,474.15649 147.9989,477.43646 154.55886,479.19645   C 161.8388,481.19644 169.67874,481.19644 176.95869,479.27645   C 184.39863,477.27646 192.39857,471.19651 191.03858,463.51657   C 190.39859,459.83659 187.67861,456.79662 186.95862,453.11664   C 185.27863,445.2767 192.95857,436.87676 189.2786,429.75682   C 187.59861,426.55684 184.07864,424.71685 182.31865,421.59688   C 179.67867,416.95691 181.67865,411.27695 181.59865,405.91699   C 181.43866,398.23705 176.95869,391.4371 172.55872,385.19715   C 169.43874,380.63718 166.23877,376.07721 161.9188,372.55724   C 157.67883,369.11727 152.07887,366.87728 146.63891,367.91727   C 141.03896,368.87727 136.55899,373.03724 131.59903,375.83722   C 127.19906,378.2372 122.1591,377.11721 117.19913,376.07721   C 110.71918,374.71722 104.31923,373.27723 99.439263,379.59719   z " style="fill:#271917;fill-rule:nonzero;fill-opacity:1;stroke:none;" transform="matrix(1.4649248123168945, 0, 0, 1.4649248123168945, -117.73243713378906, -493.7336540222168)"/><path id="path209" d="  M 136.15899,572.87576   C 135.599,545.11596 144.31893,523.91612 138.31898,497.59631   C 137.19898,492.31635 132.39902,478.63645 127.83905,475.75648   C 122.1591,477.75646 117.03913,487.75639 114.39915,497.59631   C 112.79916,503.43627 108.79919,569.75578 113.99916,582.95568   C 118.15912,593.4356 180.63866,615.11544 212.31843,619.51541   L 212.31843,608.1555   C 187.67861,601.11555 160.15881,581.91569 136.15899,572.87576   z " style="fill:#f38790;fill-rule:nonzero;fill-opacity:1;stroke:none;" transform="matrix(1.4649248123168945, 0, 0, 1.4649248123168945, -117.73243713378906, -493.7336540222168)"/><path id="path211" d="  M 136.23899,564.31582   C 136.23899,564.31582 127.51906,565.51581 124.47908,555.59588   C 121.4391,545.67596 126.23906,495.83633 126.23906,495.83633   L 139.19897,501.91628   C 139.19897,501.91628 142.39895,517.83616 139.83896,528.39609   C 137.27898,538.95601 136.23899,564.31582 136.23899,564.31582   z " style="fill:#dd6579;fill-rule:nonzero;fill-opacity:1;stroke:none;" transform="matrix(1.4649248123168945, 0, 0, 1.4649248123168945, -117.73243713378906, -493.7336540222168)"/><path id="path213" d="  M 212.31843,496.47632   C 191.19858,493.83634 185.99862,471.19651 174.8787,450.31666   C 152.71887,458.4766 135.439,466.95654 127.83905,475.75648   C 120.23911,484.71641 123.35909,530.07607 125.35907,544.55597   C 126.39906,551.91591 142.95894,563.99582 161.8388,564.39582   C 186.71862,564.87582 198.39853,586.63565 212.31843,598.55557   L 212.31843,496.47632   z " style="fill:#edc5a6;fill-rule:nonzero;fill-opacity:1;stroke:none;" transform="matrix(1.4649248123168945, 0, 0, 1.4649248123168945, -117.73243713378906, -493.7336540222168)"/><path id="path215" d="  M 205.27848,502.71628   C 204.07849,502.71628 202.8785,502.71628 201.67851,502.63628   C 201.03851,502.55628 200.31852,502.55628 199.75852,502.23628   C 199.19852,501.91628 198.79853,501.27629 198.87853,500.63629   C 198.95853,500.0763 199.43852,499.5963 199.99852,499.4363   C 200.47851,499.2763 200.95851,499.2763 201.43851,499.2763   C 201.51851,499.2763 201.67851,499.2763 201.75851,499.2763   L 201.75851,499.2763   C 205.35848,499.2763 208.95845,498.63631 212.31843,497.43632   L 212.31843,502.23628   C 209.99844,502.55628 207.59846,502.71628 205.27848,502.71628   z " style="fill:#d7b395;fill-rule:nonzero;fill-opacity:1;stroke:none;" transform="matrix(1.4649248123168945, 0, 0, 1.4649248123168945, -117.73243713378906, -493.7336540222168)"/><path id="path217" d="  M 180.55866,564.63582   C 176.95869,564.63582 172.55872,563.27583 169.67874,562.55583   C 174.15871,561.19584 179.43867,557.67587 181.51866,553.4359   C 183.59864,549.11593 185.43863,544.47597 189.1186,541.51599   C 192.47857,538.87601 197.19854,537.67602 199.27852,533.91605   C 199.99852,532.71605 200.23852,531.27606 200.63851,529.83608   C 201.59851,526.5561 203.19849,523.35612 205.11848,520.47614   C 205.19848,520.39615 205.35848,520.39615 205.43848,520.39615   C 206.63847,520.39615 207.75846,521.35614 208.23846,522.47613   C 208.79845,523.67612 208.71845,525.11611 208.63845,526.3961   C 208.31846,531.91606 207.11847,537.67602 203.19849,541.59599   C 200.15852,544.63597 195.83855,546.15595 193.19857,549.51593   C 189.67859,553.8359 189.4386,560.71585 184.71863,563.67582   C 183.59864,564.39582 182.15865,564.63582 180.55866,564.63582   z " style="fill:#d7b395;fill-rule:nonzero;fill-opacity:1;stroke:none;" transform="matrix(1.4649248123168945, 0, 0, 1.4649248123168945, -117.73243713378906, -493.7336540222168)"/><path id="path219" d="  M 150.39889,497.27632   C 147.8389,497.03632 145.59892,497.19632 143.19894,495.99633   C 140.95896,494.87633 139.11897,493.03635 137.75898,490.87636   C 134.879,486.3164 134.639,480.95644 133.75901,475.83648   C 133.67901,475.11648 132.47902,475.27648 132.47902,475.99647   C 132.71902,482.07643 133.83901,489.11638 137.99898,493.83634   C 140.71896,496.95632 146.39892,500.39629 150.55888,497.83631   C 150.79888,497.67631 150.63888,497.27632 150.39889,497.27632   z " style="fill:#1b1e43;fill-rule:nonzero;fill-opacity:1;stroke:none;" transform="matrix(1.4649248123168945, 0, 0, 1.4649248123168945, -117.73243713378906, -493.7336540222168)"/><path id="path221" d="  M 164.47878,479.99644   C 162.71879,485.19641 159.99881,489.91637 156.23884,493.91634   C 155.67885,494.47634 156.47884,495.27633 157.03884,494.79633   C 161.27881,490.79636 163.99879,485.7564 164.79878,480.07644   C 164.79878,479.83645 164.55878,479.75645 164.47878,479.99644   z " style="fill:#1b1e43;fill-rule:nonzero;fill-opacity:1;stroke:none;" transform="matrix(1.4649248123168945, 0, 0, 1.4649248123168945, -117.73243713378906, -493.7336540222168)"/><path id="path223" d="  M 206.87847,503.03627   C 201.03851,502.95627 195.59855,502.07628 190.39859,499.1963   C 185.11863,496.23632 181.75865,492.07635 178.23868,487.27639   C 177.99868,486.95639 177.19869,487.11639 177.43869,487.67639   C 181.43866,498.55631 195.59855,505.91625 206.87847,504.39626   C 207.67846,504.31626 207.75846,503.11627 206.87847,503.03627   z " style="fill:#1b1e43;fill-rule:nonzero;fill-opacity:1;stroke:none;" transform="matrix(1.4649248123168945, 0, 0, 1.4649248123168945, -117.73243713378906, -493.7336540222168)"/><path id="path225" d="  M 213.19842,501.99628   C 212.39843,501.83628 211.51843,502.07628 210.71844,502.23628   C 209.91845,502.47628 210.23844,503.59627 211.03844,503.43627   C 211.83843,503.19627 212.71842,503.03627 213.35842,502.47628   C 213.51842,502.31628 213.43842,502.07628 213.19842,501.99628   z " style="fill:#1b1e43;fill-rule:nonzero;fill-opacity:1;stroke:none;" transform="matrix(1.4649248123168945, 0, 0, 1.4649248123168945, -117.73243713378906, -493.7336540222168)"/><path id="path227" d="  M 205.35848,520.07615   C 202.7985,523.99612 201.9185,528.87608 199.27852,532.79605   C 196.07855,537.59602 191.03858,539.436 187.03861,543.35598   C 183.83864,546.47595 182.55865,550.87592 180.39866,554.71589   C 177.19869,560.31585 171.91873,562.87583 165.59877,563.35583   C 165.03878,563.35583 165.03878,564.15582 165.59877,564.23582   C 170.39874,564.79582 175.3587,562.87583 178.71868,559.51586   C 182.71865,555.59588 183.67864,549.83593 187.19861,545.59596   C 190.87859,541.19599 196.63854,539.356 200.07852,534.55604   C 202.9585,530.63607 205.67848,525.11611 205.99847,520.23615   C 205.99847,519.91615 205.51848,519.83615 205.35848,520.07615   z " style="fill:#1b1e43;fill-rule:nonzero;fill-opacity:1;stroke:none;" transform="matrix(1.4649248123168945, 0, 0, 1.4649248123168945, -117.73243713378906, -493.7336540222168)"/><path id="path229" d="  M 160.47881,538.87601   C 160.47881,538.63601 160.31881,538.39601 160.07881,538.31601   C 159.35882,535.35603 159.19882,532.39606 159.27882,529.27608   C 159.27882,528.23609 157.59883,527.99609 157.35883,529.03608   C 156.71884,532.71605 157.11884,536.39603 158.07883,539.916   C 158.31883,540.87599 159.75882,541.19599 160.15881,540.236   C 160.39881,539.756 160.55881,539.436 160.47881,538.87601   z " style="fill:#1b1e43;fill-rule:nonzero;fill-opacity:1;stroke:none;" transform="matrix(1.4649248123168945, 0, 0, 1.4649248123168945, -117.73243713378906, -493.7336540222168)"/><path id="path231" d="  M 165.91877,534.71604   C 165.75877,534.31604 165.35878,534.07604 165.11878,533.75605   C 164.79878,533.43605 164.55878,533.03605 164.47878,532.55606   C 164.31878,531.83606 163.19879,531.99606 163.19879,532.71605   C 163.19879,533.83605 164.31878,535.99603 165.75877,535.27603   C 165.99877,535.19604 165.99877,534.87604 165.91877,534.71604   z " style="fill:#1b1e43;fill-rule:nonzero;fill-opacity:1;stroke:none;" transform="matrix(1.4649248123168945, 0, 0, 1.4649248123168945, -117.73243713378906, -493.7336540222168)"/><path id="path233" d="  M 205.83848,570.87577   C 205.75848,569.51578 205.67848,568.07579 205.43848,566.6358   C 205.35848,565.83581 204.07849,565.75581 204.07849,566.6358   C 204.07849,568.15579 204.15849,569.67578 204.23849,571.19577   C 204.23849,572.47576 204.15849,573.75575 204.71848,574.87574   C 204.95848,575.35574 205.67848,575.19574 205.83848,574.71574   C 206.23847,573.51575 205.91847,572.15576 205.83848,570.87577   z " style="fill:#1b1e43;fill-rule:nonzero;fill-opacity:1;stroke:none;" transform="matrix(1.4649248123168945, 0, 0, 1.4649248123168945, -117.73243713378906, -493.7336540222168)"/><path id="path235" d="  M 194.55856,501.03629   C 194.39856,501.03629 194.31856,500.95629 194.15856,500.95629   C 193.75856,500.79629 193.35857,500.63629 192.95857,500.47629   C 189.1986,498.47631 181.75865,491.27636 178.63868,487.83639   C 178.47868,487.67639 178.39868,487.43639 178.23868,487.27639   C 178.15868,487.19639 178.07868,487.19639 177.99868,487.11639   C 177.59868,486.6364 177.27869,486.3164 177.11869,486.0764   C 175.5187,483.59642 167.51876,466.71654 173.19872,466.39655   C 175.5987,478.63645 182.87865,489.83637 193.19857,496.87632   C 194.47856,497.75631 195.99855,499.2763 195.27855,500.63629   C 195.11855,500.87629 194.87856,501.03629 194.55856,501.03629   z " style="fill:#d7b395;fill-rule:nonzero;fill-opacity:1;stroke:none;" transform="matrix(1.4649248123168945, 0, 0, 1.4649248123168945, -117.73243713378906, -493.7336540222168)"/><path id="path237" d="  M 194.15856,500.95629   C 193.83856,500.87629 193.43857,500.71629 192.95857,500.47629   C 193.35857,500.63629 193.75856,500.79629 194.15856,500.95629   z  M 178.63868,487.83639   C 178.39868,487.59639 178.15868,487.35639 177.99868,487.11639   C 178.07868,487.19639 178.15868,487.19639 178.23868,487.27639   C 178.39868,487.43639 178.47868,487.67639 178.63868,487.83639   z " style="fill:#22274d;fill-rule:nonzero;fill-opacity:1;stroke:none;" transform="matrix(1.4649248123168945, 0, 0, 1.4649248123168945, -117.73243713378906, -493.7336540222168)"/><path id="path239" d="  M 212.31843,496.47632   L 212.31843,484.07641   C 212.31843,484.07641 201.75851,476.71647 197.43854,464.07656   L 212.31843,458.4766   L 212.31843,432.1568   C 212.31843,432.1568 170.07874,446.87669 172.47872,454.55663   C 172.47872,454.55663 180.31866,505.51626 212.31843,496.47632   z " style="fill:#f38790;fill-rule:nonzero;fill-opacity:1;stroke:none;" transform="matrix(1.4649248123168945, 0, 0, 1.4649248123168945, -117.73243713378906, -493.7336540222168)"/><path id="path241" d="  M 197.43854,464.07656   C 197.43854,464.07656 199.99852,471.67651 204.47849,476.47647   C 204.47849,476.47647 204.87848,483.51642 198.15853,480.31644   C 191.43858,477.03647 191.59858,466.39655 191.59858,466.39655   L 197.43854,464.07656   z " style="fill:#dd6579;fill-rule:nonzero;fill-opacity:1;stroke:none;" transform="matrix(1.4649248123168945, 0, 0, 1.4649248123168945, -117.73243713378906, -493.7336540222168)"/><path id="path243" d="  M 158.15883,426.23684   L 164.23878,454.47663   C 164.23878,454.47663 158.39883,488.71638 148.9589,489.99637   C 139.11897,491.27636 136.31899,468.79653 136.31899,468.79653   L 133.27901,434.47678   L 158.15883,426.23684   z " style="fill:#f38790;fill-rule:nonzero;fill-opacity:1;stroke:none;" transform="matrix(1.4649248123168945, 0, 0, 1.4649248123168945, -117.73243713378906, -493.7336540222168)"/><path id="path245" d="  M 133.27901,434.47678   L 135.83899,463.43657   C 135.83899,463.43657 148.1589,461.19658 153.99886,453.51664   C 159.99881,445.6767 158.15883,426.23684 158.15883,426.23684   L 133.27901,434.47678   z " style="fill:#dd6579;fill-rule:nonzero;fill-opacity:1;stroke:none;" transform="matrix(1.4649248123168945, 0, 0, 1.4649248123168945, -117.73243713378906, -493.7336540222168)"/><path id="path247" d="  M 108.87919,398.87705   C 106.55921,412.79694 117.51913,455.27663 134.07901,456.63662   C 145.03893,457.43661 157.03884,443.75671 158.15883,426.23684   C 160.07881,396.55706 158.07883,388.15712 148.3989,387.35713   C 127.03906,385.67714 110.63918,387.99713 108.87919,398.87705   z " style="fill:#f38790;fill-rule:nonzero;fill-opacity:1;stroke:none;" transform="matrix(1.4649248123168945, 0, 0, 1.4649248123168945, -117.73243713378906, -493.7336540222168)"/><path id="path249" d="  M 132.47902,446.47669   C 132.87902,446.55669 133.27901,446.63669 133.67901,446.63669   C 135.279,446.63669 136.79899,445.5967 137.35898,444.07671   L 136.71899,443.83671   C 136.31899,445.1167 134.959,445.9967 133.67901,445.9967   C 133.35901,445.9967 133.03901,445.9167 132.71902,445.8367   L 132.47902,446.47669   z " style="fill:#482834;fill-rule:nonzero;fill-opacity:1;stroke:none;" transform="matrix(1.4649248123168945, 0, 0, 1.4649248123168945, -117.73243713378906, -493.7336540222168)"/><path id="path251" d="  M 128.31905,412.23695   C 128.39905,412.95694 124.39908,414.15693 121.9991,414.55693   C 119.59911,414.87693 118.63912,414.47693 118.55912,413.67694   C 118.39912,412.95694 121.2791,411.91695 123.75908,411.59695   C 126.15907,411.19695 128.15905,411.51695 128.31905,412.23695   z " style="fill:#271917;fill-rule:nonzero;fill-opacity:1;stroke:none;" transform="matrix(1.4649248123168945, 0, 0, 1.4649248123168945, -117.73243713378906, -493.7336540222168)"/><path id="path253" d="  M 124.47908,422.79687   C 124.55908,424.63685 123.91908,426.15684 123.03909,426.15684   C 122.1591,426.15684 121.3591,424.71685 121.3591,422.95687   C 121.2791,421.11688 121.9191,419.59689 122.79909,419.59689   C 123.59908,419.51689 124.39908,420.95688 124.47908,422.79687   z " style="fill:#3f1a14;fill-rule:nonzero;fill-opacity:1;stroke:none;" transform="matrix(1.4649248123168945, 0, 0, 1.4649248123168945, -117.73243713378906, -493.7336540222168)"/><path id="path255" d="  M 135.199,412.23695   C 135.119,413.03694 139.19897,413.91693 141.67895,414.07693   C 144.07893,414.23693 144.95893,413.75694 145.03893,412.95694   C 145.11893,412.23695 142.15895,411.43695 139.67897,411.27695   C 137.27898,411.03696 135.199,411.51695 135.199,412.23695   z " style="fill:#271917;fill-rule:nonzero;fill-opacity:1;stroke:none;" transform="matrix(1.4649248123168945, 0, 0, 1.4649248123168945, -117.73243713378906, -493.7336540222168)"/><path id="path257" d="  M 139.83896,422.63687   C 139.91896,424.39686 140.71896,425.83685 141.51895,425.83685   C 142.39895,425.83685 143.03894,424.31686 142.95894,422.47687   C 142.87894,420.63688 142.15895,419.19689 141.27895,419.27689   C 140.39896,419.27689 139.75896,420.79688 139.83896,422.63687   z " style="fill:#3f1a14;fill-rule:nonzero;fill-opacity:1;stroke:none;" transform="matrix(1.4649248123168945, 0, 0, 1.4649248123168945, -117.73243713378906, -493.7336540222168)"/><path id="path259" d="  M 151.91887,431.9968   C 152.23887,433.43679 150.47889,435.03678 147.9989,435.51677   C 145.51892,435.99677 143.27894,435.19678 142.95894,433.67679   C 142.63894,432.2368 144.47893,430.63681 146.95891,430.15681   C 149.43889,429.67682 151.67888,430.47681 151.91887,431.9968   z " style="fill:#dd6579;fill-rule:nonzero;fill-opacity:1;stroke:none;" transform="matrix(1.4649248123168945, 0, 0, 1.4649248123168945, -117.73243713378906, -493.7336540222168)"/><path id="path261" d="  M 123.59908,434.23678   C 123.91908,435.75677 122.0791,437.35676 119.59911,437.83676   C 117.11913,438.31675 114.87915,437.51676 114.63915,435.99677   C 114.31915,434.47678 116.07914,432.87679 118.55912,432.3968   C 121.0391,431.9168 123.27909,432.71679 123.59908,434.23678   z " style="fill:#dd6579;fill-rule:nonzero;fill-opacity:1;stroke:none;" transform="matrix(1.4649248123168945, 0, 0, 1.4649248123168945, -117.73243713378906, -493.7336540222168)"/><path id="path263" d="  M 131.75902,429.19682   C 131.51903,430.31681 130.95903,431.3568 130.15904,432.2368   L 130.15904,432.2368   C 129.91904,432.4768 129.59904,432.71679 129.35904,433.11679   L 129.35904,433.11679   C 129.19904,433.35679 129.11904,433.67679 129.11904,433.91679   C 129.11904,434.15678 129.19904,434.39678 129.35904,434.63678   L 129.35904,434.63678   C 129.67904,435.03678 130.15904,435.11678 130.55903,435.19678   C 130.71903,435.19678 130.95903,435.19678 131.19903,435.19678   C 131.59903,435.19678 132.07902,435.19678 132.47902,435.03678   L 132.31902,434.39678   C 131.91902,434.47678 131.59903,434.55678 131.19903,434.55678   C 130.95903,434.55678 130.79903,434.55678 130.63903,434.55678   C 130.31903,434.47678 129.99904,434.39678 129.91904,434.23678   L 129.91904,434.23678   C 129.83904,434.15678 129.83904,434.07678 129.83904,433.91679   C 129.83904,433.75679 129.83904,433.59679 129.91904,433.51679   L 129.91904,433.43679   C 130.07904,433.19679 130.31903,432.95679 130.63903,432.6368   L 130.63903,432.6368   L 130.63903,432.6368   C 131.51903,431.7568 132.15902,430.63681 132.39902,429.35682   L 131.75902,429.19682   z " style="fill:#482834;fill-rule:nonzero;fill-opacity:1;stroke:none;" transform="matrix(1.4649248123168945, 0, 0, 1.4649248123168945, -117.73243713378906, -493.7336540222168)"/><path id="path265" d="  M 161.9988,404.877   C 161.3588,407.03698 160.55881,410.55696 158.79882,411.91695   C 147.43891,420.87688 135.199,404.397 138.07898,392.55709   C 129.19904,400.15704 119.51911,406.71699 108.79919,411.35695   C 107.3592,411.99695 105.35922,412.47694 104.39923,411.11695   C 104.07923,410.63696 103.99923,409.91696 103.91923,409.27697   C 103.51923,403.43701 104.23923,396.95706 108.3992,392.79709   C 111.59917,389.59711 116.23914,388.47712 120.63911,387.43713   C 127.99905,385.75714 135.439,384.15715 142.95894,384.39715   C 149.75889,384.71715 157.27883,387.11713 160.39881,393.27709   C 162.0788,396.71706 163.11879,401.19703 161.9988,404.877   z " style="fill:#271917;fill-rule:nonzero;fill-opacity:1;stroke:none;" transform="matrix(1.4649248123168945, 0, 0, 1.4649248123168945, -117.73243713378906, -493.7336540222168)"/><path id="path267" d="  M 155.27885,432.79679   C 155.43885,436.79676 157.83883,440.47674 157.75883,444.39671   C 157.59883,448.79668 154.63885,452.47665 152.23887,456.15662   C 149.83889,459.83659 147.9189,464.63656 150.07889,468.47653   C 152.47887,472.7165 158.23883,473.27649 163.11879,473.19649   C 164.23878,473.1165 165.35878,473.1165 166.31877,472.6365   C 169.43874,471.03651 169.11875,466.07655 171.91873,463.99656   C 173.83871,462.47657 176.63869,462.87657 178.87867,461.91658   C 182.71865,460.23659 183.75864,455.27663 184.31863,451.11666   C 185.19863,443.83671 185.83862,435.59677 181.03866,430.07681   C 179.35867,428.15683 177.11869,426.79684 174.9587,425.51685   C 158.63882,415.27692 154.39886,418.7169 155.27885,432.79679   z " style="fill:#271917;fill-rule:nonzero;fill-opacity:1;stroke:none;" transform="matrix(1.4649248123168945, 0, 0, 1.4649248123168945, -117.73243713378906, -493.7336540222168)"/><path id="path269" d="  M 157.11884,418.0769   C 158.07883,420.79688 161.03881,422.07687 163.67879,420.87688   C 166.31877,419.75689 167.59876,416.63691 166.63877,413.91693   C 165.59877,411.27695 162.6388,409.99696 160.07881,411.11695   C 157.43883,412.31695 156.07884,415.35692 157.11884,418.0769   z " style="fill:#f38790;fill-rule:nonzero;fill-opacity:1;stroke:none;" transform="matrix(1.4649248123168945, 0, 0, 1.4649248123168945, -117.73243713378906, -493.7336540222168)"/><path id="path271" d="  M 163.19879,414.07693   C 161.4388,414.55693 159.91882,415.91692 159.19882,417.67691   L 158.87882,418.3969   L 159.67882,418.0769   C 160.15881,417.8369 160.79881,417.67691 161.3588,417.67691   C 161.9188,417.67691 162.3988,417.75691 162.79879,417.9969   L 163.03879,417.35691   C 162.5588,417.11691 161.9988,417.03691 161.3588,417.03691   C 160.71881,417.03691 159.99881,417.19691 159.35882,417.43691   L 159.51882,417.75691   L 159.83882,417.9169   C 160.39881,416.39692 161.7588,415.19692 163.35879,414.71693   L 163.19879,414.07693   z " style="fill:#482834;fill-rule:nonzero;fill-opacity:1;stroke:none;" transform="matrix(1.4649248123168945, 0, 0, 1.4649248123168945, -117.73243713378906, -493.7336540222168)"/><path id="path273" d="  M 211.43843,598.55557   C 211.51843,598.07557 211.59843,597.43557 212.07843,597.11558   C 212.55843,596.71558 213.43842,596.87558 213.99841,597.27558   C 214.55841,597.75557 214.79841,598.31557 215.03841,598.95556   C 215.5984,600.95555 215.03841,603.19553 213.51842,604.71552   C 212.47843,605.75551 207.67846,607.5955 207.43846,604.79552   C 207.27846,603.75553 208.87845,603.03553 209.51845,602.23554   C 210.47844,601.19555 211.11844,599.91556 211.43843,598.55557   z " style="fill:#f38790;fill-rule:nonzero;fill-opacity:1;stroke:none;" transform="matrix(1.4649248123168945, 0, 0, 1.4649248123168945, -117.73243713378906, -493.7336540222168)"/><path id="path275" d="  M 213.51842,604.07553   C 215.27841,604.31552 216.71839,604.63552 217.43839,604.87552   C 218.71838,605.19552 219.99837,605.99551 220.39837,607.1155   C 220.63837,607.7555 220.55837,608.47549 220.31837,609.11549   C 219.99837,609.99548 218.79838,610.71548 217.83839,610.95547   C 218.87838,611.27547 219.67837,612.23546 219.75837,613.19546   C 219.75837,614.15545 218.95838,614.95544 217.83839,615.19544   C 218.63838,615.99544 219.19838,616.95543 219.03838,617.91542   C 218.95838,618.87542 217.35839,619.51541 216.2384,619.43541   C 217.11839,620.07541 217.59839,621.1154 217.27839,621.99539   C 216.87839,623.19538 215.5184,623.83538 214.15841,623.91538   C 212.71842,623.99538 211.27843,623.67538 209.91845,623.27538   C 208.63845,623.03538 207.43846,622.71539 206.15847,622.39539   C 204.95848,622.07539 203.35849,621.5154 203.19849,620.3954   C 202.9585,619.27541 204.39849,618.39542 204.47849,617.27543   C 204.47849,616.39543 203.75849,615.59544 203.51849,614.71545   C 203.0385,612.47546 206.55847,610.79548 205.91847,608.47549   C 205.75848,607.9955 205.35848,607.5155 205.03848,606.9555   C 203.0385,603.27553 209.03845,603.43553 213.51842,604.07553   z " style="fill:#f38790;fill-rule:nonzero;fill-opacity:1;stroke:none;" transform="matrix(1.4649248123168945, 0, 0, 1.4649248123168945, -117.73243713378906, -493.7336540222168)"/><path id="path277" d="  M 197.03854,463.91656   C 194.79856,464.55656 192.31858,465.19655 190.23859,466.23655   C 189.67859,466.55654 189.91859,467.51654 190.55859,467.51654   C 192.87857,467.19654 195.27855,466.39655 197.51854,465.67655   C 198.63853,465.35655 198.15853,463.67657 197.03854,463.91656   z " style="fill:#1b1e43;fill-rule:nonzero;fill-opacity:1;stroke:none;" transform="matrix(1.4649248123168945, 0, 0, 1.4649248123168945, -117.73243713378906, -493.7336540222168)"/><path id="path279" d="  M 138.23898,572.07576   C 137.51898,571.11577 136.15899,571.35577 135.039,571.11577   C 133.43901,570.71577 132.07902,569.91578 130.63903,569.19578   C 130.07904,568.95579 129.51904,569.59578 129.99904,570.07578   C 131.03903,571.27577 132.63902,572.07576 134.15901,572.55576   C 135.199,572.87576 137.27898,573.59575 138.15898,572.55576   C 138.23898,572.39576 138.31898,572.23576 138.23898,572.07576   z " style="fill:#1b1e43;fill-rule:nonzero;fill-opacity:1;stroke:none;" transform="matrix(1.4649248123168945, 0, 0, 1.4649248123168945, -117.73243713378906, -493.7336540222168)"/><path id="path281" d="  M 205.59848,607.2755   C 205.51848,607.1155 205.35848,607.1955 205.35848,607.3555   C 205.35848,608.47549 205.35848,609.51549 204.87848,610.55548   C 204.55848,611.43547 203.99849,612.15547 203.59849,612.95546   C 203.1185,613.91545 203.0385,614.79545 203.51849,615.83544   L 203.67849,615.75544   C 203.27849,613.59545 205.11848,612.39546 205.75848,610.63548   C 206.23847,609.43549 206.15847,608.31549 205.59848,607.2755   z " style="fill:#1b1e43;fill-rule:nonzero;fill-opacity:1;stroke:none;" transform="matrix(1.4649248123168945, 0, 0, 1.4649248123168945, -117.73243713378906, -493.7336540222168)"/><path id="path283" d="  M 213.67842,603.59553   C 213.03842,603.43553 212.31843,603.43553 211.67843,603.35553   C 211.03844,603.35553 210.87844,604.39552 211.51843,604.47552   C 212.23843,604.63552 212.95842,604.79552 213.67842,604.55552   C 214.15841,604.47552 214.07841,603.75553 213.67842,603.59553   z " style="fill:#1b1e43;fill-rule:nonzero;fill-opacity:1;stroke:none;" transform="matrix(1.4649248123168945, 0, 0, 1.4649248123168945, -117.73243713378906, -493.7336540222168)"/><path id="path285" d="  M 219.35838,611.11547   C 218.87838,610.55548 217.99839,610.63548 217.35839,610.63548   C 216.4784,610.63548 215.5984,610.79548 214.79841,610.63548   C 214.55841,610.63548 214.23841,610.87547 214.39841,611.11547   C 214.95841,611.75547 215.6784,611.75547 216.4784,611.83547   C 217.35839,611.83547 218.71838,612.15547 219.35838,611.51547   L 219.35838,611.11547   z " style="fill:#1b1e43;fill-rule:nonzero;fill-opacity:1;stroke:none;" transform="matrix(1.4649248123168945, 0, 0, 1.4649248123168945, -117.73243713378906, -493.7336540222168)"/><path id="path287" d="  M 218.07838,615.11544   C 217.27839,614.95544 216.5584,614.95544 215.7584,615.03544   C 215.27841,615.03544 215.27841,615.59544 215.6784,615.83544   C 216.3984,616.07544 217.11839,616.23544 217.91839,616.15544   C 218.15838,616.07544 218.39838,615.99544 218.39838,615.75544   L 218.39838,615.43544   C 218.39838,615.27544 218.23838,615.11544 218.07838,615.11544   z " style="fill:#1b1e43;fill-rule:nonzero;fill-opacity:1;stroke:none;" transform="matrix(1.4649248123168945, 0, 0, 1.4649248123168945, -117.73243713378906, -493.7336540222168)"/><path id="path289" d="  M 216.3984,619.03541   C 215.6784,619.03541 214.95841,618.95542 214.23841,619.11541   C 213.99841,619.11541 213.99841,619.51541 214.15841,619.59541   C 214.87841,619.91541 215.5984,620.07541 216.3984,620.15541   C 217.03839,620.23541 217.11839,619.11541 216.3984,619.03541   z " style="fill:#1b1e43;fill-rule:nonzero;fill-opacity:1;stroke:none;" transform="matrix(1.4649248123168945, 0, 0, 1.4649248123168945, -117.73243713378906, -493.7336540222168)"/></svg>