<?xml version="1.0" encoding="utf-8"?>
<svg id="master-artboard" viewBox="0 0 293.4349365234375 429.2909240722656" xmlns="http://www.w3.org/2000/svg" width="293.4349365234375px" height="429.2909240722656px" version="1.1" style="shape-rendering:geometricPrecision; text-rendering:geometricPrecision; image-rendering:optimizeQuality; fill-rule:evenodd; clip-rule:evenodd"><defs><pattern y="0" x="0" height="6" width="6" patternUnits="userSpaceOnUse" id="EMFhbasepattern"/></defs><rect id="ee-background" x="0" y="0" width="293.4349365234375" height="429.2909240722656" style="fill: white; fill-opacity: 0; pointer-events: none;"/>
 
 <metadata id="CorelCorpID_0Corel-Layer"/>
<g transform="matrix(1.4649248123168945, 0, 0, 1.4649248123168945, -119.0994930267334, -78.84917449951172)"><metadata id="metadata399">
    
  </metadata><path id="path291" d="  M 212.87842,329.99756   L 282.23791,329.99756   L 282.23791,52.399612   L 212.87842,52.399612   z " style="fill:#eaeae8;fill-rule:nonzero;fill-opacity:1;stroke:none;"/><path id="path293" d="  M 223.43834,253.67812   L 240.71822,239.19823   C 240.71822,239.19823 240.31822,233.51827 241.03821,231.51829   C 242.6382,227.11832 249.03816,220.71837 250.39815,221.35836   C 253.67812,223.03835 247.59817,228.31831 249.59815,229.7583   C 250.23815,230.23829 252.87813,226.79832 255.67811,223.35835   C 258.55808,219.75837 261.67806,216.2384 263.19805,216.95839   C 265.11804,217.91839 259.35808,225.19833 259.35808,225.19833   C 259.35808,225.19833 266.63802,216.5584 267.91802,217.43839   C 270.478,219.03838 264.39804,225.75833 264.39804,225.75833   C 264.39804,225.75833 269.27801,221.75836 270.558,222.79835   C 272.39798,224.23834 264.71804,231.75828 264.71804,231.75828   C 264.71804,231.75828 269.838,228.39831 270.79799,229.3583   C 272.15798,230.71829 265.67803,241.91821 256.2381,252.07813   C 251.51814,257.1181 231.75828,280.07793 231.75828,280.07793   L 223.43834,253.67812   z " style="fill:#f38790;fill-rule:nonzero;fill-opacity:1;stroke:none;"/><path id="path295" d="  M 223.43834,253.67812   L 232.39828,246.23818   C 232.39828,246.23818 238.15824,264.15804 238.39823,272.31798   L 231.75828,280.07793   L 223.43834,253.67812   z " style="fill:#dd6579;fill-rule:nonzero;fill-opacity:1;stroke:none;"/><path id="path297" d="  M 260.87807,223.91834   C 260.87807,223.67834 260.55807,223.67834 260.47807,223.83834   C 259.91807,224.71834 259.59808,225.67833 259.03808,226.55832   C 258.47809,227.35832 257.59809,227.91831 257.19809,228.79831   C 257.1181,228.9583 257.19809,229.1183 257.35809,229.1183   C 259.35808,229.0383 261.27806,225.75833 260.87807,223.91834   z " style="fill:#1b1e43;fill-rule:nonzero;fill-opacity:1;stroke:none;"/><path id="path299" d="  M 264.95804,225.67833   C 264.07804,226.15832 263.43805,227.19832 263.27805,228.15831   C 263.19805,228.23831 263.35805,228.47831 263.51805,228.31831   C 264.31804,227.75831 264.95804,226.79832 265.11804,225.83833   L 264.95804,225.67833   z " style="fill:#1b1e43;fill-rule:nonzero;fill-opacity:1;stroke:none;"/><path id="path301" d="  M 264.47804,232.31828   C 263.99804,232.71828 263.67805,233.19827 263.27805,233.67827   C 262.87805,234.23826 262.47806,234.79826 262.23806,235.51826   C 262.15806,235.67825 262.31806,235.83825 262.47806,235.75825   C 263.59805,235.19826 264.79804,233.83827 264.87804,232.55828   C 264.87804,232.39828 264.63804,232.23828 264.47804,232.31828   z " style="fill:#1b1e43;fill-rule:nonzero;fill-opacity:1;stroke:none;"/><path id="path303" d="  M 241.11821,238.63823   C 240.87822,238.47823 240.55822,238.63823 240.55822,238.87823   C 240.55822,239.51823 240.79822,240.07822 240.95822,240.63822   C 241.11821,241.27821 241.19821,241.91821 241.43821,242.4782   C 241.59821,242.9582 242.3982,242.7982 242.4782,242.31821   C 242.7182,241.19821 242.07821,239.19823 241.11821,238.63823   z " style="fill:#1b1e43;fill-rule:nonzero;fill-opacity:1;stroke:none;"/><path id="path305" d="  M 110.63918,104.55923   L 127.19906,137.75898   L 136.87899,133.19901   L 121.5991,100.31926   L 110.63918,104.55923  z " style="fill:#482834;fill-rule:nonzero;fill-opacity:1;stroke:none;"/><path id="path307" d="  M 158.47883,87.839349   C 140.23896,100.39926 103.35923,115.03915 97.359279,110.79918   C 91.83932,106.87921 98.239272,101.91925 100.31926,99.439263   C 98.399271,98.55927 90.559329,103.35923 88.719343,99.359264   C 86.39936,94.319301 89.599336,89.359338 138.79897,66.479508   C 146.79891,62.719535 151.83888,69.119488 151.19888,69.119488   C 151.19888,69.119488 151.59888,63.199532 156.95884,60.71955   C 162.2388,58.239569 182.31865,111.11918 182.31865,111.11918   L 171.43873,115.75914   L 158.47883,87.839349   z " style="fill:#482834;fill-rule:nonzero;fill-opacity:1;stroke:none;"/><path id="path309" d="  M 197.19854,160.47881   L 153.75886,180.63866   L 137.19898,137.99898   L 175.2787,120.23911   L 197.19854,160.47881  z " style="fill:#f38790;fill-rule:nonzero;fill-opacity:1;stroke:none;"/><path id="path311" d="  M 137.19898,137.99898   L 141.35895,148.6389   C 144.39893,156.47884 153.43886,160.15881 161.03881,156.55884   L 174.15871,150.47889   C 181.75865,146.95891 184.79863,137.67898 180.79866,130.31903   L 175.2787,120.23911   L 137.19898,137.99898   z " style="fill:#dd6579;fill-rule:nonzero;fill-opacity:1;stroke:none;"/><path id="path313" d="  M 123.99908,121.6791   L 139.27897,147.11891   C 142.79894,153.11887 150.31889,155.35885 156.55884,152.47887   L 174.15871,144.31893   C 180.39866,141.35895 183.51864,134.23901 181.19866,127.67905   L 171.51873,99.519263   C 166.47877,84.799372 149.67889,77.599425 135.519,84.239376   C 121.3591,90.799327 115.99914,108.2392 123.99908,121.6791   z " style="fill:#f38790;fill-rule:nonzero;fill-opacity:1;stroke:none;"/><path id="path315" d="  M 139.35897,104.47923   C 139.75896,105.19922 135.91899,108.4792 133.35901,109.99919   C 130.79903,111.51917 129.59904,111.43917 129.11904,110.63918   C 128.63905,109.91919 131.35903,107.3592 133.91901,105.83922   C 136.39899,104.31923 138.87897,103.67923 139.35897,104.47923   z " style="fill:#482834;fill-rule:nonzero;fill-opacity:1;stroke:none;"/><path id="path317" d="  M 140.79896,114.79915   C 141.51895,116.31914 141.51895,117.83913 140.79896,118.15912   C 139.99896,118.55912 138.87897,117.51913 138.15898,115.99914   C 137.43898,114.47915 137.43898,112.95916 138.15898,112.63917   C 138.87897,112.23917 140.07896,113.27916 140.79896,114.79915   z " style="fill:#3f1a14;fill-rule:nonzero;fill-opacity:1;stroke:none;"/><path id="path319" d="  M 150.63888,99.199265   C 150.95888,99.999259 155.91885,99.119266 158.71882,98.159273   C 161.5188,97.279279 162.2388,96.239287 161.9988,95.359294   C 161.6788,94.5593 157.99883,94.959297 155.19885,95.919289   C 152.39887,96.879282 150.39889,98.319272 150.63888,99.199265   z " style="fill:#482834;fill-rule:nonzero;fill-opacity:1;stroke:none;"/><path id="path321" d="  M 157.59883,106.95921   C 158.31883,108.4792 159.51882,109.51919 160.23881,109.11919   C 160.95881,108.79919 160.95881,107.27921 160.23881,105.75922   C 159.51882,104.15923 158.39883,103.19924 157.59883,103.59923   C 156.87884,103.91923 156.87884,105.43922 157.59883,106.95921   z " style="fill:#3f1a14;fill-rule:nonzero;fill-opacity:1;stroke:none;"/><path id="path323" d="  M 172.87872,110.71918   C 174.79871,114.79915 179.51867,116.39914 183.51864,114.23915   C 187.43861,112.15917 189.1186,107.11921 187.19861,103.03924   C 185.27863,98.959267 180.55866,97.439278 176.63869,99.519263   C 172.71872,101.59925 171.03873,106.63921 172.87872,110.71918   z " style="fill:#f38790;fill-rule:nonzero;fill-opacity:1;stroke:none;"/><path id="path325" d="  M 182.87865,102.47924   C 179.75867,103.59923 177.19869,106.31921 176.1587,109.51919   L 175.9187,110.31918   L 176.63869,109.91919   C 177.83868,109.27919 179.27867,108.87919 180.63866,108.87919   C 181.35866,108.87919 182.07865,109.03919 182.79865,109.19919   L 182.95864,108.5592   C 182.23865,108.3192 181.43866,108.2392 180.63866,108.2392   C 179.11867,108.2392 177.59868,108.6392 176.31869,109.35919   L 176.47869,109.59919   L 176.79869,109.75919   C 177.75868,106.71921 180.15867,104.15923 183.11864,103.11924   L 182.87865,102.47924   z " style="fill:#482834;fill-rule:nonzero;fill-opacity:1;stroke:none;"/><path id="path327" d="  M 131.35903,129.99904   C 133.27901,134.07901 131.43903,138.71897 127.27906,140.39896   C 123.11909,142.07895 118.23912,140.07896 116.31914,135.99899   C 114.47915,131.91902 116.31914,127.27906 120.39911,125.67907   C 124.55908,123.99908 129.51904,125.91907 131.35903,129.99904   z " style="fill:#f38790;fill-rule:nonzero;fill-opacity:1;stroke:none;"/><path id="path329" d="  M 118.95912,132.87902   C 120.55911,131.99902 122.31909,131.59903 124.15908,131.59903   C 125.51907,131.59903 126.87906,131.83902 128.15905,132.31902   L 128.23905,132.07902   L 128.15905,131.75902   C 126.07907,132.47902 124.23908,134.23901 123.27909,136.31899   L 123.91908,136.55899   C 124.71908,134.719 126.47906,133.03901 128.39905,132.39902   L 129.19904,132.07902   L 128.39905,131.75902   C 127.03906,131.19903 125.59907,130.87903 124.15908,130.87903   C 122.23909,130.87903 120.31911,131.35903 118.63912,132.31902   L 118.95912,132.87902   z " style="fill:#482834;fill-rule:nonzero;fill-opacity:1;stroke:none;"/><path id="path331" d="  M 148.1589,113.27916   C 148.1589,113.27916 149.27889,116.95913 150.55888,120.8791   C 151.19888,122.79909 151.91887,124.79908 152.55887,126.39906   C 152.87887,127.19906 153.11887,127.91905 153.43886,128.47905   C 153.67886,129.03904 153.91886,129.43904 154.15886,129.67904   C 154.63885,130.07904 155.19885,130.23904 155.75885,130.23904   C 156.79884,130.23904 157.99883,129.83904 158.95882,129.43904   C 159.83882,128.95904 160.55881,128.55905 160.55881,128.55905   L 160.23881,127.99905   C 160.23881,127.99905 160.07881,128.07905 159.75882,128.23905   C 158.95882,128.71905 157.03884,129.59904 155.75885,129.59904   C 155.27885,129.59904 154.87885,129.43904 154.63885,129.19904   C 154.55886,129.11904 154.31886,128.71905 153.99886,128.15905   C 153.11887,126.31906 151.83888,122.47909 150.71888,119.19912   C 150.15889,117.51913 149.67889,115.99914 149.35889,114.87915   C 149.0389,113.75916 148.7989,113.03916 148.7989,113.03916   L 148.1589,113.27916   z " style="fill:#482834;fill-rule:nonzero;fill-opacity:1;stroke:none;"/><path id="path333" d="  M 150.31889,89.279339   C 149.99889,91.039326 151.59888,94.799298 153.43886,94.639299   C 158.87882,94.159303 167.35876,86.319361 163.75879,78.879416   C 155.99884,62.639536 102.07924,88.639343 104.55923,106.39921   C 104.87922,108.3992 124.39908,110.15918 150.31889,89.279339   z " style="fill:#482834;fill-rule:nonzero;fill-opacity:1;stroke:none;"/><path id="path335" d="  M 147.59891,140.79896   L 170.71874,130.07904   C 170.71874,130.07904 174.79871,139.35897 162.79879,144.95893   C 150.71888,150.55888 147.59891,140.79896 147.59891,140.79896   z " style="fill:#ffffff;fill-rule:nonzero;fill-opacity:1;stroke:none;"/><path id="path337" d="  M 175.5187,170.55874   C 175.5187,170.55874 170.47874,158.55883 164.55878,157.83883   C 158.55883,157.03884 147.43891,164.31878 147.43891,164.31878   L 153.75886,180.63866   L 175.5187,170.55874   z " style="fill:#f0f0ef;fill-rule:nonzero;fill-opacity:1;stroke:none;"/><path id="path339" d="  M 175.5187,170.55874   C 175.5187,170.55874 168.95875,157.75883 171.11873,153.91886   C 173.11872,150.39889 187.75861,143.11894 187.75861,143.11894   L 197.19854,160.47881   L 175.5187,170.55874   z " style="fill:#f0f0ef;fill-rule:nonzero;fill-opacity:1;stroke:none;"/><path id="path341" d="  M 212.87842,147.9189   C 212.87842,147.9189 111.83917,187.51861 111.91917,215.19841   C 111.91917,222.31835 126.63906,341.35747 166.95876,335.75751   C 207.19847,330.15755 222.79835,313.91767 224.63834,299.03778   C 224.63834,299.03778 233.35827,291.03784 235.19826,287.27787   C 237.03824,283.5979 228.39831,240.23822 228.39831,240.23822   L 212.87842,250.55814   L 212.87842,147.9189   z " style="fill:#4f5c98;fill-rule:nonzero;fill-opacity:1;stroke:none;"/><path id="path343" d="  M 224.07834,278.23794   C 223.99834,278.23794 223.91834,278.23794 223.75834,278.23794   C 222.79835,277.99794 222.23835,276.87795 221.91836,275.91796   C 221.11836,273.67797 220.71837,271.27799 220.15837,268.95801   C 219.43837,265.91803 218.47838,262.87805 217.27839,260.07807   C 216.1584,257.51809 214.95841,254.55811 216.3984,252.23813   C 216.79839,251.51814 217.51839,250.95814 218.23838,250.39815   C 220.07837,248.87816 223.67834,244.95819 226.31832,244.95819   C 227.59831,244.95819 228.55831,245.75818 229.1183,247.91816   C 229.4383,249.27815 229.3583,250.71814 229.2783,252.07813   C 229.1183,254.15812 228.8783,256.2381 228.71831,258.31809   C 228.31831,262.95805 227.99831,267.59802 227.59831,272.31798   C 227.43832,274.31797 227.11832,276.55795 225.43833,277.75794   C 225.11833,277.99794 224.63834,278.23794 224.07834,278.23794   z " style="fill:#414c89;fill-rule:nonzero;fill-opacity:1;stroke:none;"/><path id="path345" d="  M 229.0383,291.19784   C 227.59831,291.19784 226.31832,289.75785 225.91833,288.31786   C 225.19833,285.91788 225.91833,283.4379 226.87832,281.27792   C 227.51831,279.75793 228.31831,277.75794 229.2783,276.47795   C 229.8383,275.67796 230.23829,275.35796 230.63829,275.35796   C 231.19829,275.35796 231.67828,276.15795 232.55828,277.35795   C 232.87827,277.75794 233.19827,278.15794 233.43827,278.63794   C 234.23826,280.15792 234.39826,281.91791 234.07827,283.5179   C 233.75827,285.19789 233.11827,286.79788 232.31828,288.23786   C 231.67828,289.51786 230.87829,290.95784 229.4383,291.19784   C 229.2783,291.19784 229.1983,291.19784 229.0383,291.19784   z " style="fill:#414c89;fill-rule:nonzero;fill-opacity:1;stroke:none;"/><path id="path347" d="  M 158.39883,283.6779   C 157.27883,277.83794 152.23887,251.91813 148.7189,244.39819   C 145.19892,236.79825 144.95893,227.67831 147.03891,227.67831   C 147.27891,227.67831 147.51891,227.75831 147.8389,227.99831   C 153.11887,232.23828 158.95882,243.5182 160.87881,257.0381   C 162.4788,268.15801 165.75877,277.59794 166.79876,280.47792   C 163.99879,281.51791 161.11881,282.47791 158.39883,283.6779   z " style="fill:#414c89;fill-rule:nonzero;fill-opacity:1;stroke:none;"/><path id="path349" d="  M 167.11876,281.35792   C 164.95878,274.71797 163.19879,267.99801 162.0788,261.11807   C 161.03881,254.87811 160.87881,248.39816 158.55883,242.3982   C 156.47884,237.03824 153.11887,232.07828 149.75889,227.27832   C 145.91892,221.75836 142.07895,215.9184 137.03898,211.19844   C 136.55899,210.71844 135.75899,211.27843 136.07899,211.83843   C 142.95894,222.79835 153.19887,232.47828 157.11884,244.87819   C 158.95882,250.79814 159.03882,257.1181 160.07881,263.19805   C 161.19881,269.518 162.79879,275.83796 164.87878,281.99791   C 165.27878,283.2779 167.59876,282.71791 167.11876,281.35792   z " style="fill:#1b1e43;fill-rule:nonzero;fill-opacity:1;stroke:none;"/><path id="path351" d="  M 213.43842,249.51815   C 208.39846,251.35814 203.67849,254.39812 199.43852,257.75809   C 195.11855,261.03807 191.83858,265.27803 188.07861,269.03801   C 183.19864,273.91797 177.35869,276.31795 171.03873,278.87793   C 165.35878,281.19792 158.71882,282.9579 153.43886,286.15788   C 152.63887,286.63788 153.19887,287.91787 154.07886,287.67787   C 160.23881,286.31788 166.39877,282.8779 172.31872,280.47792   C 177.35869,278.47794 182.39865,276.47795 186.63862,272.87798   C 190.71859,269.358 193.83856,264.79804 197.75854,261.11807   C 202.5585,256.6381 208.55846,253.99812 213.67842,250.07815   C 213.91842,249.83815 213.83842,249.35815 213.43842,249.51815   z " style="fill:#1b1e43;fill-rule:nonzero;fill-opacity:1;stroke:none;"/><path id="path353" d="  M 224.55834,298.23779   C 221.83836,297.1978 218.55838,297.1978 215.7584,296.8778   C 213.03842,296.4778 210.47844,296.3978 207.91846,297.5178   C 207.43846,297.67779 207.67846,298.55779 208.23846,298.55779   C 211.67843,298.31779 214.79841,298.79779 218.15838,299.27778   C 220.39837,299.67778 222.55835,300.07778 224.63834,298.87779   C 224.87833,298.71779 224.79833,298.39779 224.55834,298.23779   z " style="fill:#1b1e43;fill-rule:nonzero;fill-opacity:1;stroke:none;"/><path id="path355" d="  M 220.63837,275.03796   C 218.39838,268.15801 216.79839,261.27806 215.5184,254.15812   C 215.3584,253.43812 214.15841,253.59812 214.23841,254.31812   C 214.47841,261.11807 216.71839,267.75802 218.87838,274.07797   C 221.19836,280.95792 223.35835,287.83787 225.75833,294.71782   C 225.75833,294.87782 226.15832,294.87782 226.15832,294.63782   C 225.27833,287.91787 222.79835,281.43792 220.63837,275.03796   z " style="fill:#1b1e43;fill-rule:nonzero;fill-opacity:1;stroke:none;"/><path id="path357" d="  M 227.91831,252.15813   C 226.31832,253.35812 224.87833,254.87811 223.43834,256.3181   C 221.83836,257.91809 220.23837,259.43808 218.79838,261.11807   C 218.47838,261.51806 218.87838,262.15806 219.27838,261.83806   C 221.03836,260.47807 222.55835,258.95808 224.07834,257.35809   C 225.59833,255.8381 227.11832,254.31812 228.31831,252.47813   C 228.39831,252.23813 228.15831,251.99813 227.91831,252.15813   z " style="fill:#1b1e43;fill-rule:nonzero;fill-opacity:1;stroke:none;"/><path id="path359" d="  M 231.43829,265.91803   C 229.9183,265.75803 228.15831,267.11802 226.79832,267.83802   C 225.19833,268.71801 223.43834,269.518 221.99836,270.71799   C 221.59836,271.03799 221.99836,271.75799 222.47835,271.59799   C 224.23834,270.87799 225.83833,269.838 227.51831,268.95801   C 228.8783,268.23801 230.87829,267.75802 231.67828,266.39803   C 231.83828,266.15803 231.67828,265.99803 231.43829,265.91803   z " style="fill:#1b1e43;fill-rule:nonzero;fill-opacity:1;stroke:none;"/><path id="path361" d="  M 232.55828,276.63795   C 231.51829,277.75794 230.47829,278.79793 229.3583,279.83793   C 228.31831,280.79792 227.03832,281.67791 226.07833,282.79791   C 225.67833,283.2779 226.15832,283.9179 226.71832,283.5979   C 229.2783,282.31791 231.59828,279.75793 233.59827,277.67794   C 234.23826,277.03795 233.19827,275.99796 232.55828,276.63795   z " style="fill:#1b1e43;fill-rule:nonzero;fill-opacity:1;stroke:none;"/><path id="path363" d="  M 131.75902,205.35848   C 129.51904,203.91849 127.11906,202.8785 124.55908,202.3185   C 122.63909,201.9185 119.99911,201.35851 118.31912,202.5585   C 118.15912,202.7185 118.07913,202.9585 118.31912,203.1185   C 119.99911,203.99849 122.23909,203.67849 124.07908,204.15849   C 126.47906,204.71848 128.71905,205.67848 130.79903,207.03847   C 131.83902,207.75846 132.79902,205.99847 131.75902,205.35848   z " style="fill:#1b1e43;fill-rule:nonzero;fill-opacity:1;stroke:none;"/><path id="path365" d="  M 162.71879,312.95768   C 162.1588,312.07769 160.87881,312.71768 161.03881,313.67768   C 161.9988,318.07764 162.87879,321.83762 161.7588,326.31758   C 161.19881,328.31757 160.07881,330.15755 161.9188,331.59754   C 162.0788,331.67754 162.3188,331.59754 162.3188,331.43754   C 163.91879,325.35759 166.07877,318.87764 162.71879,312.95768   z " style="fill:#1b1e43;fill-rule:nonzero;fill-opacity:1;stroke:none;"/><path id="path367" d="  M 170.39874,323.5976   C 170.31874,323.4376 169.99874,323.3576 169.83874,323.5176   C 169.27875,324.1576 169.27875,324.79759 169.19875,325.59759   C 169.11875,326.47758 169.03875,327.43757 168.95875,328.31757   C 168.95875,329.03756 170.07874,329.19756 170.15874,328.47757   C 170.31874,327.67757 170.47874,326.79758 170.55874,325.91759   C 170.63874,325.11759 170.79873,324.3976 170.39874,323.5976   z " style="fill:#1b1e43;fill-rule:nonzero;fill-opacity:1;stroke:none;"/><path id="path369" d="  M 197.83853,214.07841   C 196.71854,212.87842 194.87856,212.63842 193.35857,212.31843   C 191.67858,212.07843 189.99859,211.91843 188.31861,212.31843   C 187.91861,212.47843 187.83861,213.19842 188.31861,213.27842   C 189.99859,213.59842 191.59858,213.59842 193.27857,213.91842   C 194.71856,214.15841 196.15855,214.87841 197.59854,214.71841   C 197.91853,214.63841 198.07853,214.31841 197.83853,214.07841   z " style="fill:#1b1e43;fill-rule:nonzero;fill-opacity:1;stroke:none;"/><path id="path371" d="  M 194.79856,219.83837   C 193.91856,219.91837 193.11857,220.15837 192.31858,220.55837   C 191.75858,220.79836 192.07858,221.59836 192.63857,221.67836   C 193.35857,221.67836 194.23856,221.59836 195.03856,221.35836   C 195.83855,221.11836 195.67855,219.75837 194.79856,219.83837   z " style="fill:#1b1e43;fill-rule:nonzero;fill-opacity:1;stroke:none;"/><path id="path373" d="  M 176.63869,276.55795   C 181.03866,271.83799 182.87865,265.11804 184.23864,258.71808   C 186.79862,246.47817 188.3986,234.07827 189.1186,221.67836   C 189.1186,221.67836 189.1186,221.67836 189.1986,221.67836   C 190.63859,221.67836 191.27858,223.51834 191.51858,224.95833   C 193.59857,236.71825 195.11855,248.55816 196.23855,260.47807   C 193.35857,263.19805 190.87859,266.23803 188.07861,269.03801   C 184.63863,272.47798 180.79866,274.63797 176.63869,276.55795   z " style="fill:#414c89;fill-rule:nonzero;fill-opacity:1;stroke:none;"/><path id="path375" d="  M 175.7587,277.35795   C 175.9987,277.03795 176.1587,276.87795 176.31869,276.87795   C 176.1587,277.03795 175.9187,277.19795 175.7587,277.35795   z  M 176.31869,276.87795   C 176.39869,276.71795 176.47869,276.63795 176.63869,276.55795   C 180.79866,274.63797 184.63863,272.47798 188.07861,269.03801   C 190.87859,266.23803 193.35857,263.19805 196.23855,260.47807   C 196.31855,260.95807 196.31855,261.51806 196.39855,261.99806   C 190.63859,268.23801 185.59863,272.87798 177.99868,276.55795   C 177.59868,276.79795 177.35869,276.79795 177.11869,276.79795   C 177.03869,276.79795 176.95869,276.79795 176.87869,276.79795   C 176.79869,276.79795 176.71869,276.79795 176.63869,276.79795   C 176.55869,276.79795 176.39869,276.79795 176.31869,276.87795   z " style="fill:#1b1e43;fill-rule:nonzero;fill-opacity:1;stroke:none;"/><path id="path377" d="  M 168.95875,333.75753   C 163.43879,333.75753 157.91883,331.67754 153.67886,327.99757   C 150.15889,324.95759 147.51891,320.95762 144.87893,316.95765   C 138.71897,307.51772 132.39902,297.99779 128.47905,287.27787   C 126.79906,282.9579 125.59907,278.39794 124.39908,273.83797   C 120.63911,259.11808 117.51913,244.15819 115.11915,229.1183   C 114.87915,227.67831 113.27916,222.15835 115.75914,221.43836   C 115.83914,221.43836 115.91914,221.35836 115.99914,221.35836   C 117.35913,221.35836 118.07913,225.83833 119.11912,227.19832   C 120.8791,229.5183 123.51909,230.47829 124.71908,233.19827   C 125.99907,235.91825 125.59907,239.27823 125.35907,242.07821   C 125.03907,246.39817 124.87907,250.71814 124.95907,255.03811   C 125.03907,257.51809 125.11907,260.07807 126.07907,262.39806   C 127.19906,265.35803 129.51904,267.51802 130.87903,270.398   C 131.99902,272.87798 132.39902,275.59796 132.79902,278.31794   C 135.599,294.95782 142.79894,310.7977 153.35886,323.3576   C 155.03885,325.35759 157.11884,327.35758 159.51882,327.35758   C 159.59882,327.35758 159.67882,327.35758 159.67882,327.35758   C 160.31881,327.35758 160.87881,327.19758 161.5188,327.11758   C 160.95881,328.79756 160.23881,330.31755 161.9188,331.59754   C 161.9188,331.59754 161.9988,331.59754 162.0788,331.59754   C 162.1588,331.59754 162.3188,331.51754 162.3188,331.43754   C 162.71879,329.91756 163.19879,328.31757 163.59879,326.79758   C 164.07878,326.79758 164.63878,326.95758 165.03878,327.27758   C 165.83877,327.83757 166.15877,328.79756 166.95876,329.27756   C 167.27876,329.43756 167.59876,329.51756 167.91876,329.51756   C 168.63875,329.51756 169.43874,329.11756 170.23874,328.79756   C 171.03873,328.39757 171.75873,327.99757 172.55872,327.99757   C 172.87872,327.99757 173.19872,328.07757 173.51871,328.23757   C 174.79871,329.03756 174.71871,331.19755 173.67871,332.31754   C 172.55872,333.43753 170.95873,333.67753 169.51874,333.67753   C 169.35875,333.75753 169.11875,333.75753 168.95875,333.75753   z " style="fill:#414c89;fill-rule:nonzero;fill-opacity:1;stroke:none;"/><path id="path379" d="  M 162.0788,331.59754   C 161.9988,331.59754 161.9188,331.59754 161.9188,331.59754   C 160.23881,330.31755 160.95881,328.79756 161.5188,327.11758   C 162.1588,326.95758 162.87879,326.79758 163.51879,326.79758   C 163.51879,326.79758 163.51879,326.79758 163.59879,326.79758   C 163.19879,328.31757 162.71879,329.91756 162.3188,331.43754   C 162.3188,331.51754 162.1588,331.59754 162.0788,331.59754   z " style="fill:#1b1e43;fill-rule:nonzero;fill-opacity:1;stroke:none;"/><path id="path381" d="  M 182.31865,330.47755   C 181.99865,328.39757 184.47863,327.11758 186.47862,326.47758   C 188.9586,325.67759 191.35858,324.95759 193.83856,324.1576   C 196.39855,323.3576 199.19852,322.31761 200.47851,319.99763   C 201.03851,319.03764 201.27851,317.99764 201.9185,317.11765   C 203.43849,315.19767 206.31847,315.43766 208.63845,314.63767   C 211.83843,313.51768 213.83842,310.3177 214.95841,307.11773   C 215.5184,305.75774 217.83839,302.95776 218.95838,302.95776   C 219.51837,302.95776 219.83837,303.59775 219.59837,305.27774   C 218.63838,311.1177 214.79841,316.15766 210.07844,319.59763   C 205.35848,323.11761 199.75852,325.27759 194.15856,327.11758   C 190.23859,328.39757 186.31862,329.59756 182.31865,330.47755   z " style="fill:#414c89;fill-rule:nonzero;fill-opacity:1;stroke:none;"/><path id="path383" d="  M 207.59846,165.35878   C 207.59846,166.07877 207.43846,166.87876 207.99846,167.51876   C 208.55846,168.15875 209.67845,168.23875 210.55844,167.83876   C 211.35843,167.51876 211.91843,166.79876 212.39843,166.07877   C 213.75842,163.59879 213.75842,160.55881 212.31843,158.07883   C 211.27843,156.39884 205.67848,152.47887 204.39849,156.07884   C 203.91849,157.43883 205.75848,158.87882 206.31847,159.99881   C 207.27846,161.6788 207.67846,163.51879 207.59846,165.35878   z " style="fill:#f38790;fill-rule:nonzero;fill-opacity:1;stroke:none;"/><path id="path385" d="  M 212.63842,158.95882   C 214.79841,159.19882 216.71839,159.19882 217.67839,159.19882   C 219.43837,159.11882 221.19836,158.47883 221.99836,157.19884   C 222.55835,156.39884 222.63835,155.51885 222.55835,154.63885   C 222.47835,153.35886 221.19836,152.07887 219.99837,151.35888   C 221.43836,151.27888 222.79835,150.31889 223.11835,149.1189   C 223.43834,147.9189 222.63835,146.55891 221.35836,145.99892   C 222.55835,145.11893 223.51834,144.07893 223.67834,142.79894   C 223.83834,141.51895 222.07835,140.15896 220.63837,139.91896   C 221.91836,139.35897 222.79835,138.15898 222.71835,136.87899   C 222.63835,135.279 221.11836,133.99901 219.43837,133.43901   C 217.67839,132.87902 215.8384,132.87902 213.99841,132.87902   L 209.11845,132.87902   C 207.43846,132.87902 205.43848,133.11901 204.79848,134.479   C 204.15849,135.91899 205.67848,137.43898 205.43848,138.95897   C 205.19848,140.07896 203.99849,140.87896 203.51849,141.91895   C 202.2385,144.79893 206.07847,147.9989 204.55848,150.79888   C 204.15849,151.43888 203.51849,151.91887 203.0385,152.47887   C 199.43852,156.63884 206.87847,158.39883 212.63842,158.95882   z " style="fill:#f38790;fill-rule:nonzero;fill-opacity:1;stroke:none;"/><path id="path387" d="  M 220.87836,151.11888   C 220.07837,150.79888 219.19838,150.79888 218.31838,150.79888   C 217.43839,150.79888 216.3184,150.71888 215.4384,151.11888   C 215.19841,151.19888 215.19841,151.43888 215.4384,151.51888   C 216.3184,151.83888 217.43839,151.75888 218.31838,151.83888   C 219.19838,151.83888 220.07837,151.75888 220.87836,151.43888   C 221.03836,151.35888 221.03836,151.19888 220.87836,151.11888   z " style="fill:#1b1e43;fill-rule:nonzero;fill-opacity:1;stroke:none;"/><path id="path389" d="  M 221.75836,145.19892   C 220.71837,144.39893 218.71838,144.55893 217.67839,145.35892   C 217.43839,145.51892 217.51839,145.91892 217.83839,145.91892   C 218.47838,145.91892 219.19838,145.75892 219.83837,145.75892   C 220.47837,145.67892 221.11836,145.67892 221.67836,145.43892   C 221.83836,145.43892 221.83836,145.27892 221.75836,145.19892   z " style="fill:#1b1e43;fill-rule:nonzero;fill-opacity:1;stroke:none;"/><path id="path391" d="  M 221.75836,139.51897   C 220.31837,138.71897 217.99839,139.03897 216.4784,139.51897   C 216.2384,139.59897 216.2384,140.07896 216.5584,140.07896   C 217.51839,140.07896 218.39838,139.99896 219.27838,139.99896   C 220.07837,139.99896 220.95836,140.07896 221.67836,139.83896   C 221.83836,139.83896 221.83836,139.59897 221.75836,139.51897   z " style="fill:#1b1e43;fill-rule:nonzero;fill-opacity:1;stroke:none;"/><path id="path393" d="  M 213.11842,158.47883   C 211.43843,158.07883 209.67845,158.07883 207.91846,158.15883   C 207.75846,158.15883 207.75846,158.39883 207.91846,158.39883   C 209.67845,158.63882 211.35843,158.95882 213.03842,159.11882   C 213.43842,159.19882 213.51842,158.55883 213.11842,158.47883   z " style="fill:#1b1e43;fill-rule:nonzero;fill-opacity:1;stroke:none;"/></g></svg>