<?xml version="1.0" encoding="UTF-8" standalone="no"?>
<svg
   xmlns:dc="http://purl.org/dc/elements/1.1/"
   xmlns:cc="http://creativecommons.org/ns#"
   xmlns:rdf="http://www.w3.org/1999/02/22-rdf-syntax-ns#"
   xmlns:svg="http://www.w3.org/2000/svg"
   xmlns="http://www.w3.org/2000/svg"
   id="svg204"
   height="177mm"
   width="177mm"
   version="1.0">
  <metadata
     id="metadata208">
    <rdf:RDF>
      <cc:Work
         rdf:about="">
        <dc:format>image/svg+xml</dc:format>
        <dc:type
           rdf:resource="http://purl.org/dc/dcmitype/StillImage" />
      </cc:Work>
    </rdf:RDF>
  </metadata>
  <defs
     id="defs12">
    <clipPath
       id="clipEmfPath1"
       clipPathUnits="userSpaceOnUse">
      <path
         id="path2"
         d="  M 434.15678,498.39631   C 440.71674,478.87645 458.31661,465.19655 476.23647,455.03663   C 494.23634,444.79671 513.67619,436.63677 528.71608,422.47687   C 540.95599,410.87696 549.67593,395.59707 553.3559,379.19719   C 556.55588,365.1173 554.95589,347.99742 542.95598,339.91748   C 535.67603,335.03752 525.9961,334.79752 517.59617,337.5175   C 509.27623,340.31748 502.07628,345.67744 495.51633,351.5174   C 456.15662,386.63714 436.23677,437.99676 417.67691,487.35639   C 416.23692,491.35636 414.71693,495.51633 415.27692,499.6763   C 415.75692,503.91627 419.1169,508.07624 423.27686,507.99624   C 427.51683,507.91624 430.63681,501.83628 427.43683,499.1163   L 434.15678,498.39631 " />
    </clipPath>
    <clipPath
       id="clipEmfPath2"
       clipPathUnits="userSpaceOnUse">
      <path
         id="path5"
         d="  M 291.75784,555.99588   C 280.55792,534.47604 257.51809,521.83613 234.79826,513.3562   C 211.99843,504.79626 187.83861,498.8763 167.83876,485.27641   C 151.43888,474.07649 138.47897,457.91661 131.11903,439.51674   C 124.79908,423.83686 123.51909,403.59701 135.91899,391.9971   C 143.51894,384.95715 154.71885,382.87716 164.95878,384.47715   C 175.1987,386.15714 184.55863,391.1171 193.27857,396.71706   C 245.51818,430.15681 278.15794,486.1564 308.79771,540.076   C 311.27769,544.39597 313.83768,548.95593 313.99767,553.9159   C 314.15767,558.87586 311.0377,564.39582 306.15773,565.03581   C 301.19777,565.75581 296.4778,559.27586 299.75778,555.51589   L 291.75784,555.99588 " />
    </clipPath>
    <clipPath
       id="clipEmfPath3"
       clipPathUnits="userSpaceOnUse">
      <path
         id="path8"
         d="  M 425.19685,438.95675   L 440.95673,531.83606   L 440.95673,531.91606   L 309.03771,554.23589   L 293.27783,461.35658   L 293.27783,461.35658   L 425.19685,438.95675   z" />
    </clipPath>
    <pattern
       y="0"
       x="0"
       height="6"
       width="6"
       patternUnits="userSpaceOnUse"
       id="EMFhbasepattern" />
  </defs>
  <path
     id="path14"
     d="  M 227.99831,520.23615   C 225.43833,515.67618 222.79835,511.03621 218.79838,507.83624   C 215.9984,505.59625 212.47843,504.07627 208.95845,504.07627   C 207.35846,504.07627 205.75848,504.39626 204.31849,505.11626   C 202.7185,505.83625 201.43851,506.95624 200.47851,508.23624   C 197.35854,506.07625 194.23856,503.91627 191.11858,501.59628   C 26.399804,379.51719 116.87913,172.15872 214.39841,172.15872   C 218.47838,172.15872 222.55835,172.55872 226.55832,173.27872   C 231.27829,174.15871 235.83825,174.63871 240.23822,174.79871   L 237.51824,175.2787   C 221.11836,178.07868 210.07844,193.67857 212.87842,210.07844   L 259.19808,481.19644   C 253.11813,493.19635 249.11815,506.23625 247.51817,519.51615   C 248.23816,504.95626 245.99818,490.23637 240.87822,476.55647   C 238.15824,469.27652 233.19827,461.27658 225.43833,460.95659   C 225.27833,460.95659 225.19833,460.95659 225.03833,460.95659   C 217.43839,460.95659 211.75843,469.19652 211.75843,476.79647   C 211.75843,484.63641 215.8384,491.83636 219.83837,498.55631   C 223.83834,505.27626 227.99831,512.3962 227.99831,520.23615   M 477.27646,483.83642   C 483.35642,473.75649 486.1564,461.83658 485.19641,450.07667   C 496.39632,444.15671 507.67624,438.47675 517.91616,431.27681   C 514.55619,438.79675 510.95622,446.0767 507.03624,452.95664   C 505.51626,451.75665 503.59627,451.27666 501.67628,451.27666   C 498.63631,451.27666 495.35633,452.55665 493.11635,454.63663   C 489.03638,458.4766 487.35639,464.15656 485.5964,469.51652   C 483.91642,474.87648 481.83643,480.47644 477.27646,483.83642   z  M 457.11661,399.19704   L 418.7969,174.8787   C 416.31692,160.23881 403.51701,149.83889 389.11712,149.83889   C 387.43713,149.83889 385.75714,149.99889 384.07715,150.23889   L 278.39794,168.31875   C 298.63779,160.15881 315.51766,145.75892 331.75754,131.27903   C 356.31736,109.51919 379.35719,87.679351 410.23696,87.679351   C 421.67688,87.679351 434.23678,90.719328 448.39668,97.919275   C 527.35609,138.15898 537.99601,235.11826 537.99601,235.11826   C 543.27598,272.79798 544.07597,307.35772 541.03599,338.79749   C 537.19602,336.71751 532.79605,335.75751 528.31609,335.75751   C 524.71611,335.75751 521.03614,336.39751 517.59617,337.5175   C 509.27623,340.31748 502.07628,345.67744 495.51633,351.5174   C 480.07644,365.27729 467.67654,381.51717 457.11661,399.19704  "
     style="fill:#fcd1e3;fill-rule:nonzero;fill-opacity:1;stroke:none;" />
  <path
     id="path16"
     d="  M 474.23649,293.67782   C 474.55648,292.39783 475.51648,291.43784 476.79647,291.11784   C 475.75648,290.39785 475.27648,289.03786 475.59648,287.75787   C 475.99647,285.91788 477.83646,284.79789 479.67645,285.19789   C 479.83645,285.19789 480.15644,285.27789 480.15644,285.27789   L 488.23638,287.27787   C 488.23638,287.27787 488.15638,279.75793 489.59637,275.99796   C 491.11636,272.23798 496.71632,271.75799 495.83633,276.07795   C 494.95633,280.39792 495.19633,281.99791 497.67631,286.47788   C 499.2763,289.43786 499.9963,291.59784 500.31629,292.79783   C 500.47629,293.35783 500.47629,293.99782 500.39629,294.55782   L 496.71632,310.8777   C 496.55632,311.75769 495.67633,312.39769 494.71634,312.15769   L 475.19648,307.75772   C 475.19648,307.75772 474.79648,307.67772 474.63648,307.67772   C 472.7965,307.27772 471.43651,305.51774 471.9965,303.75775   C 472.4765,302.23776 474.39649,302.07776 474.39649,302.07776   C 474.39649,302.07776 472.2365,301.35777 472.7165,299.19778   C 473.19649,297.1178 474.55648,296.9578 475.43648,297.1178   C 474.47649,296.31781 473.91649,295.03781 474.23649,293.67782   z "
     style="fill:#5a52ad;fill-rule:nonzero;fill-opacity:1;stroke:none;" />
  <path
     id="path18"
     d="  M 505.19626,294.39782   L 512.31621,295.99781   C 513.4362,296.23781 514.15619,297.3578 513.91619,298.55779   L 509.75622,317.03765   C 509.51623,318.15764 508.39623,318.87764 507.19624,318.63764   L 500.1563,317.03765   C 498.9563,316.79765 498.23631,315.67766 498.47631,314.47767   L 502.63628,295.99781   C 502.87627,294.87782 504.07627,294.15782 505.19626,294.39782   z "
     style="fill:#5a52ad;fill-rule:nonzero;fill-opacity:1;stroke:none;" />
  <path
     id="path20"
     d="  M 434.15678,498.39631   C 440.71674,478.87645 458.31661,465.19655 476.23647,455.03663   C 494.23634,444.79671 513.67619,436.63677 528.71608,422.47687   C 540.95599,410.87696 549.67593,395.59707 553.3559,379.19719   C 556.55588,365.1173 554.95589,347.99742 542.95598,339.91748   C 535.67603,335.03752 525.9961,334.79752 517.59617,337.5175   C 509.27623,340.31748 502.07628,345.67744 495.51633,351.5174   C 456.15662,386.63714 436.23677,437.99676 417.67691,487.35639   C 416.23692,491.35636 414.71693,495.51633 415.27692,499.6763   C 415.75692,503.91627 419.1169,508.07624 423.27686,507.99624   C 427.51683,507.91624 430.63681,501.83628 427.43683,499.1163   L 434.15678,498.39631   z "
     clip-path="url(#clipEmfPath1)"
     style="fill:#6b82ca;fill-rule:nonzero;fill-opacity:1;stroke:none;" />
  <path
     id="path22"
     d="  M 558.71586,331.99754   C 558.71586,332.07754 483.83642,379.43719 412.63694,522.95613   L 413.27694,523.27612   C 448.79668,451.51666 485.27641,403.83701 512.8762,374.15723   C 526.6361,359.27734 538.23601,348.87742 546.31595,342.23746   C 550.39592,338.87749 553.5959,336.47751 555.75588,334.87752   C 556.87587,334.07753 557.67587,333.51753 558.23586,333.11753   C 558.79586,332.79753 559.11586,332.55754 559.11586,332.55754   L 558.71586,331.99754   z "
     clip-path="url(#clipEmfPath1)"
     style="fill:#ffffff;fill-rule:nonzero;fill-opacity:1;stroke:none;" />
  <path
     id="path24"
     d="  M 517.83616,368.31727   C 517.83616,368.31727 517.75616,366.39729 517.59617,363.27731   C 517.43617,360.07733 517.35617,355.75736 517.35617,350.8774   C 517.35617,340.47748 517.91616,327.59757 520.39615,319.27763   L 519.75615,319.03764   C 517.27617,327.59757 516.63617,340.39748 516.63617,350.8774   C 516.63617,360.63733 517.19617,368.31727 517.19617,368.31727   L 517.83616,368.31727   z "
     clip-path="url(#clipEmfPath1)"
     style="fill:#ffffff;fill-rule:nonzero;fill-opacity:1;stroke:none;" />
  <path
     id="path26"
     d="  M 508.15624,379.83719   C 508.15624,379.83719 532.39606,387.51713 554.47589,387.51713   C 562.15584,387.51713 569.59578,386.63714 575.67574,384.07715   L 575.35574,383.43716   C 569.43578,385.91714 562.07584,386.87713 554.47589,386.87713   C 543.51597,386.87713 531.99606,384.95715 523.19612,383.03716   C 518.79616,382.07717 515.03618,381.11718 512.4762,380.39718   C 511.19621,380.07718 510.15622,379.75719 509.43623,379.51719   C 508.71623,379.35719 508.31623,379.19719 508.31623,379.19719   L 508.15624,379.83719   z "
     clip-path="url(#clipEmfPath1)"
     style="fill:#ffffff;fill-rule:nonzero;fill-opacity:1;stroke:none;" />
  <path
     id="path28"
     d="  M 525.43611,361.59732   C 525.43611,361.59732 534.39604,362.63731 545.59596,362.63731   C 559.19586,362.63731 576.07573,361.19732 583.99567,354.47737   L 583.59568,353.99738   C 575.99573,360.47733 559.11586,361.99732 545.59596,361.99732   C 539.996,361.99732 535.03604,361.75732 531.35606,361.43732   C 529.51608,361.35732 528.07609,361.19732 527.0361,361.11733   C 526.0761,361.03733 525.51611,360.95733 525.51611,360.95733   L 525.43611,361.59732   z "
     clip-path="url(#clipEmfPath1)"
     style="fill:#ffffff;fill-rule:nonzero;fill-opacity:1;stroke:none;" />
  <path
     id="path30"
     d="  M 499.4363,387.91713   C 499.4363,387.91713 499.1963,387.43713 498.79631,386.63714   C 496.07633,380.87718 485.11641,356.71736 484.79641,339.43749   L 484.15641,339.43749   C 484.55641,359.43734 498.79631,388.15712 498.8763,388.23712   L 499.4363,387.91713   z "
     clip-path="url(#clipEmfPath1)"
     style="fill:#ffffff;fill-rule:nonzero;fill-opacity:1;stroke:none;" />
  <path
     id="path32"
     d="  M 487.91639,402.71702   C 487.91639,402.71702 516.31618,413.59694 540.636,413.59694   C 551.19592,413.59694 561.11584,411.51695 567.4358,405.437   L 566.9558,404.957   C 560.87585,410.79696 551.11592,412.87694 540.636,412.87694   C 528.55608,412.87694 515.43618,410.15696 505.35626,407.51698   C 500.31629,406.15699 495.99633,404.797 492.95635,403.75701   C 491.43636,403.27701 490.23637,402.79702 489.43637,402.55702   C 488.63638,402.23702 488.15638,402.07702 488.15638,402.07702   L 487.91639,402.71702   z "
     clip-path="url(#clipEmfPath1)"
     style="fill:#ffffff;fill-rule:nonzero;fill-opacity:1;stroke:none;" />
  <path
     id="path34"
     d="  M 480.15644,412.95694   C 480.15644,412.95694 479.75645,412.39695 479.11645,411.43695   C 476.87647,408.15698 471.11651,399.67704 465.99655,389.59711   C 460.87659,379.59719 456.31662,367.99727 456.31662,358.71734   C 456.31662,357.91735 456.39662,357.19735 456.39662,356.47736   L 455.75662,356.39736   C 455.67662,357.11735 455.67662,357.91735 455.67662,358.71734   C 455.67662,369.59726 461.67658,383.19716 467.67654,394.15708   C 473.59649,405.037 479.59645,413.27694 479.59645,413.35694   L 480.15644,412.95694   z "
     clip-path="url(#clipEmfPath1)"
     style="fill:#ffffff;fill-rule:nonzero;fill-opacity:1;stroke:none;" />
  <path
     id="path36"
     d="  M 473.75649,422.71687   C 473.75649,422.71687 482.55643,427.19684 493.19635,431.7568   C 503.91627,436.31677 516.55617,440.79673 524.47611,440.79673   C 525.59611,440.79673 526.6361,440.71674 527.59609,440.55674   L 527.43609,439.91674   C 526.5561,440.07674 525.59611,440.15674 524.47611,440.15674   C 516.79617,440.15674 504.15627,435.67677 493.51634,431.11681   C 488.15638,428.87682 483.27642,426.63684 479.75645,424.95685   C 477.99646,424.07686 476.63647,423.35686 475.59648,422.87687   C 474.63648,422.39687 474.07649,422.07687 474.07649,422.07687   L 473.75649,422.71687   z "
     clip-path="url(#clipEmfPath1)"
     style="fill:#ffffff;fill-rule:nonzero;fill-opacity:1;stroke:none;" />
  <path
     id="path38"
     d="  M 466.07655,431.27681   C 466.07655,431.27681 465.59655,430.95681 464.71656,430.23681   C 461.67658,427.99683 454.07664,421.99687 446.79669,414.79693   C 439.43674,407.67698 432.3968,399.27704 430.55681,392.23709   L 429.91682,392.39709   C 432.1568,400.71703 441.11673,410.55696 449.43667,418.3169   C 457.83661,426.07684 465.67655,431.8368 465.67655,431.8368   L 466.07655,431.27681   L 466.07655,431.27681   z "
     clip-path="url(#clipEmfPath1)"
     style="fill:#ffffff;fill-rule:nonzero;fill-opacity:1;stroke:none;" />
  <path
     id="path40"
     d="  M 458.4766,444.79671   C 458.4766,444.79671 489.75637,463.67657 516.47617,463.75656   C 518.63616,463.75656 520.79614,463.59657 522.87613,463.27657   L 522.79613,462.63657   C 520.71614,462.95657 518.63616,463.03657 516.47617,463.03657   C 503.27627,463.03657 488.87638,458.31661 477.75646,453.59664   C 472.1565,451.27666 467.43654,448.87667 464.07656,447.11669   C 462.39657,446.23669 461.11658,445.5167 460.15659,445.0367   C 459.2766,444.47671 458.7966,444.23671 458.7966,444.23671   L 458.4766,444.79671   z "
     clip-path="url(#clipEmfPath1)"
     style="fill:#ffffff;fill-rule:nonzero;fill-opacity:1;stroke:none;" />
  <path
     id="path42"
     d="  M 449.43667,456.47662   C 449.43667,456.47662 448.87667,456.07662 447.83668,455.35663   C 444.31671,452.87665 435.35678,446.31669 426.71684,438.87675   C 418.1569,431.3568 409.99696,422.87687 408.15698,416.55691   L 407.51698,416.71691   C 408.63697,420.55688 411.83695,424.87685 415.91692,429.35682   C 428.23683,442.79672 449.03667,457.03661 449.11667,457.03661   L 449.43667,456.47662   z "
     clip-path="url(#clipEmfPath1)"
     style="fill:#ffffff;fill-rule:nonzero;fill-opacity:1;stroke:none;" />
  <path
     id="path44"
     d="  M 460.39659,506.15625   C 463.75656,493.19635 475.11648,483.59642 487.35639,478.23646   C 499.6763,472.9565 513.1962,471.19651 526.3161,468.47653   C 539.436,465.75655 552.79591,461.83658 562.95583,453.11664   C 567.4358,449.35667 571.27577,444.39671 572.31576,438.63675   C 573.27575,432.87679 570.79577,426.23684 565.43581,423.75686   C 557.03587,419.99689 548.15594,427.75683 541.75599,434.39678   C 526.0761,450.87666 508.07624,465.03656 488.39638,476.39647   z "
     style="fill:#5a52ad;fill-rule:nonzero;fill-opacity:1;stroke:none;" />
  <path
     id="path46"
     d="  M 291.75784,555.99588   C 280.55792,534.47604 257.51809,521.83613 234.79826,513.3562   C 211.99843,504.79626 187.83861,498.8763 167.83876,485.27641   C 151.43888,474.07649 138.47897,457.91661 131.11903,439.51674   C 124.79908,423.83686 123.51909,403.59701 135.91899,391.9971   C 143.51894,384.95715 154.71885,382.87716 164.95878,384.47715   C 175.1987,386.15714 184.55863,391.1171 193.27857,396.71706   C 245.51818,430.15681 278.15794,486.1564 308.79771,540.076   C 311.27769,544.39597 313.83768,548.95593 313.99767,553.9159   C 314.15767,558.87586 311.0377,564.39582 306.15773,565.03581   C 301.19777,565.75581 296.4778,559.27586 299.75778,555.51589   z "
     clip-path="url(#clipEmfPath2)"
     style="fill:#5a52ad;fill-rule:nonzero;fill-opacity:1;stroke:none;" />
  <path
     id="path48"
     d="  M 115.83914,386.39714   C 115.83914,386.39714 116.23914,386.55714 116.95913,386.87713   C 127.83905,391.9171 218.23838,437.03676 320.71762,580.8757   L 321.19762,580.5557   C 211.91843,426.95684 116.15914,385.83714 116.15914,385.75714   L 115.83914,386.39714   z "
     clip-path="url(#clipEmfPath2)"
     style="fill:#ffffff;fill-rule:nonzero;fill-opacity:1;stroke:none;" />
  <path
     id="path50"
     d="  M 171.11873,420.23689   C 171.11873,420.23689 170.23874,410.55696 168.23875,398.63705   C 166.31877,386.71714 163.27879,372.55724 158.95882,363.43731   L 158.39883,363.75731   C 162.6388,372.71724 165.67877,386.87713 167.59876,398.79705   C 168.55875,404.717 169.27875,410.07696 169.75874,413.99693   C 169.99874,415.91692 170.15874,417.51691 170.23874,418.5569   C 170.39874,419.67689 170.39874,420.31689 170.39874,420.31689   L 171.11873,420.23689   z "
     clip-path="url(#clipEmfPath2)"
     style="fill:#ffffff;fill-rule:nonzero;fill-opacity:1;stroke:none;" />
  <path
     id="path52"
     d="  M 183.43864,431.27681   C 183.43864,431.27681 182.87865,431.5168 181.83865,432.0768   C 174.31871,435.59677 142.79894,449.91667 117.99913,449.91667   C 113.83916,449.91667 109.91919,449.51667 106.31921,448.63668   L 106.15921,449.27667   C 109.83919,450.15667 113.83916,450.55666 117.99913,450.55666   C 146.63891,450.55666 183.75864,431.8368 183.75864,431.8368   L 183.43864,431.27681   z "
     clip-path="url(#clipEmfPath2)"
     style="fill:#ffffff;fill-rule:nonzero;fill-opacity:1;stroke:none;" />
  <path
     id="path54"
     d="  M 160.15881,413.27694   C 160.15881,413.27694 159.75882,413.35694 159.03882,413.59694   C 153.83886,414.87693 131.99902,420.31689 113.27916,420.23689   C 104.63922,420.31689 96.639284,419.1169 91.279324,415.91692   L 90.959326,416.47691   C 96.479285,419.75689 104.55923,420.95688 113.27916,420.95688   C 134.799,420.95688 160.31881,413.91693 160.31881,413.91693   L 160.15881,413.27694   z "
     clip-path="url(#clipEmfPath2)"
     style="fill:#ffffff;fill-rule:nonzero;fill-opacity:1;stroke:none;" />
  <path
     id="path56"
     d="  M 196.07855,439.91674   C 196.07855,439.83674 204.71848,412.31695 204.71848,389.83711   C 204.71848,386.63714 204.55848,383.51716 204.07849,380.55718   L 203.43849,380.63718   C 203.83849,383.51716 204.07849,386.63714 204.07849,389.83711   C 204.07849,401.03703 201.9185,413.51694 199.75852,423.11687   C 198.71853,427.99683 197.59854,432.1568 196.79854,435.03678   C 196.39855,436.47677 196.07855,437.67676 195.83855,438.47675   C 195.59855,439.27675 195.43855,439.67674 195.43855,439.67674   L 196.07855,439.91674   z "
     clip-path="url(#clipEmfPath2)"
     style="fill:#ffffff;fill-rule:nonzero;fill-opacity:1;stroke:none;" />
  <path
     id="path58"
     d="  M 211.11844,454.07664   C 211.11844,454.07664 210.55844,454.47663 209.35845,455.11663   C 201.19851,459.5166 166.87876,477.43646 140.47896,477.43646   C 132.63902,477.43646 125.59907,475.83648 120.07911,472.0765   L 119.67911,472.5565   C 125.35907,476.55647 132.55902,478.07646 140.47896,478.07646   C 170.95873,478.07646 211.43843,454.63663 211.51843,454.63663   L 211.11844,454.07664   z "
     clip-path="url(#clipEmfPath2)"
     style="fill:#ffffff;fill-rule:nonzero;fill-opacity:1;stroke:none;" />
  <path
     id="path60"
     d="  M 223.11835,465.51655   C 223.11835,465.43655 241.27821,429.67682 241.27821,404.31701   C 241.27821,401.03703 240.95822,397.83705 240.23822,394.95707   L 239.59823,395.11707   C 240.31822,397.91705 240.63822,401.03703 240.63822,404.31701   C 240.63822,416.87691 236.07825,432.0768 231.59828,444.15671   C 229.2783,450.23666 227.03832,455.43663 225.35833,459.1966   C 224.47834,461.11658 223.75834,462.55657 223.27835,463.59657   C 222.79835,464.63656 222.47835,465.19655 222.47835,465.19655   L 223.11835,465.51655   z "
     clip-path="url(#clipEmfPath2)"
     style="fill:#ffffff;fill-rule:nonzero;fill-opacity:1;stroke:none;" />
  <path
     id="path62"
     d="  M 231.19829,474.71648   C 231.19829,474.71648 230.55829,475.19648 229.4383,476.07647   C 225.35833,478.95645 214.87841,486.3164 203.67849,492.87635   C 198.07853,496.23632 192.23858,499.3563 186.87862,501.59628   C 181.59865,503.91627 176.79869,505.35626 173.19872,505.35626   C 172.95872,505.35626 172.71872,505.35626 172.55872,505.35626   L 172.47872,505.99625   C 172.71872,505.99625 172.95872,505.99625 173.19872,505.99625   C 177.43869,505.99625 183.19864,504.07627 189.5186,501.19629   C 208.31846,492.55635 231.59828,475.27648 231.59828,475.27648   L 231.19829,474.71648   z "
     clip-path="url(#clipEmfPath2)"
     style="fill:#ffffff;fill-rule:nonzero;fill-opacity:1;stroke:none;" />
  <path
     id="path64"
     d="  M 242.7182,484.39641   C 242.7182,484.39641 250.79814,476.23647 259.03808,465.67655   C 267.35802,455.11663 275.91796,442.07673 276.95795,431.9968   L 276.23795,431.9168   C 275.27796,441.67673 266.79802,454.71663 258.55808,465.27655   C 254.39812,470.55651 250.31815,475.19648 247.27817,478.55646   C 245.75818,480.23644 244.55819,481.59643 243.67819,482.47643   C 242.7982,483.43642 242.23821,483.91642 242.23821,483.91642   L 242.7182,484.39641   z "
     clip-path="url(#clipEmfPath2)"
     style="fill:#ffffff;fill-rule:nonzero;fill-opacity:1;stroke:none;" />
  <path
     id="path66"
     d="  M 253.11813,497.59631   C 253.11813,497.59631 252.47813,498.07631 251.43814,498.9563   C 243.5982,505.19626 210.55844,530.15607 182.07865,530.87607   L 182.15865,531.59606   C 198.55853,531.11607 216.3984,522.71613 230.1583,514.47619   C 243.91819,506.23625 253.51812,498.07631 253.51812,498.07631   L 253.11813,497.59631   z "
     clip-path="url(#clipEmfPath2)"
     style="fill:#ffffff;fill-rule:nonzero;fill-opacity:1;stroke:none;" />
  <path
     id="path68"
     d="  M 266.71802,510.63622   C 266.71802,510.63622 276.23795,501.51629 286.15788,490.15637   C 291.11784,484.47641 296.15781,478.23646 300.07778,472.3165   C 303.99775,466.39655 306.87773,460.71659 307.51772,456.15662   L 306.87773,455.99662   C 306.23773,460.39659 303.43775,466.07655 299.51778,471.9165   C 293.67782,480.79644 285.27789,490.39637 278.47794,497.67631   C 275.03796,501.35629 271.99799,504.47626 269.758,506.63625   C 268.63801,507.75624 267.75802,508.63623 267.19802,509.19623   C 266.55803,509.83622 266.23803,510.15622 266.23803,510.15622   L 266.71802,510.63622   z "
     clip-path="url(#clipEmfPath2)"
     style="fill:#ffffff;fill-rule:nonzero;fill-opacity:1;stroke:none;" />
  <path
     id="path70"
     d="  M 371.91725,518.95616   C 379.27719,510.23622 392.63709,510.79622 403.99701,512.15621   C 399.67704,512.4762 395.83707,508.07624 396.23706,503.75627   C 396.55706,499.4363 400.55703,495.91633 404.877,495.51633   C 409.19697,495.19633 413.51694,497.67631 415.83692,501.35629   C 411.99695,496.55632 407.99698,491.51636 406.55699,485.5164   C 405.197,479.51645 407.19698,472.2365 412.79694,469.59652   C 417.35691,467.43654 423.11687,469.03653 427.03684,472.2365   C 431.03681,475.51648 433.59679,480.07644 436.15677,484.47641   C 436.15677,476.79647 432.0768,469.75652 428.07683,463.11657   C 424.15686,456.47662 420.07689,449.43667 420.07689,441.67673   C 420.15689,433.99679 425.91685,425.75685 433.67679,426.07684   C 441.27673,426.31684 446.1567,434.23678 448.87667,441.43673   C 453.91664,454.95663 456.15662,469.43652 455.35663,483.83642   C 457.19661,468.71653 462.15658,453.91664 469.83652,440.71674   C 470.79651,439.11675 471.8365,437.43676 473.43649,436.55677   C 476.23647,435.03678 479.83645,436.39677 481.83643,438.79675   C 483.83642,441.19673 484.55641,444.47671 484.95641,447.59668   C 486.5564,460.07659 483.75642,473.0365 477.27646,483.83642   C 481.83643,480.47644 483.91642,474.87648 485.5964,469.51652   C 487.35639,464.15656 489.03638,458.4766 493.11635,454.63663   C 497.19632,450.79666 504.55626,449.75667 508.15624,454.07664   C 510.63622,457.03661 510.55622,461.35658 509.75622,465.11655   C 507.99624,473.91649 503.19627,482.07643 496.39632,487.99639   C 502.55628,481.19644 510.07622,475.59648 518.47616,471.8365   C 521.67614,470.31652 525.35611,469.11653 528.55608,470.39652   C 534.71604,472.9565 534.23604,482.23643 530.23607,487.59639   C 526.3161,492.87635 520.15615,496.47632 517.03617,502.31628   C 524.95611,493.83634 538.55601,491.11636 549.11593,496.07633   C 559.67585,501.03629 566.31581,513.1162 564.87582,524.63611   C 518.23616,525.19611 471.59651,525.67611 424.87685,526.1561   C 406.07699,526.3961 387.27713,526.5561 368.47727,525.51611   L 371.91725,518.95616   z "
     style="fill:#f03e82;fill-rule:nonzero;fill-opacity:1;stroke:none;" />
  <path
     id="path72"
     d="  M 242.5582,562.71583   C 238.95823,548.63594 226.71832,538.23601 213.35842,532.47606   C 199.99852,526.7161 185.43863,524.79611 171.19873,521.91613   C 156.95884,518.95616 142.47894,514.71619 131.51903,505.27626   C 126.63906,501.11629 122.47909,495.83633 121.4391,489.51637   C 120.31911,483.27642 123.03909,476.07647 128.79905,473.51649   C 137.91898,469.35652 147.51891,477.75646 154.47886,485.03641   C 171.43873,502.79628 190.95859,518.15616 212.23843,530.47607   z "
     style="fill:#f03e82;fill-rule:nonzero;fill-opacity:1;stroke:none;" />
  <path
     id="path74"
     d="  M 162.87879,555.19589   C 170.31874,546.31595 183.91864,546.87595 195.35855,548.23594   C 191.03858,548.55594 187.11861,544.15597 187.51861,539.756   C 187.83861,535.35603 191.91858,531.75606 196.31855,531.43606   C 200.71851,531.03607 205.03848,533.59605 207.43846,537.27602   C 203.43849,532.39606 199.43852,527.35609 197.99853,521.27614   C 196.55854,515.19618 198.63853,507.83624 204.31849,505.11626   C 208.95845,502.87627 214.71841,504.55626 218.79838,507.83624   C 222.79835,511.03621 225.43833,515.67618 227.99831,520.23615   C 227.99831,512.3962 223.83834,505.27626 219.83837,498.55631   C 215.8384,491.83636 211.75843,484.63641 211.75843,476.79647   C 211.75843,469.03653 217.59839,460.63659 225.43833,460.95659   C 233.19827,461.27658 238.15824,469.27652 240.87822,476.55647   C 245.99818,490.23637 248.23816,504.95626 247.51817,519.51615   C 249.35815,504.15627 254.39812,489.19638 262.15806,475.83648   C 263.11805,474.15649 264.15804,472.4765 265.75803,471.59651   C 268.55801,470.07652 272.31798,471.43651 274.31797,473.91649   C 276.39795,476.31647 277.11795,479.59645 277.51794,482.79642   C 279.03793,495.43633 276.23795,508.63623 269.678,519.51615   C 274.31797,516.15618 276.39795,510.47622 278.15794,505.03626   C 279.91793,499.5963 281.59791,493.83634 285.75788,489.91637   C 289.91785,485.9964 297.3578,484.95641 300.95777,489.35638   C 303.51775,492.31635 303.43775,496.71632 302.63776,500.55629   C 300.79777,509.51623 295.99781,517.75616 289.03786,523.75612   C 295.27781,516.87617 302.95776,511.19621 311.43769,507.35624   C 314.63767,505.83625 318.39764,504.63626 321.67762,505.91625   C 327.91757,508.47623 327.43757,517.91616 323.3576,523.35612   C 319.35763,528.71608 313.19768,532.39606 309.9977,538.31601   C 317.99764,529.67608 331.83754,526.9561 342.47746,531.91606   C 353.19738,536.95602 359.99733,549.27593 358.47734,560.95584   C 311.19769,561.43584 263.91805,561.99584 216.5584,562.47583   C 197.51854,562.71583 178.47868,562.87583 159.43882,561.83584   L 162.87879,555.19589   z "
     style="fill:#3b5eb4;fill-rule:nonzero;fill-opacity:1;stroke:none;" />
  <path
     id="path76"
     d="  M 289.43786,603.27553   C 268.71801,603.27553 255.67811,600.95555 254.95811,596.31558   C 254.31812,592.15561 263.67805,586.63565 279.99793,580.8757   C 280.55792,581.67569 281.19792,582.31569 281.83791,583.03568   C 282.47791,583.75568 283.1979,584.39567 283.9179,585.03567   C 285.75788,586.55566 287.75787,587.91565 289.91785,589.03564   C 290.55785,589.35563 291.27784,589.75563 291.99784,589.99563   C 292.31783,590.15563 292.71783,590.31563 293.03783,590.39563   C 293.75782,590.71562 294.47782,590.95562 295.27781,591.19562   C 296.7978,591.59562 298.39779,591.91562 299.99778,592.15561   C 300.39777,592.15561 300.79777,592.23561 301.19777,592.23561   C 301.51777,592.23561 301.83776,592.23561 302.23776,592.31561   C 302.71776,592.31561 303.11775,592.31561 303.59775,592.31561   C 305.27774,592.31561 306.95773,592.15561 308.63771,591.91562   L 455.19663,566.8758   C 457.27661,566.4758 459.1966,565.99581 461.11658,565.27581   C 461.99658,564.87582 462.95657,564.47582 463.83656,563.99582   L 463.83656,563.99582   C 465.11655,563.35583 466.39655,562.55583 467.59654,561.75584   L 467.59654,561.75584   C 468.39653,561.19584 469.11653,560.55585 469.83652,559.91585   L 469.83652,559.91585   C 470.55651,559.27586 471.27651,558.63586 471.9165,557.91587   C 472.9565,556.87587 473.83649,555.75588 474.71648,554.55589   C 475.51648,553.4359 476.31647,552.15591 476.95647,550.87592   C 477.27646,550.15592 477.67646,549.43593 477.91646,548.71594   C 497.51631,548.87593 509.67622,551.19592 510.39622,555.67588   C 511.99621,565.75581 456.15662,582.95568 385.59714,594.1556   C 347.75742,600.23555 313.43768,603.27553 289.43786,603.27553   z "
     style="fill:#fbc3db;fill-rule:nonzero;fill-opacity:1;stroke:none;" />
  <path
     id="path78"
     d="  M 418.7969,174.8787   L 479.83645,532.07606   C 480.15644,534.15604 480.31644,536.23603 480.23644,538.23601   C 480.23644,539.19601 480.15644,540.156 479.99644,541.19599   C 479.91645,541.67599 479.83645,542.15598 479.75645,542.63598   C 479.19645,545.51596 478.23646,548.31594 476.95647,550.87592   C 476.31647,552.15591 475.51648,553.4359 474.71648,554.55589   C 473.83649,555.75588 472.9565,556.87587 471.9165,557.91587   C 471.27651,558.63586 470.55651,559.27586 469.83652,559.91585   L 469.83652,559.91585   C 469.11653,560.55585 468.39653,561.19584 467.59654,561.75584   L 467.59654,561.75584   C 466.39655,562.55583 465.11655,563.35583 463.83656,563.99582   L 463.83656,563.99582   C 462.95657,564.47582 461.99658,564.87582 461.11658,565.27581   C 459.1966,565.99581 457.27661,566.4758 455.19663,566.8758   L 308.63771,591.91562   C 306.47773,592.23561 304.31775,592.39561 302.23776,592.31561   C 301.83776,592.23561 301.51777,592.23561 301.19777,592.23561   C 300.79777,592.23561 300.39777,592.15561 299.99778,592.15561   C 298.39779,591.91562 296.7978,591.59562 295.27781,591.19562   C 294.47782,590.95562 293.75782,590.71562 293.03783,590.39563   C 292.71783,590.31563 292.31783,590.15563 291.99784,589.99563   C 291.27784,589.75563 290.55785,589.35563 289.91785,589.03564   C 287.75787,587.91565 285.75788,586.55566 283.9179,585.03567   C 283.1979,584.39567 282.47791,583.75568 281.83791,583.03568   C 280.79792,581.99569 279.91793,580.8757 279.03793,579.67571   C 277.91794,578.07572 276.95795,576.39573 276.07795,574.55574   L 276.07795,574.55574   C 275.11796,572.23576 274.31797,569.83578 273.91797,567.2758   L 212.87842,210.07844   C 210.07844,193.67857 221.11836,178.07868 237.51824,175.2787   L 384.07715,150.23889   C 400.47703,147.43891 415.99692,158.47883 418.7969,174.8787   z "
     style="fill:#1c1c1e;fill-rule:nonzero;fill-opacity:1;stroke:none;" />
  <path
     id="path80"
     d="  M 412.23695,175.9987   L 473.27649,533.19605   C 473.59649,534.79604 473.67649,536.39603 473.59649,537.99601   C 473.59649,538.71601 473.51649,539.436 473.43649,540.236   L 473.19649,541.59599   C 472.8765,543.67597 472.1565,545.83596 471.03651,547.83594   C 470.55651,548.87593 469.99652,549.83593 469.27652,550.79592   C 468.71653,551.67591 467.99653,552.55591 467.11654,553.4359   C 466.71654,553.8359 466.23655,554.23589 465.75655,554.79589   L 465.51655,554.95589   C 465.03656,555.35589 464.55656,555.75588 464.07656,556.15588   L 463.75656,556.31588   C 462.87657,556.95587 461.99658,557.51587 461.11658,557.99587   L 460.79659,558.15587   C 460.07659,558.47586 459.3566,558.79586 458.7166,559.11586   C 457.19661,559.67585 455.67662,560.07585 454.07664,560.31585   L 307.51772,585.35566   C 305.91773,585.67566 304.23775,585.75566 302.55776,585.67566   C 301.99776,585.67566 301.35777,585.59566 300.87777,585.59566   C 299.59778,585.43566 298.31779,585.19567 297.1178,584.79567   C 296.4778,584.63567 295.91781,584.39567 295.35781,584.23567   C 295.11781,584.15567 294.87782,584.07567 294.63782,583.91567   L 294.47782,583.91567   C 294.07782,583.67568 293.51783,583.43568 292.87783,583.11568   C 291.27784,582.31569 289.67785,581.27569 288.23786,579.9957   C 287.59787,579.43571 287.11787,578.95571 286.63788,578.47571   C 285.83788,577.59572 285.11789,576.71573 284.47789,575.83573   C 283.5979,574.63574 282.8779,573.43575 282.31791,572.15576   L 282.15791,571.83576   C 281.35792,569.99578 280.79792,568.15579 280.39792,566.15581   L 219.43837,208.95845   C 217.19839,196.15855 225.83833,183.99864 238.63823,181.83865   L 385.11715,156.79884   C 394.87707,155.11885 404.31701,159.75882 409.19697,167.75876   C 410.63696,170.15874 411.75695,172.95872 412.23695,175.9987   z "
     style="fill:#e8eef9;fill-rule:nonzero;fill-opacity:1;stroke:none;" />
  <path
     id="path82"
     d="  M 465.59655,448.79668   L 465.59655,448.63668   C 465.59655,448.63668 465.59655,448.63668 465.59655,448.63668   L 465.59655,448.79668   C 465.59655,448.79668 465.59655,448.79668 465.59655,448.79668   z  M 465.43655,447.83668   C 465.43655,447.83668 465.43655,447.83668 465.43655,447.83668   L 463.51657,436.63677   L 463.51657,436.63677   L 465.43655,447.83668   M 463.35657,435.75677   L 462.23658,429.19682   C 462.23658,429.19682 462.23658,429.19682 462.23658,429.19682   L 463.35657,435.67677   L 463.35657,435.75677   z "
     style="fill:#5971c0;fill-rule:nonzero;fill-opacity:1;stroke:none;" />
  <path
     id="path84"
     d="  M 463.51657,436.63677   L 463.35657,435.75677   L 463.35657,435.67677   L 463.51657,436.63677   L 463.51657,436.63677  z "
     style="fill:#cdcecc;fill-rule:nonzero;fill-opacity:1;stroke:none;" />
  <path
     id="path86"
     d="  M 462.23658,429.19682   C 462.23658,429.19682 462.23658,429.19682 462.23658,429.19682   L 462.07658,428.39683   L 462.07658,428.39683   L 462.23658,429.19682   z "
     style="fill:#cdcecc;fill-rule:nonzero;fill-opacity:1;stroke:none;" />
  <path
     id="path88"
     d="  M 465.59655,448.63668   C 465.59655,448.63668 465.59655,448.63668 465.59655,448.63668   L 465.43655,447.83668   C 465.43655,447.83668 465.43655,447.83668 465.43655,447.83668   L 465.59655,448.63668   z "
     style="fill:#cdcecc;fill-rule:nonzero;fill-opacity:1;stroke:none;" />
  <path
     id="path90"
     d="  M 466.87654,456.55662   C 466.87654,456.55662 466.87654,456.55662 466.87654,456.55662   L 465.59655,448.79668   C 465.59655,448.79668 465.59655,448.79668 465.59655,448.79668   L 466.87654,456.55662   z "
     style="fill:#f0346c;fill-rule:nonzero;fill-opacity:1;stroke:none;" />
  <path
     id="path92"
     d="  M 466.87654,456.55662   C 464.63656,452.31665 463.03657,449.27667 462.63657,448.07668   C 461.67658,445.1967 461.83658,438.79675 462.23658,433.19679   C 462.15658,431.8368 462.15658,430.23681 462.07658,428.39683   L 462.23658,429.19682   L 463.35657,435.75677   L 463.51657,436.63677   L 465.43655,447.83668   L 465.59655,448.63668   L 465.59655,448.79668   L 466.87654,456.55662   z "
     style="fill:#171718;fill-rule:nonzero;fill-opacity:1;stroke:none;" />
  <path
     id="path94"
     d="  M 434.23678,265.35803   L 434.23678,265.35803   L 427.03684,223.11835   C 430.31681,222.55835 433.43679,224.79833 433.99679,228.07831   L 439.19675,258.39809   C 439.75674,261.67806 437.51676,264.79804 434.23678,265.35803   z "
     style="fill:#1c1c1e;fill-rule:nonzero;fill-opacity:1;stroke:none;" />
  <path
     id="path96"
     d="  M 224.87833,279.35793   L 227.67831,278.87793   L 224.07834,257.83809   L 221.27836,258.31809   C 219.51837,258.63808 218.39838,260.23807 218.71838,261.91806   L 221.19836,276.79795   C 221.51836,278.55794 223.11835,279.67793 224.87833,279.35793   z "
     style="fill:#1c1c1e;fill-rule:nonzero;fill-opacity:1;stroke:none;" />
  <path
     id="path98"
     d="  M 229.1983,304.79774   L 232.07828,304.31775   L 228.47831,283.2779   L 225.59833,283.7579   C 223.91834,283.9979 222.71835,285.67788 223.03835,287.35787   L 225.59833,302.23776   C 225.83833,303.99775 227.51831,305.11774 229.1983,304.79774   z "
     style="fill:#1c1c1e;fill-rule:nonzero;fill-opacity:1;stroke:none;" />
  <path
     id="path100"
     d="  M 335.19752,174.47871   L 291.67784,181.91865   C 284.31789,183.19864 277.35795,178.23868 276.07795,170.95873   L 346.23744,158.95882   C 347.51743,166.31877 342.55746,173.27872 335.19752,174.47871   z "
     style="fill:#1c1c1e;fill-rule:nonzero;fill-opacity:1;stroke:none;" />
  <path
     id="path102"
     d="  M 530.31607,551.35592   C 533.19605,547.75594 538.39601,547.11595 541.99599,549.99593   C 545.51596,552.8759 546.15595,558.07587 543.27598,561.59584   C 540.476,565.19581 535.27603,565.75581 531.67606,562.95583   C 528.07609,560.07585 527.51609,554.87589 530.31607,551.35592   z  M 518.79616,560.31585   C 518.95616,560.95584 519.11615,561.67584 519.35615,562.31583   L 523.03613,562.23584   L 524.87611,565.43581   L 522.95613,568.63579   C 523.91612,569.67578 524.95611,570.63577 526.1561,571.51577   L 529.11608,569.27578   L 532.39606,570.79577   L 532.79605,574.47574   C 534.07604,574.71574 535.43603,574.87574 536.87602,574.87574   L 537.99601,571.35577   L 541.59599,570.63577   L 543.99597,573.43575   C 545.35596,572.87576 546.55595,572.15576 547.75594,571.35577   L 546.55595,567.83579   L 549.03593,565.11581   L 552.63591,565.99581   C 553.3559,564.71582 553.9159,563.43583 554.39589,562.07584   L 551.35592,559.91585   L 551.75591,556.31588   L 555.19589,554.87589   C 555.11589,554.0759 555.03589,553.3559 554.87589,552.63591   C 554.71589,551.99591 554.55589,551.27592 554.31589,550.63592   L 550.63592,550.71592   L 548.79593,547.51594   L 550.71592,544.31597   C 549.75593,543.27598 548.71594,542.31598 547.51594,541.51599   L 544.55597,543.67597   L 541.19599,542.15598   L 540.95599,538.47601   C 539.516,538.15601 538.15601,537.99601 536.71602,537.99601   L 535.59603,541.59599   L 531.99606,542.31598   L 529.59608,539.516   C 528.23609,540.076 526.9561,540.79599 525.8361,541.59599   L 527.0361,545.11596   L 524.55611,547.83594   L 520.95614,547.03595   C 520.23615,548.23594 519.67615,549.51593 519.19615,550.95592   L 522.23613,553.0359   L 521.83613,556.71588   L 518.47616,558.15587   C 518.47616,558.87586 518.63616,559.59585 518.79616,560.31585  "
     style="fill:#6b82ca;fill-rule:nonzero;fill-opacity:1;stroke:none;" />
  <path
     id="path104"
     d="  M 409.35697,108.3192   C 413.27694,105.11922 419.1169,105.67922 422.31687,109.67919   C 425.51685,113.67916 424.87685,119.43912 420.95688,122.63909   C 416.95691,125.83907 411.19695,125.19907 407.99698,121.2791   C 404.797,117.35913 405.357,111.51917 409.35697,108.3192   z  M 394.55708,115.27915   C 394.55708,116.07914 394.63708,116.87913 394.71708,117.67913   L 398.71705,118.47912   L 399.99704,122.39909   L 397.11706,125.35907   C 397.91705,126.79906 398.79705,128.07905 399.91704,129.27904   L 403.67701,127.51906   L 406.95699,129.99904   L 406.39699,134.07901   C 407.75698,134.719 409.27697,135.199 410.79696,135.519   L 412.79694,131.99902   L 416.95691,131.99902   L 418.8769,135.67899   C 420.47689,135.359 421.99687,134.879 423.43686,134.23901   L 422.95687,130.15904   L 426.31684,127.83905   L 430.07681,129.59904   C 431.11681,128.47905 432.0768,127.19906 432.87679,125.75907   L 430.15681,122.71909   L 431.4368,118.87912   L 435.51677,118.15912   C 435.59677,117.27913 435.67677,116.47914 435.67677,115.67914   C 435.67677,114.87915 435.67677,114.15915 435.59677,113.35916   L 431.5168,112.55917   L 430.31681,108.6392   L 433.19679,105.59922   C 432.3968,104.23923 431.5168,102.95924 430.39681,101.75925   L 426.63684,103.43923   L 423.35686,100.95925   L 423.91686,96.879282   C 422.47687,96.239287 421.03688,95.679291 419.43689,95.359294   L 417.35691,98.959267   L 413.27694,98.879268   L 411.35695,95.279294   C 409.75696,95.599292 408.23698,96.079288 406.79699,96.719284   L 407.19698,100.79925   L 403.91701,103.19924   L 400.15704,101.43925   C 399.11704,102.55924 398.15705,103.83923 397.35706,105.19922   L 400.07704,108.2392   L 398.79705,112.15917   L 394.71708,112.87916   C 394.63708,113.67916 394.63708,114.47915 394.55708,115.27915  "
     style="fill:#5a52ad;fill-rule:nonzero;fill-opacity:1;stroke:none;" />
  <path
     id="path106"
     d="  M 171.67873,157.51883   C 174.63871,155.19885 178.87867,155.59885 181.27866,158.55883   C 183.59864,161.4388 183.19864,165.75877 180.23866,168.07875   C 177.35869,170.47874 173.03872,169.99874 170.71874,167.11876   C 168.31875,164.15878 168.79875,159.91882 171.67873,157.51883   z  M 160.79881,162.71879   C 160.79881,163.27879 160.87881,163.83879 160.95881,164.39878   L 163.91879,165.03878   L 164.79878,167.91876   L 162.71879,170.15874   C 163.27879,171.11873 163.99879,172.07873 164.71878,172.95872   L 167.51876,171.75873   L 169.91874,173.51871   L 169.51874,176.55869   C 170.55874,177.03869 171.67873,177.35869 172.79872,177.59868   L 174.31871,174.9587   L 177.27869,175.0387   L 178.71868,177.75868   C 179.91867,177.51869 181.03866,177.11869 182.07865,176.71869   L 181.75865,173.67871   L 184.23864,171.91873   L 186.95862,173.27872   C 187.75861,172.39872 188.4786,171.43873 189.1186,170.39874   L 187.03861,168.15875   L 187.99861,165.35878   L 191.03858,164.79878   C 191.11858,164.15878 191.11858,163.59879 191.11858,162.95879   C 191.11858,162.3988 191.11858,161.8388 191.03858,161.27881   L 188.07861,160.63881   L 187.19861,157.75883   L 189.2786,155.59885   C 188.7186,154.55886 188.07861,153.59886 187.27861,152.71887   L 184.47863,153.91886   L 182.07865,152.15887   L 182.47865,149.1189   C 181.43866,148.6389 180.31866,148.2389 179.11867,147.9989   L 177.59868,150.63888   L 174.63871,150.63888   L 173.19872,147.9189   C 171.99873,148.1589 170.87873,148.4789 169.83874,148.9589   L 170.15874,151.99887   L 167.67876,153.75886   L 164.95878,152.47887   C 164.15878,153.27886 163.43879,154.23886 162.87879,155.27885   L 164.87878,157.51883   L 163.91879,160.39881   L 160.95881,160.95881   C 160.87881,161.5188 160.87881,162.0788 160.79881,162.71879  "
     style="fill:#5a52ad;fill-rule:nonzero;fill-opacity:1;stroke:none;" />
  <path
     id="path108"
     d="  M 443.27672,123.75908   C 445.2767,122.0791 448.23668,122.39909 449.83667,124.39908   C 451.43666,126.39906 451.11666,129.35904 449.11667,130.95903   C 447.11669,132.55902 444.23671,132.23902 442.63672,130.23904   C 440.95673,128.23905 441.27673,125.35907 443.27672,123.75908   z  M 435.83677,127.27906   C 435.83677,127.67905 435.83677,128.07905 435.91677,128.39905   L 437.91676,128.87905   L 438.55675,130.79903   L 437.11676,132.31902   C 437.51676,133.03901 437.99676,133.67901 438.55675,134.31901   L 440.39674,133.43901   L 442.07673,134.639   L 441.83673,136.71899   C 442.47672,137.03898 443.27672,137.27898 443.99671,137.43898   L 445.0367,135.67899   L 447.11669,135.67899   L 448.07668,137.51898   C 448.87667,137.35898 449.67667,137.11898 450.39666,136.79899   L 450.15667,134.719   L 451.83665,133.59901   L 453.75664,134.479   C 454.31663,133.91901 454.79663,133.27901 455.19663,132.55902   L 453.75664,131.03903   L 454.47663,129.03904   L 456.47662,128.63905   C 456.55662,128.23905 456.55662,127.83905 456.55662,127.43906   C 456.55662,127.03906 456.55662,126.63906 456.55662,126.23906   L 454.47663,125.83907   L 453.91664,123.91908   L 455.35663,122.39909   C 454.95663,121.6791 454.47663,121.0391 453.91664,120.39911   L 451.99665,121.2791   L 450.39666,119.99911   L 450.63666,117.99913   C 449.91667,117.59913 449.19667,117.35913 448.39668,117.19913   L 447.35669,119.03912   L 445.2767,118.95912   L 444.31671,117.11913   C 443.51671,117.27913 442.71672,117.51913 441.99673,117.83913   L 442.23672,119.91911   L 440.55674,121.1191   L 438.63675,120.23911   C 438.07675,120.79911 437.59676,121.4391 437.19676,122.1591   L 438.63675,123.67908   L 437.99676,125.67907   L 435.91677,125.99907   C 435.91677,126.39906 435.83677,126.79906 435.83677,127.27906  "
     style="fill:#3b5eb4;fill-rule:nonzero;fill-opacity:1;stroke:none;" />
  <path
     id="path110"
     d="  M 230.71829,582.31569   C 232.71828,580.7157 235.67825,581.0357 237.27824,583.03568   C 238.87823,585.03567 238.55823,587.91565 236.55825,589.51563   C 234.63826,591.11562 231.67828,590.87562 230.0783,588.87564   C 228.47831,586.87565 228.71831,583.91567 230.71829,582.31569   z  M 223.27835,585.83566   C 223.27835,586.23566 223.35835,586.63565 223.35835,587.03565   L 225.43833,587.43565   L 225.99833,589.43563   L 224.55834,590.95562   C 224.95833,591.59562 225.43833,592.31561 225.99833,592.87561   L 227.83831,591.99561   L 229.5183,593.27561   L 229.2783,595.27559   C 229.9983,595.67559 230.71829,595.91559 231.43829,596.07558   L 232.47828,594.2356   L 234.55826,594.3156   L 235.59825,596.15558   C 236.39825,595.99559 237.11824,595.75559 237.83824,595.43559   L 237.59824,593.3556   L 239.35823,592.15561   L 241.19821,593.03561   C 241.75821,592.47561 242.23821,591.83562 242.6382,591.11562   L 241.27821,589.59563   L 241.91821,587.67565   L 243.91819,587.27565   C 243.99819,586.87565 244.07819,586.47566 244.07819,585.99566   C 244.07819,585.59566 243.99819,585.27566 243.99819,584.87567   L 241.91821,584.47567   L 241.35821,582.47569   L 242.7982,580.9557   C 242.3982,580.2357 241.91821,579.59571 241.35821,579.03571   L 239.51823,579.8357   L 237.83824,578.63571   L 238.07824,576.55573   C 237.35824,576.23573 236.63825,575.91573 235.83825,575.75574   L 234.79826,577.59572   L 232.71828,577.59572   L 231.75828,575.75574   C 230.95829,575.91573 230.1583,576.15573 229.4383,576.47573   L 229.6783,578.55571   L 227.99831,579.75571   L 226.15832,578.79571   C 225.59833,579.43571 225.11833,580.0757 224.71834,580.7157   L 226.07833,582.31569   L 225.43833,584.23567   L 223.35835,584.63567   C 223.35835,585.03567 223.27835,585.43566 223.27835,585.83566   z "
     style="fill:#f03e82;fill-rule:nonzero;fill-opacity:1;stroke:none;" />
  <path
     id="path112"
     d="  M 139.91896,198.63853   C 146.63891,192.95857 156.71884,193.75856 162.3988,200.55851   C 168.07875,207.27846 167.27876,217.35839 160.55881,223.03835   C 153.83886,228.71831 143.75894,227.91831 137.99898,221.19836   C 132.31902,214.39841 133.19901,204.31849 139.91896,198.63853   z  M 114.55915,211.27843   C 114.55915,212.63842 114.71915,213.99841 114.87915,215.3584   L 121.9191,216.6384   L 124.15908,223.35835   L 119.35912,228.63831   C 120.71911,231.03829 122.39909,233.27827 124.31908,235.27826   L 130.71903,232.15828   L 136.55899,236.31825   L 135.75899,243.4382   C 138.15898,244.47819 140.71896,245.27818 143.43894,245.83818   L 146.87891,239.51823   L 153.91886,239.51823   L 157.43883,245.75818   C 160.23881,245.19818 162.79879,244.31819 165.27878,243.1182   L 164.39878,235.99825   L 170.07874,231.83828   L 176.63869,234.79826   C 178.47868,232.71828 180.07867,230.47829 181.43866,228.07831   L 176.47869,222.87835   L 178.63868,216.1584   L 185.67862,214.71841   C 185.83862,213.27842 185.91862,211.83843 185.83862,210.39844   C 185.83862,209.03845 185.75862,207.75846 185.59863,206.47847   L 178.55868,205.11848   L 176.31869,198.39853   L 181.11866,193.11857   C 179.75867,190.71859 178.07868,188.4786 176.23869,186.47862   L 169.75874,189.5186   L 163.99879,185.43863   L 164.79878,178.31868   C 162.3188,177.19869 159.67882,176.31869 156.95884,175.8387   L 153.51886,182.07865   L 146.39892,182.15865   L 142.87894,175.9187   C 140.15896,176.55869 137.51898,177.43869 135.039,178.55868   L 135.99899,185.67862   L 130.23904,189.91859   L 123.75908,186.95862   C 121.9191,189.0386 120.31911,191.27858 118.95912,193.67857   L 123.91908,198.87853   L 121.7591,205.67848   L 114.79915,207.11847   C 114.63915,208.47846 114.55915,209.91845 114.55915,211.27843  "
     style="fill:#f03e82;fill-rule:nonzero;fill-opacity:1;stroke:none;" />
  <path
     id="path114"
     d="  M 396.55706,203.67849   L 396.55706,226.15832   C 396.55706,233.75827 402.71702,239.91822 410.31696,239.91822   L 421.19688,239.91822   L 421.19688,258.39809   L 441.43673,239.91822   L 476.47647,239.91822   C 490.31637,239.91822 501.51629,228.71831 501.51629,214.87841   C 501.51629,201.11851 490.31637,189.91859 476.47647,189.91859   L 410.31696,189.91859   C 402.71702,189.91859 396.55706,196.07855 396.55706,203.67849   z "
     style="fill:#f03e82;fill-rule:nonzero;fill-opacity:1;stroke:none;" />
  <path
     id="path116"
     d="  M 431.9168,214.23841   C 431.9168,216.5584 429.99681,218.47838 427.67683,218.47838   C 425.27685,218.47838 423.43686,216.5584 423.43686,214.23841   C 423.43686,211.83843 425.27685,209.99844 427.67683,209.99844   C 429.99681,209.99844 431.9168,211.83843 431.9168,214.23841   z "
     style="fill:#ffffff;fill-rule:nonzero;fill-opacity:1;stroke:none;" />
  <path
     id="path118"
     d="  M 452.95664,214.23841   C 452.95664,216.5584 451.11666,218.47838 448.79668,218.47838   C 446.39669,218.47838 444.55671,216.5584 444.55671,214.23841   C 444.55671,211.83843 446.39669,209.99844 448.79668,209.99844   C 451.11666,209.99844 452.95664,211.83843 452.95664,214.23841   z "
     style="fill:#ffffff;fill-rule:nonzero;fill-opacity:1;stroke:none;" />
  <path
     id="path120"
     d="  M 474.07649,214.23841   C 474.07649,216.5584 472.2365,218.47838 469.83652,218.47838   C 467.51654,218.47838 465.67655,216.5584 465.67655,214.23841   C 465.67655,211.83843 467.51654,209.99844 469.83652,209.99844   C 472.2365,209.99844 474.07649,211.83843 474.07649,214.23841   z "
     style="fill:#ffffff;fill-rule:nonzero;fill-opacity:1;stroke:none;" />
  <path
     id="path122"
     d="  M 403.11701,297.91779   L 267.59802,319.43763   L 252.31813,222.95835   L 387.91713,201.43851   L 403.11701,297.91779  z "
     style="fill:#ffffff;fill-rule:evenodd;fill-opacity:1;stroke:none;" />
  <path
     id="path124"
     d="  M 338.87749,265.75803   L 319.19764,257.59809   L 322.63761,279.51793   z "
     style="fill:#5a52ad;fill-rule:evenodd;fill-opacity:1;stroke:none;" />
  <path
     id="path126"
     d="  M 407.27698,321.59762   L 423.03687,414.87693   L 290.63785,437.27676   L 274.79796,343.99745   L 407.27698,321.59762  z "
     style="fill:#ffffff;fill-rule:nonzero;fill-opacity:1;stroke:none;" />
  <path
     id="path128"
     d="  M 407.27698,321.59762   L 410.71696,341.99747   L 278.31794,364.3973   L 274.79796,343.99745   L 407.27698,321.59762  z "
     style="fill:#f03e82;fill-rule:nonzero;fill-opacity:1;stroke:none;" />
  <path
     id="path130"
     d="  M 399.43704,366.55728   L 335.27752,377.4372   L 334.63752,373.27723   L 398.71705,362.39732   L 399.43704,366.55728  z "
     style="fill:#6b82ca;fill-rule:nonzero;fill-opacity:1;stroke:none;" />
  <path
     id="path132"
     d="  M 400.87703,375.11722   L 336.71751,385.99714   L 336.07751,381.83717   L 400.15704,370.95725   L 400.87703,375.11722  z "
     style="fill:#6b82ca;fill-rule:nonzero;fill-opacity:1;stroke:none;" />
  <path
     id="path134"
     d="  M 388.63712,385.91714   L 338.1575,394.47708   L 337.5175,390.31711   L 387.91713,381.83717   L 388.63712,385.91714  z "
     style="fill:#6b82ca;fill-rule:nonzero;fill-opacity:1;stroke:none;" />
  <path
     id="path136"
     d="  M 373.91723,397.27706   L 339.67748,403.03701   L 338.95749,398.87705   L 373.19724,393.11709   L 373.91723,397.27706  z "
     style="fill:#6b82ca;fill-rule:nonzero;fill-opacity:1;stroke:none;" />
  <path
     id="path138"
     d="  M 332.31754,404.877   L 296.9578,410.87696   L 291.83784,380.31718   L 327.11758,374.39723   L 332.31754,404.877  z "
     style="fill:#5a52ad;fill-rule:nonzero;fill-opacity:1;stroke:none;" />
  <path
     id="path140"
     d="  M 290.31785,352.23739   C 290.55785,353.35738 289.75785,354.39737 288.71786,354.55737   C 287.59787,354.79737 286.55788,354.07738 286.31788,352.95739   C 286.15788,351.83739 286.87787,350.7974 287.99787,350.6374   C 289.11786,350.3974 290.15785,351.1974 290.31785,352.23739   z "
     style="fill:#ffffff;fill-rule:nonzero;fill-opacity:1;stroke:none;" />
  <path
     id="path142"
     d="  M 297.91779,350.9574   C 298.07779,352.07739 297.3578,353.11738 296.23781,353.27738   C 295.19781,353.51738 294.15782,352.79739 293.91782,351.67739   C 293.75782,350.5574 294.47782,349.51741 295.59781,349.35741   C 296.7178,349.11741 297.75779,349.91741 297.91779,350.9574   z "
     style="fill:#ffffff;fill-rule:nonzero;fill-opacity:1;stroke:none;" />
  <path
     id="path144"
     d="  M 305.51774,349.67741   C 305.67774,350.7974 304.95774,351.83739 303.83775,351.99739   C 302.71776,352.23739 301.67777,351.4374 301.51777,350.3974   C 301.35777,349.27741 302.07776,348.23742 303.19775,348.07742   C 304.31775,347.83742 305.35774,348.63742 305.51774,349.67741   z "
     style="fill:#ffffff;fill-rule:nonzero;fill-opacity:1;stroke:none;" />
  <path
     id="path146"
     d="  M 425.19685,438.95675   L 440.95673,531.83606   L 440.95673,531.91606   L 309.03771,554.23589   L 293.27783,461.35658   L 293.27783,461.35658   L 425.19685,438.95675   L 425.19685,438.95675  z "
     clip-path="url(#clipEmfPath3)"
     style="fill:#f0d2d3;fill-rule:evenodd;fill-opacity:1;stroke:none;" />
  <path
     id="path148"
     d="  M 425.19685,438.95675   L 428.63682,459.2766   L 296.7178,481.67643   L 293.27783,461.35658   L 425.19685,438.95675  z "
     style="fill:#3b5eb4;fill-rule:nonzero;fill-opacity:1;stroke:none;" />
  <path
     id="path150"
     d="  M 346.39743,507.83624   C 347.99742,517.43617 341.51747,526.5561 331.91754,528.15609   C 322.31761,529.83608 313.19768,523.35612 311.51769,513.75619   C 309.9177,504.07627 316.39766,494.95633 325.99759,493.35635   C 335.59751,491.67636 344.71745,498.15631 346.39743,507.83624   z "
     style="fill:#f03e82;fill-rule:nonzero;fill-opacity:1;stroke:none;" />
  <path
     id="path152"
     d="  M 417.43691,483.75642   L 353.51738,494.63634   L 352.79739,490.47637   L 416.71691,479.67645   L 417.43691,483.75642  z "
     style="fill:#5a52ad;fill-rule:nonzero;fill-opacity:1;stroke:none;" />
  <path
     id="path154"
     d="  M 418.8769,492.31635   L 354.95737,503.11627   L 354.23738,498.9563   L 418.1569,488.15638   L 418.8769,492.31635  z "
     style="fill:#5a52ad;fill-rule:nonzero;fill-opacity:1;stroke:none;" />
  <path
     id="path156"
     d="  M 420.31689,500.79629   L 356.39736,511.67621   L 355.75736,507.51624   L 419.59689,496.63632   L 420.31689,500.79629  z "
     style="fill:#5a52ad;fill-rule:nonzero;fill-opacity:1;stroke:none;" />
  <path
     id="path158"
     d="  M 421.75688,509.27623   L 357.83735,520.15615   L 357.19735,515.99618   L 421.03688,505.19626   L 421.75688,509.27623  z "
     style="fill:#5a52ad;fill-rule:nonzero;fill-opacity:1;stroke:none;" />
  <path
     id="path160"
     d="  M 329.91756,506.95624   C 330.47755,506.23625 330.79755,505.35626 330.63755,504.39626   C 330.39755,502.71628 328.71757,501.51629 327.03758,501.83628   C 325.35759,502.15628 324.1576,503.75627 324.4776,505.43626   C 324.6376,506.47625 325.27759,507.19624 326.15758,507.67624   C 324.5576,508.71623 323.6776,510.63622 323.9976,512.6362   L 324.71759,516.79617   L 334.55752,515.11618   L 333.83753,510.95622   C 333.43753,508.87623 331.83754,507.35624 329.91756,506.95624   z "
     style="fill:#ffffff;fill-rule:nonzero;fill-opacity:1;stroke:none;" />
  <path
     id="path162"
     d="  M 308.39772,469.59652   C 308.55771,470.55651 307.91772,471.43651 306.95773,471.59651   C 305.99773,471.75651 305.11774,471.11651 304.95774,470.15652   C 304.79774,469.19652 305.43774,468.31653 306.39773,468.15653   C 307.35772,467.99653 308.23772,468.63653 308.39772,469.59652   z "
     style="fill:#ffffff;fill-rule:nonzero;fill-opacity:1;stroke:none;" />
  <path
     id="path164"
     d="  M 315.03767,468.47653   C 315.19767,469.43652 314.55767,470.31652 313.59768,470.47651   C 312.63768,470.63651 311.75769,469.99652 311.59769,469.03653   C 311.43769,468.07653 312.07769,467.19654 313.03768,466.95654   C 313.99767,466.79654 314.87767,467.51654 315.03767,468.47653   z "
     style="fill:#ffffff;fill-rule:nonzero;fill-opacity:1;stroke:none;" />
  <path
     id="path166"
     d="  M 321.75762,467.35654   C 321.91762,468.31653 321.19762,469.19652 320.23763,469.35652   C 319.27763,469.51652 318.39764,468.87653 318.23764,467.91653   C 318.07764,466.95654 318.71764,465.99655 319.67763,465.83655   C 320.63762,465.67655 321.51762,466.31655 321.75762,467.35654   z "
     style="fill:#ffffff;fill-rule:nonzero;fill-opacity:1;stroke:none;" />
  <path
     id="path168"
     d="  M 387.83713,201.19851   L 391.0371,221.59836   L 255.03811,243.3582   L 251.75814,223.03835   L 387.83713,201.19851  z "
     style="fill:#3b5eb4;fill-rule:nonzero;fill-opacity:1;stroke:none;" />
  <path
     id="path170"
     d="  M 266.95802,231.91828   C 267.11802,232.87827 266.47803,233.75827 265.51803,233.91827   C 264.55804,234.07827 263.67805,233.43827 263.51805,232.47828   C 263.27805,231.51829 263.99804,230.63829 264.95804,230.47829   C 265.91803,230.23829 266.79802,230.95829 266.95802,231.91828   z "
     style="fill:#ffffff;fill-rule:nonzero;fill-opacity:1;stroke:none;" />
  <path
     id="path172"
     d="  M 273.59797,230.79829   C 273.75797,231.75828 273.11798,232.63828 272.15798,232.79828   C 271.19799,232.95827 270.318,232.31828 270.158,231.35829   C 269.998,230.39829 270.638,229.4383 271.59799,229.2783   C 272.55798,229.1183 273.43797,229.7583 273.59797,230.79829   z "
     style="fill:#ffffff;fill-rule:nonzero;fill-opacity:1;stroke:none;" />
  <path
     id="path174"
     d="  M 280.23792,229.5983   C 280.47792,230.63829 279.75793,231.51829 278.79793,231.67828   C 277.83794,231.83828 276.95795,231.19829 276.79795,230.23829   C 276.63795,229.2783 277.27795,228.31831 278.23794,228.15831   C 279.19793,227.99831 280.07793,228.63831 280.23792,229.5983   z "
     style="fill:#ffffff;fill-rule:nonzero;fill-opacity:1;stroke:none;" />
  <path
     id="path176"
     d="  M 218.31838,316.71765   C 220.71837,325.35759 215.5984,334.31752 206.95847,336.71751   C 198.23853,339.11749 189.2786,333.99753 186.95862,325.35759   C 184.55863,316.71765 189.67859,307.75772 198.31853,305.35774   C 206.95847,302.95776 215.9184,308.07772 218.31838,316.71765   z "
     style="fill:#f03e82;fill-rule:nonzero;fill-opacity:1;stroke:none;" />
  <path
     id="path178"
     d="  M 227.67831,359.35734   C 228.71831,361.19732 228.15831,363.51731 226.31832,364.6373   L 224.63834,365.67729   C 222.79835,366.79728 220.39837,366.15729 219.35838,364.3973   L 169.75874,281.99791   C 168.71875,280.15792 169.27875,277.75794 171.11873,276.71795   L 172.79872,275.67796   C 174.63871,274.55797 177.03869,275.19796 178.07868,276.95795   L 227.67831,359.35734   z "
     style="fill:#1c1c1e;fill-rule:nonzero;fill-opacity:1;stroke:none;" />
  <path
     id="path180"
     d="  M 146.63891,379.83719   L 118.95912,396.47706   C 116.71914,397.83705 113.91916,397.11706 112.55917,394.95707   L 93.19931,362.71731   C 91.919319,360.55733 92.639314,357.67735 94.799298,356.39736   L 118.55912,342.07747   C 120.71911,340.79748 123.59908,341.51747 124.87907,343.67745   L 146.63891,379.83719   z "
     style="fill:#1c1c1e;fill-rule:nonzero;fill-opacity:1;stroke:none;" />
  <path
     id="path182"
     d="  M 93.679306,363.51731   C 88.399345,368.79727 87.119355,377.11721 91.119325,383.75716   L 93.439308,387.59713   C 97.439278,394.23708 105.43922,396.95706 112.47917,394.79708   L 93.679306,363.51731   z "
     style="fill:#3b5eb4;fill-rule:nonzero;fill-opacity:1;stroke:none;" />
  <path
     id="path184"
     d="  M 124.87907,343.67745   L 144.55893,376.31721   C 177.51869,359.83733 207.99846,361.35732 218.23838,362.55731   L 170.87873,283.8379   C 167.11876,293.99782 154.47886,322.39761 124.87907,343.67745   z "
     style="fill:#3b5eb4;fill-rule:nonzero;fill-opacity:1;stroke:none;" />
  <path
     id="path186"
     d="  M 117.67913,397.27706   C 117.75913,397.35706 117.83913,397.51706 117.99913,397.67705   L 123.83908,402.63702   C 124.79908,403.43701 126.23906,403.35701 127.11906,402.39702   L 144.39893,432.2368   L 145.03893,433.27679   L 146.15892,435.19678   C 146.79891,436.31677 148.2389,436.63677 149.35889,435.99677   L 163.03879,427.75683   C 164.07878,427.11684 164.47878,425.67685 163.75879,424.63685   L 161.9988,421.59688   C 161.3588,420.55688 159.83882,420.23689 158.79882,420.79688   C 158.79882,420.79688 153.11887,413.11694 150.95888,409.51697   C 148.2389,404.957 140.95896,392.95709 138.55897,388.95712   L 141.83895,385.11715   C 142.47894,384.39715 142.55894,383.35716 142.15895,382.55717   L 117.67913,397.27706   z "
     style="fill:#3b5eb4;fill-rule:nonzero;fill-opacity:1;stroke:none;" />
  <path
     id="path188"
     d="  M 138.55897,388.95712   L 145.83892,395.11707   L 143.91893,397.83705   z "
     style="fill:#a4a6a5;fill-rule:nonzero;fill-opacity:1;stroke:none;" />
  <path
     id="path190"
     d="  M 218.79838,269.19801   L 210.07844,290.71785   C 209.67845,291.75784 208.55846,292.23784 207.51846,291.83784   C 206.55847,291.43784 206.07847,290.23785 206.47847,289.27786   L 215.19841,267.67802   C 215.5984,266.71802 216.71839,266.23803 217.75839,266.63802   C 218.71838,267.03802 219.27838,268.15801 218.79838,269.19801   z "
     style="fill:#f03e82;fill-rule:nonzero;fill-opacity:1;stroke:none;" />
  <path
     id="path192"
     d="  M 238.71823,285.83788   L 222.31835,302.31776   C 221.59836,303.11775 220.31837,303.11775 219.51837,302.39776   C 218.79838,301.59777 218.79838,300.31778 219.51837,299.59778   L 235.91825,283.1179   C 236.71825,282.31791 237.91824,282.31791 238.71823,283.1179   L 238.71823,283.1179   C 239.51823,283.8379 239.51823,285.11789 238.71823,285.83788   z "
     style="fill:#f03e82;fill-rule:nonzero;fill-opacity:1;stroke:none;" />
  <path
     id="path194"
     d="  M 250.87814,307.91772   L 228.8783,315.35766   C 227.83831,315.75766 226.71832,315.19767 226.39832,314.15767   C 225.99833,313.11768 226.55832,311.99769 227.59831,311.67769   L 249.59815,304.15775   C 250.63814,303.83775 251.75814,304.39775 252.07813,305.35774   C 252.47813,306.39773 251.91813,307.51772 250.87814,307.91772   z "
     style="fill:#f03e82;fill-rule:nonzero;fill-opacity:1;stroke:none;" />
  <path
     id="path196"
     d="  M 255.9981,328.87756   L 232.87827,331.03755   C 231.75828,331.19755 230.79829,330.39755 230.71829,329.27756   L 230.71829,329.27756   C 230.63829,328.23757 231.43829,327.27758 232.47828,327.11758   L 255.59811,324.95759   C 256.7181,324.87759 257.67809,325.67759 257.75809,326.71758   C 257.91809,327.83757 257.1181,328.79756 255.9981,328.87756   z "
     style="fill:#f03e82;fill-rule:nonzero;fill-opacity:1;stroke:none;" />
  <path
     id="path198"
     d="  M 309.35771,118.87912   L 274.79796,126.39906   C 272.71798,126.87906 270.558,125.51907 270.078,123.35909   L 262.63805,88.879342   C 262.15806,86.719358 263.51805,84.639373 265.67803,84.159377   L 300.15778,76.639432   C 302.31776,76.159436 304.39775,77.519426 304.87774,79.67941   L 312.39769,114.15915   C 312.87768,116.31914 311.51769,118.47912 309.35771,118.87912   z "
     style="fill:#3b5eb4;fill-rule:nonzero;fill-opacity:1;stroke:none;" />
  <path
     id="path200"
     d="  M 296.3978,90.959326   C 292.79783,88.799342 288.23786,90.159332 285.99788,93.599307   L 285.83788,93.839305   L 285.59788,93.679306   C 282.15791,91.439323 277.35795,92.159317 275.03796,95.599292   C 272.63798,99.119266 273.59797,103.91923 277.19795,106.23921   L 288.31786,113.03916   C 289.43786,113.67916 290.79785,113.35916 291.51784,112.31917   L 298.87779,101.51925   C 301.11777,97.919275 300.07778,93.19931 296.3978,90.959326   z "
     style="fill:#ffffff;fill-rule:nonzero;fill-opacity:1;stroke:none;" />
  <path
     id="path202"
     d="  M 301.35777,119.03912   L 293.43783,130.31903   L 282.15791,122.47909   z "
     style="fill:#3b5eb4;fill-rule:nonzero;fill-opacity:1;stroke:none;" />
</svg>
