<?xml version="1.0" encoding="utf-8"?>
<svg id="master-artboard" viewBox="0 0 261.60723876953125 408.52685546875" version="1.1" xmlns="http://www.w3.org/2000/svg" x="0px" y="0px" style="enable-background:new 0 0 336 235.2;" width="261.60723876953125px" height="408.52685546875px"><rect id="ee-background" x="0" y="0" width="261.60723876953125" height="408.52685546875" style="fill: white; fill-opacity: 0; pointer-events: none;"/><defs><style id="ee-google-fonts">@import url(https://fonts.googleapis.com/css?family=Audiowide:400);</style><clipPath id="clipEmfPath1" clipPathUnits="userSpaceOnUse">
      <path id="path2" d="  M 0,1186.6312   L 0,0   L 1242.6308,0   L 1242.6308,1186.6312   z"/>
    </clipPath><clipPath id="clipEmfPath2" clipPathUnits="userSpaceOnUse">
      <path id="path5" d="  M 1238.6308,1186.6312   L 1238.6308,0   L 2482.6216,0   L 2482.6216,1186.6312   z"/>
    </clipPath><clipPath id="clipEmfPath3" clipPathUnits="userSpaceOnUse">
      <path id="path8" d="  M 2478.6216,1186.6312   L 2478.6216,0   L 3723.9724,0   L 3723.9724,1186.6312   z"/>
    </clipPath><clipPath id="clipEmfPath4" clipPathUnits="userSpaceOnUse">
      <path id="path11" d="  M 3719.9724,2226.6235   L 3719.9724,0   L 4007.9703,0   L 4007.9703,2226.6235   z"/>
    </clipPath><clipPath id="clipEmfPath5" clipPathUnits="userSpaceOnUse">
      <path id="path14" d="  M 0,1182.6312   L 1385.3497,1182.6312   L 1385.3497,2226.6235   L 0,2226.6235   z"/>
    </clipPath><clipPath id="clipEmfPath6" clipPathUnits="userSpaceOnUse">
      <path id="path17" d="  M 1381.3498,2226.6235   L 1381.3498,1182.6312   L 2769.3395,1182.6312   L 2769.3395,2226.6235   z"/>
    </clipPath><clipPath id="clipEmfPath7" clipPathUnits="userSpaceOnUse">
      <path id="path20" d="  M 2765.3395,2226.6235   L 2765.3395,1182.6312   L 3723.9724,1182.6312   L 3723.9724,2226.6235   z"/>
    </clipPath><pattern y="0" x="0" height="6" width="6" patternUnits="userSpaceOnUse" id="EMFhbasepattern"/><clipPath id="path-1" clipPathUnits="userSpaceOnUse">
      <path id="path-2" d="  M 0,1186.6312   L 0,0   L 1242.6308,0   L 1242.6308,1186.6312   z"/>
    </clipPath><clipPath id="path-3" clipPathUnits="userSpaceOnUse">
      <path id="path-4" d="  M 1238.6308,1186.6312   L 1238.6308,0   L 2482.6216,0   L 2482.6216,1186.6312   z"/>
    </clipPath><clipPath id="path-5" clipPathUnits="userSpaceOnUse">
      <path id="path-6" d="  M 2478.6216,1186.6312   L 2478.6216,0   L 3723.9724,0   L 3723.9724,1186.6312   z"/>
    </clipPath><clipPath id="path-7" clipPathUnits="userSpaceOnUse">
      <path id="path-8" d="  M 3719.9724,2226.6235   L 3719.9724,0   L 4007.9703,0   L 4007.9703,2226.6235   z"/>
    </clipPath><clipPath id="path-9" clipPathUnits="userSpaceOnUse">
      <path id="path-10" d="  M 0,1182.6312   L 1385.3497,1182.6312   L 1385.3497,2226.6235   L 0,2226.6235   z"/>
    </clipPath><clipPath id="path-11" clipPathUnits="userSpaceOnUse">
      <path id="path-12" d="  M 1381.3498,2226.6235   L 1381.3498,1182.6312   L 2769.3395,1182.6312   L 2769.3395,2226.6235   z"/>
    </clipPath><clipPath id="path-13" clipPathUnits="userSpaceOnUse">
      <path id="path-14" d="  M 2765.3395,2226.6235   L 2765.3395,1182.6312   L 3723.9724,1182.6312   L 3723.9724,2226.6235   z"/>
    </clipPath></defs>





















































































































































<g transform="matrix(1.4649248123168945, 0, 0, 1.4649248123168945, -142.9017791748047, -496.33922290802)"><metadata id="metadata201">
    
  </metadata><path id="path167" d="  M 276.23795,398.79705   C 254.15812,435.67677 213.99841,464.63656 187.59861,498.55631   C 179.59867,508.79623 172.71872,520.79614 172.71872,533.83605   C 172.71872,544.07597 177.03869,553.7559 181.59865,562.87583   C 186.87862,573.51575 192.71857,584.15567 201.19851,592.39561   C 209.75845,600.63555 221.43836,606.31551 233.27827,605.27552   C 245.03818,604.15552 256.3981,594.95559 257.51809,583.11568   L 276.23795,583.11568   L 276.23795,398.79705   z " style="fill:#ef3454;fill-rule:nonzero;fill-opacity:1;stroke:none;"/><path id="path169" d="  M 201.9985,499.8363   C 206.31847,500.23629 210.63844,499.5163 214.31841,497.83631   C 221.83836,494.31634 227.11832,487.75639 231.27829,480.71644   C 236.15825,472.2365 239.59823,462.87657 242.31821,453.51664   C 243.4382,449.67667 244.47819,441.35673 245.43818,437.51676   C 226.71832,455.43663 205.75848,476.07647 189.4386,496.23632   C 193.43857,498.07631 197.75854,499.5163 201.9985,499.8363   z " style="fill:#477fc9;fill-rule:nonzero;fill-opacity:1;stroke:none;"/><path id="path171" d="  M 257.59809,584.55567   C 263.11805,553.8359 268.71801,522.87613 267.67802,491.67636   C 265.35803,489.35638 262.55806,487.75639 259.67808,486.2364   C 254.79811,502.47628 243.91819,519.35615 232.79828,532.15606   C 228.23831,537.35602 222.95835,542.87598 222.79835,549.83593   C 222.63835,555.67588 226.23832,560.79585 229.5983,565.51581   C 236.23825,574.63574 246.39817,583.19568 257.59809,584.55567   z " style="fill:#f35c59;fill-rule:nonzero;fill-opacity:1;stroke:none;"/><path id="path173" d="  M 272.63798,474.39649   C 271.03799,473.59649 267.75802,480.87644 267.75802,480.87644   C 267.75802,480.87644 271.43799,471.03651 270.318,470.23652   C 268.55801,468.79653 264.55804,480.07644 264.55804,480.07644   C 264.55804,480.07644 268.63801,467.75654 266.23803,467.27654   C 263.83805,466.79654 261.19807,479.43645 261.19807,479.43645   C 261.19807,479.43645 262.95805,467.43654 260.87807,467.35654   C 258.71808,467.35654 257.1181,482.95642 257.1181,482.95642   C 257.1181,482.95642 252.71813,476.31647 251.27814,477.11647   C 248.95816,478.47646 257.67809,492.95635 257.67809,492.95635   L 266.63802,495.35633   C 266.63802,495.35633 274.23797,475.27648 272.63798,474.39649   z " style="fill:#f35b5b;fill-rule:nonzero;fill-opacity:1;stroke:none;"/><path id="path175" d="  M 275.67796,408.55697   C 273.59797,405.83699 271.35799,403.27701 269.758,400.31703   C 268.15801,397.27706 267.27802,393.67708 268.31801,390.47711   C 269.598,386.71714 272.39798,384.23715 275.67796,381.99717   C 275.51796,382.23717 275.67796,408.55697 275.67796,408.55697   z " style="fill:#f35b5b;fill-rule:nonzero;fill-opacity:1;stroke:none;"/><path id="path177" d="  M 268.31801,391.3571   C 266.87802,395.51707 265.91803,399.83704 265.43803,404.15701   C 266.15803,404.717 267.27802,403.99701 267.67802,403.19701   C 268.07801,402.31702 268.07801,401.35703 268.47801,400.47703   C 269.758,404.877 272.47798,408.87697 276.15795,411.59695   C 276.95795,412.23695 278.07794,412.87694 279.11793,412.39695   C 278.79793,409.67697 277.83794,406.95699 276.31795,404.637   C 277.03795,405.67699 278.87793,405.277 279.43793,404.07701   C 279.99793,402.95702 279.59793,401.51703 278.79793,400.47703   C 278.47794,400.15704 278.07794,399.75704 277.91794,399.35704   C 277.67794,398.71705 277.83794,397.99705 277.83794,397.35706   C 278.23794,393.59708 276.31795,389.67711 273.11798,387.59713   z " style="fill:#f35b5b;fill-rule:nonzero;fill-opacity:1;stroke:none;"/><path id="path179" d="  M 195.91855,488.71638   C 196.07855,488.79638 196.23855,488.87638 196.39855,488.87638   C 204.47849,486.0764 211.51843,480.63644 217.43839,474.47649   C 221.75836,469.91652 225.51833,464.87656 228.79831,459.5166   C 229.2783,457.91661 229.5183,456.23662 229.5183,454.63663   C 215.9984,451.35666 203.75849,442.95672 195.91855,431.5168   C 192.95857,438.31675 188.4786,445.6767 183.27864,450.95666   C 193.35857,460.47659 198.07853,475.11648 195.91855,488.71638   z " style="fill:#f35c59;fill-rule:nonzero;fill-opacity:1;stroke:none;"/><path id="path181" d="  M 179.91867,468.15653   L 179.91867,468.15653   C 167.99876,468.15653 158.23883,458.3966 158.23883,446.55669   L 158.23883,415.19692   C 158.23883,403.27701 167.99876,393.59708 179.91867,393.59708   L 179.91867,393.59708   C 191.75858,393.59708 201.51851,403.27701 201.51851,415.19692   L 201.51851,446.55669   C 201.51851,458.3966 191.75858,468.15653 179.91867,468.15653   z " style="fill:#f35c59;fill-rule:nonzero;fill-opacity:1;stroke:none;"/><path id="path183" d="  M 213.35842,433.91679   C 213.35842,438.47675 209.67845,442.23672 205.03848,442.23672   C 200.47851,442.23672 196.71854,438.47675 196.71854,433.91679   C 196.71854,429.27682 200.47851,425.59685 205.03848,425.59685   C 209.67845,425.59685 213.35842,429.27682 213.35842,433.91679   z " style="fill:#f35c59;fill-rule:nonzero;fill-opacity:1;stroke:none;"/><path id="path185" d="  M 196.15855,400.95703   L 196.15855,425.19685   C 196.15855,425.51685 196.07855,425.83685 195.99855,426.07684   C 192.95857,426.95684 190.23859,428.95682 188.3986,431.5168   C 186.47862,434.15678 185.35863,437.19676 184.71863,440.31674   C 184.39863,440.23674 184.07864,440.07674 183.83864,439.75674   C 180.23866,436.07677 174.07871,435.99677 169.43874,437.19676   C 164.39878,438.39675 159.35882,441.43673 158.55883,446.87669   C 158.55883,447.19669 158.39883,447.43669 158.31883,447.59668   C 158.87882,459.0366 168.31875,468.15653 179.91867,468.15653   L 179.91867,468.15653   C 191.75858,468.15653 201.51851,458.3966 201.51851,446.55669   L 201.51851,415.19692   C 201.51851,409.75696 199.43852,404.797 196.15855,400.95703   z " style="fill:#9c3228;fill-rule:nonzero;fill-opacity:1;stroke:none;"/><path id="path187" d="  M 182.87865,445.9967   C 182.39865,450.47666 178.79868,453.99664 174.31871,453.99664   C 169.83874,454.07664 166.15877,450.63666 165.59877,446.1567   L 182.87865,445.9967   z " style="fill:#ffffff;fill-rule:nonzero;fill-opacity:1;stroke:none;"/><path id="path189" d="  M 211.19844,419.91689   C 210.55844,401.19703 196.63854,386.23714 179.59867,386.23714   C 162.5588,386.23714 148.6389,401.19703 148.0789,419.91689   L 211.19844,419.91689   z " style="fill:#9c3228;fill-rule:nonzero;fill-opacity:1;stroke:none;"/><path id="path191" d="  M 208.71845,408.23698   C 205.11848,394.15708 192.31858,386.23714 179.59867,386.23714   C 176.31869,386.23714 173.11872,386.79713 170.15874,387.83713   C 171.43873,388.79712 172.63872,389.83711 173.83871,390.9571   C 183.83864,399.35704 196.31855,404.957 208.71845,408.23698   z " style="fill:#f89b3e;fill-rule:nonzero;fill-opacity:1;stroke:none;"/><path id="path193" d="  M 158.31883,420.63688   C 165.35878,418.3969 171.19873,412.79694 173.59871,405.83699   C 173.03872,411.27695 171.19873,416.63691 168.23875,421.27688   z " style="fill:#f35c59;fill-rule:nonzero;fill-opacity:1;stroke:none;"/><path id="path195" d="  M 208.71845,408.23698   C 203.1185,407.59698 197.59854,405.83699 192.47857,403.43701   C 169.99874,392.71709 155.67885,370.31726 135.519,355.75736   C 129.59904,351.4374 121.2791,347.91742 115.51914,352.31739   C 111.67917,355.27737 110.63918,360.87733 111.91917,365.51729   C 113.19916,370.15726 116.39914,373.99723 119.75911,377.5172   C 129.51904,387.67713 141.43895,395.67707 154.55886,400.87703   C 158.47883,396.55706 164.87878,390.15711 170.15874,387.83713   z " style="fill:#f89b3e;fill-rule:nonzero;fill-opacity:1;stroke:none;"/></g></svg>