<?xml version="1.0" encoding="utf-8"?>
<svg id="master-artboard" viewBox="0 0 810.8817138671875 840.5462646484375" version="1.1" xmlns="http://www.w3.org/2000/svg" x="0px" y="0px" style="enable-background:new 0 0 1400 980;" width="810.8817138671875px" height="840.5462646484375px"><defs><style id="ee-google-fonts">@import url(https://fonts.googleapis.com/css?family=Anton:400|Roboto+Slab:100,300,400,700);</style><path id="text-path-0" d="M 778.8464965820312 213.4612274169922 A 100 18 0 0 1 988.3533935546875 213.4612274169922 A 100 18 0 0 1 778.8464965820312 213.4612274169922 Z" style="fill: none; stroke: red; stroke-width: 2;"/><path id="text-path-1" d="M 664.5464477539062 37.96122741699219 A 100 19 0 0 1 876.5812377929688 37.96122741699219 A 100 19 0 0 1 664.5464477539062 37.96122741699219" style="fill: none; stroke: red; stroke-width: 2;"/><path id="text-path-2" d="M 765.3650512695312 211.70851135253906 A 100 17 0 0 1 991.5017700195312 211.70851135253906 A 100 17 0 0 1 765.3650512695312 211.70851135253906" style="fill: none; stroke: red; stroke-width: 2;"/><path id="path-1" d="M 765.3650512695312 211.70851135253906 A 100 17 0 0 1 991.5017700195312 211.70851135253906 A 100 17 0 0 1 765.3650512695312 211.70851135253906" style="fill: none; stroke: red; stroke-width: 2;"/><clipPath id="clipEmfPath1" clipPathUnits="userSpaceOnUse">
      <path id="path2" d="  M 354.87737,472.7165   C 351.5974,472.7165 348.63742,471.51651 348.63742,471.51651   C 348.63742,471.51651 348.47742,469.51652 348.23742,466.55654   C 347.99742,463.43657 347.67742,459.0366 347.43743,454.55663   C 347.35743,453.43664 347.27743,452.23665 347.27743,451.11666   C 347.03743,447.27669 346.87743,443.59671 346.87743,440.71674   C 346.87743,440.47674 346.87743,440.23674 346.87743,439.99674   C 347.03743,428.87682 349.19741,420.47689 349.19741,420.47689   L 349.19741,420.47689   L 349.19741,420.47689   C 349.19741,420.47689 337.5975,416.39692 325.27759,411.51695   C 309.8377,405.357 301.27777,397.99705 298.55779,385.35715   L 342.39746,367.27728   C 342.39746,367.27728 352.07739,370.47726 358.55734,373.19724   C 386.71714,385.19715 392.39709,387.27713 394.15708,392.55709   C 394.31708,392.95709 394.31708,393.67708 394.31708,394.79708   C 394.31708,406.87699 387.19713,459.4366 387.19713,459.4366   C 386.15714,460.23659 384.71715,460.55659 383.27716,460.55659   C 379.83719,460.55659 376.31721,458.9566 376.31721,458.9566   C 376.31721,458.9566 375.91722,455.67662 375.51722,450.87666   C 375.19722,447.43669 374.79722,443.27672 374.47723,438.95675   C 374.39723,437.83676 374.31723,436.63677 374.23723,435.51677   C 373.75723,429.67682 373.35723,423.91686 373.27723,419.51689   C 373.27723,418.8769 373.27723,418.2369 373.27723,417.59691   C 373.27723,412.15695 373.83723,406.79699 373.83723,406.79699   L 373.83723,406.79699   L 373.83723,406.79699   L 352.95739,397.19706   L 370.79725,405.437   L 344.63745,390.79711   C 346.71743,388.31712 346.47743,382.63717 346.47743,382.63717   C 345.75744,387.19713 340.87747,390.79711 340.87747,390.79711   L 352.95739,397.19706   C 359.91733,401.99702 367.91727,407.67698 368.47727,409.91696   C 368.55727,410.47696 368.63727,411.19695 368.63727,411.99695   C 368.63727,416.71691 366.79728,426.07684 364.3173,442.31672   C 362.39732,454.55663 359.91733,471.35651 359.91733,471.35651   C 358.31735,472.3965 356.55736,472.7165 354.87737,472.7165   z"/>
    </clipPath><pattern y="0" x="0" height="6" width="6" patternUnits="userSpaceOnUse" id="EMFhbasepattern"/><clipPath id="path-2" clipPathUnits="userSpaceOnUse">
      <path id="path-3" d="  M 383.83716,216.0784   L 394.55708,209.83845   L 388.55712,207.19847   L 383.43716,210.79844   z"/>
    </clipPath><clipPath id="clipEmfPath2" clipPathUnits="userSpaceOnUse">
      <path id="path5" d="  M 145.67892,300.63777   C 144.87893,300.63777 144.39893,300.39777 143.99893,299.99778   C 143.67894,299.51778 143.51894,298.71779 143.51894,297.5178   L 143.51894,295.51781   C 143.51894,294.71782 143.59894,294.15782 143.75894,293.67782   C 143.91893,293.19783 144.15893,292.87783 144.47893,292.71783   C 144.79893,292.55783 145.19892,292.39783 145.67892,292.39783   C 145.99892,292.39783 146.31892,292.47783 146.55891,292.55783   C 146.79891,292.63783 146.95891,292.79783 147.11891,292.95783   C 147.27891,293.11783 147.43891,293.27783 147.51891,293.59783   C 147.59891,293.83782 147.67891,294.15782 147.67891,294.47782   C 147.75891,294.87782 147.75891,295.27781 147.75891,295.75781   L 147.75891,296.4778   L 144.55893,296.4778   L 144.55893,297.5978   C 144.55893,298.47779 144.63893,299.03778 144.79893,299.35778   C 144.95893,299.75778 145.19892,299.91778 145.67892,299.91778   C 145.99892,299.91778 146.31892,299.75778 146.47891,299.59778   C 146.63891,299.35778 146.79891,298.95779 146.79891,298.39779   L 146.79891,297.83779   L 147.75891,297.83779   L 147.75891,298.23779   C 147.75891,299.03778 147.59891,299.59778 147.27891,299.99778   C 146.95891,300.47777 146.39892,300.63777 145.67892,300.63777   L 145.67892,300.63777   M 144.79893,293.67782   C 144.63893,293.91782 144.55893,294.47782 144.55893,295.35781   L 144.55893,295.83781   L 146.79891,295.83781   L 146.79891,295.19781   C 146.79891,294.95782 146.71891,294.71782 146.71891,294.47782   C 146.71891,294.31782 146.71891,294.15782 146.63891,293.99782   C 146.63891,293.75782 146.55891,293.67782 146.47891,293.51783   C 146.39892,293.43783 146.31892,293.35783 146.15892,293.27783   C 145.99892,293.19783 145.83892,293.19783 145.67892,293.19783   C 145.27892,293.19783 144.95893,293.35783 144.79893,293.67782   M 135.99899,300.63777   C 135.599,300.63777 135.279,300.63777 134.959,300.47777   C 134.719,300.31778 134.479,300.15778 134.31901,299.91778   C 134.15901,299.59778 134.07901,299.27778 133.99901,298.95779   C 133.91901,298.55779 133.91901,298.15779 133.91901,297.67779   L 133.91901,295.43781   C 133.91901,294.39782 134.07901,293.67782 134.399,293.19783   C 134.719,292.71783 135.199,292.39783 135.99899,292.39783   C 136.79899,292.39783 137.35898,292.71783 137.67898,293.19783   C 137.99898,293.67782 138.15898,294.39782 138.15898,295.43781   L 138.15898,297.67779   C 138.15898,298.15779 138.15898,298.55779 138.07898,298.95779   C 137.99898,299.27778 137.83898,299.59778 137.75898,299.91778   C 137.59898,300.15778 137.35898,300.31778 137.03898,300.47777   C 136.79899,300.63777 136.39899,300.63777 135.99899,300.63777   L 135.99899,300.63777   z  M 135.599,293.27783   C 135.439,293.27783 135.359,293.35783 135.279,293.43783   L 135.119,293.75782   C 135.039,293.91782 134.959,294.07782 134.959,294.23782   C 134.959,294.39782 134.959,294.63782 134.959,294.79782   C 134.879,294.95782 134.879,295.11781 134.879,295.35781   L 134.879,297.67779   C 134.879,297.99779 134.879,298.15779 134.959,298.31779   C 134.959,298.47779 134.959,298.63779 134.959,298.87779   C 134.959,299.03778 135.039,299.19778 135.119,299.27778   L 135.279,299.59778   C 135.359,299.75778 135.439,299.75778 135.599,299.83778   C 135.67899,299.91778 135.83899,299.91778 135.99899,299.91778   C 136.23899,299.91778 136.39899,299.83778 136.55899,299.75778   C 136.71899,299.75778 136.79899,299.59778 136.87899,299.51778   C 136.95899,299.43778 137.03898,299.27778 137.03898,299.03778   C 137.11898,298.79779 137.11898,298.63779 137.11898,298.47779   C 137.11898,298.23779 137.11898,297.99779 137.11898,297.67779   L 137.11898,295.35781   C 137.11898,295.11781 137.11898,294.87782 137.11898,294.63782   C 137.11898,294.47782 137.11898,294.23782 137.03898,294.07782   C 137.03898,293.83782 136.95899,293.67782 136.87899,293.59783   C 136.79899,293.43783 136.71899,293.35783 136.55899,293.27783   C 136.39899,293.19783 136.23899,293.19783 135.99899,293.19783   C 135.83899,293.19783 135.67899,293.19783 135.599,293.27783   M 130.71903,300.63777   C 130.23904,300.63777 129.75904,300.39777 129.35904,299.91778   L 129.35904,300.55777   L 128.31905,300.55777   L 128.31905,289.35786   L 129.35904,289.35786   L 129.35904,293.19783   C 129.75904,292.71783 130.23904,292.39783 130.87903,292.39783   C 131.11903,292.39783 131.43903,292.47783 131.67902,292.63783   C 131.83902,292.71783 131.99902,292.87783 132.15902,293.11783   C 132.31902,293.27783 132.39902,293.51783 132.47902,293.83782   C 132.55902,294.07782 132.55902,294.39782 132.63902,294.63782   C 132.63902,294.95782 132.63902,295.27781 132.63902,295.59781   L 132.63902,297.2778   C 132.63902,297.75779 132.63902,298.07779 132.63902,298.47779   C 132.55902,298.79779 132.47902,299.03778 132.39902,299.35778   C 132.31902,299.67778 132.23902,299.91778 132.07902,300.07778   C 131.91902,300.23778 131.75902,300.39777 131.51903,300.47777   C 131.27903,300.63777 131.03903,300.63777 130.71903,300.63777   L 130.71903,300.63777   z  M 129.35904,293.83782   L 129.35904,299.27778   C 129.67904,299.67778 130.07904,299.83778 130.55903,299.83778   C 131.03903,299.83778 131.27903,299.67778 131.43903,299.27778   C 131.59903,298.87779 131.67902,298.23779 131.67902,297.2778   L 131.67902,295.59781   C 131.67902,294.79782 131.59903,294.15782 131.43903,293.75782   C 131.27903,293.43783 131.03903,293.19783 130.55903,293.19783   C 130.15904,293.19783 129.75904,293.43783 129.35904,293.83782   M 124.23908,300.63777   C 123.75908,300.63777 123.35909,300.47777 123.03909,300.15778   C 122.71909,299.83778 122.63909,299.35778 122.63909,298.87779   C 122.63909,298.63779 122.63909,298.39779 122.63909,298.15779   C 122.71909,297.99779 122.79909,297.75779 122.95909,297.5978   C 123.03909,297.3578 123.19909,297.1978 123.35909,297.1178   C 123.43909,296.9578 123.67908,296.7978 123.91908,296.6378   C 124.23908,296.4778 124.47908,296.31781 124.79908,296.15781   C 125.03907,296.07781 125.35907,295.91781 125.83907,295.67781   L 125.83907,295.11781   C 125.83907,294.39782 125.75907,293.91782 125.59907,293.59783   C 125.43907,293.35783 125.19907,293.19783 124.79908,293.19783   C 124.07908,293.19783 123.67908,293.67782 123.67908,294.55782   L 123.67908,294.87782   L 122.71909,294.79782   C 122.71909,294.71782 122.71909,294.63782 122.71909,294.55782   C 122.71909,293.83782 122.95909,293.27783 123.27909,292.95783   C 123.67908,292.63783 124.15908,292.39783 124.87907,292.39783   C 125.59907,292.39783 126.07907,292.63783 126.39906,293.03783   C 126.71906,293.51783 126.79906,294.15782 126.79906,295.03781   L 126.79906,298.95779   C 126.79906,299.59778 126.87906,300.15778 126.87906,300.55777   L 125.99907,300.55777   L 125.83907,299.43778   C 125.75907,299.75778 125.51907,300.07778 125.27907,300.31778   C 124.95907,300.55777 124.63908,300.63777 124.23908,300.63777   L 124.23908,300.63777   M 125.67907,296.3978   C 125.43907,296.5578 125.27907,296.6378 125.19907,296.7178   C 125.03907,296.7978 124.95907,296.8778 124.79908,296.9578   C 124.55908,297.0378 124.47908,297.1178 124.39908,297.1978   L 124.07908,297.4378   L 123.91908,297.67779   L 123.75908,297.91779   L 123.59908,298.23779   C 123.59908,298.39779 123.59908,298.47779 123.59908,298.63779   C 123.59908,299.03778 123.67908,299.27778 123.83908,299.51778   C 124.07908,299.67778 124.23908,299.75778 124.55908,299.75778   C 124.79908,299.75778 125.03907,299.67778 125.27907,299.51778   C 125.51907,299.35778 125.67907,299.11778 125.83907,298.87779   L 125.83907,296.3978   L 125.67907,296.3978   M 107.9192,300.23778   C 107.6792,299.91778 107.5992,299.51778 107.5992,298.95779   L 107.5992,292.55783   L 108.6392,292.55783   L 108.6392,298.71779   C 108.6392,299.11778 108.71919,299.43778 108.79919,299.59778   C 108.95919,299.75778 109.11919,299.83778 109.35919,299.83778   C 109.83919,299.83778 110.31918,299.59778 110.79918,299.11778   L 110.79918,292.55783   L 111.83917,292.55783   L 111.83917,300.55777   L 110.79918,300.55777   L 110.79918,299.67778   C 110.15918,300.31778 109.51919,300.63777 108.87919,300.63777   C 108.3992,300.63777 108.1592,300.47777 107.9192,300.23778   z  M 114.07915,300.15778   C 113.91916,299.91778 113.83916,299.43778 113.75916,298.87779   L 113.75916,293.19783   L 112.79916,293.19783   L 112.79916,292.55783   L 113.75916,292.55783   L 113.75916,290.07785   L 114.79915,290.07785   L 114.79915,292.55783   L 116.15914,292.55783   L 116.15914,293.19783   L 114.79915,293.19783   L 114.79915,298.79779   C 114.79915,299.19778 114.87915,299.43778 114.95915,299.59778   C 115.03915,299.75778 115.19915,299.83778 115.51914,299.83778   C 115.67914,299.83778 115.91914,299.83778 116.07914,299.75778   L 116.07914,300.55777   C 115.75914,300.63777 115.51914,300.63777 115.27915,300.63777   C 114.71915,300.63777 114.31915,300.47777 114.07915,300.15778   M 139.67897,300.55777   L 139.67897,292.55783   L 140.63896,292.55783   L 140.63896,293.67782   C 140.87896,293.27783 141.19895,292.95783 141.51895,292.71783   C 141.83895,292.55783 142.15895,292.47783 142.47894,292.47783   L 142.63894,292.47783   L 142.63894,293.59783   C 142.55894,293.51783 142.31895,293.51783 142.15895,293.51783   C 141.51895,293.51783 141.03896,293.75782 140.63896,294.39782   L 140.63896,300.55777   L 139.67897,300.55777   z  M 120.15911,300.55777   L 120.15911,289.35786   L 121.1991,289.35786   L 121.1991,300.55777   L 120.15911,300.55777   z  M 122.47909,285.11789   C 122.71909,285.03789 122.87909,284.87789 123.03909,284.63789   C 123.11909,284.47789 123.19909,284.23789 123.19909,283.9979   L 122.55909,283.9979   L 122.55909,282.47791   L 123.67908,282.47791   L 123.67908,283.8379   C 123.67908,284.31789 123.59908,284.63789 123.43909,284.87789   C 123.35909,285.19789 123.03909,285.35789 122.71909,285.59788   L 122.47909,285.11789   M 147.19891,283.3579   C 146.87891,282.79791 146.71891,281.91791 146.71891,280.71792   L 146.71891,279.27793   C 146.71891,278.79793 146.71891,278.39794 146.79891,278.07794   C 146.79891,277.75794 146.87891,277.43794 146.95891,277.19795   C 147.03891,276.87795 147.19891,276.63795 147.27891,276.47795   C 147.43891,276.23795 147.59891,276.15795 147.8389,275.99796   C 148.0789,275.91796 148.3189,275.83796 148.6389,275.83796   C 149.1189,275.83796 149.59889,276.07795 149.99889,276.55795   L 149.99889,272.79798   L 151.03888,272.79798   L 151.03888,283.9979   L 149.99889,283.9979   L 149.99889,283.4379   C 149.59889,283.8379 149.19889,284.0779 148.6389,284.0779   C 147.9989,284.0779 147.51891,283.8379 147.19891,283.3579   M 147.9989,277.19795   C 147.8389,277.51794 147.75891,278.15794 147.75891,278.95793   L 147.75891,280.79792   C 147.75891,281.67791 147.8389,282.31791 147.9989,282.71791   C 148.1589,283.1179 148.3989,283.2779 148.8789,283.2779   C 149.27889,283.2779 149.67889,283.1179 149.99889,282.79791   L 149.99889,277.19795   C 149.59889,276.87795 149.19889,276.63795 148.8789,276.63795   C 148.3989,276.63795 148.1589,276.87795 147.9989,277.19795   M 138.63897,283.3579   C 138.39897,282.79791 138.23898,281.91791 138.23898,280.71792   L 138.23898,279.27793   C 138.23898,278.79793 138.23898,278.39794 138.23898,278.07794   C 138.31898,277.75794 138.31898,277.43794 138.47897,277.19795   C 138.55897,276.87795 138.63897,276.63795 138.79897,276.47795   C 138.95897,276.23795 139.11897,276.15795 139.35897,275.99796   C 139.51897,275.91796 139.83896,275.83796 140.07896,275.83796   C 140.63896,275.83796 141.11895,276.07795 141.51895,276.55795   L 141.51895,272.79798   L 142.55894,272.79798   L 142.55894,283.9979   L 141.51895,283.9979   L 141.51895,283.4379   C 141.11895,283.8379 140.63896,284.0779 140.15896,284.0779   C 139.43897,284.0779 138.95897,283.8379 138.63897,283.3579   M 139.43897,277.19795   C 139.27897,277.51794 139.19897,278.15794 139.19897,278.95793   L 139.19897,280.79792   C 139.19897,281.67791 139.27897,282.31791 139.43897,282.71791   C 139.59897,283.1179 139.91896,283.2779 140.39896,283.2779   C 140.71896,283.2779 141.11895,283.1179 141.51895,282.79791   L 141.51895,277.19795   C 141.11895,276.87795 140.71896,276.63795 140.31896,276.63795   C 139.91896,276.63795 139.59897,276.87795 139.43897,277.19795   M 133.27901,283.3579   C 132.95902,282.8779 132.79902,282.07791 132.79902,280.95792   L 132.79902,278.95793   C 132.79902,278.15794 132.87902,277.51794 133.03901,277.11795   C 133.19901,276.63795 133.43901,276.31795 133.67901,276.15795   C 133.99901,275.91796 134.399,275.83796 134.959,275.83796   C 135.279,275.83796 135.599,275.91796 135.83899,275.99796   C 135.99899,276.07795 136.23899,276.23795 136.39899,276.39795   C 136.55899,276.55795 136.63899,276.71795 136.79899,277.03795   C 136.87899,277.27795 136.87899,277.59794 136.95899,277.91794   C 136.95899,278.31794 137.03898,278.63794 137.03898,279.11793   L 137.03898,279.83793   L 133.75901,279.83793   L 133.75901,281.03792   C 133.75901,281.91791 133.83901,282.47791 133.99901,282.79791   C 134.15901,283.1979 134.479,283.3579 134.959,283.3579   C 135.279,283.3579 135.519,283.1979 135.75899,282.9579   C 135.91899,282.79791 135.99899,282.39791 135.99899,281.75791   L 135.99899,281.19792   L 137.03898,281.19792   L 137.03898,281.67791   C 137.03898,282.47791 136.87899,283.0379 136.55899,283.4379   C 136.15899,283.9179 135.67899,284.0779 134.959,284.0779   C 134.15901,284.0779 133.59901,283.8379 133.27901,283.3579   z  M 133.99901,277.03795   C 133.83901,277.35795 133.75901,277.91794 133.75901,278.71794   L 133.75901,279.27793   L 135.99899,279.27793   L 135.99899,278.63794   C 135.99899,278.31794 135.99899,278.15794 135.99899,277.91794   C 135.99899,277.75794 135.91899,277.59794 135.91899,277.35795   C 135.83899,277.19795 135.83899,277.03795 135.75899,276.95795   C 135.67899,276.87795 135.519,276.79795 135.439,276.71795   C 135.279,276.63795 135.119,276.63795 134.959,276.63795   C 134.479,276.63795 134.23901,276.79795 133.99901,277.03795   M 128.23905,283.4379   C 127.83905,283.0379 127.59905,282.47791 127.51906,281.83791   L 128.39905,281.59791   C 128.47905,282.15791 128.63905,282.63791 128.79905,282.8779   C 129.03904,283.1979 129.35904,283.3579 129.75904,283.3579   C 130.15904,283.3579 130.39903,283.1979 130.63903,283.0379   C 130.79903,282.79791 130.87903,282.55791 130.87903,282.23791   L 130.87903,282.15791   C 130.87903,281.67791 130.55903,281.11792 129.91904,280.55792   L 128.87905,279.67793   C 128.47905,279.35793 128.15905,279.03793 127.99905,278.71794   C 127.83905,278.39794 127.75905,278.07794 127.75905,277.67794   C 127.75905,277.11795 127.91905,276.63795 128.23905,276.31795   C 128.63905,275.99796 129.03904,275.83796 129.67904,275.83796   C 130.23904,275.83796 130.71903,276.07795 131.03903,276.39795   C 131.35903,276.79795 131.51903,277.27795 131.51903,277.91794   L 130.79903,278.15794   C 130.79903,277.67794 130.71903,277.27795 130.47903,277.03795   C 130.31903,276.71795 130.07904,276.63795 129.67904,276.63795   C 129.35904,276.63795 129.11904,276.71795 128.95904,276.87795   C 128.71905,277.03795 128.63905,277.27795 128.63905,277.59794   C 128.63905,277.83794 128.71905,278.07794 128.79905,278.23794   C 128.87905,278.39794 129.03904,278.63794 129.35904,278.87793   L 130.47903,279.83793   C 130.63903,279.99793 130.79903,280.15792 130.95903,280.31792   C 131.03903,280.47792 131.19903,280.63792 131.35903,280.79792   C 131.51903,281.03792 131.59903,281.19792 131.67902,281.43792   C 131.75902,281.67791 131.75902,281.91791 131.75902,282.15791   C 131.75902,282.79791 131.59903,283.2779 131.19903,283.5979   C 130.87903,283.9179 130.39903,284.0779 129.75904,284.0779   C 129.11904,284.0779 128.55905,283.9179 128.23905,283.4379   z  M 107.9992,283.3579   C 107.6792,282.8779 107.5192,282.07791 107.5192,280.95792   L 107.5192,278.95793   C 107.5192,278.15794 107.5992,277.51794 107.7592,277.11795   C 107.9192,276.63795 108.1592,276.31795 108.4792,276.15795   C 108.79919,275.91796 109.19919,275.83796 109.67919,275.83796   C 109.99919,275.83796 110.31918,275.91796 110.55918,275.99796   C 110.79918,276.07795 110.95918,276.23795 111.11918,276.39795   C 111.27918,276.55795 111.43917,276.71795 111.51917,277.03795   C 111.59917,277.27795 111.67917,277.59794 111.67917,277.91794   C 111.75917,278.31794 111.75917,278.63794 111.75917,279.11793   L 111.75917,279.83793   L 108.5592,279.83793   L 108.5592,281.03792   C 108.5592,281.91791 108.6392,282.47791 108.79919,282.79791   C 108.95919,283.1979 109.19919,283.3579 109.67919,283.3579   C 109.99919,283.3579 110.31918,283.1979 110.47918,282.9579   C 110.63918,282.79791 110.71918,282.39791 110.71918,281.75791   L 110.71918,281.19792   L 111.75917,281.19792   L 111.75917,281.67791   C 111.75917,282.47791 111.59917,283.0379 111.27918,283.4379   C 110.95918,283.9179 110.39918,284.0779 109.67919,284.0779   C 108.87919,284.0779 108.3192,283.8379 107.9992,283.3579   M 108.79919,277.03795   C 108.6392,277.35795 108.5592,277.91794 108.5592,278.71794   L 108.5592,279.27793   L 110.71918,279.27793   L 110.71918,278.63794   C 110.71918,278.31794 110.71918,278.15794 110.71918,277.91794   C 110.71918,277.75794 110.71918,277.59794 110.63918,277.35795   C 110.63918,277.19795 110.55918,277.03795 110.47918,276.95795   C 110.39918,276.87795 110.31918,276.79795 110.15918,276.71795   C 109.99919,276.63795 109.83919,276.63795 109.67919,276.63795   C 109.27919,276.63795 108.95919,276.79795 108.79919,277.03795   M 119.51911,283.5979   C 119.27912,283.3579 119.19912,282.8779 119.19912,282.31791   L 119.19912,276.63795   L 118.23912,276.63795   L 118.23912,275.99796   L 119.19912,275.99796   L 119.19912,273.51797   L 120.15911,273.51797   L 120.15911,275.99796   L 121.5191,275.99796   L 121.5191,276.63795   L 120.15911,276.63795   L 120.15911,282.23791   C 120.15911,282.63791 120.23911,282.8779 120.31911,283.0379   C 120.39911,283.1979 120.63911,283.2779 120.8791,283.2779   C 121.1191,283.2779 121.2791,283.2779 121.4391,283.1979   L 121.4391,283.9979   C 121.1991,284.0779 120.8791,284.0779 120.63911,284.0779   C 120.07911,284.0779 119.67911,283.9179 119.51911,283.5979   M 115.99914,283.9979   L 115.99914,275.99796   L 117.03913,275.99796   L 117.03913,283.9979   L 115.99914,283.9979   z  M 113.27916,283.9979   L 113.27916,272.79798   L 114.23915,272.79798   L 114.23915,283.9979   L 113.27916,283.9979   z  M 115.99914,274.87796   L 115.99914,273.51797   L 117.03913,273.51797   L 117.03913,274.87796   L 115.99914,274.87796   z  M 142.55894,269.998   L 142.55894,259.43808   L 143.59894,259.43808   L 143.59894,260.07807   C 143.99893,259.51808 144.47893,259.27808 145.11893,259.27808   C 145.43892,259.27808 145.67892,259.35808 145.91892,259.43808   C 146.07892,259.59808 146.23892,259.75808 146.39892,259.91807   C 146.55891,260.15807 146.63891,260.39807 146.71891,260.63807   C 146.79891,260.95807 146.87891,261.19807 146.87891,261.51806   C 146.87891,261.75806 146.87891,262.07806 146.87891,262.47806   L 146.87891,264.15804   C 146.87891,264.55804 146.87891,264.95804 146.87891,265.27803   C 146.79891,265.59803 146.71891,265.91803 146.63891,266.23803   C 146.55891,266.47803 146.47891,266.71802 146.31892,266.95802   C 146.15892,267.11802 145.99892,267.27802 145.75892,267.35802   C 145.51892,267.43802 145.27892,267.51802 144.95893,267.51802   C 144.47893,267.51802 143.99893,267.27802 143.59894,266.79802   L 143.59894,269.998   L 142.55894,269.998   z  M 143.59894,260.71807   L 143.59894,266.15803   C 143.91893,266.55803 144.31893,266.71802 144.79893,266.71802   C 145.03893,266.71802 145.19892,266.63802 145.27892,266.63802   C 145.43892,266.55803 145.51892,266.39803 145.59892,266.31803   C 145.67892,266.15803 145.75892,265.99803 145.75892,265.75803   C 145.83892,265.59803 145.83892,265.35803 145.83892,265.11804   C 145.91892,264.79804 145.91892,264.55804 145.91892,264.15804   L 145.91892,262.47806   C 145.91892,261.59806 145.83892,261.03807 145.67892,260.63807   C 145.51892,260.23807 145.27892,260.07807 144.79893,260.07807   C 144.39893,260.07807 143.99893,260.31807 143.59894,260.71807   M 148.6389,266.87802   C 148.2389,266.47803 147.9989,265.91803 147.9989,265.27803   L 148.7989,264.95804   C 148.8789,265.59803 149.0389,266.07803 149.27889,266.31803   C 149.43889,266.63802 149.75889,266.79802 150.15889,266.79802   C 150.55888,266.79802 150.79888,266.63802 151.03888,266.47803   C 151.19888,266.23803 151.27888,265.99803 151.27888,265.67803   L 151.27888,265.59803   C 151.27888,265.11804 150.95888,264.55804 150.31889,263.99804   L 149.27889,263.11805   C 148.8789,262.79805 148.5589,262.47806 148.3989,262.15806   C 148.2389,261.83806 148.1589,261.51806 148.1589,261.11807   C 148.1589,260.55807 148.3189,260.07807 148.6389,259.75808   C 149.0389,259.43808 149.51889,259.27808 150.07889,259.27808   C 150.63888,259.27808 151.11888,259.43808 151.43888,259.83808   C 151.75888,260.23807 151.91887,260.71807 151.91887,261.35806   L 151.19888,261.59806   C 151.19888,261.11807 151.11888,260.71807 150.87888,260.39807   C 150.71888,260.15807 150.47889,260.07807 150.07889,260.07807   C 149.75889,260.07807 149.51889,260.15807 149.35889,260.31807   C 149.1189,260.47807 149.0389,260.71807 149.0389,260.95807   C 149.0389,261.27806 149.1189,261.51806 149.19889,261.67806   C 149.27889,261.83806 149.51889,262.07806 149.75889,262.23806   L 150.87888,263.27805   C 151.03888,263.43805 151.19888,263.59805 151.35888,263.75805   C 151.51888,263.83805 151.59888,263.99804 151.75888,264.23804   C 151.91887,264.39804 151.99887,264.63804 152.07887,264.87804   C 152.15887,265.11804 152.15887,265.35803 152.15887,265.59803   C 152.15887,266.23803 151.99887,266.71802 151.67888,267.03802   C 151.27888,267.35802 150.79888,267.51802 150.15889,267.51802   C 149.51889,267.51802 149.0389,267.27802 148.6389,266.87802   M 122.87909,266.79802   C 122.55909,266.31803 122.39909,265.51803 122.39909,264.39804   L 122.39909,262.39806   C 122.39909,261.59806 122.47909,260.95807 122.63909,260.55807   C 122.79909,260.07807 123.03909,259.75808 123.35909,259.59808   C 123.67908,259.35808 124.07908,259.27808 124.55908,259.27808   C 124.87907,259.27808 125.19907,259.35808 125.43907,259.43808   C 125.67907,259.51808 125.91907,259.59808 125.99907,259.75808   C 126.15907,259.91807 126.31906,260.15807 126.39906,260.47807   C 126.47906,260.71807 126.55906,261.03807 126.55906,261.35806   C 126.63906,261.67806 126.63906,262.07806 126.63906,262.55806   L 126.63906,263.27805   L 123.43909,263.27805   L 123.43909,264.47804   C 123.43909,265.35803 123.51909,265.91803 123.67908,266.23803   C 123.83908,266.55803 124.15908,266.79802 124.55908,266.79802   C 124.87907,266.79802 125.19907,266.63802 125.35907,266.39803   C 125.59907,266.15803 125.67907,265.83803 125.67907,265.19804   L 125.67907,264.63804   L 126.63906,264.63804   L 126.63906,265.11804   C 126.63906,265.91803 126.47906,266.47803 126.15907,266.87802   C 125.83907,267.27802 125.27907,267.51802 124.55908,267.51802   C 123.83908,267.51802 123.27909,267.27802 122.87909,266.79802   M 123.67908,260.47807   C 123.51909,260.79807 123.43909,261.35806 123.43909,262.15806   L 123.43909,262.71805   L 125.67907,262.71805   L 125.67907,262.07806   C 125.67907,261.75806 125.67907,261.51806 125.67907,261.35806   C 125.59907,261.19807 125.59907,261.03807 125.51907,260.79807   C 125.51907,260.63807 125.43907,260.47807 125.35907,260.39807   C 125.27907,260.31807 125.19907,260.15807 125.03907,260.15807   C 124.87907,260.07807 124.79908,260.07807 124.55908,260.07807   C 124.15908,260.07807 123.83908,260.15807 123.67908,260.47807   z  M 113.91916,267.35802   C 113.59916,267.19802 113.35916,267.03802 113.27916,266.71802   C 113.03916,266.47803 112.95916,266.15803 112.87916,265.83803   C 112.79916,265.43803 112.79916,265.03804 112.79916,264.47804   L 112.79916,262.31806   C 112.79916,261.27806 112.95916,260.55807 113.27916,259.99807   C 113.59916,259.51808 114.15915,259.27808 114.95915,259.27808   C 115.75914,259.27808 116.31914,259.51808 116.55914,259.99807   C 116.87913,260.55807 117.03913,261.27806 117.03913,262.31806   L 117.03913,264.47804   C 117.03913,265.03804 117.03913,265.43803 116.95913,265.83803   C 116.87913,266.15803 116.79913,266.47803 116.63914,266.71802   C 116.47914,267.03802 116.23914,267.19802 115.91914,267.35802   C 115.67914,267.43802 115.35915,267.51802 114.95915,267.51802   C 114.47915,267.51802 114.15915,267.43802 113.91916,267.35802   M 114.47915,260.07807   C 114.31915,260.15807 114.23915,260.23807 114.15915,260.31807   L 113.99916,260.63807   C 113.91916,260.79807 113.91916,260.87807 113.83916,261.11807   C 113.83916,261.27806 113.83916,261.43806 113.83916,261.59806   C 113.83916,261.75806 113.83916,261.99806 113.83916,262.23806   L 113.83916,264.55804   C 113.83916,264.79804 113.83916,265.03804 113.83916,265.19804   C 113.83916,265.35803 113.83916,265.51803 113.83916,265.67803   C 113.91916,265.91803 113.91916,265.99803 113.99916,266.15803   L 114.15915,266.47803   C 114.23915,266.55803 114.31915,266.63802 114.47915,266.71802   C 114.63915,266.71802 114.71915,266.79802 114.95915,266.79802   C 115.11915,266.79802 115.27915,266.71802 115.43914,266.63802   C 115.59914,266.55803 115.67914,266.47803 115.75914,266.39803   C 115.83914,266.23803 115.91914,266.07803 115.91914,265.91803   C 115.99914,265.67803 115.99914,265.51803 115.99914,265.27803   C 116.07914,265.11804 116.07914,264.87804 116.07914,264.55804   L 116.07914,262.23806   C 116.07914,261.91806 116.07914,261.67806 115.99914,261.51806   C 115.99914,261.27806 115.99914,261.11807 115.91914,260.87807   C 115.91914,260.71807 115.83914,260.55807 115.75914,260.39807   C 115.67914,260.31807 115.59914,260.23807 115.43914,260.15807   C 115.27915,260.07807 115.11915,260.07807 114.95915,260.07807   C 114.71915,260.07807 114.63915,260.07807 114.47915,260.07807   M 139.83896,267.35802   L 139.83896,259.43808   L 140.87896,259.43808   L 140.87896,267.35802   L 139.83896,267.35802   z  M 134.479,267.35802   L 134.479,261.11807   C 134.479,260.71807 134.399,260.39807 134.23901,260.23807   C 134.15901,260.07807 133.91901,259.91807 133.67901,259.91807   C 133.19901,259.99807 132.71902,260.23807 132.15902,260.79807   C 132.15902,260.87807 132.23902,261.03807 132.23902,261.11807   L 132.23902,267.35802   L 131.27903,267.35802   L 131.27903,261.11807   C 131.27903,260.71807 131.19903,260.39807 131.03903,260.23807   C 130.87903,260.07807 130.71903,259.91807 130.47903,259.91807   C 129.91904,259.99807 129.43904,260.23807 128.95904,260.79807   L 128.95904,267.35802   L 127.99905,267.35802   L 127.99905,259.43808   L 128.95904,259.43808   L 128.95904,260.23807   C 129.51904,259.59808 130.15904,259.27808 130.87903,259.27808   C 131.51903,259.27808 131.91902,259.59808 132.07902,260.31807   C 132.63902,259.59808 133.27901,259.27808 134.07901,259.27808   C 134.479,259.27808 134.799,259.43808 135.039,259.67808   C 135.279,259.99807 135.439,260.47807 135.439,261.11807   L 135.439,267.35802   L 134.479,267.35802   M 118.55912,267.35802   L 118.55912,259.43808   L 119.51911,259.43808   L 119.51911,260.47807   C 119.75911,260.07807 120.07911,259.83808 120.39911,259.59808   C 120.71911,259.43808 121.0391,259.35808 121.3591,259.35808   L 121.5191,259.35808   L 121.5191,260.39807   C 121.4391,260.39807 121.2791,260.31807 121.0391,260.31807   C 120.39911,260.31807 119.91911,260.63807 119.51911,261.27806   L 119.51911,267.35802   L 118.55912,267.35802   M 107.8392,267.35802   L 107.8392,256.2381   L 108.95919,256.2381   L 108.95919,266.63802   L 112.07917,266.63802   L 112.07917,267.35802   L 107.8392,267.35802   M 139.83896,258.31809   L 139.83896,256.9581   L 140.87896,256.9581   L 140.87896,258.31809   L 139.83896,258.31809   z"/>
    </clipPath></defs><rect id="ee-background" x="0" y="0" width="810.8817138671875" height="840.5462646484375" style="fill: white; fill-opacity: 0; pointer-events: none;"/>


<path d="M 880.3870239257812 239.90606689453125" style="fill: rgb(63, 61, 61); fill-opacity: 1; stroke: rgb(0, 0, 0); stroke-opacity: 1; stroke-width: 0; paint-order: fill;" transform="matrix(1, 0, 0, 1, -543.5825576782227, -48.381874084472656)"/><path d="M 864.144775390625 229.48651123046875" style="fill: rgb(63, 61, 61); fill-opacity: 1; stroke: rgb(0, 0, 0); stroke-opacity: 1; stroke-width: 0; paint-order: fill;" transform="matrix(1, 0, 0, 1, -543.5825576782227, -48.381874084472656)"/><g transform="matrix(1.7472484111785889, 0, 0, 1.7472484111785889, -560.6584243774414, -30.095848083496094)"><metadata id="metadata497">
    
  </metadata><path id="path11" d="  M 439.03675,309.8377   C 427.03684,316.79765 407.59698,316.79765 395.59707,309.8377   C 383.59716,302.95776 383.59716,291.75784 395.59707,284.79789   C 407.59698,277.83794 427.03684,277.83794 439.03675,284.79789   C 451.03666,291.75784 451.03666,302.95776 439.03675,309.8377   z " style="fill:#b8d8ed;fill-rule:nonzero;fill-opacity:1;stroke:none;"/><path id="path13" d="  M 431.4368,286.55788   C 430.55681,286.07788 429.67682,285.59788 428.63682,285.19789   L 428.71682,285.19789   L 423.35686,282.79791   L 423.75686,283.7579   C 419.67689,282.9579 415.19692,282.8779 411.11695,283.6779   L 411.35695,282.63791   L 405.037,285.43789   L 405.117,285.43789   C 404.23701,285.75788 403.43701,286.15788 402.71702,286.55788   C 394.79708,291.11784 394.79708,298.55779 402.71702,303.11775   C 410.63696,307.75772 423.51686,307.75772 431.4368,303.11775   C 439.43674,298.55779 439.43674,291.11784 431.4368,286.55788   z " style="fill:#7844a6;fill-rule:nonzero;fill-opacity:1;stroke:none;"/><path id="path15" d="  M 423.83686,290.87785   C 420.07689,293.03783 414.07693,293.03783 410.39696,290.87785   C 406.63699,288.71786 406.63699,285.27789 410.39696,283.1179   C 414.07693,280.95792 420.07689,280.95792 423.83686,283.1179   C 427.51683,285.27789 427.51683,288.71786 423.83686,290.87785   z " style="fill:#6f41a4;fill-rule:nonzero;fill-opacity:1;stroke:none;"/><path id="path17" d="  M 417.11691,288.47786   L 417.11691,288.47786   C 415.27692,288.47786 413.83693,287.03787 413.83693,285.27789   L 413.83693,244.31819   L 420.31689,244.31819   L 420.31689,285.27789   C 420.31689,287.03787 418.8769,288.47786 417.11691,288.47786   z " style="fill:#6f41a4;fill-rule:nonzero;fill-opacity:1;stroke:none;"/><path id="path19" d="  M 419.35689,245.83818   C 418.0769,246.55817 415.99692,246.55817 414.71693,245.83818   C 413.43694,245.03818 413.43694,243.83819 414.71693,243.1182   C 415.99692,242.3982 418.0769,242.3982 419.35689,243.1182   C 420.63688,243.83819 420.63688,245.03818 419.35689,245.83818   z " style="fill:#7844a6;fill-rule:nonzero;fill-opacity:1;stroke:none;"/><path id="path21" d="  M 417.11691,245.75818   L 417.11691,245.75818   C 415.67692,245.75818 414.47693,244.55819 414.47693,243.1182   L 414.47693,204.63848   L 419.75689,204.63848   L 419.75689,243.1182   C 419.75689,244.55819 418.5569,245.75818 417.11691,245.75818   z " style="fill:#6f41a4;fill-rule:nonzero;fill-opacity:1;stroke:none;"/><path id="path23" d="  M 454.79663,224.79833   L 454.79663,223.27835   L 456.95662,222.95835   L 459.3566,221.19836   C 459.75659,220.87836 460.47659,220.87836 460.87659,221.11836   L 462.63657,222.15835   L 464.39656,221.91836   L 464.39656,223.43834   L 464.39656,223.43834   C 464.39656,223.59834 464.23656,223.75834 463.99656,223.91834   L 458.4766,226.39832   C 457.99661,226.55832 457.35661,226.55832 456.95662,226.31832   L 455.11663,225.27833   C 454.95663,225.11833 454.79663,224.95833 454.79663,224.79833   L 454.79663,224.79833   z " style="fill:#8e54b0;fill-rule:nonzero;fill-opacity:1;stroke:none;"/><path id="path25" d="  M 455.03663,222.87835   L 459.3566,219.67837   C 459.75659,219.35838 460.47659,219.35838 460.87659,219.59837   L 464.07656,221.43836   C 464.55656,221.75836 464.47656,222.15835 463.99656,222.39835   L 458.4766,224.87833   C 457.99661,225.03833 457.35661,225.03833 456.95662,224.79833   L 455.11663,223.75834   C 454.71663,223.51834 454.71663,223.11835 455.03663,222.87835   z " style="fill:#6f41a4;fill-rule:nonzero;fill-opacity:1;stroke:none;"/><path id="path27" d="  M 447.83668,230.1583   C 448.47668,230.1583 449.03667,229.9983 449.51667,229.7583   L 456.23662,225.91833   C 456.55662,225.67833 456.71662,225.19833 456.47662,224.79833   C 456.23662,224.47834 455.83662,224.31834 455.43663,224.55834   L 448.79668,228.39831   C 448.31668,228.71831 447.35669,228.71831 446.87669,228.39831   L 435.83677,221.99836   C 435.43677,221.75836 434.95678,221.91836 434.79678,222.23835   C 434.55678,222.63835 434.71678,223.11835 435.03678,223.35835   L 446.1567,229.7583   C 446.63669,229.9983 447.19669,230.1583 447.83668,230.1583   z " style="fill:#8e54b0;fill-rule:nonzero;fill-opacity:1;stroke:none;"/><path id="path29" d="  M 383.83716,216.0784   L 394.55708,209.83845   L 388.55712,207.19847   L 383.43716,210.79844   L 383.83716,216.0784  z " clip-path="url(#clipEmfPath1)" style="fill:#3d7aa5;fill-rule:evenodd;fill-opacity:1;stroke:none;"/><path id="path31" d="  M 452.47665,206.87847   C 451.83665,206.55847 451.27666,206.15847 450.63666,205.75848   L 427.91683,189.0386   C 423.83686,186.07862 419.59689,185.27863 416.31692,186.95862   L 416.07692,187.11861   L 415.99692,187.03861   L 384.55715,205.27848   L 387.43713,206.23847   L 398.39705,211.27843   L 413.43694,221.83836   L 425.19685,228.15831   L 425.75685,228.23831   C 428.47683,225.91833 431.5968,223.91834 433.27679,220.55837   C 436.23677,215.4384 444.39671,213.99841 449.19667,209.83845   C 449.67667,210.15844 450.15667,210.39844 450.63666,210.63844   C 451.59665,209.67845 451.83665,208.31846 452.47665,206.87847   z " style="fill:#6f41a4;fill-rule:nonzero;fill-opacity:1;stroke:none;"/><path id="path33" d="  M 462.47657,199.35852   C 461.99658,199.35852 461.51658,199.51852 461.19658,199.75852   L 461.11658,199.75852   L 430.39681,217.59839   L 431.5168,222.15835   L 432.6368,221.59836   C 430.87681,224.39834 428.23683,226.15832 425.75685,228.23831   L 429.19682,228.9583   L 459.3566,211.43843   C 459.5166,211.43843 459.67659,211.35843 459.75659,211.27843   C 460.15659,211.03844 460.55659,210.79844 460.95659,210.55844   L 460.95659,210.47844   L 460.95659,210.47844   C 463.27657,208.71845 464.55656,205.67848 464.55656,201.8385   L 464.55656,201.43851   C 464.55656,200.31852 463.59657,199.35852 462.47657,199.35852   z " style="fill:#623da1;fill-rule:nonzero;fill-opacity:1;stroke:none;"/><path id="path35" d="  M 420.31689,186.07862   C 422.23687,186.15862 424.31686,186.79862 426.39684,187.99861   C 424.31686,186.79862 422.23687,186.15862 420.31689,186.07862   z " style="fill:#ececec;fill-rule:nonzero;fill-opacity:1;stroke:none;"/><path id="path37" d="  M 434.31678,219.03838   L 434.31678,218.63838   C 434.31678,217.51839 433.35679,216.5584 432.2368,216.5584   C 431.03681,216.5584 430.07681,217.51839 430.07681,218.63838   L 430.07681,219.03838   C 430.07681,221.83836 429.19682,223.91834 427.59683,224.71834   C 425.83685,225.59833 423.19687,224.95833 420.39689,222.95835   L 397.67705,206.23847   C 394.15708,203.67849 390.55711,202.7985 387.59713,203.59849   L 406.39699,192.63857   L 384.55715,205.27848   L 387.43713,206.23847   L 398.39705,211.27843   L 413.43694,221.83836   L 425.19685,228.15831   L 425.75685,228.23831   C 428.47683,225.91833 431.5968,223.91834 433.27679,220.55837   C 433.59679,220.07837 433.91679,219.59837 434.31678,219.11838   L 434.31678,219.03838   z " style="fill:#8e54b0;fill-rule:nonzero;fill-opacity:1;stroke:none;"/><path id="path39" d="  M 425.19685,229.9983   C 422.71687,229.9983 419.99689,229.0383 417.27691,227.03832   L 394.55708,210.39844   C 391.7571,208.31846 389.11712,207.67846 387.35713,208.55846   C 385.75714,209.35845 384.87715,211.43843 384.87715,214.31841   C 384.87715,215.4384 383.91716,216.3984 382.71717,216.3984   C 381.59717,216.3984 380.63718,215.4384 380.63718,214.31841   C 380.63718,209.83845 382.39717,206.39847 385.43714,204.79848   C 388.71712,203.19849 392.87709,203.91849 397.03706,206.95847   L 419.75689,223.59834   C 422.55687,225.59833 425.19685,226.31832 426.95684,225.43833   C 428.55683,224.63834 429.43682,222.55835 429.43682,219.67837   L 429.43682,219.35838   C 429.43682,218.15838 430.39681,217.19839 431.5968,217.19839   C 432.71679,217.19839 433.67679,218.15838 433.67679,219.35838   L 433.67679,219.67837   C 433.67679,224.15834 431.9168,227.59831 428.87682,229.1983   C 427.75683,229.7583 426.55684,229.9983 425.19685,229.9983   z " style="fill:#7844a6;fill-rule:nonzero;fill-opacity:1;stroke:none;"/><path id="path41" d="  M 407.35698,267.27802   C 407.35698,267.27802 403.03701,265.11804 400.39703,268.39801   C 397.75705,271.59799 393.99708,279.19793 393.91708,284.31789   C 393.75708,289.43786 397.91705,289.11786 400.47703,287.91787   C 402.95702,286.71788 410.15696,276.15795 410.63696,274.07797   C 411.03696,271.99799 410.07696,269.27801 409.43697,268.71801   C 408.71697,268.15801 407.35698,267.27802 407.35698,267.27802   z " style="fill:#263c7a;fill-rule:nonzero;fill-opacity:1;stroke:none;"/><path id="path43" d="  M 408.23698,266.31803   L 408.47697,270.71799   C 408.47697,271.67799 407.99698,272.55798 407.19698,273.03798   C 406.47699,273.43797 405.357,273.75797 403.91701,273.51797   C 400.63703,273.03798 400.39703,272.07798 400.15704,267.67802   C 399.91704,263.19805 408.23698,266.31803 408.23698,266.31803   z " style="fill:#e59c13;fill-rule:nonzero;fill-opacity:1;stroke:none;"/><path id="path45" d="  M 391.5971,258.79808   C 391.5971,258.79808 387.35713,256.6381 384.71715,259.83808   C 382.07717,263.03805 378.3172,270.638 378.2372,275.75796   C 378.0772,280.95792 382.23717,280.55792 384.71715,279.35793   C 387.19713,278.15794 394.47708,267.59802 394.95707,265.51803   C 395.35707,263.51805 394.39708,260.71807 393.67708,260.15807   C 393.03709,259.59808 391.5971,258.79808 391.5971,258.79808   z " style="fill:#263c7a;fill-rule:nonzero;fill-opacity:1;stroke:none;"/><path id="path47" d="  M 392.55709,257.75809   L 392.79709,262.15806   C 392.79709,263.11805 392.31709,263.99804 391.5171,264.47804   C 390.79711,264.95804 389.67711,265.27803 388.23712,265.03804   C 384.95715,264.47804 384.71715,263.59805 384.47715,259.11808   C 384.23715,254.71811 392.55709,257.75809 392.55709,257.75809   z " style="fill:#e59c13;fill-rule:nonzero;fill-opacity:1;stroke:none;"/><path id="path49" d="  M 430.79681,176.23869   C 429.51682,155.51885 408.47697,179.27867 408.47697,179.27867   L 393.99708,193.35857   L 381.03718,207.67846   C 378.4772,210.47844 377.27721,214.23841 377.8372,217.91839   L 383.03716,257.99809   C 383.35716,259.99807 385.03715,261.43806 387.03713,261.43806   C 387.59713,261.43806 388.23712,261.35806 388.95712,261.27806   C 393.67708,260.47807 393.27709,256.0781 393.27709,256.0781   L 392.31709,218.63838   L 419.59689,202.1585   C 419.59689,202.1585 432.0768,196.87854 430.79681,176.23869   z " style="fill:#fad644;fill-rule:nonzero;fill-opacity:1;stroke:none;"/><path id="path51" d="  M 446.47669,184.07864   C 445.2767,163.43879 424.15686,187.11861 424.15686,187.11861   L 409.75696,201.27851   L 396.71706,215.5184   C 394.15708,218.31838 393.03709,222.07835 393.51709,225.83833   L 398.71705,265.83803   C 399.03704,267.83802 400.71703,269.27801 402.71702,269.27801   C 403.27701,269.27801 403.91701,269.19801 404.637,269.11801   C 409.35697,268.39801 408.95697,263.91805 408.95697,263.91805   L 407.99698,226.47832   L 435.35678,209.99844   C 435.35678,209.99844 447.75668,204.71848 446.47669,184.07864   z " style="fill:#fad644;fill-rule:nonzero;fill-opacity:1;stroke:none;"/><path id="path53" d="  M 433.99679,117.75913   C 449.99667,124.39908 449.67667,133.83901 449.67667,133.83901   C 449.67667,133.83901 446.55669,168.55875 447.67668,191.67858   C 448.07668,201.35851 396.23706,202.0785 403.99701,176.23869   C 413.11694,145.83892 409.67697,121.1991 413.91693,117.51913   C 418.2369,113.75916 429.91682,116.07914 433.99679,117.75913   z " style="fill:#7844a6;fill-rule:nonzero;fill-opacity:1;stroke:none;"/><path id="path55" d="  M 439.19675,126.15907   C 438.31675,129.43904 434.07678,131.11903 429.67682,129.99904   C 425.27685,128.87905 422.39687,125.27907 423.19687,122.0791   C 424.07686,118.79912 428.31683,117.11913 432.71679,118.23912   C 437.11676,119.35912 439.99674,122.95909 439.19675,126.15907   z " style="fill:#fab6a9;fill-rule:nonzero;fill-opacity:1;stroke:none;"/><path id="path57" d="  M 429.99681,118.63912   C 427.03684,118.63912 424.55686,119.99911 423.91686,122.23909   C 423.19687,125.11907 425.83685,128.23905 429.83682,129.27904   C 431.8368,129.75904 433.83679,129.67904 435.51677,129.03904   C 437.03676,128.39905 438.07675,127.27906 438.47675,125.99907   C 439.19675,123.11909 436.47677,119.99911 432.4768,118.95912   C 431.6768,118.79912 430.79681,118.63912 429.99681,118.63912   z  M 432.3968,131.11903   C 431.4368,131.11903 430.47681,130.95903 429.51682,130.71903   C 424.71685,129.51904 421.51688,125.51907 422.47687,121.8391   C 423.43686,118.23912 428.07683,116.23914 432.87679,117.51913   C 437.67676,118.71912 440.87673,122.71909 439.91674,126.39906   C 439.43674,128.15905 438.07675,129.59904 436.07677,130.47903   C 434.95678,130.87903 433.67679,131.11903 432.3968,131.11903   z " style="fill:#ffffff;fill-rule:nonzero;fill-opacity:1;stroke:none;"/><path id="path59" d="  M 427.59683,117.03913   C 427.59683,117.03913 427.75683,117.67913 427.51683,122.79909   C 427.43683,124.39908 432.95679,125.83907 434.39678,124.39908   C 435.83677,122.95909 435.27678,121.5191 435.59677,116.07914   C 435.99677,110.63918 427.59683,117.03913 427.59683,117.03913   z " style="fill:#fab6a9;fill-rule:nonzero;fill-opacity:1;stroke:none;"/><path id="path61" d="  M 435.59677,116.07914   C 435.59677,116.07914 434.23678,121.1191 427.51683,123.03909   L 427.59683,118.47912   L 435.59677,116.07914   z " style="fill:#eb8b8a;fill-rule:nonzero;fill-opacity:1;stroke:none;"/><path id="path63" d="  M 439.91674,103.27923   C 441.59673,109.83919 437.67676,116.55914 431.11681,118.31912   C 424.47686,119.99911 417.75691,115.99914 416.07692,109.43919   C 414.39693,102.87924 418.3169,96.159288 424.95685,94.4793   C 431.5168,92.719313 438.23675,96.719284 439.91674,103.27923   z " style="fill:#fab6a9;fill-rule:nonzero;fill-opacity:1;stroke:none;"/><path id="path65" d="  M 430.79681,106.79921   C 430.79681,106.79921 424.07686,109.75919 419.35689,109.75919   C 414.63693,109.75919 415.67692,105.83922 415.67692,105.83922   L 429.59682,103.83923   L 430.79681,106.79921   z " style="fill:#eb8b8a;fill-rule:nonzero;fill-opacity:1;stroke:none;"/><path id="path67" d="  M 417.9969,107.5992   C 417.9969,107.5992 423.83686,105.11922 429.03682,106.15921   C 430.23681,106.39921 431.3568,107.03921 432.1568,107.9992   C 432.3968,108.3192 432.71679,108.5592 433.11679,108.6392   C 433.99679,108.87919 435.51677,105.03922 437.35676,104.95922   C 439.11675,104.87922 440.31674,106.15921 438.87675,108.4792   C 437.35676,110.87918 437.83676,113.43916 438.55675,113.83916   C 439.19675,114.23915 446.39669,108.71919 440.07674,96.239287   C 433.75679,83.75938 417.75691,90.47933 415.27692,93.039311   C 415.27692,93.039311 412.63694,95.359294 410.47696,93.279309   C 410.47696,93.279309 408.15698,111.19918 417.9969,107.5992   z " style="fill:#ee1696;fill-rule:nonzero;fill-opacity:1;stroke:none;"/><path id="path69" d="  M 440.71674,159.19882   L 440.71674,168.55875   C 440.71674,169.59874 440.31674,170.63874 439.51674,171.35873   L 420.23689,188.8786   L 422.47687,192.23858   L 447.83668,173.83871   C 449.03667,172.95872 449.75667,171.67873 449.91667,170.15874   L 451.67665,153.83886   L 440.71674,159.19882   z " style="fill:#fab6a9;fill-rule:nonzero;fill-opacity:1;stroke:none;"/><path id="path71" d="  M 448.31668,129.19904   C 448.31668,129.19904 454.15664,137.99898 456.39662,161.03881   C 456.39662,161.03881 446.39669,164.31878 440.71674,162.4788   C 435.11678,160.63881 448.31668,129.19904 448.31668,129.19904   z " style="fill:#7844a6;fill-rule:nonzero;fill-opacity:1;stroke:none;"/><path id="path73" d="  M 439.67674,140.31896   C 439.67674,140.31896 437.35676,152.47887 437.27676,158.23883   C 437.19676,159.83882 438.15675,161.27881 439.67674,161.8388   L 439.67674,140.31896   z " style="fill:#5a3c9f;fill-rule:nonzero;fill-opacity:1;stroke:none;"/><path id="path75" d="  M 434.71678,201.11851   L 430.39681,200.55851   L 402.95702,184.63863   C 402.07702,184.15864 400.55703,184.23864 399.51704,184.79863   L 380.07718,196.07855   L 377.5172,195.67855   L 377.5172,198.23853   L 377.5172,198.23853   C 377.5172,198.63853 377.6772,198.95853 378.1572,199.19852   L 409.19697,217.11839   C 410.07696,217.59839 411.67695,217.59839 412.63694,216.95839   L 433.83679,204.71848   C 434.39678,204.39849 434.71678,203.99849 434.71678,203.59849   L 434.71678,201.11851   z " style="fill:#263c7a;fill-rule:nonzero;fill-opacity:1;stroke:none;"/><path id="path77" d="  M 414.07693,191.03858   L 412.07695,189.91859   L 390.63711,189.91859   L 380.07718,196.07855   L 377.5172,195.67855   L 377.5172,198.23853   L 377.5172,198.23853   C 377.5172,198.63853 377.6772,198.95853 378.1572,199.19852   L 409.19697,217.11839   C 409.67697,217.35839 410.31696,217.51839 411.03696,217.43839   L 414.07693,191.03858   z " style="fill:#4067b1;fill-rule:nonzero;fill-opacity:1;stroke:none;"/><path id="path79" d="  M 378.71719,195.83855   L 377.5172,195.67855   L 377.5172,198.23853   L 377.5172,198.23853   C 377.5172,198.63853 377.6772,198.95853 378.1572,199.19852   L 378.71719,199.51852   L 378.71719,195.83855   z " style="fill:#5f92d3;fill-rule:nonzero;fill-opacity:1;stroke:none;"/><path id="path81" d="  M 409.51697,217.27839   C 410.39696,217.59839 411.59695,217.51839 412.47694,217.11839   L 412.47694,212.71842   L 409.51697,212.71842   L 409.51697,217.27839   z " style="fill:#2e4b8d;fill-rule:nonzero;fill-opacity:1;stroke:none;"/><path id="path83" d="  M 409.19697,214.55841   L 378.1572,196.63854   C 377.27721,196.07855 377.3572,195.19855 378.3972,194.63856   L 399.51704,182.39865   C 400.55703,181.83865 402.07702,181.75865 402.95702,182.23865   L 434.07678,200.23852   C 434.95678,200.71851 434.87678,201.59851 433.83679,202.1585   L 412.63694,214.39841   C 411.67695,215.03841 410.07696,215.03841 409.19697,214.55841   z " style="fill:#ffffff;fill-rule:nonzero;fill-opacity:1;stroke:none;"/><path id="path85" d="  M 408.71697,211.83843   L 382.87716,196.87854   C 382.07717,196.47854 382.23717,195.75855 383.03716,195.27855   L 394.39708,188.8786   C 395.27707,188.3986 396.55706,188.31861 397.27706,188.7986   L 423.11687,203.67849   C 423.83686,204.07849 423.75686,204.87848 422.87687,205.35848   L 411.59695,211.75843   C 410.71696,212.23843 409.43697,212.23843 408.71697,211.83843   z " style="fill:#d9effb;fill-rule:nonzero;fill-opacity:1;stroke:none;"/><path id="path87" d="  M 400.71703,181.83865   L 400.39703,183.99864   C 400.15704,185.75862 400.23704,187.67861 400.55703,189.4386   L 400.95703,191.35858   C 401.19703,192.39857 401.99702,193.27857 403.11701,193.43857   C 403.91701,193.59857 404.717,193.03857 404.797,192.15858   L 405.357,187.59861   C 405.357,187.59861 406.47699,189.1186 407.03698,189.1186   C 407.59698,189.1186 406.39699,184.47863 405.117,181.91865   C 403.83701,179.27867 400.71703,181.83865 400.71703,181.83865   z " style="fill:#fab6a9;fill-rule:nonzero;fill-opacity:1;stroke:none;"/><path id="path89" d="  M 411.27695,147.67891   L 407.99698,154.31886   C 407.19698,155.83885 406.71699,157.59883 406.55699,159.35882   L 405.117,181.91865   L 400.71703,181.83865   L 398.79705,156.47884   C 398.71705,155.67885 398.71705,154.87885 398.87705,154.07886   L 401.11703,141.19895   L 411.27695,147.67891   z " style="fill:#fab6a9;fill-rule:nonzero;fill-opacity:1;stroke:none;"/><path id="path91" d="  M 408.15698,216.3184   L 405.597,212.87842   L 378.1572,197.03854   C 377.27721,196.47854 376.55721,195.11855 376.55721,193.99856   L 376.55721,171.51873   L 375.03722,169.43874   L 376.47721,168.55875   L 376.47721,168.55875   C 376.79721,168.39875 377.11721,168.39875 377.5972,168.63875   L 408.63697,186.63862   C 409.51697,187.11861 410.23696,188.5586 410.23696,189.67859   L 410.23696,214.15841   C 410.23696,214.79841 409.99696,215.27841 409.59697,215.4384   L 408.15698,216.3184   z " style="fill:#263c7a;fill-rule:nonzero;fill-opacity:1;stroke:none;"/><path id="path93" d="  M 389.19712,203.43849   L 387.27713,202.3185   L 376.55721,183.67864   L 376.55721,171.51873   L 375.03722,169.43874   L 376.47721,168.55875   L 376.47721,168.55875   C 376.79721,168.39875 377.11721,168.39875 377.5972,168.63875   L 408.63697,186.63862   C 409.11697,186.95862 409.51697,187.43861 409.83696,187.99861   L 389.19712,203.43849   z " style="fill:#4067b1;fill-rule:nonzero;fill-opacity:1;stroke:none;"/><path id="path95" d="  M 375.67722,170.39874   L 375.03722,169.43874   L 376.47721,168.55875   L 376.47721,168.55875   C 376.79721,168.39875 377.11721,168.39875 377.5972,168.63875   L 378.0772,168.95875   L 375.67722,170.39874   z " style="fill:#5f92d3;fill-rule:nonzero;fill-opacity:1;stroke:none;"/><path id="path97" d="  M 408.95697,186.87862   C 409.59697,187.43861 410.15696,188.4786 410.23696,189.4386   L 407.19698,191.19858   L 405.75699,188.7186   L 408.95697,186.87862   z " style="fill:#2e4b8d;fill-rule:nonzero;fill-opacity:1;stroke:none;"/><path id="path99" d="  M 407.19698,187.51861   L 376.07721,169.51874   C 375.19722,169.03875 374.47723,169.51874 374.47723,170.71874   L 374.47723,195.19855   C 374.47723,196.31855 375.19722,197.67854 376.07721,198.23853   L 407.11698,216.2384   C 407.99698,216.71839 408.71697,216.1584 408.71697,215.03841   L 408.71697,190.55859   C 408.71697,189.3586 408.07698,187.99861 407.19698,187.51861   z " style="fill:#ffffff;fill-rule:nonzero;fill-opacity:1;stroke:none;"/><path id="path101" d="  M 422.47687,192.23858   L 421.91687,193.27857   C 421.35688,194.47856 420.47689,195.43855 419.35689,196.15855   L 416.23692,198.07853   C 415.27692,198.63853 414.07693,198.71853 413.11694,198.15853   L 413.03694,198.07853   C 411.99695,197.43854 411.91695,196.07855 412.71694,195.19855   L 415.99692,191.91858   C 415.99692,191.91858 414.15693,193.27857 413.67694,192.71857   C 413.27694,192.31858 415.43692,190.31859 417.03691,190.23859   C 418.6369,190.15859 420.23689,188.8786 420.23689,188.8786   L 422.47687,192.23858   z " style="fill:#fab6a9;fill-rule:nonzero;fill-opacity:1;stroke:none;"/><path id="path103" d="  M 414.23693,117.43913   C 414.23693,117.43913 402.39702,130.31903 397.67705,142.07895   C 397.67705,142.07895 401.67702,149.43889 411.59695,152.23887   C 421.51688,155.11885 414.23693,117.43913 414.23693,117.43913   z " style="fill:#7844a6;fill-rule:nonzero;fill-opacity:1;stroke:none;"/><path id="path105" d="  M 409.35697,151.51888   L 411.27695,132.95902   L 406.79699,150.31889   C 407.59698,150.71888 408.47697,151.11888 409.35697,151.51888   z " style="fill:#5a3c9f;fill-rule:nonzero;fill-opacity:1;stroke:none;"/><path id="path107" d="  M 423.11687,114.87915   L 419.91689,113.99916   C 419.91689,113.99916 421.43688,116.39914 423.67686,116.95913   C 425.91685,117.59913 426.23684,115.67914 426.23684,115.67914   L 423.11687,114.87915   z " style="fill:#ffffff;fill-rule:nonzero;fill-opacity:1;stroke:none;"/><path id="path109" d="  M 708.15475,440.07674   C 696.07484,447.11669 676.47499,447.11669 664.39508,440.07674   C 652.23517,433.11679 652.23517,421.83688 664.39508,414.79693   C 676.47499,407.83698 696.07484,407.83698 708.15475,414.79693   C 720.31466,421.83688 720.31466,433.11679 708.15475,440.07674   z " style="fill:#b8d8ed;fill-rule:nonzero;fill-opacity:1;stroke:none;"/><path id="path111" d="  M 582.87568,420.39689   L 476.31647,358.79734   C 473.1165,356.95736 473.51649,353.75738 477.19647,351.67739   L 649.11519,251.99813   C 652.71517,249.91815 658.31512,249.67815 661.4351,251.51814   L 768.07431,313.03768   C 771.27429,314.87767 770.87429,318.07764 767.19432,320.15763   L 595.27559,419.83689   C 591.59562,421.99687 586.07566,422.15687 582.87568,420.39689   z " style="fill:#b8d8ed;fill-rule:nonzero;fill-opacity:1;stroke:none;"/><path id="path281" d="  M 701.9148,236.23825   C 701.9148,236.23825 701.27481,250.79814 700.15481,260.55807   C 699.03482,270.318 675.435,253.03813 675.435,253.03813   L 675.435,241.91821   L 701.9148,236.23825   z " style="fill:#5a3c9f;fill-rule:nonzero;fill-opacity:1;stroke:none;"/><path id="path283" d="  M 689.35489,417.35691   C 689.0349,418.2369 682.95494,425.67685 676.79499,427.51683   C 674.15501,428.31683 672.39502,428.47683 671.19503,428.31683   C 670.07504,428.15683 669.35504,426.95684 669.67504,425.83685   C 670.79503,422.87687 673.75501,416.71691 681.43495,412.95694   C 691.75488,407.83698 689.35489,417.35691 689.35489,417.35691   z " style="fill:#263c7a;fill-rule:nonzero;fill-opacity:1;stroke:none;"/><path id="path285" d="  M 691.43488,420.23689   C 691.43488,420.23689 689.1149,425.59685 688.3949,430.15681   C 687.9949,432.87679 689.51489,436.47677 690.71488,438.87675   C 691.51488,440.31674 693.43486,440.63674 694.71485,439.51674   C 696.71484,437.67676 699.19482,434.55678 699.67482,430.07681   C 700.39481,422.47687 699.67482,421.11688 699.67482,421.11688   L 691.43488,420.23689   z " style="fill:#263c7a;fill-rule:nonzero;fill-opacity:1;stroke:none;"/><path id="path287" d="  M 706.15477,328.23757   C 706.15477,328.23757 706.95476,337.8375 706.15477,348.47742   C 705.35478,359.11734 702.4748,408.71697 701.9948,420.71688   C 701.9948,420.71688 702.2348,424.31686 695.19485,423.51686   C 688.2349,422.71687 688.7949,418.7169 688.7949,418.7169   C 688.7949,418.7169 678.95497,418.5569 678.63497,412.79694   C 678.31498,406.95699 668.55505,343.59745 668.55505,320.79762   L 706.15477,328.23757   z " style="fill:#fad644;fill-rule:nonzero;fill-opacity:1;stroke:none;"/><path id="path289" d="  M 671.91502,278.71794   L 666.31506,313.35768   L 661.1151,313.27768   L 661.5951,281.51791   L 671.91502,278.71794  z " style="fill:#fab6a9;fill-rule:nonzero;fill-opacity:1;stroke:none;"/><path id="path291" d="  M 674.31501,247.99816   C 674.31501,247.99816 666.71506,247.75816 663.99508,258.87808   C 661.3551,269.918 659.27512,283.7579 661.5951,284.87789   C 668.55505,288.39786 672.95502,284.31789 672.95502,284.31789   L 674.31501,247.99816   z " style="fill:#6f41a4;fill-rule:nonzero;fill-opacity:1;stroke:none;"/><path id="path293" d="  M 672.07502,248.47816   C 673.35501,247.91816 674.795,247.83816 676.15499,248.23816   C 682.71494,250.07815 707.19476,257.27809 711.27473,260.71807   C 715.9147,264.71804 704.23478,287.19787 704.39478,294.47782   C 704.55478,301.83776 705.43477,310.5577 706.07477,318.55764   C 706.71477,326.47758 707.59476,330.87755 701.03481,334.31752   C 694.47486,337.6775 683.35494,337.8375 675.035,331.51754   C 666.63506,325.11759 668.15505,320.79762 668.47505,316.15766   C 668.87505,311.51769 671.67502,291.51784 671.43503,285.83788   C 671.43503,285.83788 668.47505,283.6779 666.31506,279.99793   C 664.15508,276.23795 667.99505,269.438 669.59504,264.95804   C 671.19503,260.55807 668.71505,255.43811 669.19504,251.83813   C 669.43504,249.91815 670.63503,249.03816 672.07502,248.47816   z " style="fill:#7844a6;fill-rule:nonzero;fill-opacity:1;stroke:none;"/><path id="path295" d="  M 679.83496,256.0781   C 679.35497,260.15807 683.03494,263.91805 688.1549,264.55804   C 693.27486,265.27803 697.75483,262.47806 698.31483,258.47809   C 698.79482,254.39812 695.11485,250.63814 689.99489,249.99815   C 684.95493,249.35815 680.39496,252.07813 679.83496,256.0781   z " style="fill:#ffffff;fill-rule:nonzero;fill-opacity:1;stroke:none;"/><path id="path297" d="  M 682.47494,256.4781   C 682.15495,259.35808 684.79493,262.07806 688.3949,262.47806   C 692.07487,262.95805 695.27485,261.03807 695.67485,258.15809   C 696.07484,255.27811 693.35486,252.55813 689.75489,252.07813   C 686.15492,251.59814 682.87494,253.51812 682.47494,256.4781   z " style="fill:#fab6a9;fill-rule:nonzero;fill-opacity:1;stroke:none;"/><path id="path299" d="  M 686.15492,246.95817   C 686.15492,246.95817 690.55488,243.3582 691.43488,245.19818   C 692.31487,247.03817 693.03487,254.95811 693.03487,254.95811   L 684.23493,257.27809   L 685.51492,249.27815   C 685.51492,249.27815 683.75494,247.75816 686.15492,246.95817   z " style="fill:#fab6a9;fill-rule:nonzero;fill-opacity:1;stroke:none;"/><path id="path301" d="  M 672.39502,238.31823   C 672.79502,245.51818 679.03497,251.03814 686.23492,250.63814   C 693.51486,250.15815 699.03482,243.99819 698.55483,236.71825   C 698.15483,229.5183 691.91487,223.99834 684.71493,224.39834   C 677.43498,224.87833 671.91502,231.03829 672.39502,238.31823   z " style="fill:#fab6a9;fill-rule:nonzero;fill-opacity:1;stroke:none;"/><path id="path303" d="  M 691.99487,247.43817   C 692.07487,247.83816 692.15487,248.31816 692.23487,248.79816   C 691.35488,253.35812 684.55493,255.35811 684.55493,255.35811   L 685.51492,249.27815   C 685.51492,249.27815 684.71493,248.55816 684.95493,247.83816   C 687.67491,247.03817 691.03488,246.23818 691.99487,247.43817   z " style="fill:#eb8b8a;fill-rule:nonzero;fill-opacity:1;stroke:none;"/><path id="path305" d="  M 672.39502,238.31823   C 672.79502,245.51818 679.03497,251.03814 686.23492,250.63814   C 693.51486,250.15815 699.03482,243.99819 698.55483,236.71825   C 698.15483,229.5183 691.91487,223.99834 684.71493,224.39834   C 677.43498,224.87833 671.91502,231.03829 672.39502,238.31823   z " style="fill:#fab6a9;fill-rule:nonzero;fill-opacity:1;stroke:none;"/><path id="path307" d="  M 717.83468,293.03783   L 716.31469,328.15757   L 711.19473,328.71757   L 707.83476,297.1178   L 717.83468,293.03783  z " style="fill:#fab6a9;fill-rule:nonzero;fill-opacity:1;stroke:none;"/><path id="path309" d="  M 700.95481,290.15785   C 702.6348,282.63791 705.99477,266.07803 705.99477,266.07803   L 707.43476,282.55791   C 705.75477,287.43787 704.31478,291.91784 704.39478,294.47782   C 704.47478,298.79779 704.87478,303.59775 705.19478,308.39772   L 705.19478,308.39772   C 705.19478,308.39772 699.27482,297.5978 700.95481,290.15785   z " style="fill:#6f41a4;fill-rule:nonzero;fill-opacity:1;stroke:none;"/><path id="path311" d="  M 710.23474,259.99807   C 710.23474,259.99807 714.39471,261.59806 716.71469,274.23797   C 719.03467,286.79788 720.71466,299.43778 716.63469,301.03777   C 712.47472,302.71776 709.03475,303.91775 707.75476,300.55777   C 706.55477,297.1978 705.83477,280.95792 705.67477,275.11796   C 705.51477,269.27801 705.27478,261.19807 710.23474,259.99807   z " style="fill:#8e54b0;fill-rule:nonzero;fill-opacity:1;stroke:none;"/><path id="path313" d="  M 688.7949,418.7169   C 688.7949,418.7169 687.59491,418.7169 685.99492,418.3969   L 684.07493,341.19747   L 688.7949,418.7169   z " style="fill:#d67f1c;fill-rule:nonzero;fill-opacity:1;stroke:none;"/><path id="path315" d="  M 696.23484,377.03721   L 698.95482,373.43723   L 727.67461,356.79736   C 728.5546,356.23736 729.3546,354.87737 729.3546,353.59738   L 729.2746,330.07755   L 730.95459,327.91757   L 729.4346,327.03758   L 729.4346,327.03758   C 729.1146,326.87758 728.7146,326.87758 728.31461,327.11758   L 695.75485,345.99744   C 694.79485,346.47743 694.07486,347.91742 694.07486,349.11741   L 694.07486,374.79722   C 694.07486,375.43722 694.31486,375.91722 694.71485,376.15721   L 696.23484,377.03721   z " style="fill:#7844a6;fill-rule:nonzero;fill-opacity:1;stroke:none;"/><path id="path317" d="  M 716.0747,363.51731   L 718.15468,362.31732   L 729.3546,342.87746   L 729.2746,330.07755   L 730.95459,327.91757   L 729.4346,327.03758   L 729.4346,327.03758   C 729.1146,326.87758 728.7146,326.87758 728.31461,327.11758   L 695.75485,345.99744   C 695.27485,346.23744 694.79485,346.79743 694.47486,347.35743   L 716.0747,363.51731   z " style="fill:#c195d1;fill-rule:nonzero;fill-opacity:1;stroke:none;"/><path id="path319" d="  M 730.23459,328.87756   L 730.95459,327.91757   L 729.4346,327.03758   L 729.4346,327.03758   C 729.1146,326.87758 728.7146,326.87758 728.31461,327.11758   L 727.67461,327.43757   L 730.23459,328.87756   z " style="fill:#c195d1;fill-rule:nonzero;fill-opacity:1;stroke:none;"/><path id="path321" d="  M 695.43485,346.15744   C 694.71485,346.79743 694.15486,347.91742 694.07486,348.87742   L 697.27484,350.7174   L 698.79482,348.07742   L 695.43485,346.15744   z " style="fill:#7844a6;fill-rule:nonzero;fill-opacity:1;stroke:none;"/><path id="path323" d="  M 697.27484,346.87743   L 729.83459,327.99757   C 730.71459,327.43757 731.51458,328.07757 731.51458,329.27756   L 731.51458,354.87737   C 731.51458,356.07736 730.79459,357.51735 729.83459,358.07735   L 697.27484,376.95721   C 696.39484,377.4372 695.67485,376.87721 695.67485,375.67722   L 695.59485,350.07741   C 695.59485,348.79742 696.39484,347.35743 697.27484,346.87743   z " style="fill:#8e54b0;fill-rule:nonzero;fill-opacity:1;stroke:none;"/><path id="path325" d="  M 716.31469,327.91757   C 716.31469,327.91757 717.67468,336.07751 717.43469,338.71749   C 717.27469,341.35747 715.8347,345.67744 714.79471,345.59744   C 713.67471,345.43744 714.71471,335.03752 712.87472,336.07751   C 711.03473,337.1175 710.79473,338.87749 709.91474,338.23749   C 709.11475,337.5975 711.43473,328.63757 710.79473,324.79759   C 710.15474,320.95762 716.31469,327.91757 716.31469,327.91757   z " style="fill:#fab6a9;fill-rule:nonzero;fill-opacity:1;stroke:none;"/><path id="path327" d="  M 661.1151,313.27768   C 661.1151,313.27768 659.75511,321.51762 659.99511,324.0776   C 660.15511,326.71758 661.5951,331.03755 662.63509,330.95755   C 663.67508,330.87755 662.71509,320.39763 664.55508,321.43762   C 666.39506,322.47761 666.63506,324.3176 667.43506,323.6776   C 668.31505,323.03761 665.99507,314.07767 666.63506,310.2377   C 667.19506,306.31773 661.1151,313.27768 661.1151,313.27768   z " style="fill:#fab6a9;fill-rule:nonzero;fill-opacity:1;stroke:none;"/><path id="path329" d="  M 680.47496,238.63823   C 673.83501,241.03821 672.55502,239.59823 672.47502,239.51823   C 672.47502,239.11823 672.39502,238.71823 672.39502,238.31823   C 672.31502,236.87825 672.47502,235.43826 672.79502,234.07827   L 689.91489,231.75828   C 689.91489,231.75828 687.19491,236.23825 680.47496,238.63823   z " style="fill:#eb8b8a;fill-rule:nonzero;fill-opacity:1;stroke:none;"/><path id="path331" d="  M 671.91502,225.19833   C 673.43501,223.91834 679.03497,217.27839 689.1149,218.87838   C 695.35485,219.83837 700.63481,224.07834 701.8348,233.83827   C 702.6348,240.47822 700.15481,246.87817 695.75485,251.67814   C 695.51485,251.59814 695.27485,251.51814 695.03485,251.35814   C 692.55487,249.67815 692.23487,248.79816 692.23487,248.79816   L 691.67488,243.75819   C 691.67488,243.1182 692.23487,242.4782 692.95487,242.3982   C 693.51486,242.3982 694.15486,242.07821 694.79485,241.27821   C 696.23484,239.43823 695.59485,236.47825 692.71487,236.39825   C 691.19488,236.31825 690.55488,235.51826 690.39489,234.71826   C 690.15489,234.07827 689.51489,233.67827 688.8749,233.91827   C 685.59492,235.11826 677.51498,237.67824 672.31502,236.15825   C 665.67507,234.31826 670.39503,226.55832 671.91502,225.19833   z " style="fill:#5a3c9f;fill-rule:nonzero;fill-opacity:1;stroke:none;"/><path id="path333" d="  M 679.35497,244.55819   L 675.355,243.5182   C 675.355,243.5182 677.27498,246.47817 680.07496,247.27817   C 682.87494,248.07816 683.35494,245.67818 683.35494,245.67818   L 679.35497,244.55819   z " style="fill:#ffffff;fill-rule:nonzero;fill-opacity:1;stroke:none;"/><path id="path335" d="  M 709.43474,337.9975   L 712.87472,336.07751   L 711.59473,338.1575   L 709.91474,338.79749   L 709.43474,337.9975  z " style="fill:#c195d1;fill-rule:nonzero;fill-opacity:1;stroke:none;"/><path id="path337" d="  M 638.71527,114.47915   L 545.19596,58.319568   C 541.11599,55.919586 536.95602,55.679588 533.27605,57.279576   L 533.27605,57.279576   L 524.39612,60.559551   L 531.19607,60.559551   C 529.91607,62.719535 528.87608,65.279516 528.23609,68.239495   L 478.79645,294.87782   C 475.99647,307.75772 481.19644,322.63761 490.47637,328.23757   L 583.91567,384.39715   C 584.95567,384.95715 585.91566,385.43714 586.95565,385.75714   L 583.19568,391.3571   L 591.03562,388.63712   L 591.03562,388.63712   C 595.67559,386.63714 599.43556,381.59717 600.95555,374.39723   L 650.39518,147.75891   C 653.19516,134.959 647.9152,120.07911 638.71527,114.47915   z " style="fill:#263c7a;fill-rule:nonzero;fill-opacity:1;stroke:none;"/><path id="path339" d="  M 570.87577,390.55711   L 477.35646,334.39752   C 468.15653,328.87756 462.87657,313.91767 465.67655,301.11777   L 515.11618,74.479448   C 517.91616,61.599544 527.67609,55.759587 536.95602,61.279546   L 630.39533,117.43913   C 639.67526,122.95909 644.87522,137.91898 642.07524,150.71888   L 592.63561,377.3572   C 589.83563,390.23711 580.0757,396.15707 570.87577,390.55711   z " style="fill:#d9effb;fill-rule:nonzero;fill-opacity:1;stroke:none;"/><path id="path341" d="  M 571.03577,384.07715   L 479.75645,329.27756   C 472.5565,324.95759 468.47653,313.35768 470.63651,303.35775   L 519.83615,77.999422   C 521.99613,67.999496 529.59608,63.43953 536.79602,67.759498   L 627.99535,122.55909   C 635.19529,126.87906 639.27526,138.47897 637.11528,148.4789   L 587.99564,373.83723   C 585.83566,383.83716 578.23572,388.39712 571.03577,384.07715   z " style="fill:#ffffff;fill-rule:nonzero;fill-opacity:1;stroke:none;"/><path id="path343" d="  M 563.43583,114.63915   L 553.0359,108.6392   C 552.07591,108.0792 551.51591,106.71921 551.75591,105.59922   C 551.99591,104.47923 553.0359,103.99923 553.9959,104.55923   L 564.39582,110.55918   C 565.35581,111.11918 565.91581,112.47917 565.67581,113.59916   C 565.43581,114.79915 564.39582,115.19915 563.43583,114.63915   z " style="fill:#d9effb;fill-rule:nonzero;fill-opacity:1;stroke:none;"/><path id="path345" d="  M 588.23564,128.95904   L 572.87576,120.15911   C 571.91576,119.59911 571.35577,118.15912 571.59577,117.03913   C 571.91576,115.91914 572.87576,115.43914 573.83575,115.99914   L 589.19564,124.87907   C 590.15563,125.43907 590.71562,126.79906 590.47563,127.91905   C 590.23563,129.03904 589.19564,129.51904 588.23564,128.95904   z " style="fill:#d9effb;fill-rule:nonzero;fill-opacity:1;stroke:none;"/><path id="path347" d="  M 545.27596,163.27879   L 534.87604,157.27883   C 533.91605,156.71884 533.35605,155.35885 533.59605,154.15886   C 533.91605,153.03887 534.87604,152.55887 535.83603,153.11887   L 546.23595,159.11882   C 547.19595,159.67882 547.75594,161.03881 547.51594,162.2388   C 547.27595,163.35879 546.23595,163.83879 545.27596,163.27879   z " style="fill:#d9effb;fill-rule:nonzero;fill-opacity:1;stroke:none;"/><path id="path349" d="  M 567.4358,175.9987   L 552.07591,167.19876   C 551.11592,166.63877 550.47592,165.19878 550.79592,164.07878   C 551.03592,162.95879 552.07591,162.4788 553.0359,163.03879   L 568.39579,171.91873   C 569.35578,172.47872 569.91578,173.83871 569.59578,174.9587   C 569.35578,176.1587 568.39579,176.55869 567.4358,175.9987   z " style="fill:#d9effb;fill-rule:nonzero;fill-opacity:1;stroke:none;"/><path id="path351" d="  M 532.71605,106.79921   L 526.2361,103.03924   C 525.27611,102.47924 524.71611,101.11925 524.95611,99.91926   C 525.19611,98.799268 526.2361,98.319272 527.19609,98.879268   L 533.67605,102.63924   C 534.63604,103.19924 535.19604,104.55923 534.95604,105.75922   C 534.71604,106.87921 533.67605,107.3592 532.71605,106.79921   z " style="fill:#d9effb;fill-rule:nonzero;fill-opacity:1;stroke:none;"/><path id="path353" d="  M 552.79591,128.23905   L 532.87605,116.71914   C 531.91606,116.15914 531.35606,114.79915 531.59606,113.67916   C 531.91606,112.47917 532.87605,111.99917 533.83605,112.55917   L 553.7559,124.07908   C 554.71589,124.63908 555.27589,125.99907 555.03589,127.11906   C 554.71589,128.31905 553.7559,128.79905 552.79591,128.23905   z " style="fill:#d9effb;fill-rule:nonzero;fill-opacity:1;stroke:none;"/><path id="path355" d="  M 535.43603,137.83898   L 528.87608,134.07901   C 527.91609,133.51901 527.35609,132.15902 527.59609,131.03903   C 527.91609,129.91904 528.87608,129.43904 529.83608,129.99904   L 536.31603,133.75901   C 537.35602,134.31901 537.91602,135.67899 537.59602,136.79899   C 537.35602,137.91898 536.39603,138.39897 535.43603,137.83898   z " style="fill:#d9effb;fill-rule:nonzero;fill-opacity:1;stroke:none;"/><path id="path357" d="  M 570.71577,197.67854   L 553.3559,187.59861   C 552.39591,187.03861 551.83591,185.67862 552.07591,184.55863   C 552.39591,183.43864 553.3559,182.95864 554.31589,183.51864   L 571.67577,193.51857   C 572.63576,194.07856 573.27575,195.43855 572.95576,196.55854   C 572.71576,197.75854 571.67577,198.23853 570.71577,197.67854   z " style="fill:#d9effb;fill-rule:nonzero;fill-opacity:1;stroke:none;"/><path id="path359" d="  M 529.03608,153.91886   L 524.87611,151.51888   C 523.91612,150.95888 523.35612,149.51889 523.59612,148.3989   C 523.83612,147.27891 524.87611,146.79891 525.8361,147.35891   L 529.99607,149.75889   C 530.95607,150.31889 531.51606,151.67888 531.27606,152.79887   C 531.03607,153.99886 529.99607,154.47886 529.03608,153.91886   z " style="fill:#d9effb;fill-rule:nonzero;fill-opacity:1;stroke:none;"/><path id="path361" d="  M 526.0761,171.83873   L 520.87614,168.87875   C 519.91615,168.31875 519.35615,166.95876 519.59615,165.75877   C 519.83615,164.63878 520.87614,164.15878 521.83613,164.71878   L 527.0361,167.67876   C 527.99609,168.23875 528.55608,169.67874 528.31609,170.79873   C 527.99609,171.91873 527.0361,172.39872 526.0761,171.83873   z " style="fill:#d9effb;fill-rule:nonzero;fill-opacity:1;stroke:none;"/><path id="path363" d="  M 546.23595,183.51864   L 532.55606,175.5987   C 531.59606,175.0387 531.03607,173.67871 531.27606,172.55872   C 531.51606,171.35873 532.55606,170.87873 533.51605,171.43873   L 547.19595,179.35867   C 548.15594,179.91867 548.71594,181.27866 548.47594,182.47865   C 548.15594,183.59864 547.19595,184.07864 546.23595,183.51864   z " style="fill:#d9effb;fill-rule:nonzero;fill-opacity:1;stroke:none;"/><path id="path365" d="  M 528.71608,183.19864   L 518.87616,177.51869   C 517.91616,176.95869 517.35617,175.5987 517.59617,174.47871   C 517.83616,173.35872 518.87616,172.87872 519.83615,173.43872   L 529.67608,179.11867   C 530.63607,179.59867 531.19607,181.03866 530.95607,182.15865   C 530.63607,183.27864 529.67608,183.75864 528.71608,183.19864   z " style="fill:#d9effb;fill-rule:nonzero;fill-opacity:1;stroke:none;"/><path id="path367" d="  M 585.67566,206.31847   L 579.35571,202.6385   C 578.39572,202.0785 577.83572,200.71851 578.07572,199.59852   C 578.31572,198.39853 579.35571,197.99853 580.3157,198.55853   L 586.63565,202.1585   C 587.59565,202.7185 588.15564,204.07849 587.91565,205.27848   C 587.59565,206.39847 586.63565,206.87847 585.67566,206.31847   z " style="fill:#d9effb;fill-rule:nonzero;fill-opacity:1;stroke:none;"/><path id="path369" d="  M 559.59585,151.83888   L 542.23598,141.83895   C 541.27599,141.27895 540.71599,139.83896 540.95599,138.71897   C 541.19599,137.59898 542.23598,137.11898 543.19598,137.67898   L 560.55585,147.67891   C 561.51584,148.2389 562.07584,149.59889 561.83584,150.79888   C 561.51584,151.91887 560.55585,152.39887 559.59585,151.83888   z " style="fill:#d9effb;fill-rule:nonzero;fill-opacity:1;stroke:none;"/><path id="path371" d="  M 561.19584,142.87894   L 530.87607,125.43907   C 529.91607,124.87907 529.35608,123.51909 529.59608,122.31909   C 529.91607,121.1991 530.87607,120.71911 531.83606,121.2791   L 562.15584,138.71897   C 563.11583,139.27897 563.67582,140.71896 563.43583,141.83895   C 563.11583,142.95894 562.15584,143.43894 561.19584,142.87894   z " style="fill:#d9effb;fill-rule:nonzero;fill-opacity:1;stroke:none;"/><path id="path373" d="  M 544.23597,152.79887   L 526.8761,142.79894   C 525.9161,142.23895 525.35611,140.87896 525.59611,139.67897   C 525.9161,138.55897 526.8761,138.07898 527.83609,138.63897   L 545.19596,148.7189   C 546.15595,149.27889 546.71595,150.63888 546.47595,151.75888   C 546.23595,152.87887 545.19596,153.35886 544.23597,152.79887   z " style="fill:#d9effb;fill-rule:nonzero;fill-opacity:1;stroke:none;"/><path id="path375" d="  M 572.79576,159.43882   L 566.4758,155.83885   C 565.51581,155.27885 564.95582,153.83886 565.19581,152.71887   C 565.43581,151.59888 566.4758,151.11888 567.4358,151.67888   L 573.75575,155.27885   C 574.71574,155.83885 575.27574,157.19884 574.95574,158.39883   C 574.71574,159.51882 573.75575,159.99881 572.79576,159.43882   z " style="fill:#d9effb;fill-rule:nonzero;fill-opacity:1;stroke:none;"/><path id="path377" d="  M 619.91541,146.15892   L 613.59545,142.47894   C 612.63546,141.91895 612.07547,140.55896 612.31546,139.35897   C 612.55546,138.23898 613.59545,137.75898 614.55545,138.31898   L 620.8754,141.99895   C 621.83539,142.55894 622.39539,143.91893 622.15539,145.03893   C 621.83539,146.23892 620.8754,146.71891 619.91541,146.15892   z " style="fill:#d9effb;fill-rule:nonzero;fill-opacity:1;stroke:none;"/><path id="path379" d="  M 543.75597,172.23872   L 522.87613,160.15881   C 521.91613,159.59882 521.35614,158.23883 521.59614,157.11884   C 521.83613,155.91885 522.87613,155.43885 523.83612,155.99884   L 544.71597,168.07875   C 545.67596,168.63875 546.23595,169.99874 545.99596,171.19873   C 545.75596,172.31872 544.71597,172.79872 543.75597,172.23872   z " style="fill:#d9effb;fill-rule:nonzero;fill-opacity:1;stroke:none;"/><path id="path381" d="  M 543.59597,103.19924   L 528.23609,94.319301   C 527.27609,93.759305 526.7161,92.399316 526.9561,91.279324   C 527.19609,90.159332 528.23609,89.679336 529.19608,90.239332   L 544.55597,99.039266   C 545.51596,99.599262 546.07595,101.03925 545.83596,102.15924   C 545.51596,103.27923 544.55597,103.75923 543.59597,103.19924   z " style="fill:#d9effb;fill-rule:nonzero;fill-opacity:1;stroke:none;"/><path id="path383" d="  M 525.9961,191.51858   L 508.15624,181.19866   C 507.19624,180.63866 506.63625,179.27867 506.87625,178.15868   C 507.19624,177.03869 508.15624,176.55869 509.11623,177.11869   L 526.8761,187.35861   C 527.91609,187.91861 528.47609,189.2786 528.15609,190.39859   C 527.91609,191.59858 526.9561,192.07858 525.9961,191.51858   z " style="fill:#d9effb;fill-rule:nonzero;fill-opacity:1;stroke:none;"/><path id="path385" d="  M 536.63602,248.15816   L 526.2361,242.15821   C 525.27611,241.59821 524.63611,240.23822 524.95611,239.11823   C 525.19611,237.91824 526.2361,237.43824 527.19609,237.99824   L 537.59602,244.07819   C 538.55601,244.63819 539.11601,245.99818 538.87601,247.11817   C 538.55601,248.23816 537.59602,248.71816 536.63602,248.15816   z " style="fill:#d9effb;fill-rule:nonzero;fill-opacity:1;stroke:none;"/><path id="path387" d="  M 561.43584,262.47806   L 546.07595,253.67812   C 545.11596,253.11813 544.55597,251.67814 544.79596,250.55814   C 545.03596,249.43815 546.07595,248.95816 547.03595,249.51815   L 562.39583,258.39809   C 563.35583,258.95808 563.91582,260.31807 563.67582,261.43806   C 563.35583,262.55806 562.39583,263.03805 561.43584,262.47806   z " style="fill:#d9effb;fill-rule:nonzero;fill-opacity:1;stroke:none;"/><path id="path389" d="  M 518.47616,296.7978   L 508.07624,290.79785   C 507.11624,290.23785 506.55625,288.87786 506.79625,287.67787   C 507.03624,286.55788 508.07624,286.07788 509.03623,286.63788   L 519.43615,292.63783   C 520.39615,293.19783 520.95614,294.55782 520.71614,295.75781   C 520.39615,296.8778 519.43615,297.3578 518.47616,296.7978   z " style="fill:#d9effb;fill-rule:nonzero;fill-opacity:1;stroke:none;"/><path id="path391" d="  M 540.556,309.51771   L 525.19611,300.71777   C 524.23612,300.15778 523.67612,298.71779 523.99612,297.5978   C 524.23612,296.4778 525.19611,295.99781 526.1561,296.5578   L 541.51599,305.43774   C 542.47598,305.99773 543.03598,307.35772 542.79598,308.47771   C 542.55598,309.59771 541.51599,310.0777 540.556,309.51771   z " style="fill:#d9effb;fill-rule:nonzero;fill-opacity:1;stroke:none;"/><path id="path393" d="  M 505.91625,240.31822   L 499.4363,236.55825   C 498.47631,235.99825 497.83631,234.63826 498.15631,233.43827   C 498.39631,232.31828 499.3563,231.83828 500.39629,232.39828   L 506.87625,236.15825   C 507.83624,236.71825 508.39623,238.07824 508.15624,239.27823   C 507.83624,240.39822 506.87625,240.87822 505.91625,240.31822   z " style="fill:#d9effb;fill-rule:nonzero;fill-opacity:1;stroke:none;"/><path id="path395" d="  M 525.9161,261.75806   L 506.07625,250.23815   C 505.11626,249.67815 504.55626,248.31816 504.79626,247.19817   C 505.03626,245.99818 506.07625,245.51818 507.03624,246.07818   L 526.8761,257.59809   C 527.83609,258.15809 528.47609,259.51808 528.15609,260.63807   C 527.91609,261.83806 526.9561,262.31806 525.9161,261.75806   z " style="fill:#d9effb;fill-rule:nonzero;fill-opacity:1;stroke:none;"/><path id="path397" d="  M 508.55623,271.35799   L 502.07628,267.59802   C 501.11629,267.03802 500.55629,265.67803 500.79629,264.55804   C 501.03629,263.43805 502.07628,262.95805 503.03627,263.51805   L 509.51623,267.19802   C 510.47622,267.75802 511.03621,269.19801 510.79622,270.318   C 510.55622,271.43799 509.51623,271.91799 508.55623,271.35799   z " style="fill:#d9effb;fill-rule:nonzero;fill-opacity:1;stroke:none;"/><path id="path399" d="  M 543.91597,331.19755   L 526.5561,321.11762   C 525.59611,320.55763 525.03611,319.19764 525.27611,318.07764   C 525.51611,316.95765 526.5561,316.47766 527.51609,317.03765   L 544.87596,327.03758   C 545.83596,327.59757 546.39595,328.95756 546.15595,330.07755   C 545.91596,331.27755 544.87596,331.75754 543.91597,331.19755   z " style="fill:#d9effb;fill-rule:nonzero;fill-opacity:1;stroke:none;"/><path id="path401" d="  M 502.23628,287.43787   L 498.07631,285.03789   C 497.11632,284.47789 496.55632,283.0379 496.79632,281.91791   C 497.03632,280.79792 498.07631,280.31792 499.0363,280.87792   L 503.19627,283.2779   C 504.15627,283.8379 504.71626,285.19789 504.47626,286.31788   C 504.23626,287.51787 503.19627,287.99787 502.23628,287.43787   z " style="fill:#d9effb;fill-rule:nonzero;fill-opacity:1;stroke:none;"/><path id="path403" d="  M 499.1963,305.35774   L 494.07634,302.39776   C 493.11635,301.83776 492.47635,300.47777 492.79635,299.27778   C 493.03635,298.15779 494.07634,297.67779 495.03633,298.23779   L 500.1563,301.19777   C 501.11629,301.75776 501.75628,303.19775 501.43629,304.31775   C 501.19629,305.43774 500.23629,305.91773 499.1963,305.35774   z " style="fill:#d9effb;fill-rule:nonzero;fill-opacity:1;stroke:none;"/><path id="path405" d="  M 519.43615,317.03765   L 505.75625,309.11771   C 504.79626,308.55771 504.23626,307.19772 504.47626,306.07773   C 504.71626,304.87774 505.75625,304.39775 506.71625,304.95774   L 520.39615,312.87768   C 521.35614,313.43768 521.91613,314.79767 521.59614,315.91766   C 521.35614,317.11765 520.39615,317.59765 519.43615,317.03765   z " style="fill:#d9effb;fill-rule:nonzero;fill-opacity:1;stroke:none;"/><path id="path407" d="  M 501.83628,316.71765   L 492.07635,311.0377   C 491.11636,310.4777 490.47637,309.11771 490.79636,307.99772   C 491.03636,306.87773 491.99636,306.39773 493.03635,306.95773   L 502.79628,312.55768   C 503.75627,313.11768 504.39626,314.55767 504.07627,315.67766   C 503.83627,316.79765 502.87627,317.27765 501.83628,316.71765   z " style="fill:#d9effb;fill-rule:nonzero;fill-opacity:1;stroke:none;"/><path id="path409" d="  M 558.79586,339.83748   L 552.55591,336.15751   C 551.51591,335.59751 550.95592,334.23752 551.27592,333.11753   C 551.51591,331.91754 552.47591,331.43754 553.4359,331.99754   L 559.75585,335.67751   C 560.71585,336.23751 561.35584,337.5975 561.03584,338.79749   C 560.79585,339.91748 559.75585,340.39748 558.79586,339.83748   z " style="fill:#d9effb;fill-rule:nonzero;fill-opacity:1;stroke:none;"/><path id="path411" d="  M 532.79605,285.35789   L 515.35618,275.35796   C 514.39619,274.79796 513.83619,273.35798 514.15619,272.23798   C 514.39619,271.11799 515.35618,270.638 516.31618,271.19799   L 533.75605,281.19792   C 534.71604,281.75791 535.27603,283.1179 534.95604,284.31789   C 534.71604,285.43789 533.75605,285.91788 532.79605,285.35789   z " style="fill:#d9effb;fill-rule:nonzero;fill-opacity:1;stroke:none;"/><path id="path413" d="  M 534.31604,276.39795   L 504.07627,258.95808   C 503.11627,258.39809 502.55628,257.0381 502.79628,255.8381   C 503.03627,254.71811 504.07627,254.23812 505.03626,254.79811   L 535.27603,272.23798   C 536.23603,272.79798 536.87602,274.23797 536.55603,275.35796   C 536.31603,276.47795 535.35603,276.95795 534.31604,276.39795   z " style="fill:#d9effb;fill-rule:nonzero;fill-opacity:1;stroke:none;"/><path id="path415" d="  M 517.43617,286.31788   L 500.0763,276.31795   C 499.1163,275.75796 498.55631,274.39797 498.79631,273.19798   C 499.0363,272.07798 500.0763,271.59799 501.03629,272.15798   L 518.39616,282.23791   C 519.35615,282.71791 519.91615,284.1579 519.67615,285.27789   C 519.43615,286.39788 518.39616,286.87787 517.43617,286.31788   z " style="fill:#d9effb;fill-rule:nonzero;fill-opacity:1;stroke:none;"/><path id="path417" d="  M 545.91596,292.95783   L 539.596,289.27786   C 538.63601,288.71786 538.07601,287.35787 538.39601,286.23788   C 538.63601,285.11789 539.596,284.63789 540.556,285.19789   L 546.87595,288.79786   C 547.83594,289.35786 548.39594,290.71785 548.15594,291.91784   C 547.91594,293.03783 546.87595,293.51783 545.91596,292.95783   z " style="fill:#d9effb;fill-rule:nonzero;fill-opacity:1;stroke:none;"/><path id="path419" d="  M 516.95617,305.75774   L 496.07633,293.67782   C 495.11633,293.11783 494.55634,291.75784 494.79633,290.63785   C 495.03633,289.43786 496.07633,288.95786 497.03632,289.51786   L 517.91616,301.59777   C 518.87616,302.15776 519.43615,303.51775 519.19615,304.71774   C 518.87616,305.83773 517.91616,306.31773 516.95617,305.75774   z " style="fill:#d9effb;fill-rule:nonzero;fill-opacity:1;stroke:none;"/><path id="path421" d="  M 516.79617,236.71825   L 501.43629,227.83831   C 500.47629,227.27832 499.8363,225.91833 500.1563,224.79833   C 500.39629,223.59834 501.43629,223.19835 502.39628,223.67834   L 517.75616,232.55828   C 518.71616,233.11827 519.27615,234.55826 518.95616,235.67825   C 518.71616,236.79825 517.75616,237.27824 516.79617,236.71825   z " style="fill:#d9effb;fill-rule:nonzero;fill-opacity:1;stroke:none;"/><path id="path423" d="  M 499.1163,325.03759   L 481.35643,314.71767   C 480.39644,314.15767 479.83645,312.79768 480.07644,311.67769   C 480.31644,310.4777 481.35643,309.9977 482.31643,310.5577   L 500.0763,320.87762   C 501.03629,321.43762 501.59628,322.79761 501.35629,323.9176   C 501.11629,325.11759 500.0763,325.59759 499.1163,325.03759   z " style="fill:#d9effb;fill-rule:nonzero;fill-opacity:1;stroke:none;"/><path id="path425" d="  M 592.95561,260.23807   L 606.79551,202.4785   L 582.55568,185.11863   C 570.31578,176.31869 557.59587,168.95875 544.63597,163.19879   L 519.03616,151.83888   L 505.19626,209.51845   C 505.19626,209.51845 493.75634,251.03814 533.59605,299.83778   C 584.23567,303.27775 592.95561,260.23807 592.95561,260.23807   z " style="fill:#b8d8ed;fill-rule:nonzero;fill-opacity:1;stroke:none;"/><path id="path427" d="  M 561.19584,133.59901   C 546.79595,123.27909 531.91606,114.63915 516.63617,107.8392   L 486.4764,94.4793   L 476.87647,98.239272   C 476.87647,98.239272 481.11644,100.47926 484.63641,102.39924   L 470.31652,162.3188   C 470.31652,162.3188 456.79662,211.11844 503.67627,268.47801   C 512.6362,269.03801 520.47614,268.39801 527.35609,266.95802   C 527.19609,267.51802 527.1161,267.83802 527.1161,267.83802   L 535.83603,264.47804   C 536.63602,264.15804 537.43602,263.83805 538.23601,263.51805   L 538.39601,263.43805   L 538.39601,263.43805   C 567.5158,251.27814 573.43575,221.91836 573.43575,221.91836   L 589.67563,153.99886   L 561.19584,133.59901   z " style="fill:#623da1;fill-rule:nonzero;fill-opacity:1;stroke:none;"/><path id="path429" d="  M 516.63617,107.8392   L 486.4764,94.4793   L 476.87647,98.239272   C 476.87647,98.239272 481.11644,100.47926 484.63641,102.39924   L 479.43645,124.15908   L 533.19605,159.11882   L 579.9957,157.75883   L 589.67563,153.99886   L 561.19584,133.59901   C 546.79595,123.27909 531.91606,114.63915 516.63617,107.8392   z " style="fill:#623da1;fill-rule:nonzero;fill-opacity:1;stroke:none;"/><path id="path431" d="  M 530.87607,123.91908   L 540.636,120.23911   C 532.71605,115.59914 524.71611,111.43917 516.63617,107.8392   L 486.4764,94.4793   L 476.87647,98.239272   C 476.87647,98.239272 481.11644,100.47926 484.63641,102.39924   L 484.31641,103.67923   C 503.11627,111.91917 530.87607,123.91908 530.87607,123.91908   z " style="fill:#8e54b0;fill-rule:nonzero;fill-opacity:1;stroke:none;"/><path id="path433" d="  M 532.95605,115.91914   L 514.87619,122.63909   L 529.99607,131.43903   L 547.99594,124.71908   C 543.03598,121.5991 537.99601,118.63912 532.95605,115.91914   z " style="fill:#683fa2;fill-rule:nonzero;fill-opacity:1;stroke:none;"/><path id="path435" d="  M 563.83582,225.67833   L 579.9957,157.75883   L 551.51591,137.35898   C 537.19602,127.03906 522.23613,118.39912 507.03624,111.67917   L 476.87647,98.239272   L 460.63659,166.07877   C 460.63659,166.07877 447.11669,214.87841 493.99634,272.23798   C 553.5159,276.31795 563.83582,225.67833 563.83582,225.67833   z " style="fill:#7844a6;fill-rule:nonzero;fill-opacity:1;stroke:none;"/><path id="path437" d="  M 497.75631,264.87804   C 476.55647,237.99824 469.51652,213.51842 467.35654,197.51854   C 464.95656,179.67867 467.91653,168.15875 467.91653,168.07875   L 482.07643,108.79919   L 503.91627,118.55912   C 518.63616,125.11907 533.19605,133.51901 547.11595,143.51894   L 571.51577,160.95881   L 556.47588,223.91834   L 556.39588,224.15834   C 556.39588,224.23834 553.9959,235.27826 545.35596,245.67818   C 534.31604,259.11808 518.31616,265.51803 497.75631,264.87804   z " style="fill:#623da1;fill-rule:nonzero;fill-opacity:1;stroke:none;"/><path id="path439" d="  M 505.11626,138.55897   C 504.63626,139.99896 505.27626,141.75895 506.55625,142.47894   C 507.83624,143.19894 509.19623,142.63894 509.67622,141.19895   C 510.15622,139.75896 509.51623,137.99898 508.31623,137.19898   C 507.03624,136.47899 505.59625,137.11898 505.11626,138.55897   z " style="fill:#ee1696;fill-rule:nonzero;fill-opacity:1;stroke:none;"/><path id="path441" d="  M 497.75631,134.31901   C 497.35632,135.75899 497.91631,137.51898 499.1963,138.23898   C 500.47629,138.95897 501.91628,138.39897 502.39628,136.95899   C 502.79628,135.519 502.15628,133.75901 500.95629,132.95902   C 499.6763,132.23902 498.23631,132.87902 497.75631,134.31901   z " style="fill:#ee1696;fill-rule:nonzero;fill-opacity:1;stroke:none;"/><path id="path443" d="  M 490.47637,130.07904   C 489.99637,131.51903 490.63637,133.27901 491.83636,133.99901   C 493.11635,134.719 494.55634,134.15901 495.03633,132.71902   C 495.51633,131.27903 494.87633,129.51904 493.59634,128.71905   C 492.31635,127.99905 490.95636,128.63905 490.47637,130.07904   z " style="fill:#ee1696;fill-rule:nonzero;fill-opacity:1;stroke:none;"/><path id="path445" d="  M 428.71682,390.55711   C 425.11685,392.63709 419.27689,392.63709 415.67692,390.55711   C 411.99695,388.47712 411.99695,385.11715 415.67692,382.95716   C 419.27689,380.87718 425.11685,380.87718 428.71682,382.95716   C 432.3968,385.11715 432.3968,388.47712 428.71682,390.55711   z  M 455.11663,375.59722   C 441.03673,367.43728 418.2369,367.43728 404.15701,375.59722   C 390.07711,383.67716 390.07711,396.87706 404.15701,405.037   C 418.2369,413.11694 441.03673,413.11694 455.11663,405.037   C 469.19652,396.87706 469.19652,383.67716 455.11663,375.59722   z " style="fill:#b8d8ed;fill-rule:nonzero;fill-opacity:1;stroke:none;"/><path id="path447" d="  M 462.71657,398.47705   C 460.87659,400.31703 458.5566,402.07702 455.75662,403.67701   C 452.95664,405.277 449.91667,406.63699 446.71669,407.75698   L 453.59664,411.67695   L 463.99656,412.23695   L 469.11653,415.19692   L 467.03654,416.39692   L 470.87651,418.6369   L 475.11648,416.23692   L 481.91643,420.15689   L 475.03648,424.07686   L 480.07644,427.03684   L 484.95641,429.83682   L 491.03636,426.31684   L 499.9963,431.5168   L 496.55632,433.51679   L 502.31628,436.79676   L 505.75625,434.87678   L 508.47623,436.39677   L 505.75625,441.83673   L 514.47619,446.87669   L 546.55595,446.87669   L 462.71657,398.47705   z " style="fill:#b8d8ed;fill-rule:nonzero;fill-opacity:1;stroke:none;"/><path id="path449" d="  M 428.63682,381.03718   C 425.03685,383.19716 419.1169,383.19716 415.51692,381.03718   C 411.91695,378.95719 411.91695,375.59722 415.51692,373.51723   C 419.1169,371.43725 425.03685,371.43725 428.63682,373.51723   C 432.2368,375.59722 432.2368,378.95719 428.63682,381.03718   z  M 465.67655,387.43713   L 465.67655,377.6772   L 462.79657,379.27719   C 461.03658,376.87721 458.4766,374.63722 455.11663,372.71724   C 441.03673,364.5573 418.2369,364.5573 404.15701,372.71724   C 400.23704,374.95722 397.43706,377.5972 395.67707,380.39718   L 393.59708,377.6772   L 393.59708,387.43713   C 393.59708,392.71709 397.11706,398.07705 404.15701,402.15702   C 418.2369,410.31696 441.03673,410.31696 455.11663,402.15702   C 462.15658,398.07705 465.67655,392.71709 465.67655,387.43713  " style="fill:#e59c13;fill-rule:nonzero;fill-opacity:1;stroke:none;"/><path id="path451" d="  M 426.63684,395.11707   L 411.03696,387.43713   L 397.19706,378.3172   C 396.63706,379.03719 396.15707,379.67719 395.67707,380.39718   L 393.59708,377.6772   L 393.59708,387.43713   C 393.59708,392.71709 397.11706,398.07705 404.15701,402.15702   C 410.39696,405.75699 418.3969,407.75698 426.63684,408.15698   L 426.63684,395.11707   z " style="fill:#fad644;fill-rule:nonzero;fill-opacity:1;stroke:none;"/><path id="path453" d="  M 428.71682,377.9172   C 425.11685,380.07718 419.27689,380.07718 415.67692,377.9172   C 411.99695,375.83722 411.99695,372.47724 415.67692,370.39726   C 419.27689,368.31727 425.11685,368.31727 428.71682,370.39726   C 432.3968,372.47724 432.3968,375.83722 428.71682,377.9172   z  M 455.11663,362.95731   C 441.03673,354.79737 418.2369,354.79737 404.15701,362.95731   C 390.07711,371.11725 390.07711,384.23715 404.15701,392.39709   C 418.2369,400.55703 441.03673,400.55703 455.11663,392.39709   C 469.19652,384.23715 469.19652,371.11725 455.11663,362.95731   z " style="fill:#fad644;fill-rule:nonzero;fill-opacity:1;stroke:none;"/><path id="path455" d="  M 428.63682,381.03718   C 425.03685,383.19716 419.1169,383.19716 415.51692,381.03718   C 411.91695,378.95719 411.91695,375.59722 415.51692,373.51723   C 419.1169,371.43725 425.03685,371.43725 428.63682,373.51723   C 432.2368,375.59722 432.2368,378.95719 428.63682,381.03718   z  M 435.83677,368.07727   L 416.23692,368.07727   C 414.47693,368.47727 412.71694,369.03727 411.03696,369.59726   L 411.03696,386.15714   L 435.83677,386.15714   L 435.83677,368.07727  " style="fill:#e59c13;fill-rule:nonzero;fill-opacity:1;stroke:none;"/><path id="path457" d="  M 428.71682,377.9172   C 425.11685,380.07718 419.27689,380.07718 415.67692,377.9172   C 411.99695,375.83722 411.99695,372.47724 415.67692,370.39726   C 419.27689,368.31727 425.11685,368.31727 428.71682,370.39726   C 432.3968,372.47724 432.3968,375.83722 428.71682,377.9172   z  M 452.07665,364.7173   C 439.67674,357.51735 419.59689,357.51735 407.19698,364.7173   C 394.71708,371.83725 394.71708,383.51716 407.19698,390.63711   C 419.59689,397.83705 439.67674,397.83705 452.07665,390.63711   C 464.47656,383.51716 464.47656,371.83725 452.07665,364.7173  " style="fill:#efae15;fill-rule:nonzero;fill-opacity:1;stroke:none;"/><path id="path459" d="  M 407.19698,367.35728   C 419.59689,360.23733 439.67674,360.23733 452.07665,367.35728   C 457.67661,370.63725 460.79659,374.79722 461.27658,379.03719   C 461.99658,373.91723 458.8766,368.63727 452.07665,364.7173   C 439.67674,357.51735 419.59689,357.51735 407.19698,364.7173   C 400.39703,368.63727 397.27706,373.91723 397.91705,379.03719   C 398.47705,374.79722 401.51703,370.63725 407.19698,367.35728   z " style="fill:#e59c13;fill-rule:nonzero;fill-opacity:1;stroke:none;"/><path id="path461" d="  M 462.71657,395.51707   C 460.87659,397.43706 458.5566,399.19704 455.75662,400.79703   C 452.95664,402.39702 449.91667,403.75701 446.71669,404.797   L 453.59664,408.79697   L 463.99656,409.35697   L 469.11653,412.31695   L 467.03654,413.51694   L 470.87651,415.75692   L 475.11648,413.35694   L 481.91643,417.27691   L 475.03648,421.19688   L 480.07644,424.07686   L 484.95641,426.87684   L 491.03636,423.43686   L 499.9963,428.55683   L 496.55632,430.55681   L 502.31628,433.91679   L 505.75625,431.9168   L 508.47623,433.51679   L 505.75625,438.95675   L 514.47619,443.99671   L 546.55595,443.99671   L 462.71657,395.51707   z " style="fill:#efae15;fill-rule:nonzero;fill-opacity:1;stroke:none;"/><path id="path463" d="  M 462.71657,388.47712   C 460.87659,390.39711 458.5566,392.1571 455.75662,393.75708   C 452.95664,395.35707 449.91667,396.71706 446.71669,397.75705   L 453.59664,401.75702   L 463.99656,402.31702   L 469.11653,405.277   L 467.03654,406.47699   L 470.87651,408.71697   L 475.11648,406.31699   L 481.91643,410.23696   L 475.03648,414.15693   L 480.07644,417.03691   L 484.95641,419.83689   L 491.03636,416.39692   L 499.9963,421.51688   L 496.55632,423.51686   L 502.31628,426.87684   L 505.75625,424.87685   L 508.47623,426.47684   L 505.75625,431.8368   L 514.47619,436.95676   L 546.55595,436.95676   L 462.71657,388.47712   z " style="fill:#fad644;fill-rule:nonzero;fill-opacity:1;stroke:none;"/><path id="path465" d="  M 546.55595,443.99671   L 546.55595,436.95676   L 514.47619,436.95676   L 514.47619,443.99671   L 546.55595,443.99671  z " style="fill:#e59c13;fill-rule:nonzero;fill-opacity:1;stroke:none;"/><path id="path467" d="  M 502.31628,433.91679   L 502.31628,426.87684   L 505.75625,424.87685   L 505.75625,431.9168   L 502.31628,433.91679  z " style="fill:#e59c13;fill-rule:nonzero;fill-opacity:1;stroke:none;"/><path id="path469" d="  M 496.55632,423.51686   L 496.55632,430.55681   L 502.31628,433.91679   L 502.31628,426.87684   L 496.55632,423.51686  z " style="fill:#eaa710;fill-rule:nonzero;fill-opacity:1;stroke:none;"/><path id="path471" d="  M 491.03636,416.39692   L 491.03636,423.43686   L 484.95641,426.87684   L 484.95641,419.83689   L 491.03636,416.39692  z " style="fill:#e59c13;fill-rule:nonzero;fill-opacity:1;stroke:none;"/><path id="path473" d="  M 475.03648,414.15693   L 475.03648,421.19688   L 484.95641,426.87684   L 484.95641,419.83689   L 475.03648,414.15693  z " style="fill:#eaa710;fill-rule:nonzero;fill-opacity:1;stroke:none;"/><path id="path475" d="  M 505.75625,431.9168   L 505.75625,438.95675   L 514.47619,443.99671   L 514.47619,436.95676   L 505.75625,431.9168  z " style="fill:#eaa710;fill-rule:nonzero;fill-opacity:1;stroke:none;"/><path id="path477" d="  M 470.87651,408.71697   L 470.87651,415.75692   L 467.03654,413.51694   L 467.03654,406.47699   L 470.87651,408.71697  z " style="fill:#eaa710;fill-rule:nonzero;fill-opacity:1;stroke:none;"/><path id="path479" d="  M 453.59664,401.75702   L 453.59664,408.79697   L 463.99656,409.35697   L 463.99656,402.31702   L 453.59664,401.75702  z " style="fill:#e59c13;fill-rule:nonzero;fill-opacity:1;stroke:none;"/><path id="path481" d="  M 524.63611,431.9168   L 463.27657,396.47706   L 466.71654,394.47708   L 531.43606,431.9168   L 524.63611,431.9168  z " style="fill:#e59c13;fill-rule:nonzero;fill-opacity:1;stroke:none;"/><path id="path483" d="  M 466.71654,396.15707   L 528.55608,431.9168   L 531.43606,431.9168   L 466.71654,394.47708   L 463.27657,396.47706   L 464.79656,397.27706   L 466.71654,396.15707  z " style="fill:#efae15;fill-rule:nonzero;fill-opacity:1;stroke:none;"/><path id="path485" d="  M 453.59664,408.79697   L 453.59664,401.75702   L 446.71669,397.75705   L 446.71669,404.797   L 453.59664,408.79697  z " style="fill:#e59c13;fill-rule:nonzero;fill-opacity:1;stroke:none;"/><path id="path487" d="  M 475.11648,406.31699   L 475.11648,413.35694   L 470.87651,415.75692   L 470.87651,408.71697   L 475.11648,406.31699  z " style="fill:#e59c13;fill-rule:nonzero;fill-opacity:1;stroke:none;"/><path id="path489" d="  M 452.07665,364.7173   C 445.1167,360.63733 435.67677,358.87734 426.63684,359.43734   L 426.63684,362.07732   C 435.67677,361.59732 445.1167,363.35731 452.07665,367.35728   C 457.67661,370.63725 460.79659,374.79722 461.27658,379.03719   C 461.99658,373.91723 458.8766,368.63727 452.07665,364.7173   z " style="fill:#fad644;fill-rule:nonzero;fill-opacity:1;stroke:none;"/></g></svg>